G04 #@! TF.GenerationSoftware,KiCad,Pcbnew,(5.1.0)-1*
G04 #@! TF.CreationDate,2019-03-20T22:54:13+09:00*
G04 #@! TF.ProjectId,I2C_color_sensor_v2,4932435f-636f-46c6-9f72-5f73656e736f,rev?*
G04 #@! TF.SameCoordinates,Original*
G04 #@! TF.FileFunction,Soldermask,Top*
G04 #@! TF.FilePolarity,Negative*
%FSLAX46Y46*%
G04 Gerber Fmt 4.6, Leading zero omitted, Abs format (unit mm)*
G04 Created by KiCad (PCBNEW (5.1.0)-1) date 2019-03-20 22:54:13*
%MOMM*%
%LPD*%
G04 APERTURE LIST*
%ADD10R,1.100000X3.400000*%
%ADD11R,6.100000X2.700000*%
%ADD12R,4.400000X1.162000*%
%ADD13C,2.150000*%
%ADD14R,2.150000X2.150000*%
%ADD15R,2.000000X2.400000*%
%ADD16R,1.300000X2.100000*%
%ADD17R,1.370000X1.670000*%
G04 APERTURE END LIST*
D10*
X132620000Y-88788000D03*
X133890000Y-88788000D03*
X135160000Y-88788000D03*
X136430000Y-88788000D03*
X137700000Y-88788000D03*
D11*
X135160000Y-78738000D03*
D12*
X133858000Y-94742000D03*
X133858000Y-96012000D03*
X133858000Y-97282000D03*
X133858000Y-98552000D03*
X133858000Y-99822000D03*
X133858000Y-101092000D03*
X133858000Y-102362000D03*
X133858000Y-103632000D03*
X133858000Y-104902000D03*
X133858000Y-106172000D03*
X133858000Y-107442000D03*
X133858000Y-108839000D03*
X141478000Y-94742000D03*
X141478000Y-96012000D03*
X141478000Y-97282000D03*
X141478000Y-98552000D03*
X141478000Y-99822000D03*
X141478000Y-101092000D03*
X141478000Y-102362000D03*
X141478000Y-103632000D03*
X141478000Y-104902000D03*
X141478000Y-106172000D03*
X141478000Y-107442000D03*
X141478000Y-108712000D03*
D13*
X133375000Y-116380000D03*
X135875000Y-116380000D03*
X138375000Y-116380000D03*
D14*
X140875000Y-116380000D03*
D15*
X127540000Y-83265000D03*
X127540000Y-87265000D03*
X130080000Y-83265000D03*
X130080000Y-87265000D03*
D16*
X142325000Y-91694000D03*
X139425000Y-91694000D03*
X139425000Y-89154000D03*
X142325000Y-89154000D03*
X135340000Y-92885000D03*
X132440000Y-92885000D03*
D17*
X126995000Y-95123000D03*
X128275000Y-95123000D03*
X126995000Y-100076000D03*
X128275000Y-100076000D03*
X128275000Y-105029000D03*
X126995000Y-105029000D03*
D16*
X125296000Y-92837000D03*
X128196000Y-92837000D03*
X128323000Y-97790000D03*
X125423000Y-97790000D03*
X125423000Y-102743000D03*
X128323000Y-102743000D03*
X154125000Y-133223000D03*
X157025000Y-133223000D03*
X157025000Y-130048000D03*
X154125000Y-130048000D03*
X154252000Y-117983000D03*
X157152000Y-117983000D03*
X157152000Y-114808000D03*
X154252000Y-114808000D03*
X154252000Y-102743000D03*
X157152000Y-102743000D03*
X157152000Y-99568000D03*
X154252000Y-99568000D03*
X154252000Y-87503000D03*
X157152000Y-87503000D03*
X157152000Y-84328000D03*
X154252000Y-84328000D03*
X154125000Y-72263000D03*
X157025000Y-72263000D03*
X157025000Y-69088000D03*
X154125000Y-69088000D03*
M02*
