G04 #@! TF.GenerationSoftware,KiCad,Pcbnew,(5.1.0)-1*
G04 #@! TF.CreationDate,2019-03-20T22:54:12+09:00*
G04 #@! TF.ProjectId,I2C_color_sensor_v2,4932435f-636f-46c6-9f72-5f73656e736f,rev?*
G04 #@! TF.SameCoordinates,Original*
G04 #@! TF.FileFunction,Copper,L1,Top*
G04 #@! TF.FilePolarity,Positive*
%FSLAX46Y46*%
G04 Gerber Fmt 4.6, Leading zero omitted, Abs format (unit mm)*
G04 Created by KiCad (PCBNEW (5.1.0)-1) date 2019-03-20 22:54:12*
%MOMM*%
%LPD*%
G04 APERTURE LIST*
%ADD10R,0.700000X3.000000*%
%ADD11R,5.700000X2.300000*%
%ADD12R,4.000000X0.762000*%
%ADD13C,1.750000*%
%ADD14R,1.750000X1.750000*%
%ADD15R,1.600000X2.000000*%
%ADD16R,0.900000X1.700000*%
%ADD17R,0.970000X1.270000*%
%ADD18C,1.600000*%
%ADD19C,0.700000*%
%ADD20C,0.500000*%
%ADD21C,0.254000*%
G04 APERTURE END LIST*
D10*
X132620000Y-88788000D03*
X133890000Y-88788000D03*
X135160000Y-88788000D03*
X136430000Y-88788000D03*
X137700000Y-88788000D03*
D11*
X135160000Y-78738000D03*
D12*
X133858000Y-94742000D03*
X133858000Y-96012000D03*
X133858000Y-97282000D03*
X133858000Y-98552000D03*
X133858000Y-99822000D03*
X133858000Y-101092000D03*
X133858000Y-102362000D03*
X133858000Y-103632000D03*
X133858000Y-104902000D03*
X133858000Y-106172000D03*
X133858000Y-107442000D03*
X133858000Y-108839000D03*
X141478000Y-94742000D03*
X141478000Y-96012000D03*
X141478000Y-97282000D03*
X141478000Y-98552000D03*
X141478000Y-99822000D03*
X141478000Y-101092000D03*
X141478000Y-102362000D03*
X141478000Y-103632000D03*
X141478000Y-104902000D03*
X141478000Y-106172000D03*
X141478000Y-107442000D03*
X141478000Y-108712000D03*
D13*
X133375000Y-116380000D03*
X135875000Y-116380000D03*
X138375000Y-116380000D03*
D14*
X140875000Y-116380000D03*
D15*
X127540000Y-83265000D03*
X127540000Y-87265000D03*
X130080000Y-83265000D03*
X130080000Y-87265000D03*
D16*
X142325000Y-91694000D03*
X139425000Y-91694000D03*
X139425000Y-89154000D03*
X142325000Y-89154000D03*
X135340000Y-92885000D03*
X132440000Y-92885000D03*
D17*
X126995000Y-95123000D03*
X128275000Y-95123000D03*
X126995000Y-100076000D03*
X128275000Y-100076000D03*
X128275000Y-105029000D03*
X126995000Y-105029000D03*
D16*
X125296000Y-92837000D03*
X128196000Y-92837000D03*
X128323000Y-97790000D03*
X125423000Y-97790000D03*
X125423000Y-102743000D03*
X128323000Y-102743000D03*
X154125000Y-133223000D03*
X157025000Y-133223000D03*
X157025000Y-130048000D03*
X154125000Y-130048000D03*
X154252000Y-117983000D03*
X157152000Y-117983000D03*
X157152000Y-114808000D03*
X154252000Y-114808000D03*
X154252000Y-102743000D03*
X157152000Y-102743000D03*
X157152000Y-99568000D03*
X154252000Y-99568000D03*
X154252000Y-87503000D03*
X157152000Y-87503000D03*
X157152000Y-84328000D03*
X154252000Y-84328000D03*
X154125000Y-72263000D03*
X157025000Y-72263000D03*
X157025000Y-69088000D03*
X154125000Y-69088000D03*
D18*
X149987000Y-74549000D03*
X149987000Y-120142000D03*
X160908998Y-65024000D03*
X150094000Y-89916000D03*
X149987000Y-104648000D03*
X143910990Y-91567000D03*
X145161000Y-97282000D03*
X136906000Y-108204002D03*
X144780000Y-127889000D03*
X129159000Y-114173000D03*
X152019000Y-69087988D03*
X152019000Y-72263000D03*
X152146000Y-84328000D03*
X152019000Y-87503000D03*
X152019000Y-99568000D03*
X152019000Y-102743000D03*
X152019000Y-114808000D03*
X152019000Y-117983000D03*
X152019000Y-130048000D03*
X152019000Y-133223000D03*
X128270000Y-89662000D03*
X130302000Y-98679000D03*
X130302000Y-92837000D03*
X130302000Y-101219000D03*
X138302986Y-98552000D03*
D19*
X139425000Y-91694000D02*
X139425000Y-89154000D01*
X139954000Y-94504000D02*
X140240000Y-94790000D01*
X134407000Y-78738000D02*
X135160000Y-78738000D01*
X130080000Y-83065000D02*
X134407000Y-78738000D01*
X130080000Y-83265000D02*
X130080000Y-83065000D01*
X135160000Y-92705000D02*
X135340000Y-92885000D01*
X135160000Y-90988000D02*
X135382000Y-91210000D01*
X135160000Y-88788000D02*
X135160000Y-90988000D01*
X135340000Y-91252000D02*
X135340000Y-92885000D01*
X135382000Y-91210000D02*
X135340000Y-91252000D01*
X138176000Y-94742000D02*
X141478000Y-94742000D01*
X138176000Y-92075000D02*
X138176000Y-94742000D01*
X139425000Y-91694000D02*
X138557000Y-91694000D01*
X138557000Y-91694000D02*
X138176000Y-92075000D01*
X125423000Y-102743000D02*
X125423000Y-97790000D01*
X125296000Y-97663000D02*
X125423000Y-97790000D01*
X125296000Y-92837000D02*
X125296000Y-97663000D01*
X125296000Y-91252000D02*
X125296000Y-92837000D01*
X135340000Y-91252000D02*
X125296000Y-91252000D01*
X135160000Y-87217998D02*
X135160000Y-88788000D01*
X135160000Y-85312000D02*
X135160000Y-87217998D01*
X135160000Y-78738000D02*
X135160000Y-85312000D01*
X135192000Y-85344000D02*
X135160000Y-85312000D01*
X138303000Y-85344000D02*
X135192000Y-85344000D01*
X139425000Y-89154000D02*
X139425000Y-86466000D01*
X139425000Y-86466000D02*
X138303000Y-85344000D01*
X150003000Y-120158000D02*
X149987000Y-120142000D01*
X159777628Y-65024000D02*
X160908998Y-65024000D01*
X145415000Y-72771000D02*
X153162000Y-65024000D01*
X145415000Y-76962000D02*
X145415000Y-72771000D01*
X135160000Y-78738000D02*
X143639000Y-78738000D01*
X143639000Y-78738000D02*
X145415000Y-76962000D01*
X153162000Y-65024000D02*
X155194000Y-65024000D01*
X154559000Y-74549000D02*
X155575000Y-73533000D01*
X149987000Y-74549000D02*
X154559000Y-74549000D01*
X155194000Y-65024000D02*
X155575000Y-65024000D01*
X155575000Y-65024000D02*
X159777628Y-65024000D01*
X154559000Y-89916000D02*
X150094000Y-89916000D01*
X155575000Y-88900000D02*
X154559000Y-89916000D01*
X154559000Y-104648000D02*
X149987000Y-104648000D01*
X155575000Y-103632000D02*
X154559000Y-104648000D01*
X154559000Y-120142000D02*
X149987000Y-120142000D01*
X155575000Y-119126000D02*
X154559000Y-120142000D01*
X155575000Y-119126000D02*
X155575000Y-126238000D01*
X157025000Y-127688000D02*
X157025000Y-130048000D01*
X155575000Y-126238000D02*
X157025000Y-127688000D01*
X157025000Y-130048000D02*
X157025000Y-133223000D01*
X155575000Y-114808000D02*
X157152000Y-114808000D01*
X155575000Y-103632000D02*
X155575000Y-114808000D01*
X155575000Y-117983000D02*
X157152000Y-117983000D01*
X155575000Y-117983000D02*
X155575000Y-119126000D01*
X155575000Y-114808000D02*
X155575000Y-117983000D01*
X156002000Y-102743000D02*
X155575000Y-102743000D01*
X157152000Y-102743000D02*
X156002000Y-102743000D01*
X155575000Y-102743000D02*
X155575000Y-103632000D01*
X157152000Y-99568000D02*
X155575000Y-99568000D01*
X155575000Y-88900000D02*
X155575000Y-99568000D01*
X155575000Y-99568000D02*
X155575000Y-102743000D01*
X157152000Y-84328000D02*
X155575000Y-84328000D01*
X155575000Y-73533000D02*
X155575000Y-84328000D01*
X156002000Y-87503000D02*
X155575000Y-87503000D01*
X157152000Y-87503000D02*
X156002000Y-87503000D01*
X155575000Y-84328000D02*
X155575000Y-87503000D01*
X155575000Y-87503000D02*
X155575000Y-88900000D01*
X157025000Y-72263000D02*
X155575000Y-72263000D01*
X155575000Y-73533000D02*
X155575000Y-72263000D01*
X157025000Y-69088000D02*
X155575000Y-69088000D01*
X155575000Y-72263000D02*
X155575000Y-69088000D01*
X155575000Y-69088000D02*
X155575000Y-65024000D01*
D20*
X142325000Y-91694000D02*
X143783990Y-91694000D01*
X143783990Y-91694000D02*
X143910990Y-91567000D01*
X144399000Y-92055010D02*
X143910990Y-91567000D01*
X144399000Y-95631000D02*
X144399000Y-92055010D01*
X140240000Y-96060000D02*
X143970000Y-96060000D01*
X143970000Y-96060000D02*
X144399000Y-95631000D01*
X145113000Y-97330000D02*
X145161000Y-97282000D01*
X140240000Y-97330000D02*
X145113000Y-97330000D01*
X145161000Y-90605998D02*
X145161000Y-96150630D01*
X143709002Y-89154000D02*
X145161000Y-90605998D01*
X142325000Y-89154000D02*
X143709002Y-89154000D01*
X145161000Y-96150630D02*
X145161000Y-97282000D01*
X127540000Y-83265000D02*
X127540000Y-84630000D01*
X127540000Y-84630000D02*
X128175000Y-85265000D01*
X128175000Y-85265000D02*
X129445000Y-85265000D01*
X129445000Y-85265000D02*
X130080000Y-85900000D01*
X130080000Y-85900000D02*
X130080000Y-87265000D01*
X126995000Y-105029000D02*
X126995000Y-100076000D01*
X126995000Y-100076000D02*
X126995000Y-95123000D01*
X137700000Y-90788000D02*
X136921000Y-91567000D01*
X137700000Y-88788000D02*
X137700000Y-90788000D01*
X136358000Y-108839000D02*
X133858000Y-108839000D01*
X136921000Y-108276000D02*
X136358000Y-108839000D01*
X136921000Y-91567000D02*
X136921000Y-108276000D01*
X136921000Y-108276000D02*
X136921000Y-108219002D01*
X136921000Y-108219002D02*
X136906000Y-108204002D01*
X125650000Y-83265000D02*
X127540000Y-83265000D01*
X123952000Y-84963000D02*
X125650000Y-83265000D01*
X125222000Y-108839000D02*
X124333000Y-108839000D01*
X126995000Y-107066000D02*
X125222000Y-108839000D01*
X126995000Y-105029000D02*
X126995000Y-107066000D01*
X123952000Y-108839000D02*
X123952000Y-84963000D01*
X131064000Y-114173000D02*
X130290370Y-114173000D01*
X123952000Y-108839000D02*
X124333000Y-108839000D01*
X130290370Y-114173000D02*
X129159000Y-114173000D01*
X144780000Y-127889000D02*
X131064000Y-114173000D01*
X128359001Y-113373001D02*
X129159000Y-114173000D01*
X126365000Y-111379000D02*
X128359001Y-113373001D01*
X123952000Y-108966000D02*
X126365000Y-111379000D01*
X123952000Y-108839000D02*
X123952000Y-108966000D01*
X145185004Y-99870000D02*
X140240000Y-99870000D01*
X146558000Y-98497004D02*
X145185004Y-99870000D01*
X146558000Y-74549000D02*
X146558000Y-98497004D01*
X152019000Y-69087988D02*
X152019000Y-69088000D01*
X152019000Y-69088000D02*
X146558000Y-74549000D01*
X152019012Y-69088000D02*
X152019000Y-69087988D01*
X154125000Y-69088000D02*
X152019012Y-69088000D01*
X150887630Y-72263000D02*
X152019000Y-72263000D01*
X149987000Y-72263000D02*
X150887630Y-72263000D01*
X147320000Y-74930000D02*
X149987000Y-72263000D01*
X147320000Y-99060000D02*
X147320000Y-74930000D01*
X140240000Y-101140000D02*
X145240000Y-101140000D01*
X145240000Y-101140000D02*
X147320000Y-99060000D01*
X154125000Y-72263000D02*
X152019000Y-72263000D01*
X148082000Y-88392000D02*
X152146000Y-84328000D01*
X148082000Y-99568000D02*
X148082000Y-88392000D01*
X140240000Y-102410000D02*
X145240000Y-102410000D01*
X145240000Y-102410000D02*
X148082000Y-99568000D01*
X154252000Y-84328000D02*
X152146000Y-84328000D01*
X145240000Y-103680000D02*
X140240000Y-103680000D01*
X148844000Y-100076000D02*
X145240000Y-103680000D01*
X148844000Y-88646000D02*
X148844000Y-100076000D01*
X149987000Y-87503000D02*
X148844000Y-88646000D01*
X152019000Y-87503000D02*
X149987000Y-87503000D01*
X154252000Y-87503000D02*
X152019000Y-87503000D01*
X146637000Y-104950000D02*
X140240000Y-104950000D01*
X152019000Y-99568000D02*
X146637000Y-104950000D01*
X154252000Y-99568000D02*
X152019000Y-99568000D01*
X146510000Y-106220000D02*
X140240000Y-106220000D01*
X152019000Y-102743000D02*
X149987000Y-102743000D01*
X149987000Y-102743000D02*
X146510000Y-106220000D01*
X152019000Y-102743000D02*
X154252000Y-102743000D01*
X146987000Y-107490000D02*
X140240000Y-107490000D01*
X148844000Y-109347000D02*
X146987000Y-107490000D01*
X148844000Y-113554000D02*
X148844000Y-109347000D01*
X152019000Y-114808000D02*
X150098000Y-114808000D01*
X150098000Y-114808000D02*
X148844000Y-113554000D01*
X152019000Y-114808000D02*
X154252000Y-114808000D01*
X145844000Y-108760000D02*
X140240000Y-108760000D01*
X148082000Y-110998000D02*
X145844000Y-108760000D01*
X152019000Y-117983000D02*
X148082000Y-114046000D01*
X148082000Y-114046000D02*
X148082000Y-110998000D01*
X154252000Y-117983000D02*
X152019000Y-117983000D01*
X131270000Y-107490000D02*
X132620000Y-107490000D01*
X130810000Y-107950000D02*
X131270000Y-107490000D01*
X130810000Y-110109000D02*
X130810000Y-107950000D01*
X150098000Y-130048000D02*
X147320000Y-127270000D01*
X152019000Y-130048000D02*
X150098000Y-130048000D01*
X147320000Y-127270000D02*
X147320000Y-112014000D01*
X147320000Y-112014000D02*
X145796000Y-110490000D01*
X145796000Y-110490000D02*
X131191000Y-110490000D01*
X131191000Y-110490000D02*
X130810000Y-110109000D01*
X154125000Y-130048000D02*
X152019000Y-130048000D01*
X146558000Y-127762000D02*
X152019000Y-133223000D01*
X146558000Y-113157000D02*
X146558000Y-127762000D01*
X132620000Y-106220000D02*
X130889000Y-106220000D01*
X129794000Y-107315000D02*
X129794000Y-110490000D01*
X130889000Y-106220000D02*
X129794000Y-107315000D01*
X129794000Y-110490000D02*
X130810000Y-111506000D01*
X130810000Y-111506000D02*
X144907000Y-111506000D01*
X144907000Y-111506000D02*
X146558000Y-113157000D01*
X152019000Y-133223000D02*
X154125000Y-133223000D01*
D19*
X130730000Y-89695000D02*
X130715000Y-89710000D01*
X132620000Y-89695000D02*
X130730000Y-89695000D01*
X127540000Y-89075000D02*
X127540000Y-87265000D01*
X128175000Y-89710000D02*
X127540000Y-89075000D01*
X127540000Y-88932000D02*
X128270000Y-89662000D01*
X127540000Y-87265000D02*
X127540000Y-88932000D01*
X132587000Y-89662000D02*
X132620000Y-89695000D01*
X128270000Y-89662000D02*
X132587000Y-89662000D01*
X132620000Y-88788000D02*
X133890000Y-88788000D01*
D20*
X132620000Y-97330000D02*
X131651000Y-97330000D01*
X131651000Y-97330000D02*
X131101999Y-97879001D01*
X131101999Y-97879001D02*
X130302000Y-98679000D01*
X130350000Y-92885000D02*
X130302000Y-92837000D01*
X132440000Y-92885000D02*
X130350000Y-92885000D01*
X133782000Y-94790000D02*
X132620000Y-94790000D01*
X128196000Y-95044000D02*
X128275000Y-95123000D01*
X128196000Y-92837000D02*
X128196000Y-95044000D01*
X128275000Y-95123000D02*
X130048000Y-95123000D01*
X130429000Y-94742000D02*
X133858000Y-94742000D01*
X130048000Y-95123000D02*
X130429000Y-94742000D01*
X128275000Y-97838000D02*
X128323000Y-97790000D01*
X128275000Y-100076000D02*
X128275000Y-97838000D01*
X129273000Y-97790000D02*
X129921000Y-97142000D01*
X128323000Y-97790000D02*
X129273000Y-97790000D01*
X129921000Y-97142000D02*
X129921000Y-96647000D01*
X130556000Y-96012000D02*
X133858000Y-96012000D01*
X129921000Y-96647000D02*
X130556000Y-96012000D01*
X128275000Y-102791000D02*
X128323000Y-102743000D01*
X128275000Y-105029000D02*
X128275000Y-102791000D01*
X129273000Y-102743000D02*
X130302000Y-101714000D01*
X128323000Y-102743000D02*
X129273000Y-102743000D01*
X130302000Y-101714000D02*
X130302000Y-101219000D01*
X141478000Y-98552000D02*
X138302986Y-98552000D01*
D21*
G36*
X162993001Y-140768000D02*
G01*
X123138000Y-140768000D01*
X123138000Y-136031136D01*
X124270217Y-136031136D01*
X124318731Y-136463643D01*
X124450328Y-136878490D01*
X124659997Y-137259876D01*
X124939751Y-137593274D01*
X125278934Y-137865984D01*
X125664627Y-138067620D01*
X126082140Y-138190501D01*
X126515568Y-138229946D01*
X126948404Y-138184453D01*
X127364160Y-138055755D01*
X127747000Y-137848754D01*
X128082343Y-137571334D01*
X128357414Y-137234063D01*
X128561738Y-136849787D01*
X128687530Y-136433143D01*
X128726947Y-136031136D01*
X141770217Y-136031136D01*
X141818731Y-136463643D01*
X141950328Y-136878490D01*
X142159997Y-137259876D01*
X142439751Y-137593274D01*
X142778934Y-137865984D01*
X143164627Y-138067620D01*
X143582140Y-138190501D01*
X144015568Y-138229946D01*
X144448404Y-138184453D01*
X144864160Y-138055755D01*
X145247000Y-137848754D01*
X145582343Y-137571334D01*
X145857414Y-137234063D01*
X146061738Y-136849787D01*
X146187530Y-136433143D01*
X146230000Y-136000000D01*
X146229131Y-135937735D01*
X146174583Y-135505947D01*
X146037206Y-135092977D01*
X145822233Y-134714556D01*
X145537852Y-134385097D01*
X145194894Y-134117149D01*
X144806423Y-133920918D01*
X144387235Y-133803879D01*
X143953298Y-133770489D01*
X143521140Y-133822021D01*
X143107222Y-133956511D01*
X142727309Y-134168837D01*
X142395872Y-134450912D01*
X142125536Y-134791991D01*
X141926598Y-135179082D01*
X141806636Y-135597442D01*
X141770217Y-136031136D01*
X128726947Y-136031136D01*
X128730000Y-136000000D01*
X128729131Y-135937735D01*
X128674583Y-135505947D01*
X128537206Y-135092977D01*
X128322233Y-134714556D01*
X128037852Y-134385097D01*
X127694894Y-134117149D01*
X127306423Y-133920918D01*
X126887235Y-133803879D01*
X126453298Y-133770489D01*
X126021140Y-133822021D01*
X125607222Y-133956511D01*
X125227309Y-134168837D01*
X124895872Y-134450912D01*
X124625536Y-134791991D01*
X124426598Y-135179082D01*
X124306636Y-135597442D01*
X124270217Y-136031136D01*
X123138000Y-136031136D01*
X123138000Y-117426240D01*
X132508365Y-117426240D01*
X132589025Y-117677868D01*
X132857329Y-117806267D01*
X133145526Y-117879855D01*
X133442543Y-117895804D01*
X133736963Y-117853501D01*
X134017474Y-117754572D01*
X134160975Y-117677868D01*
X134241635Y-117426240D01*
X133375000Y-116559605D01*
X132508365Y-117426240D01*
X123138000Y-117426240D01*
X123138000Y-116447543D01*
X131859196Y-116447543D01*
X131901499Y-116741963D01*
X132000428Y-117022474D01*
X132077132Y-117165975D01*
X132328760Y-117246635D01*
X133195395Y-116380000D01*
X133554605Y-116380000D01*
X134421240Y-117246635D01*
X134599768Y-117189407D01*
X134702107Y-117342569D01*
X134912431Y-117552893D01*
X135159747Y-117718144D01*
X135434549Y-117831971D01*
X135726278Y-117890000D01*
X136023722Y-117890000D01*
X136315451Y-117831971D01*
X136590253Y-117718144D01*
X136837569Y-117552893D01*
X137047893Y-117342569D01*
X137125000Y-117227170D01*
X137202107Y-117342569D01*
X137412431Y-117552893D01*
X137659747Y-117718144D01*
X137934549Y-117831971D01*
X138226278Y-117890000D01*
X138523722Y-117890000D01*
X138815451Y-117831971D01*
X139090253Y-117718144D01*
X139337569Y-117552893D01*
X139406026Y-117484436D01*
X139410498Y-117499180D01*
X139469463Y-117609494D01*
X139548815Y-117706185D01*
X139645506Y-117785537D01*
X139755820Y-117844502D01*
X139875518Y-117880812D01*
X140000000Y-117893072D01*
X141750000Y-117893072D01*
X141874482Y-117880812D01*
X141994180Y-117844502D01*
X142104494Y-117785537D01*
X142201185Y-117706185D01*
X142280537Y-117609494D01*
X142339502Y-117499180D01*
X142375812Y-117379482D01*
X142388072Y-117255000D01*
X142388072Y-115505000D01*
X142375812Y-115380518D01*
X142339502Y-115260820D01*
X142280537Y-115150506D01*
X142201185Y-115053815D01*
X142104494Y-114974463D01*
X141994180Y-114915498D01*
X141874482Y-114879188D01*
X141750000Y-114866928D01*
X140000000Y-114866928D01*
X139875518Y-114879188D01*
X139755820Y-114915498D01*
X139645506Y-114974463D01*
X139548815Y-115053815D01*
X139469463Y-115150506D01*
X139410498Y-115260820D01*
X139406026Y-115275564D01*
X139337569Y-115207107D01*
X139090253Y-115041856D01*
X138815451Y-114928029D01*
X138523722Y-114870000D01*
X138226278Y-114870000D01*
X137934549Y-114928029D01*
X137659747Y-115041856D01*
X137412431Y-115207107D01*
X137202107Y-115417431D01*
X137125000Y-115532830D01*
X137047893Y-115417431D01*
X136837569Y-115207107D01*
X136590253Y-115041856D01*
X136315451Y-114928029D01*
X136023722Y-114870000D01*
X135726278Y-114870000D01*
X135434549Y-114928029D01*
X135159747Y-115041856D01*
X134912431Y-115207107D01*
X134702107Y-115417431D01*
X134599768Y-115570593D01*
X134421240Y-115513365D01*
X133554605Y-116380000D01*
X133195395Y-116380000D01*
X132328760Y-115513365D01*
X132077132Y-115594025D01*
X131948733Y-115862329D01*
X131875145Y-116150526D01*
X131859196Y-116447543D01*
X123138000Y-116447543D01*
X123138000Y-115333760D01*
X132508365Y-115333760D01*
X133375000Y-116200395D01*
X134241635Y-115333760D01*
X134160975Y-115082132D01*
X133892671Y-114953733D01*
X133604474Y-114880145D01*
X133307457Y-114864196D01*
X133013037Y-114906499D01*
X132732526Y-115005428D01*
X132589025Y-115082132D01*
X132508365Y-115333760D01*
X123138000Y-115333760D01*
X123138000Y-105664000D01*
X125871928Y-105664000D01*
X125884188Y-105788482D01*
X125920498Y-105908180D01*
X125979463Y-106018494D01*
X126058815Y-106115185D01*
X126155506Y-106194537D01*
X126265820Y-106253502D01*
X126385518Y-106289812D01*
X126510000Y-106302072D01*
X126709250Y-106299000D01*
X126868000Y-106140250D01*
X126868000Y-105156000D01*
X126033750Y-105156000D01*
X125875000Y-105314750D01*
X125871928Y-105664000D01*
X123138000Y-105664000D01*
X123138000Y-91987000D01*
X124207928Y-91987000D01*
X124207928Y-93687000D01*
X124220188Y-93811482D01*
X124256498Y-93931180D01*
X124311000Y-94033145D01*
X124311001Y-97614610D01*
X124306235Y-97663000D01*
X124325253Y-97856093D01*
X124334928Y-97887987D01*
X124334928Y-98640000D01*
X124347188Y-98764482D01*
X124383498Y-98884180D01*
X124438001Y-98986146D01*
X124438000Y-101546855D01*
X124383498Y-101648820D01*
X124347188Y-101768518D01*
X124334928Y-101893000D01*
X124334928Y-103593000D01*
X124347188Y-103717482D01*
X124383498Y-103837180D01*
X124442463Y-103947494D01*
X124521815Y-104044185D01*
X124618506Y-104123537D01*
X124728820Y-104182502D01*
X124848518Y-104218812D01*
X124973000Y-104231072D01*
X125873000Y-104231072D01*
X125896554Y-104228752D01*
X125884188Y-104269518D01*
X125871928Y-104394000D01*
X125875000Y-104743250D01*
X126033750Y-104902000D01*
X126868000Y-104902000D01*
X126868000Y-103917750D01*
X126709250Y-103759000D01*
X126510000Y-103755928D01*
X126486446Y-103758248D01*
X126498812Y-103717482D01*
X126511072Y-103593000D01*
X126511072Y-101893000D01*
X126498812Y-101768518D01*
X126462502Y-101648820D01*
X126408000Y-101546856D01*
X126408000Y-101339026D01*
X126510000Y-101349072D01*
X126709250Y-101346000D01*
X126868000Y-101187250D01*
X126868000Y-100203000D01*
X126848000Y-100203000D01*
X126848000Y-99949000D01*
X126868000Y-99949000D01*
X126868000Y-98964750D01*
X126709250Y-98806000D01*
X126510000Y-98802928D01*
X126486446Y-98805248D01*
X126498812Y-98764482D01*
X126511072Y-98640000D01*
X126511072Y-96940000D01*
X126498812Y-96815518D01*
X126462502Y-96695820D01*
X126403537Y-96585506D01*
X126324185Y-96488815D01*
X126281000Y-96453374D01*
X126281000Y-96352107D01*
X126385518Y-96383812D01*
X126510000Y-96396072D01*
X126709250Y-96393000D01*
X126868000Y-96234250D01*
X126868000Y-95250000D01*
X126848000Y-95250000D01*
X126848000Y-94996000D01*
X126868000Y-94996000D01*
X126868000Y-94011750D01*
X126709250Y-93853000D01*
X126510000Y-93849928D01*
X126385518Y-93862188D01*
X126353483Y-93871906D01*
X126371812Y-93811482D01*
X126384072Y-93687000D01*
X126384072Y-92237000D01*
X127107928Y-92237000D01*
X127107928Y-93687000D01*
X127120188Y-93811482D01*
X127156498Y-93931180D01*
X127172546Y-93961204D01*
X127122000Y-94011750D01*
X127122000Y-94996000D01*
X127142000Y-94996000D01*
X127142000Y-95250000D01*
X127122000Y-95250000D01*
X127122000Y-96234250D01*
X127280750Y-96393000D01*
X127480000Y-96396072D01*
X127557915Y-96388398D01*
X127518506Y-96409463D01*
X127421815Y-96488815D01*
X127342463Y-96585506D01*
X127283498Y-96695820D01*
X127247188Y-96815518D01*
X127234928Y-96940000D01*
X127234928Y-98640000D01*
X127247188Y-98764482D01*
X127264662Y-98822088D01*
X127122000Y-98964750D01*
X127122000Y-99949000D01*
X127142000Y-99949000D01*
X127142000Y-100203000D01*
X127122000Y-100203000D01*
X127122000Y-101187250D01*
X127280750Y-101346000D01*
X127480000Y-101349072D01*
X127557915Y-101341398D01*
X127518506Y-101362463D01*
X127421815Y-101441815D01*
X127342463Y-101538506D01*
X127283498Y-101648820D01*
X127247188Y-101768518D01*
X127234928Y-101893000D01*
X127234928Y-103593000D01*
X127247188Y-103717482D01*
X127264662Y-103775088D01*
X127122000Y-103917750D01*
X127122000Y-104902000D01*
X127142000Y-104902000D01*
X127142000Y-105156000D01*
X127122000Y-105156000D01*
X127122000Y-106140250D01*
X127280750Y-106299000D01*
X127480000Y-106302072D01*
X127604482Y-106289812D01*
X127635000Y-106280554D01*
X127665518Y-106289812D01*
X127790000Y-106302072D01*
X128760000Y-106302072D01*
X128884482Y-106289812D01*
X129004180Y-106253502D01*
X129114494Y-106194537D01*
X129211185Y-106115185D01*
X129290537Y-106018494D01*
X129349502Y-105908180D01*
X129385812Y-105788482D01*
X129398072Y-105664000D01*
X129398072Y-104394000D01*
X129385812Y-104269518D01*
X129349502Y-104149820D01*
X129290537Y-104039506D01*
X129259281Y-104001420D01*
X129303537Y-103947494D01*
X129362502Y-103837180D01*
X129398812Y-103717482D01*
X129408518Y-103618935D01*
X129446490Y-103615195D01*
X129613313Y-103564589D01*
X129767059Y-103482411D01*
X129901817Y-103371817D01*
X129929534Y-103338044D01*
X130655851Y-102611727D01*
X130720574Y-102598853D01*
X130981727Y-102490680D01*
X131216759Y-102333637D01*
X131219928Y-102330468D01*
X131219928Y-102743000D01*
X131232188Y-102867482D01*
X131268498Y-102987180D01*
X131273747Y-102997000D01*
X131268498Y-103006820D01*
X131232188Y-103126518D01*
X131219928Y-103251000D01*
X131219928Y-104013000D01*
X131232188Y-104137482D01*
X131268498Y-104257180D01*
X131273747Y-104267000D01*
X131268498Y-104276820D01*
X131232188Y-104396518D01*
X131219928Y-104521000D01*
X131219928Y-105283000D01*
X131225049Y-105335000D01*
X130932469Y-105335000D01*
X130889000Y-105330719D01*
X130845531Y-105335000D01*
X130845523Y-105335000D01*
X130715510Y-105347805D01*
X130548687Y-105398411D01*
X130463285Y-105444059D01*
X130394941Y-105480589D01*
X130293953Y-105563468D01*
X130293951Y-105563470D01*
X130260183Y-105591183D01*
X130232470Y-105624951D01*
X129198956Y-106658466D01*
X129165183Y-106686183D01*
X129054589Y-106820942D01*
X128972411Y-106974688D01*
X128921805Y-107141511D01*
X128909000Y-107271524D01*
X128909000Y-107271531D01*
X128904719Y-107315000D01*
X128909000Y-107358469D01*
X128909001Y-110446521D01*
X128904719Y-110490000D01*
X128921805Y-110663490D01*
X128972412Y-110830313D01*
X129054590Y-110984059D01*
X129137468Y-111085046D01*
X129137471Y-111085049D01*
X129165184Y-111118817D01*
X129198951Y-111146529D01*
X130153470Y-112101049D01*
X130181183Y-112134817D01*
X130214951Y-112162530D01*
X130214953Y-112162532D01*
X130245363Y-112187489D01*
X130315941Y-112245411D01*
X130469687Y-112327589D01*
X130557783Y-112354313D01*
X130636509Y-112378195D01*
X130651306Y-112379652D01*
X130766523Y-112391000D01*
X130766531Y-112391000D01*
X130810000Y-112395281D01*
X130853469Y-112391000D01*
X144540422Y-112391000D01*
X145673000Y-113523579D01*
X145673001Y-127718521D01*
X145668719Y-127762000D01*
X145685805Y-127935490D01*
X145736412Y-128102313D01*
X145818590Y-128256059D01*
X145901468Y-128357046D01*
X145901471Y-128357049D01*
X145929184Y-128390817D01*
X145962952Y-128418530D01*
X150590983Y-133046561D01*
X150584000Y-133081665D01*
X150584000Y-133364335D01*
X150639147Y-133641574D01*
X150747320Y-133902727D01*
X150904363Y-134137759D01*
X151104241Y-134337637D01*
X151339273Y-134494680D01*
X151600426Y-134602853D01*
X151877665Y-134658000D01*
X152160335Y-134658000D01*
X152437574Y-134602853D01*
X152698727Y-134494680D01*
X152933759Y-134337637D01*
X153054943Y-134216453D01*
X153085498Y-134317180D01*
X153144463Y-134427494D01*
X153223815Y-134524185D01*
X153320506Y-134603537D01*
X153430820Y-134662502D01*
X153550518Y-134698812D01*
X153675000Y-134711072D01*
X154575000Y-134711072D01*
X154699482Y-134698812D01*
X154819180Y-134662502D01*
X154929494Y-134603537D01*
X155026185Y-134524185D01*
X155105537Y-134427494D01*
X155164502Y-134317180D01*
X155200812Y-134197482D01*
X155213072Y-134073000D01*
X155213072Y-132373000D01*
X155200812Y-132248518D01*
X155164502Y-132128820D01*
X155105537Y-132018506D01*
X155026185Y-131921815D01*
X154929494Y-131842463D01*
X154819180Y-131783498D01*
X154699482Y-131747188D01*
X154575000Y-131734928D01*
X153675000Y-131734928D01*
X153550518Y-131747188D01*
X153430820Y-131783498D01*
X153320506Y-131842463D01*
X153223815Y-131921815D01*
X153144463Y-132018506D01*
X153085498Y-132128820D01*
X153054943Y-132229547D01*
X152933759Y-132108363D01*
X152698727Y-131951320D01*
X152437574Y-131843147D01*
X152160335Y-131788000D01*
X151877665Y-131788000D01*
X151842561Y-131794983D01*
X151387048Y-131339469D01*
X151600426Y-131427853D01*
X151877665Y-131483000D01*
X152160335Y-131483000D01*
X152437574Y-131427853D01*
X152698727Y-131319680D01*
X152933759Y-131162637D01*
X153054943Y-131041453D01*
X153085498Y-131142180D01*
X153144463Y-131252494D01*
X153223815Y-131349185D01*
X153320506Y-131428537D01*
X153430820Y-131487502D01*
X153550518Y-131523812D01*
X153675000Y-131536072D01*
X154575000Y-131536072D01*
X154699482Y-131523812D01*
X154819180Y-131487502D01*
X154929494Y-131428537D01*
X155026185Y-131349185D01*
X155105537Y-131252494D01*
X155164502Y-131142180D01*
X155200812Y-131022482D01*
X155213072Y-130898000D01*
X155213072Y-129198000D01*
X155200812Y-129073518D01*
X155164502Y-128953820D01*
X155105537Y-128843506D01*
X155026185Y-128746815D01*
X154929494Y-128667463D01*
X154819180Y-128608498D01*
X154699482Y-128572188D01*
X154575000Y-128559928D01*
X153675000Y-128559928D01*
X153550518Y-128572188D01*
X153430820Y-128608498D01*
X153320506Y-128667463D01*
X153223815Y-128746815D01*
X153144463Y-128843506D01*
X153085498Y-128953820D01*
X153054943Y-129054547D01*
X152933759Y-128933363D01*
X152698727Y-128776320D01*
X152437574Y-128668147D01*
X152160335Y-128613000D01*
X151877665Y-128613000D01*
X151600426Y-128668147D01*
X151339273Y-128776320D01*
X151104241Y-128933363D01*
X150904363Y-129133241D01*
X150884479Y-129163000D01*
X150464579Y-129163000D01*
X148205000Y-126903422D01*
X148205000Y-115420578D01*
X150590983Y-117806561D01*
X150584000Y-117841665D01*
X150584000Y-118124335D01*
X150639147Y-118401574D01*
X150747320Y-118662727D01*
X150904363Y-118897759D01*
X151104241Y-119097637D01*
X151193084Y-119157000D01*
X151031396Y-119157000D01*
X150901759Y-119027363D01*
X150666727Y-118870320D01*
X150405574Y-118762147D01*
X150128335Y-118707000D01*
X149845665Y-118707000D01*
X149568426Y-118762147D01*
X149307273Y-118870320D01*
X149072241Y-119027363D01*
X148872363Y-119227241D01*
X148715320Y-119462273D01*
X148607147Y-119723426D01*
X148552000Y-120000665D01*
X148552000Y-120283335D01*
X148607147Y-120560574D01*
X148715320Y-120821727D01*
X148872363Y-121056759D01*
X149072241Y-121256637D01*
X149307273Y-121413680D01*
X149568426Y-121521853D01*
X149845665Y-121577000D01*
X150128335Y-121577000D01*
X150405574Y-121521853D01*
X150666727Y-121413680D01*
X150901759Y-121256637D01*
X151031396Y-121127000D01*
X154510620Y-121127000D01*
X154559000Y-121131765D01*
X154590000Y-121128712D01*
X154590001Y-126189610D01*
X154585235Y-126238000D01*
X154604253Y-126431093D01*
X154660576Y-126616766D01*
X154703152Y-126696419D01*
X154752041Y-126787884D01*
X154875131Y-126937870D01*
X154912711Y-126968711D01*
X156040000Y-128096001D01*
X156040000Y-128851855D01*
X155985498Y-128953820D01*
X155949188Y-129073518D01*
X155936928Y-129198000D01*
X155936928Y-130898000D01*
X155949188Y-131022482D01*
X155985498Y-131142180D01*
X156040000Y-131244145D01*
X156040001Y-132026854D01*
X155985498Y-132128820D01*
X155949188Y-132248518D01*
X155936928Y-132373000D01*
X155936928Y-134073000D01*
X155949188Y-134197482D01*
X155985498Y-134317180D01*
X156044463Y-134427494D01*
X156123815Y-134524185D01*
X156220506Y-134603537D01*
X156330820Y-134662502D01*
X156450518Y-134698812D01*
X156575000Y-134711072D01*
X157475000Y-134711072D01*
X157599482Y-134698812D01*
X157719180Y-134662502D01*
X157829494Y-134603537D01*
X157926185Y-134524185D01*
X158005537Y-134427494D01*
X158064502Y-134317180D01*
X158100812Y-134197482D01*
X158113072Y-134073000D01*
X158113072Y-132373000D01*
X158100812Y-132248518D01*
X158064502Y-132128820D01*
X158010000Y-132026856D01*
X158010000Y-131244144D01*
X158064502Y-131142180D01*
X158100812Y-131022482D01*
X158113072Y-130898000D01*
X158113072Y-129198000D01*
X158100812Y-129073518D01*
X158064502Y-128953820D01*
X158010000Y-128851856D01*
X158010000Y-127736380D01*
X158014765Y-127688000D01*
X157995747Y-127494906D01*
X157939424Y-127309233D01*
X157847960Y-127138116D01*
X157843912Y-127133183D01*
X157724870Y-126988130D01*
X157687290Y-126957289D01*
X156560000Y-125830000D01*
X156560000Y-119453498D01*
X156577518Y-119458812D01*
X156702000Y-119471072D01*
X157602000Y-119471072D01*
X157726482Y-119458812D01*
X157846180Y-119422502D01*
X157956494Y-119363537D01*
X158053185Y-119284185D01*
X158132537Y-119187494D01*
X158191502Y-119077180D01*
X158227812Y-118957482D01*
X158240072Y-118833000D01*
X158240072Y-117133000D01*
X158227812Y-117008518D01*
X158191502Y-116888820D01*
X158132537Y-116778506D01*
X158053185Y-116681815D01*
X157956494Y-116602463D01*
X157846180Y-116543498D01*
X157726482Y-116507188D01*
X157602000Y-116494928D01*
X156702000Y-116494928D01*
X156577518Y-116507188D01*
X156560000Y-116512502D01*
X156560000Y-116278498D01*
X156577518Y-116283812D01*
X156702000Y-116296072D01*
X157602000Y-116296072D01*
X157726482Y-116283812D01*
X157846180Y-116247502D01*
X157956494Y-116188537D01*
X158053185Y-116109185D01*
X158132537Y-116012494D01*
X158191502Y-115902180D01*
X158227812Y-115782482D01*
X158240072Y-115658000D01*
X158240072Y-113958000D01*
X158227812Y-113833518D01*
X158191502Y-113713820D01*
X158132537Y-113603506D01*
X158053185Y-113506815D01*
X157956494Y-113427463D01*
X157846180Y-113368498D01*
X157726482Y-113332188D01*
X157602000Y-113319928D01*
X156702000Y-113319928D01*
X156577518Y-113332188D01*
X156560000Y-113337502D01*
X156560000Y-104213498D01*
X156577518Y-104218812D01*
X156702000Y-104231072D01*
X157602000Y-104231072D01*
X157726482Y-104218812D01*
X157846180Y-104182502D01*
X157956494Y-104123537D01*
X158053185Y-104044185D01*
X158132537Y-103947494D01*
X158191502Y-103837180D01*
X158227812Y-103717482D01*
X158240072Y-103593000D01*
X158240072Y-101893000D01*
X158227812Y-101768518D01*
X158191502Y-101648820D01*
X158132537Y-101538506D01*
X158053185Y-101441815D01*
X157956494Y-101362463D01*
X157846180Y-101303498D01*
X157726482Y-101267188D01*
X157602000Y-101254928D01*
X156702000Y-101254928D01*
X156577518Y-101267188D01*
X156560000Y-101272502D01*
X156560000Y-101038498D01*
X156577518Y-101043812D01*
X156702000Y-101056072D01*
X157602000Y-101056072D01*
X157726482Y-101043812D01*
X157846180Y-101007502D01*
X157956494Y-100948537D01*
X158053185Y-100869185D01*
X158132537Y-100772494D01*
X158191502Y-100662180D01*
X158227812Y-100542482D01*
X158240072Y-100418000D01*
X158240072Y-98718000D01*
X158227812Y-98593518D01*
X158191502Y-98473820D01*
X158132537Y-98363506D01*
X158053185Y-98266815D01*
X157956494Y-98187463D01*
X157846180Y-98128498D01*
X157726482Y-98092188D01*
X157602000Y-98079928D01*
X156702000Y-98079928D01*
X156577518Y-98092188D01*
X156560000Y-98097502D01*
X156560000Y-88973498D01*
X156577518Y-88978812D01*
X156702000Y-88991072D01*
X157602000Y-88991072D01*
X157726482Y-88978812D01*
X157846180Y-88942502D01*
X157956494Y-88883537D01*
X158053185Y-88804185D01*
X158132537Y-88707494D01*
X158191502Y-88597180D01*
X158227812Y-88477482D01*
X158240072Y-88353000D01*
X158240072Y-86653000D01*
X158227812Y-86528518D01*
X158191502Y-86408820D01*
X158132537Y-86298506D01*
X158053185Y-86201815D01*
X157956494Y-86122463D01*
X157846180Y-86063498D01*
X157726482Y-86027188D01*
X157602000Y-86014928D01*
X156702000Y-86014928D01*
X156577518Y-86027188D01*
X156560000Y-86032502D01*
X156560000Y-85798498D01*
X156577518Y-85803812D01*
X156702000Y-85816072D01*
X157602000Y-85816072D01*
X157726482Y-85803812D01*
X157846180Y-85767502D01*
X157956494Y-85708537D01*
X158053185Y-85629185D01*
X158132537Y-85532494D01*
X158191502Y-85422180D01*
X158227812Y-85302482D01*
X158240072Y-85178000D01*
X158240072Y-83478000D01*
X158227812Y-83353518D01*
X158191502Y-83233820D01*
X158132537Y-83123506D01*
X158053185Y-83026815D01*
X157956494Y-82947463D01*
X157846180Y-82888498D01*
X157726482Y-82852188D01*
X157602000Y-82839928D01*
X156702000Y-82839928D01*
X156577518Y-82852188D01*
X156560000Y-82857502D01*
X156560000Y-73749595D01*
X156575000Y-73751072D01*
X157475000Y-73751072D01*
X157599482Y-73738812D01*
X157719180Y-73702502D01*
X157829494Y-73643537D01*
X157926185Y-73564185D01*
X158005537Y-73467494D01*
X158064502Y-73357180D01*
X158100812Y-73237482D01*
X158113072Y-73113000D01*
X158113072Y-71413000D01*
X158100812Y-71288518D01*
X158064502Y-71168820D01*
X158005537Y-71058506D01*
X157926185Y-70961815D01*
X157829494Y-70882463D01*
X157719180Y-70823498D01*
X157599482Y-70787188D01*
X157475000Y-70774928D01*
X156575000Y-70774928D01*
X156560000Y-70776405D01*
X156560000Y-70574595D01*
X156575000Y-70576072D01*
X157475000Y-70576072D01*
X157599482Y-70563812D01*
X157719180Y-70527502D01*
X157829494Y-70468537D01*
X157926185Y-70389185D01*
X158005537Y-70292494D01*
X158064502Y-70182180D01*
X158100812Y-70062482D01*
X158113072Y-69938000D01*
X158113072Y-68238000D01*
X158100812Y-68113518D01*
X158064502Y-67993820D01*
X158005537Y-67883506D01*
X157926185Y-67786815D01*
X157829494Y-67707463D01*
X157719180Y-67648498D01*
X157599482Y-67612188D01*
X157475000Y-67599928D01*
X156575000Y-67599928D01*
X156560000Y-67601405D01*
X156560000Y-66009000D01*
X159864602Y-66009000D01*
X159994239Y-66138637D01*
X160229271Y-66295680D01*
X160490424Y-66403853D01*
X160767663Y-66459000D01*
X161050333Y-66459000D01*
X161327572Y-66403853D01*
X161588725Y-66295680D01*
X161823757Y-66138637D01*
X162023635Y-65938759D01*
X162180678Y-65703727D01*
X162288851Y-65442574D01*
X162343998Y-65165335D01*
X162343998Y-64882665D01*
X162288851Y-64605426D01*
X162180678Y-64344273D01*
X162023635Y-64109241D01*
X161823757Y-63909363D01*
X161588725Y-63752320D01*
X161327572Y-63644147D01*
X161050333Y-63589000D01*
X160767663Y-63589000D01*
X160490424Y-63644147D01*
X160229271Y-63752320D01*
X159994239Y-63909363D01*
X159864602Y-64039000D01*
X155623380Y-64039000D01*
X155575000Y-64034235D01*
X155526620Y-64039000D01*
X153210377Y-64039000D01*
X153161999Y-64034235D01*
X153113621Y-64039000D01*
X153113620Y-64039000D01*
X152968906Y-64053253D01*
X152783233Y-64109576D01*
X152612116Y-64201040D01*
X152462130Y-64324130D01*
X152431284Y-64361716D01*
X144752711Y-72040289D01*
X144715131Y-72071130D01*
X144592041Y-72221116D01*
X144569654Y-72263000D01*
X144500576Y-72392234D01*
X144444253Y-72577907D01*
X144425235Y-72771000D01*
X144430001Y-72819390D01*
X144430000Y-76554000D01*
X143231000Y-77753000D01*
X138648072Y-77753000D01*
X138648072Y-77588000D01*
X138635812Y-77463518D01*
X138599502Y-77343820D01*
X138540537Y-77233506D01*
X138461185Y-77136815D01*
X138364494Y-77057463D01*
X138254180Y-76998498D01*
X138134482Y-76962188D01*
X138010000Y-76949928D01*
X132310000Y-76949928D01*
X132185518Y-76962188D01*
X132065820Y-76998498D01*
X131955506Y-77057463D01*
X131858815Y-77136815D01*
X131779463Y-77233506D01*
X131720498Y-77343820D01*
X131684188Y-77463518D01*
X131671928Y-77588000D01*
X131671928Y-79888000D01*
X131684188Y-80012482D01*
X131697066Y-80054934D01*
X130125072Y-81626928D01*
X129280000Y-81626928D01*
X129155518Y-81639188D01*
X129035820Y-81675498D01*
X128925506Y-81734463D01*
X128828815Y-81813815D01*
X128810000Y-81836741D01*
X128791185Y-81813815D01*
X128694494Y-81734463D01*
X128584180Y-81675498D01*
X128464482Y-81639188D01*
X128340000Y-81626928D01*
X127825750Y-81630000D01*
X127667000Y-81788750D01*
X127667000Y-83138000D01*
X127687000Y-83138000D01*
X127687000Y-83392000D01*
X127667000Y-83392000D01*
X127667000Y-84741250D01*
X127825750Y-84900000D01*
X128340000Y-84903072D01*
X128464482Y-84890812D01*
X128584180Y-84854502D01*
X128694494Y-84795537D01*
X128791185Y-84716185D01*
X128810000Y-84693259D01*
X128828815Y-84716185D01*
X128925506Y-84795537D01*
X129035820Y-84854502D01*
X129155518Y-84890812D01*
X129280000Y-84903072D01*
X130880000Y-84903072D01*
X131004482Y-84890812D01*
X131124180Y-84854502D01*
X131234494Y-84795537D01*
X131331185Y-84716185D01*
X131410537Y-84619494D01*
X131469502Y-84509180D01*
X131505812Y-84389482D01*
X131518072Y-84265000D01*
X131518072Y-83019928D01*
X134011928Y-80526072D01*
X134175000Y-80526072D01*
X134175001Y-85263610D01*
X134170235Y-85312000D01*
X134175000Y-85360380D01*
X134175001Y-86649928D01*
X133540000Y-86649928D01*
X133415518Y-86662188D01*
X133295820Y-86698498D01*
X133255000Y-86720317D01*
X133214180Y-86698498D01*
X133094482Y-86662188D01*
X132970000Y-86649928D01*
X132270000Y-86649928D01*
X132145518Y-86662188D01*
X132025820Y-86698498D01*
X131915506Y-86757463D01*
X131818815Y-86836815D01*
X131739463Y-86933506D01*
X131680498Y-87043820D01*
X131644188Y-87163518D01*
X131631928Y-87288000D01*
X131631928Y-88677000D01*
X131363343Y-88677000D01*
X131410537Y-88619494D01*
X131469502Y-88509180D01*
X131505812Y-88389482D01*
X131518072Y-88265000D01*
X131515000Y-87550750D01*
X131356250Y-87392000D01*
X130207000Y-87392000D01*
X130207000Y-87412000D01*
X129953000Y-87412000D01*
X129953000Y-87392000D01*
X129933000Y-87392000D01*
X129933000Y-87138000D01*
X129953000Y-87138000D01*
X129953000Y-85788750D01*
X130207000Y-85788750D01*
X130207000Y-87138000D01*
X131356250Y-87138000D01*
X131515000Y-86979250D01*
X131518072Y-86265000D01*
X131505812Y-86140518D01*
X131469502Y-86020820D01*
X131410537Y-85910506D01*
X131331185Y-85813815D01*
X131234494Y-85734463D01*
X131124180Y-85675498D01*
X131004482Y-85639188D01*
X130880000Y-85626928D01*
X130365750Y-85630000D01*
X130207000Y-85788750D01*
X129953000Y-85788750D01*
X129794250Y-85630000D01*
X129280000Y-85626928D01*
X129155518Y-85639188D01*
X129035820Y-85675498D01*
X128925506Y-85734463D01*
X128828815Y-85813815D01*
X128810000Y-85836741D01*
X128791185Y-85813815D01*
X128694494Y-85734463D01*
X128584180Y-85675498D01*
X128464482Y-85639188D01*
X128340000Y-85626928D01*
X126740000Y-85626928D01*
X126615518Y-85639188D01*
X126495820Y-85675498D01*
X126385506Y-85734463D01*
X126288815Y-85813815D01*
X126209463Y-85910506D01*
X126150498Y-86020820D01*
X126114188Y-86140518D01*
X126101928Y-86265000D01*
X126101928Y-88265000D01*
X126114188Y-88389482D01*
X126150498Y-88509180D01*
X126209463Y-88619494D01*
X126288815Y-88716185D01*
X126385506Y-88795537D01*
X126495820Y-88854502D01*
X126555000Y-88872454D01*
X126555000Y-88883619D01*
X126550235Y-88932000D01*
X126555000Y-88980380D01*
X126555000Y-89026620D01*
X126550235Y-89075000D01*
X126555000Y-89123379D01*
X126569253Y-89268093D01*
X126625576Y-89453766D01*
X126717040Y-89624884D01*
X126835000Y-89768619D01*
X126835000Y-89803335D01*
X126890147Y-90080574D01*
X126967367Y-90267000D01*
X125344380Y-90267000D01*
X125296000Y-90262235D01*
X125247620Y-90267000D01*
X125102906Y-90281253D01*
X124917233Y-90337576D01*
X124746116Y-90429040D01*
X124596130Y-90552130D01*
X124473040Y-90702116D01*
X124381576Y-90873233D01*
X124325253Y-91058906D01*
X124306235Y-91252000D01*
X124311000Y-91300381D01*
X124311000Y-91640855D01*
X124256498Y-91742820D01*
X124220188Y-91862518D01*
X124207928Y-91987000D01*
X123138000Y-91987000D01*
X123138000Y-84265000D01*
X126101928Y-84265000D01*
X126114188Y-84389482D01*
X126150498Y-84509180D01*
X126209463Y-84619494D01*
X126288815Y-84716185D01*
X126385506Y-84795537D01*
X126495820Y-84854502D01*
X126615518Y-84890812D01*
X126740000Y-84903072D01*
X127254250Y-84900000D01*
X127413000Y-84741250D01*
X127413000Y-83392000D01*
X126263750Y-83392000D01*
X126105000Y-83550750D01*
X126101928Y-84265000D01*
X123138000Y-84265000D01*
X123138000Y-82265000D01*
X126101928Y-82265000D01*
X126105000Y-82979250D01*
X126263750Y-83138000D01*
X127413000Y-83138000D01*
X127413000Y-81788750D01*
X127254250Y-81630000D01*
X126740000Y-81626928D01*
X126615518Y-81639188D01*
X126495820Y-81675498D01*
X126385506Y-81734463D01*
X126288815Y-81813815D01*
X126209463Y-81910506D01*
X126150498Y-82020820D01*
X126114188Y-82140518D01*
X126101928Y-82265000D01*
X123138000Y-82265000D01*
X123138000Y-64031136D01*
X124270217Y-64031136D01*
X124318731Y-64463643D01*
X124450328Y-64878490D01*
X124659997Y-65259876D01*
X124939751Y-65593274D01*
X125278934Y-65865984D01*
X125664627Y-66067620D01*
X126082140Y-66190501D01*
X126515568Y-66229946D01*
X126948404Y-66184453D01*
X127364160Y-66055755D01*
X127747000Y-65848754D01*
X128082343Y-65571334D01*
X128357414Y-65234063D01*
X128561738Y-64849787D01*
X128687530Y-64433143D01*
X128726947Y-64031136D01*
X141770217Y-64031136D01*
X141818731Y-64463643D01*
X141950328Y-64878490D01*
X142159997Y-65259876D01*
X142439751Y-65593274D01*
X142778934Y-65865984D01*
X143164627Y-66067620D01*
X143582140Y-66190501D01*
X144015568Y-66229946D01*
X144448404Y-66184453D01*
X144864160Y-66055755D01*
X145247000Y-65848754D01*
X145582343Y-65571334D01*
X145857414Y-65234063D01*
X146061738Y-64849787D01*
X146187530Y-64433143D01*
X146230000Y-64000000D01*
X146229131Y-63937735D01*
X146174583Y-63505947D01*
X146037206Y-63092977D01*
X145822233Y-62714556D01*
X145537852Y-62385097D01*
X145194894Y-62117149D01*
X144806423Y-61920918D01*
X144387235Y-61803879D01*
X143953298Y-61770489D01*
X143521140Y-61822021D01*
X143107222Y-61956511D01*
X142727309Y-62168837D01*
X142395872Y-62450912D01*
X142125536Y-62791991D01*
X141926598Y-63179082D01*
X141806636Y-63597442D01*
X141770217Y-64031136D01*
X128726947Y-64031136D01*
X128730000Y-64000000D01*
X128729131Y-63937735D01*
X128674583Y-63505947D01*
X128537206Y-63092977D01*
X128322233Y-62714556D01*
X128037852Y-62385097D01*
X127694894Y-62117149D01*
X127306423Y-61920918D01*
X126887235Y-61803879D01*
X126453298Y-61770489D01*
X126021140Y-61822021D01*
X125607222Y-61956511D01*
X125227309Y-62168837D01*
X124895872Y-62450912D01*
X124625536Y-62791991D01*
X124426598Y-63179082D01*
X124306636Y-63597442D01*
X124270217Y-64031136D01*
X123138000Y-64031136D01*
X123138000Y-60781000D01*
X162993000Y-60781000D01*
X162993001Y-140768000D01*
X162993001Y-140768000D01*
G37*
X162993001Y-140768000D02*
X123138000Y-140768000D01*
X123138000Y-136031136D01*
X124270217Y-136031136D01*
X124318731Y-136463643D01*
X124450328Y-136878490D01*
X124659997Y-137259876D01*
X124939751Y-137593274D01*
X125278934Y-137865984D01*
X125664627Y-138067620D01*
X126082140Y-138190501D01*
X126515568Y-138229946D01*
X126948404Y-138184453D01*
X127364160Y-138055755D01*
X127747000Y-137848754D01*
X128082343Y-137571334D01*
X128357414Y-137234063D01*
X128561738Y-136849787D01*
X128687530Y-136433143D01*
X128726947Y-136031136D01*
X141770217Y-136031136D01*
X141818731Y-136463643D01*
X141950328Y-136878490D01*
X142159997Y-137259876D01*
X142439751Y-137593274D01*
X142778934Y-137865984D01*
X143164627Y-138067620D01*
X143582140Y-138190501D01*
X144015568Y-138229946D01*
X144448404Y-138184453D01*
X144864160Y-138055755D01*
X145247000Y-137848754D01*
X145582343Y-137571334D01*
X145857414Y-137234063D01*
X146061738Y-136849787D01*
X146187530Y-136433143D01*
X146230000Y-136000000D01*
X146229131Y-135937735D01*
X146174583Y-135505947D01*
X146037206Y-135092977D01*
X145822233Y-134714556D01*
X145537852Y-134385097D01*
X145194894Y-134117149D01*
X144806423Y-133920918D01*
X144387235Y-133803879D01*
X143953298Y-133770489D01*
X143521140Y-133822021D01*
X143107222Y-133956511D01*
X142727309Y-134168837D01*
X142395872Y-134450912D01*
X142125536Y-134791991D01*
X141926598Y-135179082D01*
X141806636Y-135597442D01*
X141770217Y-136031136D01*
X128726947Y-136031136D01*
X128730000Y-136000000D01*
X128729131Y-135937735D01*
X128674583Y-135505947D01*
X128537206Y-135092977D01*
X128322233Y-134714556D01*
X128037852Y-134385097D01*
X127694894Y-134117149D01*
X127306423Y-133920918D01*
X126887235Y-133803879D01*
X126453298Y-133770489D01*
X126021140Y-133822021D01*
X125607222Y-133956511D01*
X125227309Y-134168837D01*
X124895872Y-134450912D01*
X124625536Y-134791991D01*
X124426598Y-135179082D01*
X124306636Y-135597442D01*
X124270217Y-136031136D01*
X123138000Y-136031136D01*
X123138000Y-117426240D01*
X132508365Y-117426240D01*
X132589025Y-117677868D01*
X132857329Y-117806267D01*
X133145526Y-117879855D01*
X133442543Y-117895804D01*
X133736963Y-117853501D01*
X134017474Y-117754572D01*
X134160975Y-117677868D01*
X134241635Y-117426240D01*
X133375000Y-116559605D01*
X132508365Y-117426240D01*
X123138000Y-117426240D01*
X123138000Y-116447543D01*
X131859196Y-116447543D01*
X131901499Y-116741963D01*
X132000428Y-117022474D01*
X132077132Y-117165975D01*
X132328760Y-117246635D01*
X133195395Y-116380000D01*
X133554605Y-116380000D01*
X134421240Y-117246635D01*
X134599768Y-117189407D01*
X134702107Y-117342569D01*
X134912431Y-117552893D01*
X135159747Y-117718144D01*
X135434549Y-117831971D01*
X135726278Y-117890000D01*
X136023722Y-117890000D01*
X136315451Y-117831971D01*
X136590253Y-117718144D01*
X136837569Y-117552893D01*
X137047893Y-117342569D01*
X137125000Y-117227170D01*
X137202107Y-117342569D01*
X137412431Y-117552893D01*
X137659747Y-117718144D01*
X137934549Y-117831971D01*
X138226278Y-117890000D01*
X138523722Y-117890000D01*
X138815451Y-117831971D01*
X139090253Y-117718144D01*
X139337569Y-117552893D01*
X139406026Y-117484436D01*
X139410498Y-117499180D01*
X139469463Y-117609494D01*
X139548815Y-117706185D01*
X139645506Y-117785537D01*
X139755820Y-117844502D01*
X139875518Y-117880812D01*
X140000000Y-117893072D01*
X141750000Y-117893072D01*
X141874482Y-117880812D01*
X141994180Y-117844502D01*
X142104494Y-117785537D01*
X142201185Y-117706185D01*
X142280537Y-117609494D01*
X142339502Y-117499180D01*
X142375812Y-117379482D01*
X142388072Y-117255000D01*
X142388072Y-115505000D01*
X142375812Y-115380518D01*
X142339502Y-115260820D01*
X142280537Y-115150506D01*
X142201185Y-115053815D01*
X142104494Y-114974463D01*
X141994180Y-114915498D01*
X141874482Y-114879188D01*
X141750000Y-114866928D01*
X140000000Y-114866928D01*
X139875518Y-114879188D01*
X139755820Y-114915498D01*
X139645506Y-114974463D01*
X139548815Y-115053815D01*
X139469463Y-115150506D01*
X139410498Y-115260820D01*
X139406026Y-115275564D01*
X139337569Y-115207107D01*
X139090253Y-115041856D01*
X138815451Y-114928029D01*
X138523722Y-114870000D01*
X138226278Y-114870000D01*
X137934549Y-114928029D01*
X137659747Y-115041856D01*
X137412431Y-115207107D01*
X137202107Y-115417431D01*
X137125000Y-115532830D01*
X137047893Y-115417431D01*
X136837569Y-115207107D01*
X136590253Y-115041856D01*
X136315451Y-114928029D01*
X136023722Y-114870000D01*
X135726278Y-114870000D01*
X135434549Y-114928029D01*
X135159747Y-115041856D01*
X134912431Y-115207107D01*
X134702107Y-115417431D01*
X134599768Y-115570593D01*
X134421240Y-115513365D01*
X133554605Y-116380000D01*
X133195395Y-116380000D01*
X132328760Y-115513365D01*
X132077132Y-115594025D01*
X131948733Y-115862329D01*
X131875145Y-116150526D01*
X131859196Y-116447543D01*
X123138000Y-116447543D01*
X123138000Y-115333760D01*
X132508365Y-115333760D01*
X133375000Y-116200395D01*
X134241635Y-115333760D01*
X134160975Y-115082132D01*
X133892671Y-114953733D01*
X133604474Y-114880145D01*
X133307457Y-114864196D01*
X133013037Y-114906499D01*
X132732526Y-115005428D01*
X132589025Y-115082132D01*
X132508365Y-115333760D01*
X123138000Y-115333760D01*
X123138000Y-105664000D01*
X125871928Y-105664000D01*
X125884188Y-105788482D01*
X125920498Y-105908180D01*
X125979463Y-106018494D01*
X126058815Y-106115185D01*
X126155506Y-106194537D01*
X126265820Y-106253502D01*
X126385518Y-106289812D01*
X126510000Y-106302072D01*
X126709250Y-106299000D01*
X126868000Y-106140250D01*
X126868000Y-105156000D01*
X126033750Y-105156000D01*
X125875000Y-105314750D01*
X125871928Y-105664000D01*
X123138000Y-105664000D01*
X123138000Y-91987000D01*
X124207928Y-91987000D01*
X124207928Y-93687000D01*
X124220188Y-93811482D01*
X124256498Y-93931180D01*
X124311000Y-94033145D01*
X124311001Y-97614610D01*
X124306235Y-97663000D01*
X124325253Y-97856093D01*
X124334928Y-97887987D01*
X124334928Y-98640000D01*
X124347188Y-98764482D01*
X124383498Y-98884180D01*
X124438001Y-98986146D01*
X124438000Y-101546855D01*
X124383498Y-101648820D01*
X124347188Y-101768518D01*
X124334928Y-101893000D01*
X124334928Y-103593000D01*
X124347188Y-103717482D01*
X124383498Y-103837180D01*
X124442463Y-103947494D01*
X124521815Y-104044185D01*
X124618506Y-104123537D01*
X124728820Y-104182502D01*
X124848518Y-104218812D01*
X124973000Y-104231072D01*
X125873000Y-104231072D01*
X125896554Y-104228752D01*
X125884188Y-104269518D01*
X125871928Y-104394000D01*
X125875000Y-104743250D01*
X126033750Y-104902000D01*
X126868000Y-104902000D01*
X126868000Y-103917750D01*
X126709250Y-103759000D01*
X126510000Y-103755928D01*
X126486446Y-103758248D01*
X126498812Y-103717482D01*
X126511072Y-103593000D01*
X126511072Y-101893000D01*
X126498812Y-101768518D01*
X126462502Y-101648820D01*
X126408000Y-101546856D01*
X126408000Y-101339026D01*
X126510000Y-101349072D01*
X126709250Y-101346000D01*
X126868000Y-101187250D01*
X126868000Y-100203000D01*
X126848000Y-100203000D01*
X126848000Y-99949000D01*
X126868000Y-99949000D01*
X126868000Y-98964750D01*
X126709250Y-98806000D01*
X126510000Y-98802928D01*
X126486446Y-98805248D01*
X126498812Y-98764482D01*
X126511072Y-98640000D01*
X126511072Y-96940000D01*
X126498812Y-96815518D01*
X126462502Y-96695820D01*
X126403537Y-96585506D01*
X126324185Y-96488815D01*
X126281000Y-96453374D01*
X126281000Y-96352107D01*
X126385518Y-96383812D01*
X126510000Y-96396072D01*
X126709250Y-96393000D01*
X126868000Y-96234250D01*
X126868000Y-95250000D01*
X126848000Y-95250000D01*
X126848000Y-94996000D01*
X126868000Y-94996000D01*
X126868000Y-94011750D01*
X126709250Y-93853000D01*
X126510000Y-93849928D01*
X126385518Y-93862188D01*
X126353483Y-93871906D01*
X126371812Y-93811482D01*
X126384072Y-93687000D01*
X126384072Y-92237000D01*
X127107928Y-92237000D01*
X127107928Y-93687000D01*
X127120188Y-93811482D01*
X127156498Y-93931180D01*
X127172546Y-93961204D01*
X127122000Y-94011750D01*
X127122000Y-94996000D01*
X127142000Y-94996000D01*
X127142000Y-95250000D01*
X127122000Y-95250000D01*
X127122000Y-96234250D01*
X127280750Y-96393000D01*
X127480000Y-96396072D01*
X127557915Y-96388398D01*
X127518506Y-96409463D01*
X127421815Y-96488815D01*
X127342463Y-96585506D01*
X127283498Y-96695820D01*
X127247188Y-96815518D01*
X127234928Y-96940000D01*
X127234928Y-98640000D01*
X127247188Y-98764482D01*
X127264662Y-98822088D01*
X127122000Y-98964750D01*
X127122000Y-99949000D01*
X127142000Y-99949000D01*
X127142000Y-100203000D01*
X127122000Y-100203000D01*
X127122000Y-101187250D01*
X127280750Y-101346000D01*
X127480000Y-101349072D01*
X127557915Y-101341398D01*
X127518506Y-101362463D01*
X127421815Y-101441815D01*
X127342463Y-101538506D01*
X127283498Y-101648820D01*
X127247188Y-101768518D01*
X127234928Y-101893000D01*
X127234928Y-103593000D01*
X127247188Y-103717482D01*
X127264662Y-103775088D01*
X127122000Y-103917750D01*
X127122000Y-104902000D01*
X127142000Y-104902000D01*
X127142000Y-105156000D01*
X127122000Y-105156000D01*
X127122000Y-106140250D01*
X127280750Y-106299000D01*
X127480000Y-106302072D01*
X127604482Y-106289812D01*
X127635000Y-106280554D01*
X127665518Y-106289812D01*
X127790000Y-106302072D01*
X128760000Y-106302072D01*
X128884482Y-106289812D01*
X129004180Y-106253502D01*
X129114494Y-106194537D01*
X129211185Y-106115185D01*
X129290537Y-106018494D01*
X129349502Y-105908180D01*
X129385812Y-105788482D01*
X129398072Y-105664000D01*
X129398072Y-104394000D01*
X129385812Y-104269518D01*
X129349502Y-104149820D01*
X129290537Y-104039506D01*
X129259281Y-104001420D01*
X129303537Y-103947494D01*
X129362502Y-103837180D01*
X129398812Y-103717482D01*
X129408518Y-103618935D01*
X129446490Y-103615195D01*
X129613313Y-103564589D01*
X129767059Y-103482411D01*
X129901817Y-103371817D01*
X129929534Y-103338044D01*
X130655851Y-102611727D01*
X130720574Y-102598853D01*
X130981727Y-102490680D01*
X131216759Y-102333637D01*
X131219928Y-102330468D01*
X131219928Y-102743000D01*
X131232188Y-102867482D01*
X131268498Y-102987180D01*
X131273747Y-102997000D01*
X131268498Y-103006820D01*
X131232188Y-103126518D01*
X131219928Y-103251000D01*
X131219928Y-104013000D01*
X131232188Y-104137482D01*
X131268498Y-104257180D01*
X131273747Y-104267000D01*
X131268498Y-104276820D01*
X131232188Y-104396518D01*
X131219928Y-104521000D01*
X131219928Y-105283000D01*
X131225049Y-105335000D01*
X130932469Y-105335000D01*
X130889000Y-105330719D01*
X130845531Y-105335000D01*
X130845523Y-105335000D01*
X130715510Y-105347805D01*
X130548687Y-105398411D01*
X130463285Y-105444059D01*
X130394941Y-105480589D01*
X130293953Y-105563468D01*
X130293951Y-105563470D01*
X130260183Y-105591183D01*
X130232470Y-105624951D01*
X129198956Y-106658466D01*
X129165183Y-106686183D01*
X129054589Y-106820942D01*
X128972411Y-106974688D01*
X128921805Y-107141511D01*
X128909000Y-107271524D01*
X128909000Y-107271531D01*
X128904719Y-107315000D01*
X128909000Y-107358469D01*
X128909001Y-110446521D01*
X128904719Y-110490000D01*
X128921805Y-110663490D01*
X128972412Y-110830313D01*
X129054590Y-110984059D01*
X129137468Y-111085046D01*
X129137471Y-111085049D01*
X129165184Y-111118817D01*
X129198951Y-111146529D01*
X130153470Y-112101049D01*
X130181183Y-112134817D01*
X130214951Y-112162530D01*
X130214953Y-112162532D01*
X130245363Y-112187489D01*
X130315941Y-112245411D01*
X130469687Y-112327589D01*
X130557783Y-112354313D01*
X130636509Y-112378195D01*
X130651306Y-112379652D01*
X130766523Y-112391000D01*
X130766531Y-112391000D01*
X130810000Y-112395281D01*
X130853469Y-112391000D01*
X144540422Y-112391000D01*
X145673000Y-113523579D01*
X145673001Y-127718521D01*
X145668719Y-127762000D01*
X145685805Y-127935490D01*
X145736412Y-128102313D01*
X145818590Y-128256059D01*
X145901468Y-128357046D01*
X145901471Y-128357049D01*
X145929184Y-128390817D01*
X145962952Y-128418530D01*
X150590983Y-133046561D01*
X150584000Y-133081665D01*
X150584000Y-133364335D01*
X150639147Y-133641574D01*
X150747320Y-133902727D01*
X150904363Y-134137759D01*
X151104241Y-134337637D01*
X151339273Y-134494680D01*
X151600426Y-134602853D01*
X151877665Y-134658000D01*
X152160335Y-134658000D01*
X152437574Y-134602853D01*
X152698727Y-134494680D01*
X152933759Y-134337637D01*
X153054943Y-134216453D01*
X153085498Y-134317180D01*
X153144463Y-134427494D01*
X153223815Y-134524185D01*
X153320506Y-134603537D01*
X153430820Y-134662502D01*
X153550518Y-134698812D01*
X153675000Y-134711072D01*
X154575000Y-134711072D01*
X154699482Y-134698812D01*
X154819180Y-134662502D01*
X154929494Y-134603537D01*
X155026185Y-134524185D01*
X155105537Y-134427494D01*
X155164502Y-134317180D01*
X155200812Y-134197482D01*
X155213072Y-134073000D01*
X155213072Y-132373000D01*
X155200812Y-132248518D01*
X155164502Y-132128820D01*
X155105537Y-132018506D01*
X155026185Y-131921815D01*
X154929494Y-131842463D01*
X154819180Y-131783498D01*
X154699482Y-131747188D01*
X154575000Y-131734928D01*
X153675000Y-131734928D01*
X153550518Y-131747188D01*
X153430820Y-131783498D01*
X153320506Y-131842463D01*
X153223815Y-131921815D01*
X153144463Y-132018506D01*
X153085498Y-132128820D01*
X153054943Y-132229547D01*
X152933759Y-132108363D01*
X152698727Y-131951320D01*
X152437574Y-131843147D01*
X152160335Y-131788000D01*
X151877665Y-131788000D01*
X151842561Y-131794983D01*
X151387048Y-131339469D01*
X151600426Y-131427853D01*
X151877665Y-131483000D01*
X152160335Y-131483000D01*
X152437574Y-131427853D01*
X152698727Y-131319680D01*
X152933759Y-131162637D01*
X153054943Y-131041453D01*
X153085498Y-131142180D01*
X153144463Y-131252494D01*
X153223815Y-131349185D01*
X153320506Y-131428537D01*
X153430820Y-131487502D01*
X153550518Y-131523812D01*
X153675000Y-131536072D01*
X154575000Y-131536072D01*
X154699482Y-131523812D01*
X154819180Y-131487502D01*
X154929494Y-131428537D01*
X155026185Y-131349185D01*
X155105537Y-131252494D01*
X155164502Y-131142180D01*
X155200812Y-131022482D01*
X155213072Y-130898000D01*
X155213072Y-129198000D01*
X155200812Y-129073518D01*
X155164502Y-128953820D01*
X155105537Y-128843506D01*
X155026185Y-128746815D01*
X154929494Y-128667463D01*
X154819180Y-128608498D01*
X154699482Y-128572188D01*
X154575000Y-128559928D01*
X153675000Y-128559928D01*
X153550518Y-128572188D01*
X153430820Y-128608498D01*
X153320506Y-128667463D01*
X153223815Y-128746815D01*
X153144463Y-128843506D01*
X153085498Y-128953820D01*
X153054943Y-129054547D01*
X152933759Y-128933363D01*
X152698727Y-128776320D01*
X152437574Y-128668147D01*
X152160335Y-128613000D01*
X151877665Y-128613000D01*
X151600426Y-128668147D01*
X151339273Y-128776320D01*
X151104241Y-128933363D01*
X150904363Y-129133241D01*
X150884479Y-129163000D01*
X150464579Y-129163000D01*
X148205000Y-126903422D01*
X148205000Y-115420578D01*
X150590983Y-117806561D01*
X150584000Y-117841665D01*
X150584000Y-118124335D01*
X150639147Y-118401574D01*
X150747320Y-118662727D01*
X150904363Y-118897759D01*
X151104241Y-119097637D01*
X151193084Y-119157000D01*
X151031396Y-119157000D01*
X150901759Y-119027363D01*
X150666727Y-118870320D01*
X150405574Y-118762147D01*
X150128335Y-118707000D01*
X149845665Y-118707000D01*
X149568426Y-118762147D01*
X149307273Y-118870320D01*
X149072241Y-119027363D01*
X148872363Y-119227241D01*
X148715320Y-119462273D01*
X148607147Y-119723426D01*
X148552000Y-120000665D01*
X148552000Y-120283335D01*
X148607147Y-120560574D01*
X148715320Y-120821727D01*
X148872363Y-121056759D01*
X149072241Y-121256637D01*
X149307273Y-121413680D01*
X149568426Y-121521853D01*
X149845665Y-121577000D01*
X150128335Y-121577000D01*
X150405574Y-121521853D01*
X150666727Y-121413680D01*
X150901759Y-121256637D01*
X151031396Y-121127000D01*
X154510620Y-121127000D01*
X154559000Y-121131765D01*
X154590000Y-121128712D01*
X154590001Y-126189610D01*
X154585235Y-126238000D01*
X154604253Y-126431093D01*
X154660576Y-126616766D01*
X154703152Y-126696419D01*
X154752041Y-126787884D01*
X154875131Y-126937870D01*
X154912711Y-126968711D01*
X156040000Y-128096001D01*
X156040000Y-128851855D01*
X155985498Y-128953820D01*
X155949188Y-129073518D01*
X155936928Y-129198000D01*
X155936928Y-130898000D01*
X155949188Y-131022482D01*
X155985498Y-131142180D01*
X156040000Y-131244145D01*
X156040001Y-132026854D01*
X155985498Y-132128820D01*
X155949188Y-132248518D01*
X155936928Y-132373000D01*
X155936928Y-134073000D01*
X155949188Y-134197482D01*
X155985498Y-134317180D01*
X156044463Y-134427494D01*
X156123815Y-134524185D01*
X156220506Y-134603537D01*
X156330820Y-134662502D01*
X156450518Y-134698812D01*
X156575000Y-134711072D01*
X157475000Y-134711072D01*
X157599482Y-134698812D01*
X157719180Y-134662502D01*
X157829494Y-134603537D01*
X157926185Y-134524185D01*
X158005537Y-134427494D01*
X158064502Y-134317180D01*
X158100812Y-134197482D01*
X158113072Y-134073000D01*
X158113072Y-132373000D01*
X158100812Y-132248518D01*
X158064502Y-132128820D01*
X158010000Y-132026856D01*
X158010000Y-131244144D01*
X158064502Y-131142180D01*
X158100812Y-131022482D01*
X158113072Y-130898000D01*
X158113072Y-129198000D01*
X158100812Y-129073518D01*
X158064502Y-128953820D01*
X158010000Y-128851856D01*
X158010000Y-127736380D01*
X158014765Y-127688000D01*
X157995747Y-127494906D01*
X157939424Y-127309233D01*
X157847960Y-127138116D01*
X157843912Y-127133183D01*
X157724870Y-126988130D01*
X157687290Y-126957289D01*
X156560000Y-125830000D01*
X156560000Y-119453498D01*
X156577518Y-119458812D01*
X156702000Y-119471072D01*
X157602000Y-119471072D01*
X157726482Y-119458812D01*
X157846180Y-119422502D01*
X157956494Y-119363537D01*
X158053185Y-119284185D01*
X158132537Y-119187494D01*
X158191502Y-119077180D01*
X158227812Y-118957482D01*
X158240072Y-118833000D01*
X158240072Y-117133000D01*
X158227812Y-117008518D01*
X158191502Y-116888820D01*
X158132537Y-116778506D01*
X158053185Y-116681815D01*
X157956494Y-116602463D01*
X157846180Y-116543498D01*
X157726482Y-116507188D01*
X157602000Y-116494928D01*
X156702000Y-116494928D01*
X156577518Y-116507188D01*
X156560000Y-116512502D01*
X156560000Y-116278498D01*
X156577518Y-116283812D01*
X156702000Y-116296072D01*
X157602000Y-116296072D01*
X157726482Y-116283812D01*
X157846180Y-116247502D01*
X157956494Y-116188537D01*
X158053185Y-116109185D01*
X158132537Y-116012494D01*
X158191502Y-115902180D01*
X158227812Y-115782482D01*
X158240072Y-115658000D01*
X158240072Y-113958000D01*
X158227812Y-113833518D01*
X158191502Y-113713820D01*
X158132537Y-113603506D01*
X158053185Y-113506815D01*
X157956494Y-113427463D01*
X157846180Y-113368498D01*
X157726482Y-113332188D01*
X157602000Y-113319928D01*
X156702000Y-113319928D01*
X156577518Y-113332188D01*
X156560000Y-113337502D01*
X156560000Y-104213498D01*
X156577518Y-104218812D01*
X156702000Y-104231072D01*
X157602000Y-104231072D01*
X157726482Y-104218812D01*
X157846180Y-104182502D01*
X157956494Y-104123537D01*
X158053185Y-104044185D01*
X158132537Y-103947494D01*
X158191502Y-103837180D01*
X158227812Y-103717482D01*
X158240072Y-103593000D01*
X158240072Y-101893000D01*
X158227812Y-101768518D01*
X158191502Y-101648820D01*
X158132537Y-101538506D01*
X158053185Y-101441815D01*
X157956494Y-101362463D01*
X157846180Y-101303498D01*
X157726482Y-101267188D01*
X157602000Y-101254928D01*
X156702000Y-101254928D01*
X156577518Y-101267188D01*
X156560000Y-101272502D01*
X156560000Y-101038498D01*
X156577518Y-101043812D01*
X156702000Y-101056072D01*
X157602000Y-101056072D01*
X157726482Y-101043812D01*
X157846180Y-101007502D01*
X157956494Y-100948537D01*
X158053185Y-100869185D01*
X158132537Y-100772494D01*
X158191502Y-100662180D01*
X158227812Y-100542482D01*
X158240072Y-100418000D01*
X158240072Y-98718000D01*
X158227812Y-98593518D01*
X158191502Y-98473820D01*
X158132537Y-98363506D01*
X158053185Y-98266815D01*
X157956494Y-98187463D01*
X157846180Y-98128498D01*
X157726482Y-98092188D01*
X157602000Y-98079928D01*
X156702000Y-98079928D01*
X156577518Y-98092188D01*
X156560000Y-98097502D01*
X156560000Y-88973498D01*
X156577518Y-88978812D01*
X156702000Y-88991072D01*
X157602000Y-88991072D01*
X157726482Y-88978812D01*
X157846180Y-88942502D01*
X157956494Y-88883537D01*
X158053185Y-88804185D01*
X158132537Y-88707494D01*
X158191502Y-88597180D01*
X158227812Y-88477482D01*
X158240072Y-88353000D01*
X158240072Y-86653000D01*
X158227812Y-86528518D01*
X158191502Y-86408820D01*
X158132537Y-86298506D01*
X158053185Y-86201815D01*
X157956494Y-86122463D01*
X157846180Y-86063498D01*
X157726482Y-86027188D01*
X157602000Y-86014928D01*
X156702000Y-86014928D01*
X156577518Y-86027188D01*
X156560000Y-86032502D01*
X156560000Y-85798498D01*
X156577518Y-85803812D01*
X156702000Y-85816072D01*
X157602000Y-85816072D01*
X157726482Y-85803812D01*
X157846180Y-85767502D01*
X157956494Y-85708537D01*
X158053185Y-85629185D01*
X158132537Y-85532494D01*
X158191502Y-85422180D01*
X158227812Y-85302482D01*
X158240072Y-85178000D01*
X158240072Y-83478000D01*
X158227812Y-83353518D01*
X158191502Y-83233820D01*
X158132537Y-83123506D01*
X158053185Y-83026815D01*
X157956494Y-82947463D01*
X157846180Y-82888498D01*
X157726482Y-82852188D01*
X157602000Y-82839928D01*
X156702000Y-82839928D01*
X156577518Y-82852188D01*
X156560000Y-82857502D01*
X156560000Y-73749595D01*
X156575000Y-73751072D01*
X157475000Y-73751072D01*
X157599482Y-73738812D01*
X157719180Y-73702502D01*
X157829494Y-73643537D01*
X157926185Y-73564185D01*
X158005537Y-73467494D01*
X158064502Y-73357180D01*
X158100812Y-73237482D01*
X158113072Y-73113000D01*
X158113072Y-71413000D01*
X158100812Y-71288518D01*
X158064502Y-71168820D01*
X158005537Y-71058506D01*
X157926185Y-70961815D01*
X157829494Y-70882463D01*
X157719180Y-70823498D01*
X157599482Y-70787188D01*
X157475000Y-70774928D01*
X156575000Y-70774928D01*
X156560000Y-70776405D01*
X156560000Y-70574595D01*
X156575000Y-70576072D01*
X157475000Y-70576072D01*
X157599482Y-70563812D01*
X157719180Y-70527502D01*
X157829494Y-70468537D01*
X157926185Y-70389185D01*
X158005537Y-70292494D01*
X158064502Y-70182180D01*
X158100812Y-70062482D01*
X158113072Y-69938000D01*
X158113072Y-68238000D01*
X158100812Y-68113518D01*
X158064502Y-67993820D01*
X158005537Y-67883506D01*
X157926185Y-67786815D01*
X157829494Y-67707463D01*
X157719180Y-67648498D01*
X157599482Y-67612188D01*
X157475000Y-67599928D01*
X156575000Y-67599928D01*
X156560000Y-67601405D01*
X156560000Y-66009000D01*
X159864602Y-66009000D01*
X159994239Y-66138637D01*
X160229271Y-66295680D01*
X160490424Y-66403853D01*
X160767663Y-66459000D01*
X161050333Y-66459000D01*
X161327572Y-66403853D01*
X161588725Y-66295680D01*
X161823757Y-66138637D01*
X162023635Y-65938759D01*
X162180678Y-65703727D01*
X162288851Y-65442574D01*
X162343998Y-65165335D01*
X162343998Y-64882665D01*
X162288851Y-64605426D01*
X162180678Y-64344273D01*
X162023635Y-64109241D01*
X161823757Y-63909363D01*
X161588725Y-63752320D01*
X161327572Y-63644147D01*
X161050333Y-63589000D01*
X160767663Y-63589000D01*
X160490424Y-63644147D01*
X160229271Y-63752320D01*
X159994239Y-63909363D01*
X159864602Y-64039000D01*
X155623380Y-64039000D01*
X155575000Y-64034235D01*
X155526620Y-64039000D01*
X153210377Y-64039000D01*
X153161999Y-64034235D01*
X153113621Y-64039000D01*
X153113620Y-64039000D01*
X152968906Y-64053253D01*
X152783233Y-64109576D01*
X152612116Y-64201040D01*
X152462130Y-64324130D01*
X152431284Y-64361716D01*
X144752711Y-72040289D01*
X144715131Y-72071130D01*
X144592041Y-72221116D01*
X144569654Y-72263000D01*
X144500576Y-72392234D01*
X144444253Y-72577907D01*
X144425235Y-72771000D01*
X144430001Y-72819390D01*
X144430000Y-76554000D01*
X143231000Y-77753000D01*
X138648072Y-77753000D01*
X138648072Y-77588000D01*
X138635812Y-77463518D01*
X138599502Y-77343820D01*
X138540537Y-77233506D01*
X138461185Y-77136815D01*
X138364494Y-77057463D01*
X138254180Y-76998498D01*
X138134482Y-76962188D01*
X138010000Y-76949928D01*
X132310000Y-76949928D01*
X132185518Y-76962188D01*
X132065820Y-76998498D01*
X131955506Y-77057463D01*
X131858815Y-77136815D01*
X131779463Y-77233506D01*
X131720498Y-77343820D01*
X131684188Y-77463518D01*
X131671928Y-77588000D01*
X131671928Y-79888000D01*
X131684188Y-80012482D01*
X131697066Y-80054934D01*
X130125072Y-81626928D01*
X129280000Y-81626928D01*
X129155518Y-81639188D01*
X129035820Y-81675498D01*
X128925506Y-81734463D01*
X128828815Y-81813815D01*
X128810000Y-81836741D01*
X128791185Y-81813815D01*
X128694494Y-81734463D01*
X128584180Y-81675498D01*
X128464482Y-81639188D01*
X128340000Y-81626928D01*
X127825750Y-81630000D01*
X127667000Y-81788750D01*
X127667000Y-83138000D01*
X127687000Y-83138000D01*
X127687000Y-83392000D01*
X127667000Y-83392000D01*
X127667000Y-84741250D01*
X127825750Y-84900000D01*
X128340000Y-84903072D01*
X128464482Y-84890812D01*
X128584180Y-84854502D01*
X128694494Y-84795537D01*
X128791185Y-84716185D01*
X128810000Y-84693259D01*
X128828815Y-84716185D01*
X128925506Y-84795537D01*
X129035820Y-84854502D01*
X129155518Y-84890812D01*
X129280000Y-84903072D01*
X130880000Y-84903072D01*
X131004482Y-84890812D01*
X131124180Y-84854502D01*
X131234494Y-84795537D01*
X131331185Y-84716185D01*
X131410537Y-84619494D01*
X131469502Y-84509180D01*
X131505812Y-84389482D01*
X131518072Y-84265000D01*
X131518072Y-83019928D01*
X134011928Y-80526072D01*
X134175000Y-80526072D01*
X134175001Y-85263610D01*
X134170235Y-85312000D01*
X134175000Y-85360380D01*
X134175001Y-86649928D01*
X133540000Y-86649928D01*
X133415518Y-86662188D01*
X133295820Y-86698498D01*
X133255000Y-86720317D01*
X133214180Y-86698498D01*
X133094482Y-86662188D01*
X132970000Y-86649928D01*
X132270000Y-86649928D01*
X132145518Y-86662188D01*
X132025820Y-86698498D01*
X131915506Y-86757463D01*
X131818815Y-86836815D01*
X131739463Y-86933506D01*
X131680498Y-87043820D01*
X131644188Y-87163518D01*
X131631928Y-87288000D01*
X131631928Y-88677000D01*
X131363343Y-88677000D01*
X131410537Y-88619494D01*
X131469502Y-88509180D01*
X131505812Y-88389482D01*
X131518072Y-88265000D01*
X131515000Y-87550750D01*
X131356250Y-87392000D01*
X130207000Y-87392000D01*
X130207000Y-87412000D01*
X129953000Y-87412000D01*
X129953000Y-87392000D01*
X129933000Y-87392000D01*
X129933000Y-87138000D01*
X129953000Y-87138000D01*
X129953000Y-85788750D01*
X130207000Y-85788750D01*
X130207000Y-87138000D01*
X131356250Y-87138000D01*
X131515000Y-86979250D01*
X131518072Y-86265000D01*
X131505812Y-86140518D01*
X131469502Y-86020820D01*
X131410537Y-85910506D01*
X131331185Y-85813815D01*
X131234494Y-85734463D01*
X131124180Y-85675498D01*
X131004482Y-85639188D01*
X130880000Y-85626928D01*
X130365750Y-85630000D01*
X130207000Y-85788750D01*
X129953000Y-85788750D01*
X129794250Y-85630000D01*
X129280000Y-85626928D01*
X129155518Y-85639188D01*
X129035820Y-85675498D01*
X128925506Y-85734463D01*
X128828815Y-85813815D01*
X128810000Y-85836741D01*
X128791185Y-85813815D01*
X128694494Y-85734463D01*
X128584180Y-85675498D01*
X128464482Y-85639188D01*
X128340000Y-85626928D01*
X126740000Y-85626928D01*
X126615518Y-85639188D01*
X126495820Y-85675498D01*
X126385506Y-85734463D01*
X126288815Y-85813815D01*
X126209463Y-85910506D01*
X126150498Y-86020820D01*
X126114188Y-86140518D01*
X126101928Y-86265000D01*
X126101928Y-88265000D01*
X126114188Y-88389482D01*
X126150498Y-88509180D01*
X126209463Y-88619494D01*
X126288815Y-88716185D01*
X126385506Y-88795537D01*
X126495820Y-88854502D01*
X126555000Y-88872454D01*
X126555000Y-88883619D01*
X126550235Y-88932000D01*
X126555000Y-88980380D01*
X126555000Y-89026620D01*
X126550235Y-89075000D01*
X126555000Y-89123379D01*
X126569253Y-89268093D01*
X126625576Y-89453766D01*
X126717040Y-89624884D01*
X126835000Y-89768619D01*
X126835000Y-89803335D01*
X126890147Y-90080574D01*
X126967367Y-90267000D01*
X125344380Y-90267000D01*
X125296000Y-90262235D01*
X125247620Y-90267000D01*
X125102906Y-90281253D01*
X124917233Y-90337576D01*
X124746116Y-90429040D01*
X124596130Y-90552130D01*
X124473040Y-90702116D01*
X124381576Y-90873233D01*
X124325253Y-91058906D01*
X124306235Y-91252000D01*
X124311000Y-91300381D01*
X124311000Y-91640855D01*
X124256498Y-91742820D01*
X124220188Y-91862518D01*
X124207928Y-91987000D01*
X123138000Y-91987000D01*
X123138000Y-84265000D01*
X126101928Y-84265000D01*
X126114188Y-84389482D01*
X126150498Y-84509180D01*
X126209463Y-84619494D01*
X126288815Y-84716185D01*
X126385506Y-84795537D01*
X126495820Y-84854502D01*
X126615518Y-84890812D01*
X126740000Y-84903072D01*
X127254250Y-84900000D01*
X127413000Y-84741250D01*
X127413000Y-83392000D01*
X126263750Y-83392000D01*
X126105000Y-83550750D01*
X126101928Y-84265000D01*
X123138000Y-84265000D01*
X123138000Y-82265000D01*
X126101928Y-82265000D01*
X126105000Y-82979250D01*
X126263750Y-83138000D01*
X127413000Y-83138000D01*
X127413000Y-81788750D01*
X127254250Y-81630000D01*
X126740000Y-81626928D01*
X126615518Y-81639188D01*
X126495820Y-81675498D01*
X126385506Y-81734463D01*
X126288815Y-81813815D01*
X126209463Y-81910506D01*
X126150498Y-82020820D01*
X126114188Y-82140518D01*
X126101928Y-82265000D01*
X123138000Y-82265000D01*
X123138000Y-64031136D01*
X124270217Y-64031136D01*
X124318731Y-64463643D01*
X124450328Y-64878490D01*
X124659997Y-65259876D01*
X124939751Y-65593274D01*
X125278934Y-65865984D01*
X125664627Y-66067620D01*
X126082140Y-66190501D01*
X126515568Y-66229946D01*
X126948404Y-66184453D01*
X127364160Y-66055755D01*
X127747000Y-65848754D01*
X128082343Y-65571334D01*
X128357414Y-65234063D01*
X128561738Y-64849787D01*
X128687530Y-64433143D01*
X128726947Y-64031136D01*
X141770217Y-64031136D01*
X141818731Y-64463643D01*
X141950328Y-64878490D01*
X142159997Y-65259876D01*
X142439751Y-65593274D01*
X142778934Y-65865984D01*
X143164627Y-66067620D01*
X143582140Y-66190501D01*
X144015568Y-66229946D01*
X144448404Y-66184453D01*
X144864160Y-66055755D01*
X145247000Y-65848754D01*
X145582343Y-65571334D01*
X145857414Y-65234063D01*
X146061738Y-64849787D01*
X146187530Y-64433143D01*
X146230000Y-64000000D01*
X146229131Y-63937735D01*
X146174583Y-63505947D01*
X146037206Y-63092977D01*
X145822233Y-62714556D01*
X145537852Y-62385097D01*
X145194894Y-62117149D01*
X144806423Y-61920918D01*
X144387235Y-61803879D01*
X143953298Y-61770489D01*
X143521140Y-61822021D01*
X143107222Y-61956511D01*
X142727309Y-62168837D01*
X142395872Y-62450912D01*
X142125536Y-62791991D01*
X141926598Y-63179082D01*
X141806636Y-63597442D01*
X141770217Y-64031136D01*
X128726947Y-64031136D01*
X128730000Y-64000000D01*
X128729131Y-63937735D01*
X128674583Y-63505947D01*
X128537206Y-63092977D01*
X128322233Y-62714556D01*
X128037852Y-62385097D01*
X127694894Y-62117149D01*
X127306423Y-61920918D01*
X126887235Y-61803879D01*
X126453298Y-61770489D01*
X126021140Y-61822021D01*
X125607222Y-61956511D01*
X125227309Y-62168837D01*
X124895872Y-62450912D01*
X124625536Y-62791991D01*
X124426598Y-63179082D01*
X124306636Y-63597442D01*
X124270217Y-64031136D01*
X123138000Y-64031136D01*
X123138000Y-60781000D01*
X162993000Y-60781000D01*
X162993001Y-140768000D01*
G36*
X138251573Y-86685573D02*
G01*
X138174482Y-86662188D01*
X138050000Y-86649928D01*
X137985750Y-86653000D01*
X137827000Y-86811750D01*
X137827000Y-88661000D01*
X137847000Y-88661000D01*
X137847000Y-88915000D01*
X137827000Y-88915000D01*
X137827000Y-90764250D01*
X137966842Y-90904092D01*
X137857130Y-90994130D01*
X137826280Y-91031720D01*
X137513717Y-91344284D01*
X137476130Y-91375130D01*
X137353040Y-91525116D01*
X137269983Y-91680506D01*
X137261576Y-91696234D01*
X137205253Y-91881907D01*
X137186235Y-92075000D01*
X137191000Y-92123380D01*
X137191001Y-94693610D01*
X137186235Y-94742000D01*
X137205253Y-94935094D01*
X137261576Y-95120767D01*
X137353040Y-95291884D01*
X137476130Y-95441870D01*
X137626116Y-95564960D01*
X137797233Y-95656424D01*
X137982906Y-95712747D01*
X138127620Y-95727000D01*
X138176000Y-95731765D01*
X138224380Y-95727000D01*
X138839928Y-95727000D01*
X138839928Y-96393000D01*
X138852188Y-96517482D01*
X138888498Y-96637180D01*
X138893747Y-96647000D01*
X138888498Y-96656820D01*
X138852188Y-96776518D01*
X138839928Y-96901000D01*
X138839928Y-97221177D01*
X138721560Y-97172147D01*
X138444321Y-97117000D01*
X138161651Y-97117000D01*
X137884412Y-97172147D01*
X137623259Y-97280320D01*
X137388227Y-97437363D01*
X137188349Y-97637241D01*
X137031306Y-97872273D01*
X136923133Y-98133426D01*
X136867986Y-98410665D01*
X136867986Y-98693335D01*
X136923133Y-98970574D01*
X137031306Y-99231727D01*
X137188349Y-99466759D01*
X137388227Y-99666637D01*
X137623259Y-99823680D01*
X137884412Y-99931853D01*
X138161651Y-99987000D01*
X138444321Y-99987000D01*
X138721560Y-99931853D01*
X138839928Y-99882823D01*
X138839928Y-100203000D01*
X138852188Y-100327482D01*
X138888498Y-100447180D01*
X138893747Y-100457000D01*
X138888498Y-100466820D01*
X138852188Y-100586518D01*
X138839928Y-100711000D01*
X138839928Y-101473000D01*
X138852188Y-101597482D01*
X138888498Y-101717180D01*
X138893747Y-101727000D01*
X138888498Y-101736820D01*
X138852188Y-101856518D01*
X138839928Y-101981000D01*
X138839928Y-102743000D01*
X138852188Y-102867482D01*
X138888498Y-102987180D01*
X138893747Y-102997000D01*
X138888498Y-103006820D01*
X138852188Y-103126518D01*
X138839928Y-103251000D01*
X138839928Y-104013000D01*
X138852188Y-104137482D01*
X138888498Y-104257180D01*
X138893747Y-104267000D01*
X138888498Y-104276820D01*
X138852188Y-104396518D01*
X138839928Y-104521000D01*
X138839928Y-105283000D01*
X138852188Y-105407482D01*
X138888498Y-105527180D01*
X138893747Y-105537000D01*
X138888498Y-105546820D01*
X138852188Y-105666518D01*
X138839928Y-105791000D01*
X138839928Y-106553000D01*
X138852188Y-106677482D01*
X138888498Y-106797180D01*
X138893747Y-106807000D01*
X138888498Y-106816820D01*
X138852188Y-106936518D01*
X138839928Y-107061000D01*
X138839928Y-107823000D01*
X138852188Y-107947482D01*
X138888498Y-108067180D01*
X138893747Y-108077000D01*
X138888498Y-108086820D01*
X138852188Y-108206518D01*
X138839928Y-108331000D01*
X138839928Y-109093000D01*
X138852188Y-109217482D01*
X138888498Y-109337180D01*
X138947463Y-109447494D01*
X139026815Y-109544185D01*
X139100919Y-109605000D01*
X136363501Y-109605000D01*
X136388537Y-109574494D01*
X136447502Y-109464180D01*
X136483812Y-109344482D01*
X136496072Y-109220000D01*
X136493000Y-109124750D01*
X136334250Y-108966000D01*
X133985000Y-108966000D01*
X133985000Y-108986000D01*
X133731000Y-108986000D01*
X133731000Y-108966000D01*
X133711000Y-108966000D01*
X133711000Y-108712000D01*
X133731000Y-108712000D01*
X133731000Y-108692000D01*
X133985000Y-108692000D01*
X133985000Y-108712000D01*
X136334250Y-108712000D01*
X136493000Y-108553250D01*
X136496072Y-108458000D01*
X136483812Y-108333518D01*
X136447502Y-108213820D01*
X136408311Y-108140500D01*
X136447502Y-108067180D01*
X136483812Y-107947482D01*
X136496072Y-107823000D01*
X136496072Y-107061000D01*
X136483812Y-106936518D01*
X136447502Y-106816820D01*
X136442253Y-106807000D01*
X136447502Y-106797180D01*
X136483812Y-106677482D01*
X136496072Y-106553000D01*
X136496072Y-105791000D01*
X136483812Y-105666518D01*
X136447502Y-105546820D01*
X136442253Y-105537000D01*
X136447502Y-105527180D01*
X136483812Y-105407482D01*
X136496072Y-105283000D01*
X136496072Y-104521000D01*
X136483812Y-104396518D01*
X136447502Y-104276820D01*
X136442253Y-104267000D01*
X136447502Y-104257180D01*
X136483812Y-104137482D01*
X136496072Y-104013000D01*
X136496072Y-103251000D01*
X136483812Y-103126518D01*
X136447502Y-103006820D01*
X136442253Y-102997000D01*
X136447502Y-102987180D01*
X136483812Y-102867482D01*
X136496072Y-102743000D01*
X136496072Y-101981000D01*
X136483812Y-101856518D01*
X136447502Y-101736820D01*
X136442253Y-101727000D01*
X136447502Y-101717180D01*
X136483812Y-101597482D01*
X136496072Y-101473000D01*
X136496072Y-100711000D01*
X136483812Y-100586518D01*
X136447502Y-100466820D01*
X136442253Y-100457000D01*
X136447502Y-100447180D01*
X136483812Y-100327482D01*
X136496072Y-100203000D01*
X136496072Y-99441000D01*
X136483812Y-99316518D01*
X136447502Y-99196820D01*
X136442253Y-99187000D01*
X136447502Y-99177180D01*
X136483812Y-99057482D01*
X136496072Y-98933000D01*
X136496072Y-98171000D01*
X136483812Y-98046518D01*
X136447502Y-97926820D01*
X136442253Y-97917000D01*
X136447502Y-97907180D01*
X136483812Y-97787482D01*
X136496072Y-97663000D01*
X136496072Y-96901000D01*
X136483812Y-96776518D01*
X136447502Y-96656820D01*
X136442253Y-96647000D01*
X136447502Y-96637180D01*
X136483812Y-96517482D01*
X136496072Y-96393000D01*
X136496072Y-95631000D01*
X136483812Y-95506518D01*
X136447502Y-95386820D01*
X136442253Y-95377000D01*
X136447502Y-95367180D01*
X136483812Y-95247482D01*
X136496072Y-95123000D01*
X136496072Y-94361000D01*
X136483812Y-94236518D01*
X136447502Y-94116820D01*
X136388537Y-94006506D01*
X136374220Y-93989061D01*
X136379502Y-93979180D01*
X136415812Y-93859482D01*
X136428072Y-93735000D01*
X136428072Y-92035000D01*
X136415812Y-91910518D01*
X136379502Y-91790820D01*
X136325000Y-91688856D01*
X136325000Y-91494563D01*
X136352747Y-91403093D01*
X136371765Y-91210000D01*
X136366897Y-91160576D01*
X136352747Y-91016905D01*
X136327500Y-90933680D01*
X136325193Y-90926072D01*
X136780000Y-90926072D01*
X136904482Y-90913812D01*
X137024180Y-90877502D01*
X137065000Y-90855683D01*
X137105820Y-90877502D01*
X137225518Y-90913812D01*
X137350000Y-90926072D01*
X137414250Y-90923000D01*
X137573000Y-90764250D01*
X137573000Y-88915000D01*
X137553000Y-88915000D01*
X137553000Y-88661000D01*
X137573000Y-88661000D01*
X137573000Y-86811750D01*
X137414250Y-86653000D01*
X137350000Y-86649928D01*
X137225518Y-86662188D01*
X137105820Y-86698498D01*
X137065000Y-86720317D01*
X137024180Y-86698498D01*
X136904482Y-86662188D01*
X136780000Y-86649928D01*
X136145000Y-86649928D01*
X136145000Y-86329000D01*
X137895000Y-86329000D01*
X138251573Y-86685573D01*
X138251573Y-86685573D01*
G37*
X138251573Y-86685573D02*
X138174482Y-86662188D01*
X138050000Y-86649928D01*
X137985750Y-86653000D01*
X137827000Y-86811750D01*
X137827000Y-88661000D01*
X137847000Y-88661000D01*
X137847000Y-88915000D01*
X137827000Y-88915000D01*
X137827000Y-90764250D01*
X137966842Y-90904092D01*
X137857130Y-90994130D01*
X137826280Y-91031720D01*
X137513717Y-91344284D01*
X137476130Y-91375130D01*
X137353040Y-91525116D01*
X137269983Y-91680506D01*
X137261576Y-91696234D01*
X137205253Y-91881907D01*
X137186235Y-92075000D01*
X137191000Y-92123380D01*
X137191001Y-94693610D01*
X137186235Y-94742000D01*
X137205253Y-94935094D01*
X137261576Y-95120767D01*
X137353040Y-95291884D01*
X137476130Y-95441870D01*
X137626116Y-95564960D01*
X137797233Y-95656424D01*
X137982906Y-95712747D01*
X138127620Y-95727000D01*
X138176000Y-95731765D01*
X138224380Y-95727000D01*
X138839928Y-95727000D01*
X138839928Y-96393000D01*
X138852188Y-96517482D01*
X138888498Y-96637180D01*
X138893747Y-96647000D01*
X138888498Y-96656820D01*
X138852188Y-96776518D01*
X138839928Y-96901000D01*
X138839928Y-97221177D01*
X138721560Y-97172147D01*
X138444321Y-97117000D01*
X138161651Y-97117000D01*
X137884412Y-97172147D01*
X137623259Y-97280320D01*
X137388227Y-97437363D01*
X137188349Y-97637241D01*
X137031306Y-97872273D01*
X136923133Y-98133426D01*
X136867986Y-98410665D01*
X136867986Y-98693335D01*
X136923133Y-98970574D01*
X137031306Y-99231727D01*
X137188349Y-99466759D01*
X137388227Y-99666637D01*
X137623259Y-99823680D01*
X137884412Y-99931853D01*
X138161651Y-99987000D01*
X138444321Y-99987000D01*
X138721560Y-99931853D01*
X138839928Y-99882823D01*
X138839928Y-100203000D01*
X138852188Y-100327482D01*
X138888498Y-100447180D01*
X138893747Y-100457000D01*
X138888498Y-100466820D01*
X138852188Y-100586518D01*
X138839928Y-100711000D01*
X138839928Y-101473000D01*
X138852188Y-101597482D01*
X138888498Y-101717180D01*
X138893747Y-101727000D01*
X138888498Y-101736820D01*
X138852188Y-101856518D01*
X138839928Y-101981000D01*
X138839928Y-102743000D01*
X138852188Y-102867482D01*
X138888498Y-102987180D01*
X138893747Y-102997000D01*
X138888498Y-103006820D01*
X138852188Y-103126518D01*
X138839928Y-103251000D01*
X138839928Y-104013000D01*
X138852188Y-104137482D01*
X138888498Y-104257180D01*
X138893747Y-104267000D01*
X138888498Y-104276820D01*
X138852188Y-104396518D01*
X138839928Y-104521000D01*
X138839928Y-105283000D01*
X138852188Y-105407482D01*
X138888498Y-105527180D01*
X138893747Y-105537000D01*
X138888498Y-105546820D01*
X138852188Y-105666518D01*
X138839928Y-105791000D01*
X138839928Y-106553000D01*
X138852188Y-106677482D01*
X138888498Y-106797180D01*
X138893747Y-106807000D01*
X138888498Y-106816820D01*
X138852188Y-106936518D01*
X138839928Y-107061000D01*
X138839928Y-107823000D01*
X138852188Y-107947482D01*
X138888498Y-108067180D01*
X138893747Y-108077000D01*
X138888498Y-108086820D01*
X138852188Y-108206518D01*
X138839928Y-108331000D01*
X138839928Y-109093000D01*
X138852188Y-109217482D01*
X138888498Y-109337180D01*
X138947463Y-109447494D01*
X139026815Y-109544185D01*
X139100919Y-109605000D01*
X136363501Y-109605000D01*
X136388537Y-109574494D01*
X136447502Y-109464180D01*
X136483812Y-109344482D01*
X136496072Y-109220000D01*
X136493000Y-109124750D01*
X136334250Y-108966000D01*
X133985000Y-108966000D01*
X133985000Y-108986000D01*
X133731000Y-108986000D01*
X133731000Y-108966000D01*
X133711000Y-108966000D01*
X133711000Y-108712000D01*
X133731000Y-108712000D01*
X133731000Y-108692000D01*
X133985000Y-108692000D01*
X133985000Y-108712000D01*
X136334250Y-108712000D01*
X136493000Y-108553250D01*
X136496072Y-108458000D01*
X136483812Y-108333518D01*
X136447502Y-108213820D01*
X136408311Y-108140500D01*
X136447502Y-108067180D01*
X136483812Y-107947482D01*
X136496072Y-107823000D01*
X136496072Y-107061000D01*
X136483812Y-106936518D01*
X136447502Y-106816820D01*
X136442253Y-106807000D01*
X136447502Y-106797180D01*
X136483812Y-106677482D01*
X136496072Y-106553000D01*
X136496072Y-105791000D01*
X136483812Y-105666518D01*
X136447502Y-105546820D01*
X136442253Y-105537000D01*
X136447502Y-105527180D01*
X136483812Y-105407482D01*
X136496072Y-105283000D01*
X136496072Y-104521000D01*
X136483812Y-104396518D01*
X136447502Y-104276820D01*
X136442253Y-104267000D01*
X136447502Y-104257180D01*
X136483812Y-104137482D01*
X136496072Y-104013000D01*
X136496072Y-103251000D01*
X136483812Y-103126518D01*
X136447502Y-103006820D01*
X136442253Y-102997000D01*
X136447502Y-102987180D01*
X136483812Y-102867482D01*
X136496072Y-102743000D01*
X136496072Y-101981000D01*
X136483812Y-101856518D01*
X136447502Y-101736820D01*
X136442253Y-101727000D01*
X136447502Y-101717180D01*
X136483812Y-101597482D01*
X136496072Y-101473000D01*
X136496072Y-100711000D01*
X136483812Y-100586518D01*
X136447502Y-100466820D01*
X136442253Y-100457000D01*
X136447502Y-100447180D01*
X136483812Y-100327482D01*
X136496072Y-100203000D01*
X136496072Y-99441000D01*
X136483812Y-99316518D01*
X136447502Y-99196820D01*
X136442253Y-99187000D01*
X136447502Y-99177180D01*
X136483812Y-99057482D01*
X136496072Y-98933000D01*
X136496072Y-98171000D01*
X136483812Y-98046518D01*
X136447502Y-97926820D01*
X136442253Y-97917000D01*
X136447502Y-97907180D01*
X136483812Y-97787482D01*
X136496072Y-97663000D01*
X136496072Y-96901000D01*
X136483812Y-96776518D01*
X136447502Y-96656820D01*
X136442253Y-96647000D01*
X136447502Y-96637180D01*
X136483812Y-96517482D01*
X136496072Y-96393000D01*
X136496072Y-95631000D01*
X136483812Y-95506518D01*
X136447502Y-95386820D01*
X136442253Y-95377000D01*
X136447502Y-95367180D01*
X136483812Y-95247482D01*
X136496072Y-95123000D01*
X136496072Y-94361000D01*
X136483812Y-94236518D01*
X136447502Y-94116820D01*
X136388537Y-94006506D01*
X136374220Y-93989061D01*
X136379502Y-93979180D01*
X136415812Y-93859482D01*
X136428072Y-93735000D01*
X136428072Y-92035000D01*
X136415812Y-91910518D01*
X136379502Y-91790820D01*
X136325000Y-91688856D01*
X136325000Y-91494563D01*
X136352747Y-91403093D01*
X136371765Y-91210000D01*
X136366897Y-91160576D01*
X136352747Y-91016905D01*
X136327500Y-90933680D01*
X136325193Y-90926072D01*
X136780000Y-90926072D01*
X136904482Y-90913812D01*
X137024180Y-90877502D01*
X137065000Y-90855683D01*
X137105820Y-90877502D01*
X137225518Y-90913812D01*
X137350000Y-90926072D01*
X137414250Y-90923000D01*
X137573000Y-90764250D01*
X137573000Y-88915000D01*
X137553000Y-88915000D01*
X137553000Y-88661000D01*
X137573000Y-88661000D01*
X137573000Y-86811750D01*
X137414250Y-86653000D01*
X137350000Y-86649928D01*
X137225518Y-86662188D01*
X137105820Y-86698498D01*
X137065000Y-86720317D01*
X137024180Y-86698498D01*
X136904482Y-86662188D01*
X136780000Y-86649928D01*
X136145000Y-86649928D01*
X136145000Y-86329000D01*
X137895000Y-86329000D01*
X138251573Y-86685573D01*
M02*
