M48
; DRILL file {KiCad (5.1.0)-1} date 2019/03/20 23:13:18
; FORMAT={3:3/ absolute / metric / suppress trailing zeros}
; #@! TF.CreationDate,2019-03-20T23:13:18+09:00
; #@! TF.GenerationSoftware,Kicad,Pcbnew,(5.1.0)-1
; #@! TF.FileFunction,Plated,1,2,PTH
FMAT,2
METRIC,LZ
T1C0.800
T2C1.000
%
G90
G05
T1
X12827Y-089662
X129159Y-114173
X130302Y-092837
X130302Y-098679
X130302Y-101219
X136906Y-108204
X138303Y-098552
X143911Y-091567
X14478Y-127889
X145161Y-097282
X149987Y-074549
X149987Y-104648
X149987Y-120142
X150094Y-089916
X152019Y-069088
X152019Y-072263
X152019Y-087503
X152019Y-099568
X152019Y-102743
X152019Y-114808
X152019Y-117983
X152019Y-130048
X152019Y-133223
X152146Y-084328
X160909Y-065024
T2
X133375Y-11638
X135875Y-11638
X138375Y-11638
X140875Y-11638
T0
M30
