%FSLAX45Y45*%
G04 Gerber Fmt 4.5, Leading zero omitted, Abs format (unit mm)*
G04 Created by KiCad (PCBNEW (5.0.0-rc2-dev-632-g76d3b6f04)) date 11/25/18 05:16:47*
%MOMM*%
%LPD*%
G01*
G04 APERTURE LIST*
%ADD10C,0.150000*%
%ADD11C,0.200000*%
%ADD12C,0.300000*%
G04 APERTURE END LIST*
D10*
X14550000Y-13600000D02*
G75*
G03X14550000Y-13600000I-150000J0D01*
G01*
X14550000Y-6400000D02*
G75*
G03X14550000Y-6400000I-150000J0D01*
G01*
X13050000Y-6400000D02*
G75*
G03X13050000Y-6400000I-150000J0D01*
G01*
X13050000Y-13600000D02*
G75*
G03X13050000Y-13600000I-150000J0D01*
G01*
D11*
X12500000Y-14000000D02*
X16500000Y-14000000D01*
X12500000Y-6000000D02*
X12500000Y-14000000D01*
X13000000Y-6000000D02*
X12500000Y-6000000D01*
X15850000Y-6000000D02*
X13000000Y-6000000D01*
X16500000Y-6000000D02*
X15850000Y-6000000D01*
X16500000Y-14000000D02*
X16500000Y-6000000D01*
D11*
X12787000Y-8926200D02*
X12867000Y-9006200D01*
X12867000Y-8926200D02*
X12787000Y-9006200D01*
X12964800Y-9332600D02*
X13044800Y-9412600D01*
X13044800Y-9332600D02*
X12964800Y-9412600D01*
X12964800Y-9688200D02*
X13044800Y-9768200D01*
X13044800Y-9688200D02*
X12964800Y-9768200D01*
X12968000Y-11407500D02*
X13048000Y-11487500D01*
X13048000Y-11407500D02*
X12968000Y-11487500D01*
X14311000Y-9485000D02*
X14391000Y-9565000D01*
X14391000Y-9485000D02*
X14311000Y-9565000D01*
X14311000Y-9688200D02*
X14391000Y-9768200D01*
X14391000Y-9688200D02*
X14311000Y-9768200D01*
X15610000Y-13659999D02*
X15690000Y-13739999D01*
X15690000Y-13659999D02*
X15610000Y-13739999D01*
X15635000Y-6645000D02*
X15715000Y-6725000D01*
X15715000Y-6645000D02*
X15635000Y-6725000D01*
X15635000Y-8169000D02*
X15715000Y-8249000D01*
X15715000Y-8169000D02*
X15635000Y-8249000D01*
X15635000Y-9693000D02*
X15715000Y-9773000D01*
X15715000Y-9693000D02*
X15635000Y-9773000D01*
X15635000Y-11217000D02*
X15715000Y-11297000D01*
X15715000Y-11217000D02*
X15635000Y-11297000D01*
X15635000Y-12741000D02*
X15715000Y-12821000D01*
X15715000Y-12741000D02*
X15635000Y-12821000D01*
X16333500Y-6691000D02*
X16413500Y-6771000D01*
X16413500Y-6691000D02*
X16333500Y-6771000D01*
X15090000Y-11257000D02*
G75*
G03X15090000Y-11257000I-50000J0D01*
G01*
X15090000Y-11511000D02*
G75*
G03X15090000Y-11511000I-50000J0D01*
G01*
X15090000Y-11765000D02*
G75*
G03X15090000Y-11765000I-50000J0D01*
G01*
X15090000Y-12019000D02*
G75*
G03X15090000Y-12019000I-50000J0D01*
G01*
X15090000Y-6685000D02*
G75*
G03X15090000Y-6685000I-50000J0D01*
G01*
X15090000Y-6939000D02*
G75*
G03X15090000Y-6939000I-50000J0D01*
G01*
X15090000Y-7193000D02*
G75*
G03X15090000Y-7193000I-50000J0D01*
G01*
X15090000Y-7447000D02*
G75*
G03X15090000Y-7447000I-50000J0D01*
G01*
X15090000Y-12781000D02*
G75*
G03X15090000Y-12781000I-50000J0D01*
G01*
X15090000Y-13035000D02*
G75*
G03X15090000Y-13035000I-50000J0D01*
G01*
X15090000Y-13289000D02*
G75*
G03X15090000Y-13289000I-50000J0D01*
G01*
X15090000Y-13543000D02*
G75*
G03X15090000Y-13543000I-50000J0D01*
G01*
X13387500Y-11638000D02*
G75*
G03X13387500Y-11638000I-50000J0D01*
G01*
X13637500Y-11638000D02*
G75*
G03X13637500Y-11638000I-50000J0D01*
G01*
X13887500Y-11638000D02*
G75*
G03X13887500Y-11638000I-50000J0D01*
G01*
X14137500Y-11638000D02*
G75*
G03X14137500Y-11638000I-50000J0D01*
G01*
X15090000Y-9733000D02*
G75*
G03X15090000Y-9733000I-50000J0D01*
G01*
X15090000Y-9987000D02*
G75*
G03X15090000Y-9987000I-50000J0D01*
G01*
X15090000Y-10241000D02*
G75*
G03X15090000Y-10241000I-50000J0D01*
G01*
X15090000Y-10495000D02*
G75*
G03X15090000Y-10495000I-50000J0D01*
G01*
X15090000Y-8209000D02*
G75*
G03X15090000Y-8209000I-50000J0D01*
G01*
X15090000Y-8463000D02*
G75*
G03X15090000Y-8463000I-50000J0D01*
G01*
X15090000Y-8717000D02*
G75*
G03X15090000Y-8717000I-50000J0D01*
G01*
X15090000Y-8971000D02*
G75*
G03X15090000Y-8971000I-50000J0D01*
G01*
D12*
X12776428Y-14475714D02*
X12776428Y-14175714D01*
X12847857Y-14175714D01*
X12890714Y-14190000D01*
X12919286Y-14218571D01*
X12933571Y-14247143D01*
X12947857Y-14304286D01*
X12947857Y-14347143D01*
X12933571Y-14404286D01*
X12919286Y-14432857D01*
X12890714Y-14461429D01*
X12847857Y-14475714D01*
X12776428Y-14475714D01*
X13076428Y-14475714D02*
X13076428Y-14275714D01*
X13076428Y-14332857D02*
X13090714Y-14304286D01*
X13105000Y-14290000D01*
X13133571Y-14275714D01*
X13162143Y-14275714D01*
X13262143Y-14475714D02*
X13262143Y-14275714D01*
X13262143Y-14175714D02*
X13247857Y-14190000D01*
X13262143Y-14204286D01*
X13276428Y-14190000D01*
X13262143Y-14175714D01*
X13262143Y-14204286D01*
X13447857Y-14475714D02*
X13419286Y-14461429D01*
X13405000Y-14432857D01*
X13405000Y-14175714D01*
X13605000Y-14475714D02*
X13576428Y-14461429D01*
X13562143Y-14432857D01*
X13562143Y-14175714D01*
X13947857Y-14475714D02*
X13947857Y-14175714D01*
X14047857Y-14390000D01*
X14147857Y-14175714D01*
X14147857Y-14475714D01*
X14419286Y-14475714D02*
X14419286Y-14318571D01*
X14405000Y-14290000D01*
X14376428Y-14275714D01*
X14319286Y-14275714D01*
X14290714Y-14290000D01*
X14419286Y-14461429D02*
X14390714Y-14475714D01*
X14319286Y-14475714D01*
X14290714Y-14461429D01*
X14276428Y-14432857D01*
X14276428Y-14404286D01*
X14290714Y-14375714D01*
X14319286Y-14361429D01*
X14390714Y-14361429D01*
X14419286Y-14347143D01*
X14562143Y-14275714D02*
X14562143Y-14575714D01*
X14562143Y-14290000D02*
X14590714Y-14275714D01*
X14647857Y-14275714D01*
X14676428Y-14290000D01*
X14690714Y-14304286D01*
X14705000Y-14332857D01*
X14705000Y-14418571D01*
X14690714Y-14447143D01*
X14676428Y-14461429D01*
X14647857Y-14475714D01*
X14590714Y-14475714D01*
X14562143Y-14461429D01*
X14833571Y-14447143D02*
X14847857Y-14461429D01*
X14833571Y-14475714D01*
X14819286Y-14461429D01*
X14833571Y-14447143D01*
X14833571Y-14475714D01*
X14833571Y-14290000D02*
X14847857Y-14304286D01*
X14833571Y-14318571D01*
X14819286Y-14304286D01*
X14833571Y-14290000D01*
X14833571Y-14318571D01*
X12410000Y-14930000D02*
X12490000Y-15010000D01*
X12490000Y-14930000D02*
X12410000Y-15010000D01*
X12833571Y-14805714D02*
X12862143Y-14805714D01*
X12890714Y-14820000D01*
X12905000Y-14834286D01*
X12919286Y-14862857D01*
X12933571Y-14920000D01*
X12933571Y-14991429D01*
X12919286Y-15048571D01*
X12905000Y-15077143D01*
X12890714Y-15091429D01*
X12862143Y-15105714D01*
X12833571Y-15105714D01*
X12805000Y-15091429D01*
X12790714Y-15077143D01*
X12776428Y-15048571D01*
X12762143Y-14991429D01*
X12762143Y-14920000D01*
X12776428Y-14862857D01*
X12790714Y-14834286D01*
X12805000Y-14820000D01*
X12833571Y-14805714D01*
X13062143Y-15077143D02*
X13076428Y-15091429D01*
X13062143Y-15105714D01*
X13047857Y-15091429D01*
X13062143Y-15077143D01*
X13062143Y-15105714D01*
X13247857Y-14934286D02*
X13219286Y-14920000D01*
X13205000Y-14905714D01*
X13190714Y-14877143D01*
X13190714Y-14862857D01*
X13205000Y-14834286D01*
X13219286Y-14820000D01*
X13247857Y-14805714D01*
X13305000Y-14805714D01*
X13333571Y-14820000D01*
X13347857Y-14834286D01*
X13362143Y-14862857D01*
X13362143Y-14877143D01*
X13347857Y-14905714D01*
X13333571Y-14920000D01*
X13305000Y-14934286D01*
X13247857Y-14934286D01*
X13219286Y-14948571D01*
X13205000Y-14962857D01*
X13190714Y-14991429D01*
X13190714Y-15048571D01*
X13205000Y-15077143D01*
X13219286Y-15091429D01*
X13247857Y-15105714D01*
X13305000Y-15105714D01*
X13333571Y-15091429D01*
X13347857Y-15077143D01*
X13362143Y-15048571D01*
X13362143Y-14991429D01*
X13347857Y-14962857D01*
X13333571Y-14948571D01*
X13305000Y-14934286D01*
X13547857Y-14805714D02*
X13576428Y-14805714D01*
X13605000Y-14820000D01*
X13619286Y-14834286D01*
X13633571Y-14862857D01*
X13647857Y-14920000D01*
X13647857Y-14991429D01*
X13633571Y-15048571D01*
X13619286Y-15077143D01*
X13605000Y-15091429D01*
X13576428Y-15105714D01*
X13547857Y-15105714D01*
X13519286Y-15091429D01*
X13505000Y-15077143D01*
X13490714Y-15048571D01*
X13476428Y-14991429D01*
X13476428Y-14920000D01*
X13490714Y-14862857D01*
X13505000Y-14834286D01*
X13519286Y-14820000D01*
X13547857Y-14805714D01*
X13776428Y-15105714D02*
X13776428Y-14905714D01*
X13776428Y-14934286D02*
X13790714Y-14920000D01*
X13819286Y-14905714D01*
X13862143Y-14905714D01*
X13890714Y-14920000D01*
X13905000Y-14948571D01*
X13905000Y-15105714D01*
X13905000Y-14948571D02*
X13919286Y-14920000D01*
X13947857Y-14905714D01*
X13990714Y-14905714D01*
X14019286Y-14920000D01*
X14033571Y-14948571D01*
X14033571Y-15105714D01*
X14176428Y-15105714D02*
X14176428Y-14905714D01*
X14176428Y-14934286D02*
X14190714Y-14920000D01*
X14219286Y-14905714D01*
X14262143Y-14905714D01*
X14290714Y-14920000D01*
X14305000Y-14948571D01*
X14305000Y-15105714D01*
X14305000Y-14948571D02*
X14319286Y-14920000D01*
X14347857Y-14905714D01*
X14390714Y-14905714D01*
X14419286Y-14920000D01*
X14433571Y-14948571D01*
X14433571Y-15105714D01*
X15019286Y-14791429D02*
X14762143Y-15177143D01*
X15405000Y-14805714D02*
X15433571Y-14805714D01*
X15462143Y-14820000D01*
X15476428Y-14834286D01*
X15490714Y-14862857D01*
X15505000Y-14920000D01*
X15505000Y-14991429D01*
X15490714Y-15048571D01*
X15476428Y-15077143D01*
X15462143Y-15091429D01*
X15433571Y-15105714D01*
X15405000Y-15105714D01*
X15376428Y-15091429D01*
X15362143Y-15077143D01*
X15347857Y-15048571D01*
X15333571Y-14991429D01*
X15333571Y-14920000D01*
X15347857Y-14862857D01*
X15362143Y-14834286D01*
X15376428Y-14820000D01*
X15405000Y-14805714D01*
X15633571Y-15077143D02*
X15647857Y-15091429D01*
X15633571Y-15105714D01*
X15619286Y-15091429D01*
X15633571Y-15077143D01*
X15633571Y-15105714D01*
X15833571Y-14805714D02*
X15862143Y-14805714D01*
X15890714Y-14820000D01*
X15905000Y-14834286D01*
X15919286Y-14862857D01*
X15933571Y-14920000D01*
X15933571Y-14991429D01*
X15919286Y-15048571D01*
X15905000Y-15077143D01*
X15890714Y-15091429D01*
X15862143Y-15105714D01*
X15833571Y-15105714D01*
X15805000Y-15091429D01*
X15790714Y-15077143D01*
X15776428Y-15048571D01*
X15762143Y-14991429D01*
X15762143Y-14920000D01*
X15776428Y-14862857D01*
X15790714Y-14834286D01*
X15805000Y-14820000D01*
X15833571Y-14805714D01*
X16033571Y-14805714D02*
X16219286Y-14805714D01*
X16119286Y-14920000D01*
X16162143Y-14920000D01*
X16190714Y-14934286D01*
X16205000Y-14948571D01*
X16219286Y-14977143D01*
X16219286Y-15048571D01*
X16205000Y-15077143D01*
X16190714Y-15091429D01*
X16162143Y-15105714D01*
X16076428Y-15105714D01*
X16047857Y-15091429D01*
X16033571Y-15077143D01*
X16505000Y-15105714D02*
X16333571Y-15105714D01*
X16419286Y-15105714D02*
X16419286Y-14805714D01*
X16390714Y-14848571D01*
X16362143Y-14877143D01*
X16333571Y-14891429D01*
X16619286Y-14805714D02*
X16619286Y-14862857D01*
X16733571Y-14805714D02*
X16733571Y-14862857D01*
X17176428Y-15220000D02*
X17162143Y-15205714D01*
X17133571Y-15162857D01*
X17119286Y-15134286D01*
X17105000Y-15091429D01*
X17090714Y-15020000D01*
X17090714Y-14962857D01*
X17105000Y-14891429D01*
X17119286Y-14848571D01*
X17133571Y-14820000D01*
X17162143Y-14777143D01*
X17176428Y-14762857D01*
X17447857Y-15105714D02*
X17276428Y-15105714D01*
X17362143Y-15105714D02*
X17362143Y-14805714D01*
X17333571Y-14848571D01*
X17305000Y-14877143D01*
X17276428Y-14891429D01*
X17547857Y-14805714D02*
X17733571Y-14805714D01*
X17633571Y-14920000D01*
X17676428Y-14920000D01*
X17705000Y-14934286D01*
X17719286Y-14948571D01*
X17733571Y-14977143D01*
X17733571Y-15048571D01*
X17719286Y-15077143D01*
X17705000Y-15091429D01*
X17676428Y-15105714D01*
X17590714Y-15105714D01*
X17562143Y-15091429D01*
X17547857Y-15077143D01*
X18090714Y-15105714D02*
X18090714Y-14805714D01*
X18219286Y-15105714D02*
X18219286Y-14948571D01*
X18205000Y-14920000D01*
X18176428Y-14905714D01*
X18133571Y-14905714D01*
X18105000Y-14920000D01*
X18090714Y-14934286D01*
X18405000Y-15105714D02*
X18376428Y-15091429D01*
X18362143Y-15077143D01*
X18347857Y-15048571D01*
X18347857Y-14962857D01*
X18362143Y-14934286D01*
X18376428Y-14920000D01*
X18405000Y-14905714D01*
X18447857Y-14905714D01*
X18476428Y-14920000D01*
X18490714Y-14934286D01*
X18505000Y-14962857D01*
X18505000Y-15048571D01*
X18490714Y-15077143D01*
X18476428Y-15091429D01*
X18447857Y-15105714D01*
X18405000Y-15105714D01*
X18676428Y-15105714D02*
X18647857Y-15091429D01*
X18633571Y-15062857D01*
X18633571Y-14805714D01*
X18905000Y-15091429D02*
X18876428Y-15105714D01*
X18819286Y-15105714D01*
X18790714Y-15091429D01*
X18776428Y-15062857D01*
X18776428Y-14948571D01*
X18790714Y-14920000D01*
X18819286Y-14905714D01*
X18876428Y-14905714D01*
X18905000Y-14920000D01*
X18919286Y-14948571D01*
X18919286Y-14977143D01*
X18776428Y-15005714D01*
X19033571Y-15091429D02*
X19062143Y-15105714D01*
X19119286Y-15105714D01*
X19147857Y-15091429D01*
X19162143Y-15062857D01*
X19162143Y-15048571D01*
X19147857Y-15020000D01*
X19119286Y-15005714D01*
X19076428Y-15005714D01*
X19047857Y-14991429D01*
X19033571Y-14962857D01*
X19033571Y-14948571D01*
X19047857Y-14920000D01*
X19076428Y-14905714D01*
X19119286Y-14905714D01*
X19147857Y-14920000D01*
X19262143Y-15220000D02*
X19276428Y-15205714D01*
X19305000Y-15162857D01*
X19319286Y-15134286D01*
X19333571Y-15091429D01*
X19347857Y-15020000D01*
X19347857Y-14962857D01*
X19333571Y-14891429D01*
X19319286Y-14848571D01*
X19305000Y-14820000D01*
X19276428Y-14777143D01*
X19262143Y-14762857D01*
X12490000Y-15366000D02*
G75*
G03X12490000Y-15366000I-50000J0D01*
G01*
X12933571Y-15501714D02*
X12762143Y-15501714D01*
X12847857Y-15501714D02*
X12847857Y-15201714D01*
X12819286Y-15244571D01*
X12790714Y-15273143D01*
X12762143Y-15287429D01*
X13062143Y-15473143D02*
X13076428Y-15487429D01*
X13062143Y-15501714D01*
X13047857Y-15487429D01*
X13062143Y-15473143D01*
X13062143Y-15501714D01*
X13262143Y-15201714D02*
X13290714Y-15201714D01*
X13319286Y-15216000D01*
X13333571Y-15230286D01*
X13347857Y-15258857D01*
X13362143Y-15316000D01*
X13362143Y-15387429D01*
X13347857Y-15444571D01*
X13333571Y-15473143D01*
X13319286Y-15487429D01*
X13290714Y-15501714D01*
X13262143Y-15501714D01*
X13233571Y-15487429D01*
X13219286Y-15473143D01*
X13205000Y-15444571D01*
X13190714Y-15387429D01*
X13190714Y-15316000D01*
X13205000Y-15258857D01*
X13219286Y-15230286D01*
X13233571Y-15216000D01*
X13262143Y-15201714D01*
X13547857Y-15201714D02*
X13576428Y-15201714D01*
X13605000Y-15216000D01*
X13619286Y-15230286D01*
X13633571Y-15258857D01*
X13647857Y-15316000D01*
X13647857Y-15387429D01*
X13633571Y-15444571D01*
X13619286Y-15473143D01*
X13605000Y-15487429D01*
X13576428Y-15501714D01*
X13547857Y-15501714D01*
X13519286Y-15487429D01*
X13505000Y-15473143D01*
X13490714Y-15444571D01*
X13476428Y-15387429D01*
X13476428Y-15316000D01*
X13490714Y-15258857D01*
X13505000Y-15230286D01*
X13519286Y-15216000D01*
X13547857Y-15201714D01*
X13776428Y-15501714D02*
X13776428Y-15301714D01*
X13776428Y-15330286D02*
X13790714Y-15316000D01*
X13819286Y-15301714D01*
X13862143Y-15301714D01*
X13890714Y-15316000D01*
X13905000Y-15344571D01*
X13905000Y-15501714D01*
X13905000Y-15344571D02*
X13919286Y-15316000D01*
X13947857Y-15301714D01*
X13990714Y-15301714D01*
X14019286Y-15316000D01*
X14033571Y-15344571D01*
X14033571Y-15501714D01*
X14176428Y-15501714D02*
X14176428Y-15301714D01*
X14176428Y-15330286D02*
X14190714Y-15316000D01*
X14219286Y-15301714D01*
X14262143Y-15301714D01*
X14290714Y-15316000D01*
X14305000Y-15344571D01*
X14305000Y-15501714D01*
X14305000Y-15344571D02*
X14319286Y-15316000D01*
X14347857Y-15301714D01*
X14390714Y-15301714D01*
X14419286Y-15316000D01*
X14433571Y-15344571D01*
X14433571Y-15501714D01*
X15019286Y-15187429D02*
X14762143Y-15573143D01*
X15405000Y-15201714D02*
X15433571Y-15201714D01*
X15462143Y-15216000D01*
X15476428Y-15230286D01*
X15490714Y-15258857D01*
X15505000Y-15316000D01*
X15505000Y-15387429D01*
X15490714Y-15444571D01*
X15476428Y-15473143D01*
X15462143Y-15487429D01*
X15433571Y-15501714D01*
X15405000Y-15501714D01*
X15376428Y-15487429D01*
X15362143Y-15473143D01*
X15347857Y-15444571D01*
X15333571Y-15387429D01*
X15333571Y-15316000D01*
X15347857Y-15258857D01*
X15362143Y-15230286D01*
X15376428Y-15216000D01*
X15405000Y-15201714D01*
X15633571Y-15473143D02*
X15647857Y-15487429D01*
X15633571Y-15501714D01*
X15619286Y-15487429D01*
X15633571Y-15473143D01*
X15633571Y-15501714D01*
X15833571Y-15201714D02*
X15862143Y-15201714D01*
X15890714Y-15216000D01*
X15905000Y-15230286D01*
X15919286Y-15258857D01*
X15933571Y-15316000D01*
X15933571Y-15387429D01*
X15919286Y-15444571D01*
X15905000Y-15473143D01*
X15890714Y-15487429D01*
X15862143Y-15501714D01*
X15833571Y-15501714D01*
X15805000Y-15487429D01*
X15790714Y-15473143D01*
X15776428Y-15444571D01*
X15762143Y-15387429D01*
X15762143Y-15316000D01*
X15776428Y-15258857D01*
X15790714Y-15230286D01*
X15805000Y-15216000D01*
X15833571Y-15201714D01*
X16033571Y-15201714D02*
X16219286Y-15201714D01*
X16119286Y-15316000D01*
X16162143Y-15316000D01*
X16190714Y-15330286D01*
X16205000Y-15344571D01*
X16219286Y-15373143D01*
X16219286Y-15444571D01*
X16205000Y-15473143D01*
X16190714Y-15487429D01*
X16162143Y-15501714D01*
X16076428Y-15501714D01*
X16047857Y-15487429D01*
X16033571Y-15473143D01*
X16362143Y-15501714D02*
X16419286Y-15501714D01*
X16447857Y-15487429D01*
X16462143Y-15473143D01*
X16490714Y-15430286D01*
X16505000Y-15373143D01*
X16505000Y-15258857D01*
X16490714Y-15230286D01*
X16476428Y-15216000D01*
X16447857Y-15201714D01*
X16390714Y-15201714D01*
X16362143Y-15216000D01*
X16347857Y-15230286D01*
X16333571Y-15258857D01*
X16333571Y-15330286D01*
X16347857Y-15358857D01*
X16362143Y-15373143D01*
X16390714Y-15387429D01*
X16447857Y-15387429D01*
X16476428Y-15373143D01*
X16490714Y-15358857D01*
X16505000Y-15330286D01*
X16619286Y-15201714D02*
X16619286Y-15258857D01*
X16733571Y-15201714D02*
X16733571Y-15258857D01*
X17176428Y-15616000D02*
X17162143Y-15601714D01*
X17133571Y-15558857D01*
X17119286Y-15530286D01*
X17105000Y-15487429D01*
X17090714Y-15416000D01*
X17090714Y-15358857D01*
X17105000Y-15287429D01*
X17119286Y-15244571D01*
X17133571Y-15216000D01*
X17162143Y-15173143D01*
X17176428Y-15158857D01*
X17276428Y-15230286D02*
X17290714Y-15216000D01*
X17319286Y-15201714D01*
X17390714Y-15201714D01*
X17419286Y-15216000D01*
X17433571Y-15230286D01*
X17447857Y-15258857D01*
X17447857Y-15287429D01*
X17433571Y-15330286D01*
X17262143Y-15501714D01*
X17447857Y-15501714D01*
X17705000Y-15301714D02*
X17705000Y-15501714D01*
X17633571Y-15187429D02*
X17562143Y-15401714D01*
X17747857Y-15401714D01*
X18090714Y-15501714D02*
X18090714Y-15201714D01*
X18219286Y-15501714D02*
X18219286Y-15344571D01*
X18205000Y-15316000D01*
X18176428Y-15301714D01*
X18133571Y-15301714D01*
X18105000Y-15316000D01*
X18090714Y-15330286D01*
X18405000Y-15501714D02*
X18376428Y-15487429D01*
X18362143Y-15473143D01*
X18347857Y-15444571D01*
X18347857Y-15358857D01*
X18362143Y-15330286D01*
X18376428Y-15316000D01*
X18405000Y-15301714D01*
X18447857Y-15301714D01*
X18476428Y-15316000D01*
X18490714Y-15330286D01*
X18505000Y-15358857D01*
X18505000Y-15444571D01*
X18490714Y-15473143D01*
X18476428Y-15487429D01*
X18447857Y-15501714D01*
X18405000Y-15501714D01*
X18676428Y-15501714D02*
X18647857Y-15487429D01*
X18633571Y-15458857D01*
X18633571Y-15201714D01*
X18905000Y-15487429D02*
X18876428Y-15501714D01*
X18819286Y-15501714D01*
X18790714Y-15487429D01*
X18776428Y-15458857D01*
X18776428Y-15344571D01*
X18790714Y-15316000D01*
X18819286Y-15301714D01*
X18876428Y-15301714D01*
X18905000Y-15316000D01*
X18919286Y-15344571D01*
X18919286Y-15373143D01*
X18776428Y-15401714D01*
X19033571Y-15487429D02*
X19062143Y-15501714D01*
X19119286Y-15501714D01*
X19147857Y-15487429D01*
X19162143Y-15458857D01*
X19162143Y-15444571D01*
X19147857Y-15416000D01*
X19119286Y-15401714D01*
X19076428Y-15401714D01*
X19047857Y-15387429D01*
X19033571Y-15358857D01*
X19033571Y-15344571D01*
X19047857Y-15316000D01*
X19076428Y-15301714D01*
X19119286Y-15301714D01*
X19147857Y-15316000D01*
X19262143Y-15616000D02*
X19276428Y-15601714D01*
X19305000Y-15558857D01*
X19319286Y-15530286D01*
X19333571Y-15487429D01*
X19347857Y-15416000D01*
X19347857Y-15358857D01*
X19333571Y-15287429D01*
X19319286Y-15244571D01*
X19305000Y-15216000D01*
X19276428Y-15173143D01*
X19262143Y-15158857D01*
M02*
