G04 #@! TF.GenerationSoftware,KiCad,Pcbnew,(5.0.0-rc2-dev-632-g76d3b6f04)*
G04 #@! TF.CreationDate,2018-11-25T05:17:50+09:00*
G04 #@! TF.ProjectId,I2C_color_sensor_v1,4932435F636F6C6F725F73656E736F72,rev?*
G04 #@! TF.SameCoordinates,Original*
G04 #@! TF.FileFunction,Soldermask,Top*
G04 #@! TF.FilePolarity,Negative*
%FSLAX46Y46*%
G04 Gerber Fmt 4.6, Leading zero omitted, Abs format (unit mm)*
G04 Created by KiCad (PCBNEW (5.0.0-rc2-dev-632-g76d3b6f04)) date 11/25/18 05:17:50*
%MOMM*%
%LPD*%
G01*
G04 APERTURE LIST*
%ADD10C,2.100000*%
%ADD11C,2.150000*%
%ADD12R,2.150000X2.150000*%
%ADD13R,6.100000X2.700000*%
%ADD14R,1.100000X2.400000*%
%ADD15R,2.000000X2.400000*%
%ADD16R,2.800000X1.162000*%
%ADD17R,1.300000X2.100000*%
G04 APERTURE END LIST*
D10*
X150400000Y-97330000D03*
X150400000Y-99870000D03*
X150400000Y-102410000D03*
X150400000Y-104950000D03*
D11*
X133375000Y-116380000D03*
X135875000Y-116380000D03*
X138375000Y-116380000D03*
D12*
X140875000Y-116380000D03*
D13*
X135160000Y-80945000D03*
D14*
X137700000Y-89695000D03*
X136430000Y-89695000D03*
X135160000Y-89695000D03*
X133890000Y-89695000D03*
X132620000Y-89695000D03*
D10*
X150400000Y-66850000D03*
X150400000Y-69390000D03*
X150400000Y-71930000D03*
X150400000Y-74470000D03*
X150400000Y-89710000D03*
X150400000Y-87170000D03*
X150400000Y-84630000D03*
X150400000Y-82090000D03*
X150400000Y-120190000D03*
X150400000Y-117650000D03*
X150400000Y-115110000D03*
X150400000Y-112570000D03*
X150400000Y-127810000D03*
X150400000Y-130350000D03*
X150400000Y-132890000D03*
X150400000Y-135430000D03*
D15*
X127540000Y-83265000D03*
X127540000Y-87265000D03*
X130080000Y-83265000D03*
X130080000Y-87265000D03*
D16*
X132620000Y-94790000D03*
X132620000Y-96060000D03*
X132620000Y-97330000D03*
X132620000Y-98600000D03*
X132620000Y-99870000D03*
X132620000Y-101140000D03*
X132620000Y-102410000D03*
X132620000Y-103680000D03*
X132620000Y-104950000D03*
X132620000Y-106220000D03*
X132620000Y-107490000D03*
X132620000Y-108887000D03*
X140240000Y-94790000D03*
X140240000Y-96060000D03*
X140240000Y-97330000D03*
X140240000Y-98600000D03*
X140240000Y-99870000D03*
X140240000Y-101140000D03*
X140240000Y-102410000D03*
X140240000Y-103680000D03*
X140240000Y-104950000D03*
X140240000Y-106220000D03*
X140240000Y-107490000D03*
X140240000Y-108760000D03*
D17*
X142325000Y-91694000D03*
X139425000Y-91694000D03*
X139425000Y-89154000D03*
X142325000Y-89154000D03*
X152580000Y-132890000D03*
X155480000Y-132890000D03*
X135340000Y-92885000D03*
X132440000Y-92885000D03*
X152580000Y-130350000D03*
X155480000Y-130350000D03*
X155480000Y-117650000D03*
X152580000Y-117650000D03*
X152580000Y-115110000D03*
X155480000Y-115110000D03*
X155480000Y-102410000D03*
X152580000Y-102410000D03*
X152580000Y-99870000D03*
X155480000Y-99870000D03*
X155480000Y-87170000D03*
X152580000Y-87170000D03*
X152580000Y-84630000D03*
X155480000Y-84630000D03*
X155480000Y-71930000D03*
X152580000Y-71930000D03*
X152580000Y-69390000D03*
X155480000Y-69390000D03*
M02*
