M48
;DRILL file {KiCad (5.0.0-rc2-dev-632-g76d3b6f04)} date 11/25/18 05:16:46
;FORMAT={-:-/ absolute / metric / decimal}
FMAT,2
METRIC,TZ
T1C0.800
T2C1.000
%
G90
G05
M71
T1
X128.27Y-89.662
X130.048Y-93.726
X130.048Y-97.282
X130.08Y-114.475
X143.51Y-95.25
X143.51Y-97.282
X156.5Y-137.
X156.75Y-66.85
X156.75Y-82.09
X156.75Y-97.33
X156.75Y-112.57
X156.75Y-127.81
X163.735Y-67.31
T2
X150.4Y-112.57
X150.4Y-115.11
X150.4Y-117.65
X150.4Y-120.19
X150.4Y-66.85
X150.4Y-69.39
X150.4Y-71.93
X150.4Y-74.47
X150.4Y-127.81
X150.4Y-130.35
X150.4Y-132.89
X150.4Y-135.43
X133.375Y-116.38
X135.875Y-116.38
X138.375Y-116.38
X140.875Y-116.38
X150.4Y-97.33
X150.4Y-99.87
X150.4Y-102.41
X150.4Y-104.95
X150.4Y-82.09
X150.4Y-84.63
X150.4Y-87.17
X150.4Y-89.71
T0
M30
