G04 #@! TF.GenerationSoftware,KiCad,Pcbnew,(5.0.0-rc2-dev-632-g76d3b6f04)*
G04 #@! TF.CreationDate,2018-11-25T05:17:50+09:00*
G04 #@! TF.ProjectId,I2C_color_sensor_v1,4932435F636F6C6F725F73656E736F72,rev?*
G04 #@! TF.SameCoordinates,Original*
G04 #@! TF.FileFunction,Copper,L2,Bot,Signal*
G04 #@! TF.FilePolarity,Positive*
%FSLAX46Y46*%
G04 Gerber Fmt 4.6, Leading zero omitted, Abs format (unit mm)*
G04 Created by KiCad (PCBNEW (5.0.0-rc2-dev-632-g76d3b6f04)) date 11/25/18 05:17:50*
%MOMM*%
%LPD*%
G01*
G04 APERTURE LIST*
%ADD10C,1.700000*%
%ADD11C,1.750000*%
%ADD12R,1.750000X1.750000*%
%ADD13R,1.700000X2.000000*%
%ADD14R,1.700000X0.900000*%
%ADD15C,1.600000*%
%ADD16C,0.700000*%
%ADD17C,0.400000*%
%ADD18C,0.254000*%
G04 APERTURE END LIST*
D10*
X150400000Y-97330000D03*
X150400000Y-99870000D03*
X150400000Y-102410000D03*
X150400000Y-104950000D03*
D11*
X133375000Y-116380000D03*
X135875000Y-116380000D03*
X138375000Y-116380000D03*
D12*
X140875000Y-116380000D03*
D13*
X159290000Y-72660000D03*
X159290000Y-68660000D03*
X159290000Y-83900000D03*
X159290000Y-87900000D03*
X159290000Y-118380000D03*
X159290000Y-114380000D03*
X159290000Y-99140000D03*
X159290000Y-103140000D03*
X159290000Y-133620000D03*
X159290000Y-129620000D03*
D10*
X150400000Y-66850000D03*
X150400000Y-69390000D03*
X150400000Y-71930000D03*
X150400000Y-74470000D03*
X150400000Y-89710000D03*
X150400000Y-87170000D03*
X150400000Y-84630000D03*
X150400000Y-82090000D03*
X150400000Y-120190000D03*
X150400000Y-117650000D03*
X150400000Y-115110000D03*
X150400000Y-112570000D03*
X150400000Y-127810000D03*
X150400000Y-130350000D03*
X150400000Y-132890000D03*
X150400000Y-135430000D03*
D14*
X161830000Y-69210000D03*
X161830000Y-72110000D03*
X161830000Y-87350000D03*
X161830000Y-84450000D03*
X161830000Y-114930000D03*
X161830000Y-117830000D03*
X161830000Y-102590000D03*
X161830000Y-99690000D03*
X161830000Y-130170000D03*
X161830000Y-133070000D03*
D15*
X163735000Y-67310000D03*
X143510000Y-95250000D03*
X143510000Y-97282000D03*
X130080000Y-114475000D03*
X156750000Y-66850000D03*
X156750000Y-82090000D03*
X156750000Y-127810000D03*
X156750000Y-112570000D03*
X156750000Y-97330000D03*
X156500000Y-136999986D03*
X128270000Y-89662000D03*
X130048000Y-97282000D03*
X130048000Y-93726000D03*
D16*
X161830000Y-68060000D02*
X162580000Y-67310000D01*
X161830000Y-69210000D02*
X161830000Y-68060000D01*
X162580000Y-67310000D02*
X163735000Y-67310000D01*
X161830000Y-83280000D02*
X161830000Y-84450000D01*
X163735000Y-67310000D02*
X163735000Y-81375000D01*
X163735000Y-81375000D02*
X161830000Y-83280000D01*
X163735000Y-81375000D02*
X163735000Y-96615000D01*
X161830000Y-98520000D02*
X161830000Y-99690000D01*
X163735000Y-96615000D02*
X161830000Y-98520000D01*
X161830000Y-113780000D02*
X161830000Y-114930000D01*
X163735000Y-111875000D02*
X161830000Y-113780000D01*
X163735000Y-96615000D02*
X163735000Y-111875000D01*
X161830000Y-129020000D02*
X161830000Y-130170000D01*
X163735000Y-127115000D02*
X161830000Y-129020000D01*
X163735000Y-111875000D02*
X163735000Y-127115000D01*
D17*
X145218001Y-109536999D02*
X145218001Y-95826631D01*
X144641370Y-95250000D02*
X143510000Y-95250000D01*
X145218001Y-95826631D02*
X144641370Y-95250000D01*
X138375000Y-116380000D02*
X145218001Y-109536999D01*
X143510000Y-98413370D02*
X143510000Y-97282000D01*
X135875000Y-116380000D02*
X143510000Y-108745000D01*
X143510000Y-108745000D02*
X143510000Y-98413370D01*
X133375000Y-116380000D02*
X130715000Y-116380000D01*
X130715000Y-116380000D02*
X130080000Y-115745000D01*
X130080000Y-115745000D02*
X130080000Y-114475000D01*
X156750000Y-82090000D02*
X156750000Y-66850000D01*
X156750000Y-127810000D02*
X156750000Y-112570000D01*
X156750000Y-112570000D02*
X156750000Y-97330000D01*
X156750000Y-97330000D02*
X156750000Y-82090000D01*
X159290000Y-128220000D02*
X159290000Y-129620000D01*
X158880000Y-127810000D02*
X159290000Y-128220000D01*
X156750000Y-127810000D02*
X158880000Y-127810000D01*
X159290000Y-112980000D02*
X159290000Y-114380000D01*
X158880000Y-112570000D02*
X159290000Y-112980000D01*
X156750000Y-112570000D02*
X158880000Y-112570000D01*
X159290000Y-97740000D02*
X159290000Y-99140000D01*
X158880000Y-97330000D02*
X159290000Y-97740000D01*
X156750000Y-97330000D02*
X158880000Y-97330000D01*
X159290000Y-82500000D02*
X159290000Y-83900000D01*
X158880000Y-82090000D02*
X159290000Y-82500000D01*
X156750000Y-82090000D02*
X158880000Y-82090000D01*
X159290000Y-67260000D02*
X159290000Y-68660000D01*
X158880000Y-66850000D02*
X159290000Y-67260000D01*
X156750000Y-66850000D02*
X158880000Y-66850000D01*
X156750000Y-136749986D02*
X156500000Y-136999986D01*
X156750000Y-127810000D02*
X156750000Y-136749986D01*
D16*
X140545000Y-118285000D02*
X130715000Y-118285000D01*
X140875000Y-117955000D02*
X140545000Y-118285000D01*
X140875000Y-116380000D02*
X140875000Y-117955000D01*
X130715000Y-118285000D02*
X128270000Y-115840000D01*
X128270000Y-97536000D02*
X128270000Y-89662000D01*
X128270000Y-115840000D02*
X128270000Y-97536000D01*
D17*
X159290000Y-74060000D02*
X159925000Y-74695000D01*
X159290000Y-72660000D02*
X159290000Y-74060000D01*
X159925000Y-74695000D02*
X161605000Y-74695000D01*
X161605000Y-74695000D02*
X161830000Y-74470000D01*
X161830000Y-74470000D02*
X161830000Y-72110000D01*
X161830000Y-89710000D02*
X161830000Y-87350000D01*
X161195000Y-90345000D02*
X161830000Y-89710000D01*
X159925000Y-90345000D02*
X161195000Y-90345000D01*
X159290000Y-87900000D02*
X159290000Y-89710000D01*
X159290000Y-89710000D02*
X159925000Y-90345000D01*
X159290000Y-118380000D02*
X159290000Y-120190000D01*
X159290000Y-120190000D02*
X159925000Y-120825000D01*
X159925000Y-120825000D02*
X161195000Y-120825000D01*
X161195000Y-120825000D02*
X161830000Y-120190000D01*
X161830000Y-120190000D02*
X161830000Y-117830000D01*
X159290000Y-103140000D02*
X159290000Y-104950000D01*
X159290000Y-104950000D02*
X159925000Y-105585000D01*
X159925000Y-105585000D02*
X161195000Y-105585000D01*
X161195000Y-105585000D02*
X161830000Y-104950000D01*
X161830000Y-104950000D02*
X161830000Y-102590000D01*
X161830000Y-135430000D02*
X161830000Y-133070000D01*
X161195000Y-136065000D02*
X161830000Y-135430000D01*
X159925000Y-136065000D02*
X161195000Y-136065000D01*
X159290000Y-133620000D02*
X159290000Y-135430000D01*
X159290000Y-135430000D02*
X159925000Y-136065000D01*
X130048000Y-97282000D02*
X130048000Y-93726000D01*
D18*
G36*
X164265001Y-65976301D02*
X164020439Y-65875000D01*
X163449561Y-65875000D01*
X162922138Y-66093466D01*
X162690604Y-66325000D01*
X162677007Y-66325000D01*
X162579999Y-66305704D01*
X162482991Y-66325000D01*
X162482988Y-66325000D01*
X162195672Y-66382151D01*
X161869855Y-66599855D01*
X161814902Y-66682098D01*
X161202096Y-67294904D01*
X161119856Y-67349855D01*
X161064905Y-67432095D01*
X161064902Y-67432098D01*
X160902151Y-67675673D01*
X160825704Y-68060000D01*
X160841633Y-68140083D01*
X160775000Y-68153337D01*
X160775000Y-67533691D01*
X160678327Y-67300302D01*
X160499699Y-67121673D01*
X160266310Y-67025000D01*
X159575750Y-67025000D01*
X159417000Y-67183750D01*
X159417000Y-68533000D01*
X159437000Y-68533000D01*
X159437000Y-68787000D01*
X159417000Y-68787000D01*
X159417000Y-70136250D01*
X159575750Y-70295000D01*
X160266310Y-70295000D01*
X160499699Y-70198327D01*
X160556975Y-70141051D01*
X160732235Y-70258157D01*
X160980000Y-70307440D01*
X162680000Y-70307440D01*
X162750000Y-70293516D01*
X162750000Y-71026484D01*
X162680000Y-71012560D01*
X160980000Y-71012560D01*
X160732235Y-71061843D01*
X160560000Y-71176928D01*
X160387765Y-71061843D01*
X160140000Y-71012560D01*
X158440000Y-71012560D01*
X158192235Y-71061843D01*
X157982191Y-71202191D01*
X157841843Y-71412235D01*
X157792560Y-71660000D01*
X157792560Y-73660000D01*
X157841843Y-73907765D01*
X157982191Y-74117809D01*
X158192235Y-74258157D01*
X158440000Y-74307440D01*
X158487861Y-74307440D01*
X158503448Y-74385800D01*
X158503449Y-74385801D01*
X158688000Y-74662001D01*
X158757718Y-74708585D01*
X159276414Y-75227282D01*
X159322999Y-75297001D01*
X159599199Y-75481552D01*
X159842763Y-75530000D01*
X159925000Y-75546358D01*
X160007237Y-75530000D01*
X161522767Y-75530000D01*
X161605000Y-75546357D01*
X161687233Y-75530000D01*
X161687237Y-75530000D01*
X161930801Y-75481552D01*
X162207001Y-75297001D01*
X162253587Y-75227280D01*
X162362280Y-75118587D01*
X162432001Y-75072001D01*
X162616552Y-74795801D01*
X162665000Y-74552237D01*
X162665000Y-74552234D01*
X162681357Y-74470001D01*
X162665000Y-74387768D01*
X162665000Y-73207440D01*
X162680000Y-73207440D01*
X162750000Y-73193516D01*
X162750001Y-80966998D01*
X161202098Y-82514902D01*
X161119855Y-82569855D01*
X161064902Y-82652098D01*
X160916579Y-82874080D01*
X160902151Y-82895673D01*
X160845000Y-83182989D01*
X160845000Y-83182992D01*
X160825704Y-83280000D01*
X160845000Y-83377009D01*
X160845000Y-83379413D01*
X160775000Y-83393337D01*
X160775000Y-82773691D01*
X160678327Y-82540302D01*
X160499699Y-82361673D01*
X160266310Y-82265000D01*
X159575750Y-82265000D01*
X159417000Y-82423750D01*
X159417000Y-83773000D01*
X159437000Y-83773000D01*
X159437000Y-84027000D01*
X159417000Y-84027000D01*
X159417000Y-85376250D01*
X159575750Y-85535000D01*
X160266310Y-85535000D01*
X160499699Y-85438327D01*
X160556975Y-85381051D01*
X160732235Y-85498157D01*
X160980000Y-85547440D01*
X162680000Y-85547440D01*
X162750000Y-85533516D01*
X162750000Y-86266484D01*
X162680000Y-86252560D01*
X160980000Y-86252560D01*
X160732235Y-86301843D01*
X160560000Y-86416928D01*
X160387765Y-86301843D01*
X160140000Y-86252560D01*
X158440000Y-86252560D01*
X158192235Y-86301843D01*
X157982191Y-86442191D01*
X157841843Y-86652235D01*
X157792560Y-86900000D01*
X157792560Y-88900000D01*
X157841843Y-89147765D01*
X157982191Y-89357809D01*
X158192235Y-89498157D01*
X158440000Y-89547440D01*
X158455001Y-89547440D01*
X158455001Y-89627762D01*
X158438643Y-89710000D01*
X158503448Y-90035800D01*
X158503449Y-90035801D01*
X158688000Y-90312001D01*
X158757718Y-90358585D01*
X159276414Y-90877282D01*
X159322999Y-90947001D01*
X159599199Y-91131552D01*
X159842763Y-91180000D01*
X159925000Y-91196358D01*
X160007237Y-91180000D01*
X161112767Y-91180000D01*
X161195000Y-91196357D01*
X161277233Y-91180000D01*
X161277237Y-91180000D01*
X161520801Y-91131552D01*
X161797001Y-90947001D01*
X161843587Y-90877280D01*
X162362283Y-90358585D01*
X162432001Y-90312001D01*
X162616552Y-90035801D01*
X162665000Y-89792237D01*
X162665000Y-89792236D01*
X162681358Y-89710000D01*
X162665000Y-89627763D01*
X162665000Y-88447440D01*
X162680000Y-88447440D01*
X162750000Y-88433516D01*
X162750001Y-96206998D01*
X161202098Y-97754902D01*
X161119855Y-97809855D01*
X161064902Y-97892098D01*
X160947000Y-98068552D01*
X160902151Y-98135673D01*
X160845000Y-98422989D01*
X160845000Y-98422992D01*
X160825704Y-98520000D01*
X160845000Y-98617009D01*
X160845000Y-98619413D01*
X160775000Y-98633337D01*
X160775000Y-98013691D01*
X160678327Y-97780302D01*
X160499699Y-97601673D01*
X160266310Y-97505000D01*
X159575750Y-97505000D01*
X159417000Y-97663750D01*
X159417000Y-99013000D01*
X159437000Y-99013000D01*
X159437000Y-99267000D01*
X159417000Y-99267000D01*
X159417000Y-100616250D01*
X159575750Y-100775000D01*
X160266310Y-100775000D01*
X160499699Y-100678327D01*
X160556975Y-100621051D01*
X160732235Y-100738157D01*
X160980000Y-100787440D01*
X162680000Y-100787440D01*
X162750000Y-100773516D01*
X162750000Y-101506484D01*
X162680000Y-101492560D01*
X160980000Y-101492560D01*
X160732235Y-101541843D01*
X160560000Y-101656928D01*
X160387765Y-101541843D01*
X160140000Y-101492560D01*
X158440000Y-101492560D01*
X158192235Y-101541843D01*
X157982191Y-101682191D01*
X157841843Y-101892235D01*
X157792560Y-102140000D01*
X157792560Y-104140000D01*
X157841843Y-104387765D01*
X157982191Y-104597809D01*
X158192235Y-104738157D01*
X158440000Y-104787440D01*
X158455001Y-104787440D01*
X158455001Y-104867762D01*
X158438643Y-104950000D01*
X158503448Y-105275800D01*
X158503449Y-105275801D01*
X158688000Y-105552001D01*
X158757718Y-105598585D01*
X159276414Y-106117282D01*
X159322999Y-106187001D01*
X159599199Y-106371552D01*
X159842763Y-106420000D01*
X159925000Y-106436358D01*
X160007237Y-106420000D01*
X161112767Y-106420000D01*
X161195000Y-106436357D01*
X161277233Y-106420000D01*
X161277237Y-106420000D01*
X161520801Y-106371552D01*
X161797001Y-106187001D01*
X161843587Y-106117280D01*
X162362283Y-105598585D01*
X162432001Y-105552001D01*
X162616552Y-105275801D01*
X162665000Y-105032237D01*
X162665000Y-105032236D01*
X162681358Y-104950000D01*
X162665000Y-104867763D01*
X162665000Y-103687440D01*
X162680000Y-103687440D01*
X162750000Y-103673516D01*
X162750001Y-111466998D01*
X161202098Y-113014902D01*
X161119855Y-113069855D01*
X160902151Y-113395673D01*
X160845000Y-113682989D01*
X160845000Y-113682992D01*
X160825704Y-113780000D01*
X160841633Y-113860083D01*
X160775000Y-113873337D01*
X160775000Y-113253691D01*
X160678327Y-113020302D01*
X160499699Y-112841673D01*
X160266310Y-112745000D01*
X159575750Y-112745000D01*
X159417000Y-112903750D01*
X159417000Y-114253000D01*
X159437000Y-114253000D01*
X159437000Y-114507000D01*
X159417000Y-114507000D01*
X159417000Y-115856250D01*
X159575750Y-116015000D01*
X160266310Y-116015000D01*
X160499699Y-115918327D01*
X160556975Y-115861051D01*
X160732235Y-115978157D01*
X160980000Y-116027440D01*
X162680000Y-116027440D01*
X162750000Y-116013516D01*
X162750000Y-116746484D01*
X162680000Y-116732560D01*
X160980000Y-116732560D01*
X160732235Y-116781843D01*
X160560000Y-116896928D01*
X160387765Y-116781843D01*
X160140000Y-116732560D01*
X158440000Y-116732560D01*
X158192235Y-116781843D01*
X157982191Y-116922191D01*
X157841843Y-117132235D01*
X157792560Y-117380000D01*
X157792560Y-119380000D01*
X157841843Y-119627765D01*
X157982191Y-119837809D01*
X158192235Y-119978157D01*
X158440000Y-120027440D01*
X158455001Y-120027440D01*
X158455001Y-120107762D01*
X158438643Y-120190000D01*
X158503448Y-120515800D01*
X158503449Y-120515801D01*
X158688000Y-120792001D01*
X158757718Y-120838585D01*
X159276414Y-121357282D01*
X159322999Y-121427001D01*
X159599199Y-121611552D01*
X159842763Y-121660000D01*
X159925000Y-121676358D01*
X160007237Y-121660000D01*
X161112767Y-121660000D01*
X161195000Y-121676357D01*
X161277233Y-121660000D01*
X161277237Y-121660000D01*
X161520801Y-121611552D01*
X161797001Y-121427001D01*
X161843587Y-121357280D01*
X162362283Y-120838585D01*
X162432001Y-120792001D01*
X162616552Y-120515801D01*
X162665000Y-120272237D01*
X162665000Y-120272236D01*
X162681358Y-120190000D01*
X162665000Y-120107763D01*
X162665000Y-118927440D01*
X162680000Y-118927440D01*
X162750000Y-118913516D01*
X162750001Y-126706998D01*
X161202098Y-128254902D01*
X161119855Y-128309855D01*
X160902151Y-128635673D01*
X160845000Y-128922989D01*
X160845000Y-128922992D01*
X160825704Y-129020000D01*
X160841633Y-129100083D01*
X160775000Y-129113337D01*
X160775000Y-128493691D01*
X160678327Y-128260302D01*
X160499699Y-128081673D01*
X160266310Y-127985000D01*
X159575750Y-127985000D01*
X159417000Y-128143750D01*
X159417000Y-129493000D01*
X159437000Y-129493000D01*
X159437000Y-129747000D01*
X159417000Y-129747000D01*
X159417000Y-131096250D01*
X159575750Y-131255000D01*
X160266310Y-131255000D01*
X160499699Y-131158327D01*
X160556975Y-131101051D01*
X160732235Y-131218157D01*
X160980000Y-131267440D01*
X162680000Y-131267440D01*
X162927765Y-131218157D01*
X163137809Y-131077809D01*
X163278157Y-130867765D01*
X163327440Y-130620000D01*
X163327440Y-129720000D01*
X163278157Y-129472235D01*
X163137809Y-129262191D01*
X163043695Y-129199305D01*
X164265000Y-127978001D01*
X164265000Y-139265000D01*
X125735000Y-139265000D01*
X125735000Y-135651151D01*
X126797455Y-135651151D01*
X126803206Y-136383402D01*
X127045836Y-137074311D01*
X127499182Y-137649377D01*
X128114360Y-138046593D01*
X128825036Y-138223126D01*
X129554578Y-138159940D01*
X130224321Y-137863850D01*
X130762046Y-137366783D01*
X131109770Y-136722336D01*
X131230000Y-136000000D01*
X131229725Y-135964973D01*
X131172411Y-135651151D01*
X141797455Y-135651151D01*
X141803206Y-136383402D01*
X142045836Y-137074311D01*
X142499182Y-137649377D01*
X143114360Y-138046593D01*
X143825036Y-138223126D01*
X144554578Y-138159940D01*
X145224321Y-137863850D01*
X145762046Y-137366783D01*
X146109770Y-136722336D01*
X146230000Y-136000000D01*
X146229725Y-135964973D01*
X146098164Y-135244614D01*
X145740360Y-134605709D01*
X145194894Y-134117149D01*
X144520583Y-133831615D01*
X143790138Y-133779897D01*
X143082323Y-133967571D01*
X142473460Y-134374400D01*
X142029203Y-134956517D01*
X141797455Y-135651151D01*
X131172411Y-135651151D01*
X131098164Y-135244614D01*
X130740360Y-134605709D01*
X130194894Y-134117149D01*
X129520583Y-133831615D01*
X128790138Y-133779897D01*
X128082323Y-133967571D01*
X127473460Y-134374400D01*
X127029203Y-134956517D01*
X126797455Y-135651151D01*
X125735000Y-135651151D01*
X125735000Y-130054615D01*
X148915000Y-130054615D01*
X148915000Y-130645385D01*
X149141078Y-131191185D01*
X149558815Y-131608922D01*
X149585560Y-131620000D01*
X149558815Y-131631078D01*
X149141078Y-132048815D01*
X148915000Y-132594615D01*
X148915000Y-133185385D01*
X149141078Y-133731185D01*
X149558815Y-134148922D01*
X149585560Y-134160000D01*
X149558815Y-134171078D01*
X149141078Y-134588815D01*
X148915000Y-135134615D01*
X148915000Y-135725385D01*
X149141078Y-136271185D01*
X149558815Y-136688922D01*
X150104615Y-136915000D01*
X150695385Y-136915000D01*
X151241185Y-136688922D01*
X151658922Y-136271185D01*
X151885000Y-135725385D01*
X151885000Y-135134615D01*
X151658922Y-134588815D01*
X151241185Y-134171078D01*
X151214440Y-134160000D01*
X151241185Y-134148922D01*
X151658922Y-133731185D01*
X151885000Y-133185385D01*
X151885000Y-132620000D01*
X157792560Y-132620000D01*
X157792560Y-134620000D01*
X157841843Y-134867765D01*
X157982191Y-135077809D01*
X158192235Y-135218157D01*
X158440000Y-135267440D01*
X158455001Y-135267440D01*
X158455001Y-135347762D01*
X158438643Y-135430000D01*
X158503448Y-135755800D01*
X158503449Y-135755801D01*
X158688000Y-136032001D01*
X158757718Y-136078585D01*
X159276414Y-136597282D01*
X159322999Y-136667001D01*
X159599199Y-136851552D01*
X159842763Y-136900000D01*
X159925000Y-136916358D01*
X160007237Y-136900000D01*
X161112767Y-136900000D01*
X161195000Y-136916357D01*
X161277233Y-136900000D01*
X161277237Y-136900000D01*
X161520801Y-136851552D01*
X161797001Y-136667001D01*
X161843587Y-136597280D01*
X162362283Y-136078585D01*
X162432001Y-136032001D01*
X162616552Y-135755801D01*
X162665000Y-135512237D01*
X162665000Y-135512236D01*
X162681358Y-135430000D01*
X162665000Y-135347763D01*
X162665000Y-134167440D01*
X162680000Y-134167440D01*
X162927765Y-134118157D01*
X163137809Y-133977809D01*
X163278157Y-133767765D01*
X163327440Y-133520000D01*
X163327440Y-132620000D01*
X163278157Y-132372235D01*
X163137809Y-132162191D01*
X162927765Y-132021843D01*
X162680000Y-131972560D01*
X160980000Y-131972560D01*
X160732235Y-132021843D01*
X160560000Y-132136928D01*
X160387765Y-132021843D01*
X160140000Y-131972560D01*
X158440000Y-131972560D01*
X158192235Y-132021843D01*
X157982191Y-132162191D01*
X157841843Y-132372235D01*
X157792560Y-132620000D01*
X151885000Y-132620000D01*
X151885000Y-132594615D01*
X151658922Y-132048815D01*
X151241185Y-131631078D01*
X151214440Y-131620000D01*
X151241185Y-131608922D01*
X151658922Y-131191185D01*
X151885000Y-130645385D01*
X151885000Y-130054615D01*
X151823339Y-129905750D01*
X157805000Y-129905750D01*
X157805000Y-130746309D01*
X157901673Y-130979698D01*
X158080301Y-131158327D01*
X158313690Y-131255000D01*
X159004250Y-131255000D01*
X159163000Y-131096250D01*
X159163000Y-129747000D01*
X157963750Y-129747000D01*
X157805000Y-129905750D01*
X151823339Y-129905750D01*
X151658922Y-129508815D01*
X151241185Y-129091078D01*
X151194753Y-129071845D01*
X151264353Y-128853958D01*
X150400000Y-127989605D01*
X149535647Y-128853958D01*
X149605247Y-129071845D01*
X149558815Y-129091078D01*
X149141078Y-129508815D01*
X148915000Y-130054615D01*
X125735000Y-130054615D01*
X125735000Y-127581279D01*
X148903282Y-127581279D01*
X148929685Y-128171458D01*
X149104741Y-128594080D01*
X149356042Y-128674353D01*
X150220395Y-127810000D01*
X150579605Y-127810000D01*
X151443958Y-128674353D01*
X151695259Y-128594080D01*
X151731675Y-128493691D01*
X157805000Y-128493691D01*
X157805000Y-129334250D01*
X157963750Y-129493000D01*
X159163000Y-129493000D01*
X159163000Y-128143750D01*
X159004250Y-127985000D01*
X158313690Y-127985000D01*
X158080301Y-128081673D01*
X157901673Y-128260302D01*
X157805000Y-128493691D01*
X151731675Y-128493691D01*
X151896718Y-128038721D01*
X151870315Y-127448542D01*
X151695259Y-127025920D01*
X151443958Y-126945647D01*
X150579605Y-127810000D01*
X150220395Y-127810000D01*
X149356042Y-126945647D01*
X149104741Y-127025920D01*
X148903282Y-127581279D01*
X125735000Y-127581279D01*
X125735000Y-126766042D01*
X149535647Y-126766042D01*
X150400000Y-127630395D01*
X151264353Y-126766042D01*
X151184080Y-126514741D01*
X150628721Y-126313282D01*
X150038542Y-126339685D01*
X149615920Y-126514741D01*
X149535647Y-126766042D01*
X125735000Y-126766042D01*
X125735000Y-89376561D01*
X126835000Y-89376561D01*
X126835000Y-89947439D01*
X127053466Y-90474862D01*
X127285001Y-90706397D01*
X127285000Y-97633011D01*
X127285001Y-97633016D01*
X127285000Y-115742992D01*
X127265704Y-115840000D01*
X127285000Y-115937008D01*
X127285000Y-115937011D01*
X127342151Y-116224327D01*
X127559855Y-116550145D01*
X127642098Y-116605098D01*
X129949902Y-118912902D01*
X130004855Y-118995145D01*
X130330672Y-119212849D01*
X130617988Y-119270000D01*
X130617991Y-119270000D01*
X130714999Y-119289296D01*
X130812007Y-119270000D01*
X140447992Y-119270000D01*
X140545000Y-119289296D01*
X140642008Y-119270000D01*
X140642012Y-119270000D01*
X140929328Y-119212849D01*
X141255145Y-118995145D01*
X141310099Y-118912901D01*
X141502900Y-118720100D01*
X141585145Y-118665145D01*
X141802849Y-118339328D01*
X141860000Y-118052012D01*
X141860000Y-118052008D01*
X141879296Y-117955001D01*
X141864318Y-117879701D01*
X141997765Y-117853157D01*
X142207809Y-117712809D01*
X142348157Y-117502765D01*
X142397440Y-117255000D01*
X142397440Y-115505000D01*
X142348157Y-115257235D01*
X142207809Y-115047191D01*
X141997765Y-114906843D01*
X141750000Y-114857560D01*
X141078307Y-114857560D01*
X141121252Y-114814615D01*
X148915000Y-114814615D01*
X148915000Y-115405385D01*
X149141078Y-115951185D01*
X149558815Y-116368922D01*
X149585560Y-116380000D01*
X149558815Y-116391078D01*
X149141078Y-116808815D01*
X148915000Y-117354615D01*
X148915000Y-117945385D01*
X149141078Y-118491185D01*
X149558815Y-118908922D01*
X149585560Y-118920000D01*
X149558815Y-118931078D01*
X149141078Y-119348815D01*
X148915000Y-119894615D01*
X148915000Y-120485385D01*
X149141078Y-121031185D01*
X149558815Y-121448922D01*
X150104615Y-121675000D01*
X150695385Y-121675000D01*
X151241185Y-121448922D01*
X151658922Y-121031185D01*
X151885000Y-120485385D01*
X151885000Y-119894615D01*
X151658922Y-119348815D01*
X151241185Y-118931078D01*
X151214440Y-118920000D01*
X151241185Y-118908922D01*
X151658922Y-118491185D01*
X151885000Y-117945385D01*
X151885000Y-117354615D01*
X151658922Y-116808815D01*
X151241185Y-116391078D01*
X151214440Y-116380000D01*
X151241185Y-116368922D01*
X151658922Y-115951185D01*
X151885000Y-115405385D01*
X151885000Y-114814615D01*
X151823339Y-114665750D01*
X157805000Y-114665750D01*
X157805000Y-115506309D01*
X157901673Y-115739698D01*
X158080301Y-115918327D01*
X158313690Y-116015000D01*
X159004250Y-116015000D01*
X159163000Y-115856250D01*
X159163000Y-114507000D01*
X157963750Y-114507000D01*
X157805000Y-114665750D01*
X151823339Y-114665750D01*
X151658922Y-114268815D01*
X151241185Y-113851078D01*
X151194753Y-113831845D01*
X151264353Y-113613958D01*
X150400000Y-112749605D01*
X149535647Y-113613958D01*
X149605247Y-113831845D01*
X149558815Y-113851078D01*
X149141078Y-114268815D01*
X148915000Y-114814615D01*
X141121252Y-114814615D01*
X143594588Y-112341279D01*
X148903282Y-112341279D01*
X148929685Y-112931458D01*
X149104741Y-113354080D01*
X149356042Y-113434353D01*
X150220395Y-112570000D01*
X150579605Y-112570000D01*
X151443958Y-113434353D01*
X151695259Y-113354080D01*
X151731675Y-113253691D01*
X157805000Y-113253691D01*
X157805000Y-114094250D01*
X157963750Y-114253000D01*
X159163000Y-114253000D01*
X159163000Y-112903750D01*
X159004250Y-112745000D01*
X158313690Y-112745000D01*
X158080301Y-112841673D01*
X157901673Y-113020302D01*
X157805000Y-113253691D01*
X151731675Y-113253691D01*
X151896718Y-112798721D01*
X151870315Y-112208542D01*
X151695259Y-111785920D01*
X151443958Y-111705647D01*
X150579605Y-112570000D01*
X150220395Y-112570000D01*
X149356042Y-111705647D01*
X149104741Y-111785920D01*
X148903282Y-112341279D01*
X143594588Y-112341279D01*
X144409825Y-111526042D01*
X149535647Y-111526042D01*
X150400000Y-112390395D01*
X151264353Y-111526042D01*
X151184080Y-111274741D01*
X150628721Y-111073282D01*
X150038542Y-111099685D01*
X149615920Y-111274741D01*
X149535647Y-111526042D01*
X144409825Y-111526042D01*
X145750284Y-110185584D01*
X145820002Y-110139000D01*
X146004553Y-109862800D01*
X146053001Y-109619236D01*
X146053001Y-109619235D01*
X146069359Y-109536999D01*
X146053001Y-109454762D01*
X146053001Y-99574615D01*
X148915000Y-99574615D01*
X148915000Y-100165385D01*
X149141078Y-100711185D01*
X149558815Y-101128922D01*
X149585560Y-101140000D01*
X149558815Y-101151078D01*
X149141078Y-101568815D01*
X148915000Y-102114615D01*
X148915000Y-102705385D01*
X149141078Y-103251185D01*
X149558815Y-103668922D01*
X149585560Y-103680000D01*
X149558815Y-103691078D01*
X149141078Y-104108815D01*
X148915000Y-104654615D01*
X148915000Y-105245385D01*
X149141078Y-105791185D01*
X149558815Y-106208922D01*
X150104615Y-106435000D01*
X150695385Y-106435000D01*
X151241185Y-106208922D01*
X151658922Y-105791185D01*
X151885000Y-105245385D01*
X151885000Y-104654615D01*
X151658922Y-104108815D01*
X151241185Y-103691078D01*
X151214440Y-103680000D01*
X151241185Y-103668922D01*
X151658922Y-103251185D01*
X151885000Y-102705385D01*
X151885000Y-102114615D01*
X151658922Y-101568815D01*
X151241185Y-101151078D01*
X151214440Y-101140000D01*
X151241185Y-101128922D01*
X151658922Y-100711185D01*
X151885000Y-100165385D01*
X151885000Y-99574615D01*
X151823339Y-99425750D01*
X157805000Y-99425750D01*
X157805000Y-100266309D01*
X157901673Y-100499698D01*
X158080301Y-100678327D01*
X158313690Y-100775000D01*
X159004250Y-100775000D01*
X159163000Y-100616250D01*
X159163000Y-99267000D01*
X157963750Y-99267000D01*
X157805000Y-99425750D01*
X151823339Y-99425750D01*
X151658922Y-99028815D01*
X151241185Y-98611078D01*
X151194753Y-98591845D01*
X151264353Y-98373958D01*
X150400000Y-97509605D01*
X149535647Y-98373958D01*
X149605247Y-98591845D01*
X149558815Y-98611078D01*
X149141078Y-99028815D01*
X148915000Y-99574615D01*
X146053001Y-99574615D01*
X146053001Y-97101279D01*
X148903282Y-97101279D01*
X148929685Y-97691458D01*
X149104741Y-98114080D01*
X149356042Y-98194353D01*
X150220395Y-97330000D01*
X150579605Y-97330000D01*
X151443958Y-98194353D01*
X151695259Y-98114080D01*
X151731675Y-98013691D01*
X157805000Y-98013691D01*
X157805000Y-98854250D01*
X157963750Y-99013000D01*
X159163000Y-99013000D01*
X159163000Y-97663750D01*
X159004250Y-97505000D01*
X158313690Y-97505000D01*
X158080301Y-97601673D01*
X157901673Y-97780302D01*
X157805000Y-98013691D01*
X151731675Y-98013691D01*
X151896718Y-97558721D01*
X151870315Y-96968542D01*
X151695259Y-96545920D01*
X151443958Y-96465647D01*
X150579605Y-97330000D01*
X150220395Y-97330000D01*
X149356042Y-96465647D01*
X149104741Y-96545920D01*
X148903282Y-97101279D01*
X146053001Y-97101279D01*
X146053001Y-96286042D01*
X149535647Y-96286042D01*
X150400000Y-97150395D01*
X151264353Y-96286042D01*
X151184080Y-96034741D01*
X150628721Y-95833282D01*
X150038542Y-95859685D01*
X149615920Y-96034741D01*
X149535647Y-96286042D01*
X146053001Y-96286042D01*
X146053001Y-95908863D01*
X146069358Y-95826630D01*
X146053001Y-95744397D01*
X146053001Y-95744394D01*
X146004553Y-95500830D01*
X145820002Y-95224630D01*
X145750286Y-95178047D01*
X145289957Y-94717719D01*
X145243371Y-94647999D01*
X144967171Y-94463448D01*
X144723607Y-94415000D01*
X144723603Y-94415000D01*
X144699627Y-94410231D01*
X144322862Y-94033466D01*
X143795439Y-93815000D01*
X143224561Y-93815000D01*
X142697138Y-94033466D01*
X142293466Y-94437138D01*
X142075000Y-94964561D01*
X142075000Y-95535439D01*
X142293466Y-96062862D01*
X142496604Y-96266000D01*
X142293466Y-96469138D01*
X142075000Y-96996561D01*
X142075000Y-97567439D01*
X142293466Y-98094862D01*
X142675000Y-98476396D01*
X142675000Y-98495606D01*
X142675001Y-98495611D01*
X142675000Y-108399132D01*
X136195705Y-114878428D01*
X136175358Y-114870000D01*
X135574642Y-114870000D01*
X135019654Y-115099884D01*
X134594884Y-115524654D01*
X134585879Y-115546394D01*
X134437060Y-115497545D01*
X133554605Y-116380000D01*
X133568748Y-116394143D01*
X133389143Y-116573748D01*
X133375000Y-116559605D01*
X133360858Y-116573748D01*
X133181253Y-116394143D01*
X133195395Y-116380000D01*
X132312940Y-115497545D01*
X132059047Y-115580884D01*
X131853410Y-116145306D01*
X131879421Y-116745458D01*
X132059047Y-117179116D01*
X132312938Y-117262454D01*
X132275392Y-117300000D01*
X131123000Y-117300000D01*
X129255000Y-115432000D01*
X129255000Y-115317940D01*
X132492545Y-115317940D01*
X133375000Y-116200395D01*
X134257455Y-115317940D01*
X134174116Y-115064047D01*
X133609694Y-114858410D01*
X133009542Y-114884421D01*
X132575884Y-115064047D01*
X132492545Y-115317940D01*
X129255000Y-115317940D01*
X129255000Y-98506761D01*
X129762561Y-98717000D01*
X130333439Y-98717000D01*
X130860862Y-98498534D01*
X131264534Y-98094862D01*
X131483000Y-97567439D01*
X131483000Y-96996561D01*
X131264534Y-96469138D01*
X130883000Y-96087604D01*
X130883000Y-94920396D01*
X131264534Y-94538862D01*
X131483000Y-94011439D01*
X131483000Y-93440561D01*
X131264534Y-92913138D01*
X130860862Y-92509466D01*
X130333439Y-92291000D01*
X129762561Y-92291000D01*
X129255000Y-92501239D01*
X129255000Y-90706396D01*
X129486534Y-90474862D01*
X129705000Y-89947439D01*
X129705000Y-89376561D01*
X129486534Y-88849138D01*
X129082862Y-88445466D01*
X128555439Y-88227000D01*
X127984561Y-88227000D01*
X127457138Y-88445466D01*
X127053466Y-88849138D01*
X126835000Y-89376561D01*
X125735000Y-89376561D01*
X125735000Y-84334615D01*
X148915000Y-84334615D01*
X148915000Y-84925385D01*
X149141078Y-85471185D01*
X149558815Y-85888922D01*
X149585560Y-85900000D01*
X149558815Y-85911078D01*
X149141078Y-86328815D01*
X148915000Y-86874615D01*
X148915000Y-87465385D01*
X149141078Y-88011185D01*
X149558815Y-88428922D01*
X149585560Y-88440000D01*
X149558815Y-88451078D01*
X149141078Y-88868815D01*
X148915000Y-89414615D01*
X148915000Y-90005385D01*
X149141078Y-90551185D01*
X149558815Y-90968922D01*
X150104615Y-91195000D01*
X150695385Y-91195000D01*
X151241185Y-90968922D01*
X151658922Y-90551185D01*
X151885000Y-90005385D01*
X151885000Y-89414615D01*
X151658922Y-88868815D01*
X151241185Y-88451078D01*
X151214440Y-88440000D01*
X151241185Y-88428922D01*
X151658922Y-88011185D01*
X151885000Y-87465385D01*
X151885000Y-86874615D01*
X151658922Y-86328815D01*
X151241185Y-85911078D01*
X151214440Y-85900000D01*
X151241185Y-85888922D01*
X151658922Y-85471185D01*
X151885000Y-84925385D01*
X151885000Y-84334615D01*
X151823339Y-84185750D01*
X157805000Y-84185750D01*
X157805000Y-85026309D01*
X157901673Y-85259698D01*
X158080301Y-85438327D01*
X158313690Y-85535000D01*
X159004250Y-85535000D01*
X159163000Y-85376250D01*
X159163000Y-84027000D01*
X157963750Y-84027000D01*
X157805000Y-84185750D01*
X151823339Y-84185750D01*
X151658922Y-83788815D01*
X151241185Y-83371078D01*
X151194753Y-83351845D01*
X151264353Y-83133958D01*
X150400000Y-82269605D01*
X149535647Y-83133958D01*
X149605247Y-83351845D01*
X149558815Y-83371078D01*
X149141078Y-83788815D01*
X148915000Y-84334615D01*
X125735000Y-84334615D01*
X125735000Y-81861279D01*
X148903282Y-81861279D01*
X148929685Y-82451458D01*
X149104741Y-82874080D01*
X149356042Y-82954353D01*
X150220395Y-82090000D01*
X150579605Y-82090000D01*
X151443958Y-82954353D01*
X151695259Y-82874080D01*
X151731675Y-82773691D01*
X157805000Y-82773691D01*
X157805000Y-83614250D01*
X157963750Y-83773000D01*
X159163000Y-83773000D01*
X159163000Y-82423750D01*
X159004250Y-82265000D01*
X158313690Y-82265000D01*
X158080301Y-82361673D01*
X157901673Y-82540302D01*
X157805000Y-82773691D01*
X151731675Y-82773691D01*
X151896718Y-82318721D01*
X151870315Y-81728542D01*
X151695259Y-81305920D01*
X151443958Y-81225647D01*
X150579605Y-82090000D01*
X150220395Y-82090000D01*
X149356042Y-81225647D01*
X149104741Y-81305920D01*
X148903282Y-81861279D01*
X125735000Y-81861279D01*
X125735000Y-81046042D01*
X149535647Y-81046042D01*
X150400000Y-81910395D01*
X151264353Y-81046042D01*
X151184080Y-80794741D01*
X150628721Y-80593282D01*
X150038542Y-80619685D01*
X149615920Y-80794741D01*
X149535647Y-81046042D01*
X125735000Y-81046042D01*
X125735000Y-69094615D01*
X148915000Y-69094615D01*
X148915000Y-69685385D01*
X149141078Y-70231185D01*
X149558815Y-70648922D01*
X149585560Y-70660000D01*
X149558815Y-70671078D01*
X149141078Y-71088815D01*
X148915000Y-71634615D01*
X148915000Y-72225385D01*
X149141078Y-72771185D01*
X149558815Y-73188922D01*
X149585560Y-73200000D01*
X149558815Y-73211078D01*
X149141078Y-73628815D01*
X148915000Y-74174615D01*
X148915000Y-74765385D01*
X149141078Y-75311185D01*
X149558815Y-75728922D01*
X150104615Y-75955000D01*
X150695385Y-75955000D01*
X151241185Y-75728922D01*
X151658922Y-75311185D01*
X151885000Y-74765385D01*
X151885000Y-74174615D01*
X151658922Y-73628815D01*
X151241185Y-73211078D01*
X151214440Y-73200000D01*
X151241185Y-73188922D01*
X151658922Y-72771185D01*
X151885000Y-72225385D01*
X151885000Y-71634615D01*
X151658922Y-71088815D01*
X151241185Y-70671078D01*
X151214440Y-70660000D01*
X151241185Y-70648922D01*
X151658922Y-70231185D01*
X151885000Y-69685385D01*
X151885000Y-69094615D01*
X151823339Y-68945750D01*
X157805000Y-68945750D01*
X157805000Y-69786309D01*
X157901673Y-70019698D01*
X158080301Y-70198327D01*
X158313690Y-70295000D01*
X159004250Y-70295000D01*
X159163000Y-70136250D01*
X159163000Y-68787000D01*
X157963750Y-68787000D01*
X157805000Y-68945750D01*
X151823339Y-68945750D01*
X151658922Y-68548815D01*
X151241185Y-68131078D01*
X151194753Y-68111845D01*
X151264353Y-67893958D01*
X150400000Y-67029605D01*
X149535647Y-67893958D01*
X149605247Y-68111845D01*
X149558815Y-68131078D01*
X149141078Y-68548815D01*
X148915000Y-69094615D01*
X125735000Y-69094615D01*
X125735000Y-66621279D01*
X148903282Y-66621279D01*
X148929685Y-67211458D01*
X149104741Y-67634080D01*
X149356042Y-67714353D01*
X150220395Y-66850000D01*
X150579605Y-66850000D01*
X151443958Y-67714353D01*
X151695259Y-67634080D01*
X151731675Y-67533691D01*
X157805000Y-67533691D01*
X157805000Y-68374250D01*
X157963750Y-68533000D01*
X159163000Y-68533000D01*
X159163000Y-67183750D01*
X159004250Y-67025000D01*
X158313690Y-67025000D01*
X158080301Y-67121673D01*
X157901673Y-67300302D01*
X157805000Y-67533691D01*
X151731675Y-67533691D01*
X151896718Y-67078721D01*
X151870315Y-66488542D01*
X151695259Y-66065920D01*
X151443958Y-65985647D01*
X150579605Y-66850000D01*
X150220395Y-66850000D01*
X149356042Y-65985647D01*
X149104741Y-66065920D01*
X148903282Y-66621279D01*
X125735000Y-66621279D01*
X125735000Y-63651151D01*
X126797455Y-63651151D01*
X126803206Y-64383402D01*
X127045836Y-65074311D01*
X127499182Y-65649377D01*
X128114360Y-66046593D01*
X128825036Y-66223126D01*
X129554578Y-66159940D01*
X130224321Y-65863850D01*
X130762046Y-65366783D01*
X131109770Y-64722336D01*
X131230000Y-64000000D01*
X131229725Y-63964973D01*
X131172411Y-63651151D01*
X141797455Y-63651151D01*
X141803206Y-64383402D01*
X142045836Y-65074311D01*
X142499182Y-65649377D01*
X143114360Y-66046593D01*
X143825036Y-66223126D01*
X144554578Y-66159940D01*
X145224321Y-65863850D01*
X145286857Y-65806042D01*
X149535647Y-65806042D01*
X150400000Y-66670395D01*
X151264353Y-65806042D01*
X151184080Y-65554741D01*
X150628721Y-65353282D01*
X150038542Y-65379685D01*
X149615920Y-65554741D01*
X149535647Y-65806042D01*
X145286857Y-65806042D01*
X145762046Y-65366783D01*
X146109770Y-64722336D01*
X146230000Y-64000000D01*
X146229725Y-63964973D01*
X146098164Y-63244614D01*
X145740360Y-62605709D01*
X145194894Y-62117149D01*
X144520583Y-61831615D01*
X143790138Y-61779897D01*
X143082323Y-61967571D01*
X142473460Y-62374400D01*
X142029203Y-62956517D01*
X141797455Y-63651151D01*
X131172411Y-63651151D01*
X131098164Y-63244614D01*
X130740360Y-62605709D01*
X130194894Y-62117149D01*
X129520583Y-61831615D01*
X128790138Y-61779897D01*
X128082323Y-61967571D01*
X127473460Y-62374400D01*
X127029203Y-62956517D01*
X126797455Y-63651151D01*
X125735000Y-63651151D01*
X125735000Y-60735000D01*
X164265001Y-60735000D01*
X164265001Y-65976301D01*
X164265001Y-65976301D01*
G37*
X164265001Y-65976301D02*
X164020439Y-65875000D01*
X163449561Y-65875000D01*
X162922138Y-66093466D01*
X162690604Y-66325000D01*
X162677007Y-66325000D01*
X162579999Y-66305704D01*
X162482991Y-66325000D01*
X162482988Y-66325000D01*
X162195672Y-66382151D01*
X161869855Y-66599855D01*
X161814902Y-66682098D01*
X161202096Y-67294904D01*
X161119856Y-67349855D01*
X161064905Y-67432095D01*
X161064902Y-67432098D01*
X160902151Y-67675673D01*
X160825704Y-68060000D01*
X160841633Y-68140083D01*
X160775000Y-68153337D01*
X160775000Y-67533691D01*
X160678327Y-67300302D01*
X160499699Y-67121673D01*
X160266310Y-67025000D01*
X159575750Y-67025000D01*
X159417000Y-67183750D01*
X159417000Y-68533000D01*
X159437000Y-68533000D01*
X159437000Y-68787000D01*
X159417000Y-68787000D01*
X159417000Y-70136250D01*
X159575750Y-70295000D01*
X160266310Y-70295000D01*
X160499699Y-70198327D01*
X160556975Y-70141051D01*
X160732235Y-70258157D01*
X160980000Y-70307440D01*
X162680000Y-70307440D01*
X162750000Y-70293516D01*
X162750000Y-71026484D01*
X162680000Y-71012560D01*
X160980000Y-71012560D01*
X160732235Y-71061843D01*
X160560000Y-71176928D01*
X160387765Y-71061843D01*
X160140000Y-71012560D01*
X158440000Y-71012560D01*
X158192235Y-71061843D01*
X157982191Y-71202191D01*
X157841843Y-71412235D01*
X157792560Y-71660000D01*
X157792560Y-73660000D01*
X157841843Y-73907765D01*
X157982191Y-74117809D01*
X158192235Y-74258157D01*
X158440000Y-74307440D01*
X158487861Y-74307440D01*
X158503448Y-74385800D01*
X158503449Y-74385801D01*
X158688000Y-74662001D01*
X158757718Y-74708585D01*
X159276414Y-75227282D01*
X159322999Y-75297001D01*
X159599199Y-75481552D01*
X159842763Y-75530000D01*
X159925000Y-75546358D01*
X160007237Y-75530000D01*
X161522767Y-75530000D01*
X161605000Y-75546357D01*
X161687233Y-75530000D01*
X161687237Y-75530000D01*
X161930801Y-75481552D01*
X162207001Y-75297001D01*
X162253587Y-75227280D01*
X162362280Y-75118587D01*
X162432001Y-75072001D01*
X162616552Y-74795801D01*
X162665000Y-74552237D01*
X162665000Y-74552234D01*
X162681357Y-74470001D01*
X162665000Y-74387768D01*
X162665000Y-73207440D01*
X162680000Y-73207440D01*
X162750000Y-73193516D01*
X162750001Y-80966998D01*
X161202098Y-82514902D01*
X161119855Y-82569855D01*
X161064902Y-82652098D01*
X160916579Y-82874080D01*
X160902151Y-82895673D01*
X160845000Y-83182989D01*
X160845000Y-83182992D01*
X160825704Y-83280000D01*
X160845000Y-83377009D01*
X160845000Y-83379413D01*
X160775000Y-83393337D01*
X160775000Y-82773691D01*
X160678327Y-82540302D01*
X160499699Y-82361673D01*
X160266310Y-82265000D01*
X159575750Y-82265000D01*
X159417000Y-82423750D01*
X159417000Y-83773000D01*
X159437000Y-83773000D01*
X159437000Y-84027000D01*
X159417000Y-84027000D01*
X159417000Y-85376250D01*
X159575750Y-85535000D01*
X160266310Y-85535000D01*
X160499699Y-85438327D01*
X160556975Y-85381051D01*
X160732235Y-85498157D01*
X160980000Y-85547440D01*
X162680000Y-85547440D01*
X162750000Y-85533516D01*
X162750000Y-86266484D01*
X162680000Y-86252560D01*
X160980000Y-86252560D01*
X160732235Y-86301843D01*
X160560000Y-86416928D01*
X160387765Y-86301843D01*
X160140000Y-86252560D01*
X158440000Y-86252560D01*
X158192235Y-86301843D01*
X157982191Y-86442191D01*
X157841843Y-86652235D01*
X157792560Y-86900000D01*
X157792560Y-88900000D01*
X157841843Y-89147765D01*
X157982191Y-89357809D01*
X158192235Y-89498157D01*
X158440000Y-89547440D01*
X158455001Y-89547440D01*
X158455001Y-89627762D01*
X158438643Y-89710000D01*
X158503448Y-90035800D01*
X158503449Y-90035801D01*
X158688000Y-90312001D01*
X158757718Y-90358585D01*
X159276414Y-90877282D01*
X159322999Y-90947001D01*
X159599199Y-91131552D01*
X159842763Y-91180000D01*
X159925000Y-91196358D01*
X160007237Y-91180000D01*
X161112767Y-91180000D01*
X161195000Y-91196357D01*
X161277233Y-91180000D01*
X161277237Y-91180000D01*
X161520801Y-91131552D01*
X161797001Y-90947001D01*
X161843587Y-90877280D01*
X162362283Y-90358585D01*
X162432001Y-90312001D01*
X162616552Y-90035801D01*
X162665000Y-89792237D01*
X162665000Y-89792236D01*
X162681358Y-89710000D01*
X162665000Y-89627763D01*
X162665000Y-88447440D01*
X162680000Y-88447440D01*
X162750000Y-88433516D01*
X162750001Y-96206998D01*
X161202098Y-97754902D01*
X161119855Y-97809855D01*
X161064902Y-97892098D01*
X160947000Y-98068552D01*
X160902151Y-98135673D01*
X160845000Y-98422989D01*
X160845000Y-98422992D01*
X160825704Y-98520000D01*
X160845000Y-98617009D01*
X160845000Y-98619413D01*
X160775000Y-98633337D01*
X160775000Y-98013691D01*
X160678327Y-97780302D01*
X160499699Y-97601673D01*
X160266310Y-97505000D01*
X159575750Y-97505000D01*
X159417000Y-97663750D01*
X159417000Y-99013000D01*
X159437000Y-99013000D01*
X159437000Y-99267000D01*
X159417000Y-99267000D01*
X159417000Y-100616250D01*
X159575750Y-100775000D01*
X160266310Y-100775000D01*
X160499699Y-100678327D01*
X160556975Y-100621051D01*
X160732235Y-100738157D01*
X160980000Y-100787440D01*
X162680000Y-100787440D01*
X162750000Y-100773516D01*
X162750000Y-101506484D01*
X162680000Y-101492560D01*
X160980000Y-101492560D01*
X160732235Y-101541843D01*
X160560000Y-101656928D01*
X160387765Y-101541843D01*
X160140000Y-101492560D01*
X158440000Y-101492560D01*
X158192235Y-101541843D01*
X157982191Y-101682191D01*
X157841843Y-101892235D01*
X157792560Y-102140000D01*
X157792560Y-104140000D01*
X157841843Y-104387765D01*
X157982191Y-104597809D01*
X158192235Y-104738157D01*
X158440000Y-104787440D01*
X158455001Y-104787440D01*
X158455001Y-104867762D01*
X158438643Y-104950000D01*
X158503448Y-105275800D01*
X158503449Y-105275801D01*
X158688000Y-105552001D01*
X158757718Y-105598585D01*
X159276414Y-106117282D01*
X159322999Y-106187001D01*
X159599199Y-106371552D01*
X159842763Y-106420000D01*
X159925000Y-106436358D01*
X160007237Y-106420000D01*
X161112767Y-106420000D01*
X161195000Y-106436357D01*
X161277233Y-106420000D01*
X161277237Y-106420000D01*
X161520801Y-106371552D01*
X161797001Y-106187001D01*
X161843587Y-106117280D01*
X162362283Y-105598585D01*
X162432001Y-105552001D01*
X162616552Y-105275801D01*
X162665000Y-105032237D01*
X162665000Y-105032236D01*
X162681358Y-104950000D01*
X162665000Y-104867763D01*
X162665000Y-103687440D01*
X162680000Y-103687440D01*
X162750000Y-103673516D01*
X162750001Y-111466998D01*
X161202098Y-113014902D01*
X161119855Y-113069855D01*
X160902151Y-113395673D01*
X160845000Y-113682989D01*
X160845000Y-113682992D01*
X160825704Y-113780000D01*
X160841633Y-113860083D01*
X160775000Y-113873337D01*
X160775000Y-113253691D01*
X160678327Y-113020302D01*
X160499699Y-112841673D01*
X160266310Y-112745000D01*
X159575750Y-112745000D01*
X159417000Y-112903750D01*
X159417000Y-114253000D01*
X159437000Y-114253000D01*
X159437000Y-114507000D01*
X159417000Y-114507000D01*
X159417000Y-115856250D01*
X159575750Y-116015000D01*
X160266310Y-116015000D01*
X160499699Y-115918327D01*
X160556975Y-115861051D01*
X160732235Y-115978157D01*
X160980000Y-116027440D01*
X162680000Y-116027440D01*
X162750000Y-116013516D01*
X162750000Y-116746484D01*
X162680000Y-116732560D01*
X160980000Y-116732560D01*
X160732235Y-116781843D01*
X160560000Y-116896928D01*
X160387765Y-116781843D01*
X160140000Y-116732560D01*
X158440000Y-116732560D01*
X158192235Y-116781843D01*
X157982191Y-116922191D01*
X157841843Y-117132235D01*
X157792560Y-117380000D01*
X157792560Y-119380000D01*
X157841843Y-119627765D01*
X157982191Y-119837809D01*
X158192235Y-119978157D01*
X158440000Y-120027440D01*
X158455001Y-120027440D01*
X158455001Y-120107762D01*
X158438643Y-120190000D01*
X158503448Y-120515800D01*
X158503449Y-120515801D01*
X158688000Y-120792001D01*
X158757718Y-120838585D01*
X159276414Y-121357282D01*
X159322999Y-121427001D01*
X159599199Y-121611552D01*
X159842763Y-121660000D01*
X159925000Y-121676358D01*
X160007237Y-121660000D01*
X161112767Y-121660000D01*
X161195000Y-121676357D01*
X161277233Y-121660000D01*
X161277237Y-121660000D01*
X161520801Y-121611552D01*
X161797001Y-121427001D01*
X161843587Y-121357280D01*
X162362283Y-120838585D01*
X162432001Y-120792001D01*
X162616552Y-120515801D01*
X162665000Y-120272237D01*
X162665000Y-120272236D01*
X162681358Y-120190000D01*
X162665000Y-120107763D01*
X162665000Y-118927440D01*
X162680000Y-118927440D01*
X162750000Y-118913516D01*
X162750001Y-126706998D01*
X161202098Y-128254902D01*
X161119855Y-128309855D01*
X160902151Y-128635673D01*
X160845000Y-128922989D01*
X160845000Y-128922992D01*
X160825704Y-129020000D01*
X160841633Y-129100083D01*
X160775000Y-129113337D01*
X160775000Y-128493691D01*
X160678327Y-128260302D01*
X160499699Y-128081673D01*
X160266310Y-127985000D01*
X159575750Y-127985000D01*
X159417000Y-128143750D01*
X159417000Y-129493000D01*
X159437000Y-129493000D01*
X159437000Y-129747000D01*
X159417000Y-129747000D01*
X159417000Y-131096250D01*
X159575750Y-131255000D01*
X160266310Y-131255000D01*
X160499699Y-131158327D01*
X160556975Y-131101051D01*
X160732235Y-131218157D01*
X160980000Y-131267440D01*
X162680000Y-131267440D01*
X162927765Y-131218157D01*
X163137809Y-131077809D01*
X163278157Y-130867765D01*
X163327440Y-130620000D01*
X163327440Y-129720000D01*
X163278157Y-129472235D01*
X163137809Y-129262191D01*
X163043695Y-129199305D01*
X164265000Y-127978001D01*
X164265000Y-139265000D01*
X125735000Y-139265000D01*
X125735000Y-135651151D01*
X126797455Y-135651151D01*
X126803206Y-136383402D01*
X127045836Y-137074311D01*
X127499182Y-137649377D01*
X128114360Y-138046593D01*
X128825036Y-138223126D01*
X129554578Y-138159940D01*
X130224321Y-137863850D01*
X130762046Y-137366783D01*
X131109770Y-136722336D01*
X131230000Y-136000000D01*
X131229725Y-135964973D01*
X131172411Y-135651151D01*
X141797455Y-135651151D01*
X141803206Y-136383402D01*
X142045836Y-137074311D01*
X142499182Y-137649377D01*
X143114360Y-138046593D01*
X143825036Y-138223126D01*
X144554578Y-138159940D01*
X145224321Y-137863850D01*
X145762046Y-137366783D01*
X146109770Y-136722336D01*
X146230000Y-136000000D01*
X146229725Y-135964973D01*
X146098164Y-135244614D01*
X145740360Y-134605709D01*
X145194894Y-134117149D01*
X144520583Y-133831615D01*
X143790138Y-133779897D01*
X143082323Y-133967571D01*
X142473460Y-134374400D01*
X142029203Y-134956517D01*
X141797455Y-135651151D01*
X131172411Y-135651151D01*
X131098164Y-135244614D01*
X130740360Y-134605709D01*
X130194894Y-134117149D01*
X129520583Y-133831615D01*
X128790138Y-133779897D01*
X128082323Y-133967571D01*
X127473460Y-134374400D01*
X127029203Y-134956517D01*
X126797455Y-135651151D01*
X125735000Y-135651151D01*
X125735000Y-130054615D01*
X148915000Y-130054615D01*
X148915000Y-130645385D01*
X149141078Y-131191185D01*
X149558815Y-131608922D01*
X149585560Y-131620000D01*
X149558815Y-131631078D01*
X149141078Y-132048815D01*
X148915000Y-132594615D01*
X148915000Y-133185385D01*
X149141078Y-133731185D01*
X149558815Y-134148922D01*
X149585560Y-134160000D01*
X149558815Y-134171078D01*
X149141078Y-134588815D01*
X148915000Y-135134615D01*
X148915000Y-135725385D01*
X149141078Y-136271185D01*
X149558815Y-136688922D01*
X150104615Y-136915000D01*
X150695385Y-136915000D01*
X151241185Y-136688922D01*
X151658922Y-136271185D01*
X151885000Y-135725385D01*
X151885000Y-135134615D01*
X151658922Y-134588815D01*
X151241185Y-134171078D01*
X151214440Y-134160000D01*
X151241185Y-134148922D01*
X151658922Y-133731185D01*
X151885000Y-133185385D01*
X151885000Y-132620000D01*
X157792560Y-132620000D01*
X157792560Y-134620000D01*
X157841843Y-134867765D01*
X157982191Y-135077809D01*
X158192235Y-135218157D01*
X158440000Y-135267440D01*
X158455001Y-135267440D01*
X158455001Y-135347762D01*
X158438643Y-135430000D01*
X158503448Y-135755800D01*
X158503449Y-135755801D01*
X158688000Y-136032001D01*
X158757718Y-136078585D01*
X159276414Y-136597282D01*
X159322999Y-136667001D01*
X159599199Y-136851552D01*
X159842763Y-136900000D01*
X159925000Y-136916358D01*
X160007237Y-136900000D01*
X161112767Y-136900000D01*
X161195000Y-136916357D01*
X161277233Y-136900000D01*
X161277237Y-136900000D01*
X161520801Y-136851552D01*
X161797001Y-136667001D01*
X161843587Y-136597280D01*
X162362283Y-136078585D01*
X162432001Y-136032001D01*
X162616552Y-135755801D01*
X162665000Y-135512237D01*
X162665000Y-135512236D01*
X162681358Y-135430000D01*
X162665000Y-135347763D01*
X162665000Y-134167440D01*
X162680000Y-134167440D01*
X162927765Y-134118157D01*
X163137809Y-133977809D01*
X163278157Y-133767765D01*
X163327440Y-133520000D01*
X163327440Y-132620000D01*
X163278157Y-132372235D01*
X163137809Y-132162191D01*
X162927765Y-132021843D01*
X162680000Y-131972560D01*
X160980000Y-131972560D01*
X160732235Y-132021843D01*
X160560000Y-132136928D01*
X160387765Y-132021843D01*
X160140000Y-131972560D01*
X158440000Y-131972560D01*
X158192235Y-132021843D01*
X157982191Y-132162191D01*
X157841843Y-132372235D01*
X157792560Y-132620000D01*
X151885000Y-132620000D01*
X151885000Y-132594615D01*
X151658922Y-132048815D01*
X151241185Y-131631078D01*
X151214440Y-131620000D01*
X151241185Y-131608922D01*
X151658922Y-131191185D01*
X151885000Y-130645385D01*
X151885000Y-130054615D01*
X151823339Y-129905750D01*
X157805000Y-129905750D01*
X157805000Y-130746309D01*
X157901673Y-130979698D01*
X158080301Y-131158327D01*
X158313690Y-131255000D01*
X159004250Y-131255000D01*
X159163000Y-131096250D01*
X159163000Y-129747000D01*
X157963750Y-129747000D01*
X157805000Y-129905750D01*
X151823339Y-129905750D01*
X151658922Y-129508815D01*
X151241185Y-129091078D01*
X151194753Y-129071845D01*
X151264353Y-128853958D01*
X150400000Y-127989605D01*
X149535647Y-128853958D01*
X149605247Y-129071845D01*
X149558815Y-129091078D01*
X149141078Y-129508815D01*
X148915000Y-130054615D01*
X125735000Y-130054615D01*
X125735000Y-127581279D01*
X148903282Y-127581279D01*
X148929685Y-128171458D01*
X149104741Y-128594080D01*
X149356042Y-128674353D01*
X150220395Y-127810000D01*
X150579605Y-127810000D01*
X151443958Y-128674353D01*
X151695259Y-128594080D01*
X151731675Y-128493691D01*
X157805000Y-128493691D01*
X157805000Y-129334250D01*
X157963750Y-129493000D01*
X159163000Y-129493000D01*
X159163000Y-128143750D01*
X159004250Y-127985000D01*
X158313690Y-127985000D01*
X158080301Y-128081673D01*
X157901673Y-128260302D01*
X157805000Y-128493691D01*
X151731675Y-128493691D01*
X151896718Y-128038721D01*
X151870315Y-127448542D01*
X151695259Y-127025920D01*
X151443958Y-126945647D01*
X150579605Y-127810000D01*
X150220395Y-127810000D01*
X149356042Y-126945647D01*
X149104741Y-127025920D01*
X148903282Y-127581279D01*
X125735000Y-127581279D01*
X125735000Y-126766042D01*
X149535647Y-126766042D01*
X150400000Y-127630395D01*
X151264353Y-126766042D01*
X151184080Y-126514741D01*
X150628721Y-126313282D01*
X150038542Y-126339685D01*
X149615920Y-126514741D01*
X149535647Y-126766042D01*
X125735000Y-126766042D01*
X125735000Y-89376561D01*
X126835000Y-89376561D01*
X126835000Y-89947439D01*
X127053466Y-90474862D01*
X127285001Y-90706397D01*
X127285000Y-97633011D01*
X127285001Y-97633016D01*
X127285000Y-115742992D01*
X127265704Y-115840000D01*
X127285000Y-115937008D01*
X127285000Y-115937011D01*
X127342151Y-116224327D01*
X127559855Y-116550145D01*
X127642098Y-116605098D01*
X129949902Y-118912902D01*
X130004855Y-118995145D01*
X130330672Y-119212849D01*
X130617988Y-119270000D01*
X130617991Y-119270000D01*
X130714999Y-119289296D01*
X130812007Y-119270000D01*
X140447992Y-119270000D01*
X140545000Y-119289296D01*
X140642008Y-119270000D01*
X140642012Y-119270000D01*
X140929328Y-119212849D01*
X141255145Y-118995145D01*
X141310099Y-118912901D01*
X141502900Y-118720100D01*
X141585145Y-118665145D01*
X141802849Y-118339328D01*
X141860000Y-118052012D01*
X141860000Y-118052008D01*
X141879296Y-117955001D01*
X141864318Y-117879701D01*
X141997765Y-117853157D01*
X142207809Y-117712809D01*
X142348157Y-117502765D01*
X142397440Y-117255000D01*
X142397440Y-115505000D01*
X142348157Y-115257235D01*
X142207809Y-115047191D01*
X141997765Y-114906843D01*
X141750000Y-114857560D01*
X141078307Y-114857560D01*
X141121252Y-114814615D01*
X148915000Y-114814615D01*
X148915000Y-115405385D01*
X149141078Y-115951185D01*
X149558815Y-116368922D01*
X149585560Y-116380000D01*
X149558815Y-116391078D01*
X149141078Y-116808815D01*
X148915000Y-117354615D01*
X148915000Y-117945385D01*
X149141078Y-118491185D01*
X149558815Y-118908922D01*
X149585560Y-118920000D01*
X149558815Y-118931078D01*
X149141078Y-119348815D01*
X148915000Y-119894615D01*
X148915000Y-120485385D01*
X149141078Y-121031185D01*
X149558815Y-121448922D01*
X150104615Y-121675000D01*
X150695385Y-121675000D01*
X151241185Y-121448922D01*
X151658922Y-121031185D01*
X151885000Y-120485385D01*
X151885000Y-119894615D01*
X151658922Y-119348815D01*
X151241185Y-118931078D01*
X151214440Y-118920000D01*
X151241185Y-118908922D01*
X151658922Y-118491185D01*
X151885000Y-117945385D01*
X151885000Y-117354615D01*
X151658922Y-116808815D01*
X151241185Y-116391078D01*
X151214440Y-116380000D01*
X151241185Y-116368922D01*
X151658922Y-115951185D01*
X151885000Y-115405385D01*
X151885000Y-114814615D01*
X151823339Y-114665750D01*
X157805000Y-114665750D01*
X157805000Y-115506309D01*
X157901673Y-115739698D01*
X158080301Y-115918327D01*
X158313690Y-116015000D01*
X159004250Y-116015000D01*
X159163000Y-115856250D01*
X159163000Y-114507000D01*
X157963750Y-114507000D01*
X157805000Y-114665750D01*
X151823339Y-114665750D01*
X151658922Y-114268815D01*
X151241185Y-113851078D01*
X151194753Y-113831845D01*
X151264353Y-113613958D01*
X150400000Y-112749605D01*
X149535647Y-113613958D01*
X149605247Y-113831845D01*
X149558815Y-113851078D01*
X149141078Y-114268815D01*
X148915000Y-114814615D01*
X141121252Y-114814615D01*
X143594588Y-112341279D01*
X148903282Y-112341279D01*
X148929685Y-112931458D01*
X149104741Y-113354080D01*
X149356042Y-113434353D01*
X150220395Y-112570000D01*
X150579605Y-112570000D01*
X151443958Y-113434353D01*
X151695259Y-113354080D01*
X151731675Y-113253691D01*
X157805000Y-113253691D01*
X157805000Y-114094250D01*
X157963750Y-114253000D01*
X159163000Y-114253000D01*
X159163000Y-112903750D01*
X159004250Y-112745000D01*
X158313690Y-112745000D01*
X158080301Y-112841673D01*
X157901673Y-113020302D01*
X157805000Y-113253691D01*
X151731675Y-113253691D01*
X151896718Y-112798721D01*
X151870315Y-112208542D01*
X151695259Y-111785920D01*
X151443958Y-111705647D01*
X150579605Y-112570000D01*
X150220395Y-112570000D01*
X149356042Y-111705647D01*
X149104741Y-111785920D01*
X148903282Y-112341279D01*
X143594588Y-112341279D01*
X144409825Y-111526042D01*
X149535647Y-111526042D01*
X150400000Y-112390395D01*
X151264353Y-111526042D01*
X151184080Y-111274741D01*
X150628721Y-111073282D01*
X150038542Y-111099685D01*
X149615920Y-111274741D01*
X149535647Y-111526042D01*
X144409825Y-111526042D01*
X145750284Y-110185584D01*
X145820002Y-110139000D01*
X146004553Y-109862800D01*
X146053001Y-109619236D01*
X146053001Y-109619235D01*
X146069359Y-109536999D01*
X146053001Y-109454762D01*
X146053001Y-99574615D01*
X148915000Y-99574615D01*
X148915000Y-100165385D01*
X149141078Y-100711185D01*
X149558815Y-101128922D01*
X149585560Y-101140000D01*
X149558815Y-101151078D01*
X149141078Y-101568815D01*
X148915000Y-102114615D01*
X148915000Y-102705385D01*
X149141078Y-103251185D01*
X149558815Y-103668922D01*
X149585560Y-103680000D01*
X149558815Y-103691078D01*
X149141078Y-104108815D01*
X148915000Y-104654615D01*
X148915000Y-105245385D01*
X149141078Y-105791185D01*
X149558815Y-106208922D01*
X150104615Y-106435000D01*
X150695385Y-106435000D01*
X151241185Y-106208922D01*
X151658922Y-105791185D01*
X151885000Y-105245385D01*
X151885000Y-104654615D01*
X151658922Y-104108815D01*
X151241185Y-103691078D01*
X151214440Y-103680000D01*
X151241185Y-103668922D01*
X151658922Y-103251185D01*
X151885000Y-102705385D01*
X151885000Y-102114615D01*
X151658922Y-101568815D01*
X151241185Y-101151078D01*
X151214440Y-101140000D01*
X151241185Y-101128922D01*
X151658922Y-100711185D01*
X151885000Y-100165385D01*
X151885000Y-99574615D01*
X151823339Y-99425750D01*
X157805000Y-99425750D01*
X157805000Y-100266309D01*
X157901673Y-100499698D01*
X158080301Y-100678327D01*
X158313690Y-100775000D01*
X159004250Y-100775000D01*
X159163000Y-100616250D01*
X159163000Y-99267000D01*
X157963750Y-99267000D01*
X157805000Y-99425750D01*
X151823339Y-99425750D01*
X151658922Y-99028815D01*
X151241185Y-98611078D01*
X151194753Y-98591845D01*
X151264353Y-98373958D01*
X150400000Y-97509605D01*
X149535647Y-98373958D01*
X149605247Y-98591845D01*
X149558815Y-98611078D01*
X149141078Y-99028815D01*
X148915000Y-99574615D01*
X146053001Y-99574615D01*
X146053001Y-97101279D01*
X148903282Y-97101279D01*
X148929685Y-97691458D01*
X149104741Y-98114080D01*
X149356042Y-98194353D01*
X150220395Y-97330000D01*
X150579605Y-97330000D01*
X151443958Y-98194353D01*
X151695259Y-98114080D01*
X151731675Y-98013691D01*
X157805000Y-98013691D01*
X157805000Y-98854250D01*
X157963750Y-99013000D01*
X159163000Y-99013000D01*
X159163000Y-97663750D01*
X159004250Y-97505000D01*
X158313690Y-97505000D01*
X158080301Y-97601673D01*
X157901673Y-97780302D01*
X157805000Y-98013691D01*
X151731675Y-98013691D01*
X151896718Y-97558721D01*
X151870315Y-96968542D01*
X151695259Y-96545920D01*
X151443958Y-96465647D01*
X150579605Y-97330000D01*
X150220395Y-97330000D01*
X149356042Y-96465647D01*
X149104741Y-96545920D01*
X148903282Y-97101279D01*
X146053001Y-97101279D01*
X146053001Y-96286042D01*
X149535647Y-96286042D01*
X150400000Y-97150395D01*
X151264353Y-96286042D01*
X151184080Y-96034741D01*
X150628721Y-95833282D01*
X150038542Y-95859685D01*
X149615920Y-96034741D01*
X149535647Y-96286042D01*
X146053001Y-96286042D01*
X146053001Y-95908863D01*
X146069358Y-95826630D01*
X146053001Y-95744397D01*
X146053001Y-95744394D01*
X146004553Y-95500830D01*
X145820002Y-95224630D01*
X145750286Y-95178047D01*
X145289957Y-94717719D01*
X145243371Y-94647999D01*
X144967171Y-94463448D01*
X144723607Y-94415000D01*
X144723603Y-94415000D01*
X144699627Y-94410231D01*
X144322862Y-94033466D01*
X143795439Y-93815000D01*
X143224561Y-93815000D01*
X142697138Y-94033466D01*
X142293466Y-94437138D01*
X142075000Y-94964561D01*
X142075000Y-95535439D01*
X142293466Y-96062862D01*
X142496604Y-96266000D01*
X142293466Y-96469138D01*
X142075000Y-96996561D01*
X142075000Y-97567439D01*
X142293466Y-98094862D01*
X142675000Y-98476396D01*
X142675000Y-98495606D01*
X142675001Y-98495611D01*
X142675000Y-108399132D01*
X136195705Y-114878428D01*
X136175358Y-114870000D01*
X135574642Y-114870000D01*
X135019654Y-115099884D01*
X134594884Y-115524654D01*
X134585879Y-115546394D01*
X134437060Y-115497545D01*
X133554605Y-116380000D01*
X133568748Y-116394143D01*
X133389143Y-116573748D01*
X133375000Y-116559605D01*
X133360858Y-116573748D01*
X133181253Y-116394143D01*
X133195395Y-116380000D01*
X132312940Y-115497545D01*
X132059047Y-115580884D01*
X131853410Y-116145306D01*
X131879421Y-116745458D01*
X132059047Y-117179116D01*
X132312938Y-117262454D01*
X132275392Y-117300000D01*
X131123000Y-117300000D01*
X129255000Y-115432000D01*
X129255000Y-115317940D01*
X132492545Y-115317940D01*
X133375000Y-116200395D01*
X134257455Y-115317940D01*
X134174116Y-115064047D01*
X133609694Y-114858410D01*
X133009542Y-114884421D01*
X132575884Y-115064047D01*
X132492545Y-115317940D01*
X129255000Y-115317940D01*
X129255000Y-98506761D01*
X129762561Y-98717000D01*
X130333439Y-98717000D01*
X130860862Y-98498534D01*
X131264534Y-98094862D01*
X131483000Y-97567439D01*
X131483000Y-96996561D01*
X131264534Y-96469138D01*
X130883000Y-96087604D01*
X130883000Y-94920396D01*
X131264534Y-94538862D01*
X131483000Y-94011439D01*
X131483000Y-93440561D01*
X131264534Y-92913138D01*
X130860862Y-92509466D01*
X130333439Y-92291000D01*
X129762561Y-92291000D01*
X129255000Y-92501239D01*
X129255000Y-90706396D01*
X129486534Y-90474862D01*
X129705000Y-89947439D01*
X129705000Y-89376561D01*
X129486534Y-88849138D01*
X129082862Y-88445466D01*
X128555439Y-88227000D01*
X127984561Y-88227000D01*
X127457138Y-88445466D01*
X127053466Y-88849138D01*
X126835000Y-89376561D01*
X125735000Y-89376561D01*
X125735000Y-84334615D01*
X148915000Y-84334615D01*
X148915000Y-84925385D01*
X149141078Y-85471185D01*
X149558815Y-85888922D01*
X149585560Y-85900000D01*
X149558815Y-85911078D01*
X149141078Y-86328815D01*
X148915000Y-86874615D01*
X148915000Y-87465385D01*
X149141078Y-88011185D01*
X149558815Y-88428922D01*
X149585560Y-88440000D01*
X149558815Y-88451078D01*
X149141078Y-88868815D01*
X148915000Y-89414615D01*
X148915000Y-90005385D01*
X149141078Y-90551185D01*
X149558815Y-90968922D01*
X150104615Y-91195000D01*
X150695385Y-91195000D01*
X151241185Y-90968922D01*
X151658922Y-90551185D01*
X151885000Y-90005385D01*
X151885000Y-89414615D01*
X151658922Y-88868815D01*
X151241185Y-88451078D01*
X151214440Y-88440000D01*
X151241185Y-88428922D01*
X151658922Y-88011185D01*
X151885000Y-87465385D01*
X151885000Y-86874615D01*
X151658922Y-86328815D01*
X151241185Y-85911078D01*
X151214440Y-85900000D01*
X151241185Y-85888922D01*
X151658922Y-85471185D01*
X151885000Y-84925385D01*
X151885000Y-84334615D01*
X151823339Y-84185750D01*
X157805000Y-84185750D01*
X157805000Y-85026309D01*
X157901673Y-85259698D01*
X158080301Y-85438327D01*
X158313690Y-85535000D01*
X159004250Y-85535000D01*
X159163000Y-85376250D01*
X159163000Y-84027000D01*
X157963750Y-84027000D01*
X157805000Y-84185750D01*
X151823339Y-84185750D01*
X151658922Y-83788815D01*
X151241185Y-83371078D01*
X151194753Y-83351845D01*
X151264353Y-83133958D01*
X150400000Y-82269605D01*
X149535647Y-83133958D01*
X149605247Y-83351845D01*
X149558815Y-83371078D01*
X149141078Y-83788815D01*
X148915000Y-84334615D01*
X125735000Y-84334615D01*
X125735000Y-81861279D01*
X148903282Y-81861279D01*
X148929685Y-82451458D01*
X149104741Y-82874080D01*
X149356042Y-82954353D01*
X150220395Y-82090000D01*
X150579605Y-82090000D01*
X151443958Y-82954353D01*
X151695259Y-82874080D01*
X151731675Y-82773691D01*
X157805000Y-82773691D01*
X157805000Y-83614250D01*
X157963750Y-83773000D01*
X159163000Y-83773000D01*
X159163000Y-82423750D01*
X159004250Y-82265000D01*
X158313690Y-82265000D01*
X158080301Y-82361673D01*
X157901673Y-82540302D01*
X157805000Y-82773691D01*
X151731675Y-82773691D01*
X151896718Y-82318721D01*
X151870315Y-81728542D01*
X151695259Y-81305920D01*
X151443958Y-81225647D01*
X150579605Y-82090000D01*
X150220395Y-82090000D01*
X149356042Y-81225647D01*
X149104741Y-81305920D01*
X148903282Y-81861279D01*
X125735000Y-81861279D01*
X125735000Y-81046042D01*
X149535647Y-81046042D01*
X150400000Y-81910395D01*
X151264353Y-81046042D01*
X151184080Y-80794741D01*
X150628721Y-80593282D01*
X150038542Y-80619685D01*
X149615920Y-80794741D01*
X149535647Y-81046042D01*
X125735000Y-81046042D01*
X125735000Y-69094615D01*
X148915000Y-69094615D01*
X148915000Y-69685385D01*
X149141078Y-70231185D01*
X149558815Y-70648922D01*
X149585560Y-70660000D01*
X149558815Y-70671078D01*
X149141078Y-71088815D01*
X148915000Y-71634615D01*
X148915000Y-72225385D01*
X149141078Y-72771185D01*
X149558815Y-73188922D01*
X149585560Y-73200000D01*
X149558815Y-73211078D01*
X149141078Y-73628815D01*
X148915000Y-74174615D01*
X148915000Y-74765385D01*
X149141078Y-75311185D01*
X149558815Y-75728922D01*
X150104615Y-75955000D01*
X150695385Y-75955000D01*
X151241185Y-75728922D01*
X151658922Y-75311185D01*
X151885000Y-74765385D01*
X151885000Y-74174615D01*
X151658922Y-73628815D01*
X151241185Y-73211078D01*
X151214440Y-73200000D01*
X151241185Y-73188922D01*
X151658922Y-72771185D01*
X151885000Y-72225385D01*
X151885000Y-71634615D01*
X151658922Y-71088815D01*
X151241185Y-70671078D01*
X151214440Y-70660000D01*
X151241185Y-70648922D01*
X151658922Y-70231185D01*
X151885000Y-69685385D01*
X151885000Y-69094615D01*
X151823339Y-68945750D01*
X157805000Y-68945750D01*
X157805000Y-69786309D01*
X157901673Y-70019698D01*
X158080301Y-70198327D01*
X158313690Y-70295000D01*
X159004250Y-70295000D01*
X159163000Y-70136250D01*
X159163000Y-68787000D01*
X157963750Y-68787000D01*
X157805000Y-68945750D01*
X151823339Y-68945750D01*
X151658922Y-68548815D01*
X151241185Y-68131078D01*
X151194753Y-68111845D01*
X151264353Y-67893958D01*
X150400000Y-67029605D01*
X149535647Y-67893958D01*
X149605247Y-68111845D01*
X149558815Y-68131078D01*
X149141078Y-68548815D01*
X148915000Y-69094615D01*
X125735000Y-69094615D01*
X125735000Y-66621279D01*
X148903282Y-66621279D01*
X148929685Y-67211458D01*
X149104741Y-67634080D01*
X149356042Y-67714353D01*
X150220395Y-66850000D01*
X150579605Y-66850000D01*
X151443958Y-67714353D01*
X151695259Y-67634080D01*
X151731675Y-67533691D01*
X157805000Y-67533691D01*
X157805000Y-68374250D01*
X157963750Y-68533000D01*
X159163000Y-68533000D01*
X159163000Y-67183750D01*
X159004250Y-67025000D01*
X158313690Y-67025000D01*
X158080301Y-67121673D01*
X157901673Y-67300302D01*
X157805000Y-67533691D01*
X151731675Y-67533691D01*
X151896718Y-67078721D01*
X151870315Y-66488542D01*
X151695259Y-66065920D01*
X151443958Y-65985647D01*
X150579605Y-66850000D01*
X150220395Y-66850000D01*
X149356042Y-65985647D01*
X149104741Y-66065920D01*
X148903282Y-66621279D01*
X125735000Y-66621279D01*
X125735000Y-63651151D01*
X126797455Y-63651151D01*
X126803206Y-64383402D01*
X127045836Y-65074311D01*
X127499182Y-65649377D01*
X128114360Y-66046593D01*
X128825036Y-66223126D01*
X129554578Y-66159940D01*
X130224321Y-65863850D01*
X130762046Y-65366783D01*
X131109770Y-64722336D01*
X131230000Y-64000000D01*
X131229725Y-63964973D01*
X131172411Y-63651151D01*
X141797455Y-63651151D01*
X141803206Y-64383402D01*
X142045836Y-65074311D01*
X142499182Y-65649377D01*
X143114360Y-66046593D01*
X143825036Y-66223126D01*
X144554578Y-66159940D01*
X145224321Y-65863850D01*
X145286857Y-65806042D01*
X149535647Y-65806042D01*
X150400000Y-66670395D01*
X151264353Y-65806042D01*
X151184080Y-65554741D01*
X150628721Y-65353282D01*
X150038542Y-65379685D01*
X149615920Y-65554741D01*
X149535647Y-65806042D01*
X145286857Y-65806042D01*
X145762046Y-65366783D01*
X146109770Y-64722336D01*
X146230000Y-64000000D01*
X146229725Y-63964973D01*
X146098164Y-63244614D01*
X145740360Y-62605709D01*
X145194894Y-62117149D01*
X144520583Y-61831615D01*
X143790138Y-61779897D01*
X143082323Y-61967571D01*
X142473460Y-62374400D01*
X142029203Y-62956517D01*
X141797455Y-63651151D01*
X131172411Y-63651151D01*
X131098164Y-63244614D01*
X130740360Y-62605709D01*
X130194894Y-62117149D01*
X129520583Y-61831615D01*
X128790138Y-61779897D01*
X128082323Y-61967571D01*
X127473460Y-62374400D01*
X127029203Y-62956517D01*
X126797455Y-63651151D01*
X125735000Y-63651151D01*
X125735000Y-60735000D01*
X164265001Y-60735000D01*
X164265001Y-65976301D01*
M02*
