G04 #@! TF.GenerationSoftware,KiCad,Pcbnew,(5.0.0-rc2-dev-632-g76d3b6f04)*
G04 #@! TF.CreationDate,2018-11-25T05:17:50+09:00*
G04 #@! TF.ProjectId,I2C_color_sensor_v1,4932435F636F6C6F725F73656E736F72,rev?*
G04 #@! TF.SameCoordinates,Original*
G04 #@! TF.FileFunction,Legend,Top*
G04 #@! TF.FilePolarity,Positive*
%FSLAX46Y46*%
G04 Gerber Fmt 4.6, Leading zero omitted, Abs format (unit mm)*
G04 Created by KiCad (PCBNEW (5.0.0-rc2-dev-632-g76d3b6f04)) date 11/25/18 05:17:50*
%MOMM*%
%LPD*%
G01*
G04 APERTURE LIST*
%ADD10C,0.300000*%
%ADD11C,0.120000*%
%ADD12C,0.150000*%
%ADD13C,0.010000*%
G04 APERTURE END LIST*
D10*
X134201071Y-136568571D02*
X133790357Y-135854285D01*
X133343928Y-136568571D02*
X133531428Y-135068571D01*
X134102857Y-135068571D01*
X134236785Y-135140000D01*
X134299285Y-135211428D01*
X134352857Y-135354285D01*
X134326071Y-135568571D01*
X134236785Y-135711428D01*
X134156428Y-135782857D01*
X134004642Y-135854285D01*
X133433214Y-135854285D01*
X134826071Y-135568571D02*
X135058214Y-136568571D01*
X135540357Y-135568571D02*
X135058214Y-136568571D01*
X134870714Y-136925714D01*
X134790357Y-136997142D01*
X134638571Y-137068571D01*
X136754642Y-135568571D02*
X136629642Y-136568571D01*
X136111785Y-135568571D02*
X136013571Y-136354285D01*
X136067142Y-136497142D01*
X136201071Y-136568571D01*
X136415357Y-136568571D01*
X136567142Y-136497142D01*
X136647500Y-136425714D01*
X138111785Y-135568571D02*
X137960000Y-136782857D01*
X137870714Y-136925714D01*
X137790357Y-136997142D01*
X137638571Y-137068571D01*
X137424285Y-137068571D01*
X137290357Y-136997142D01*
X137995714Y-136497142D02*
X137843928Y-136568571D01*
X137558214Y-136568571D01*
X137424285Y-136497142D01*
X137361785Y-136425714D01*
X137308214Y-136282857D01*
X137361785Y-135854285D01*
X137451071Y-135711428D01*
X137531428Y-135640000D01*
X137683214Y-135568571D01*
X137968928Y-135568571D01*
X138102857Y-135640000D01*
X139343928Y-136568571D02*
X139442142Y-135782857D01*
X139388571Y-135640000D01*
X139254642Y-135568571D01*
X138968928Y-135568571D01*
X138817142Y-135640000D01*
X139352857Y-136497142D02*
X139201071Y-136568571D01*
X138843928Y-136568571D01*
X138710000Y-136497142D01*
X138656428Y-136354285D01*
X138674285Y-136211428D01*
X138763571Y-136068571D01*
X138915357Y-135997142D01*
X139272500Y-135997142D01*
X139424285Y-135925714D01*
X126352857Y-139107142D02*
X126486785Y-139178571D01*
X126772500Y-139178571D01*
X126924285Y-139107142D01*
X127013571Y-138964285D01*
X127022500Y-138892857D01*
X126968928Y-138750000D01*
X126835000Y-138678571D01*
X126620714Y-138678571D01*
X126486785Y-138607142D01*
X126433214Y-138464285D01*
X126442142Y-138392857D01*
X126531428Y-138250000D01*
X126683214Y-138178571D01*
X126897500Y-138178571D01*
X127031428Y-138250000D01*
X128415357Y-139178571D02*
X127558214Y-139178571D01*
X127986785Y-139178571D02*
X128174285Y-137678571D01*
X128004642Y-137892857D01*
X127843928Y-138035714D01*
X127692142Y-138107142D01*
X129843928Y-139178571D02*
X128986785Y-139178571D01*
X129415357Y-139178571D02*
X129602857Y-137678571D01*
X129433214Y-137892857D01*
X129272500Y-138035714D01*
X129120714Y-138107142D01*
X130960000Y-137678571D02*
X131102857Y-137678571D01*
X131236785Y-137750000D01*
X131299285Y-137821428D01*
X131352857Y-137964285D01*
X131388571Y-138250000D01*
X131343928Y-138607142D01*
X131236785Y-138892857D01*
X131147500Y-139035714D01*
X131067142Y-139107142D01*
X130915357Y-139178571D01*
X130772500Y-139178571D01*
X130638571Y-139107142D01*
X130576071Y-139035714D01*
X130522500Y-138892857D01*
X130486785Y-138607142D01*
X130531428Y-138250000D01*
X130638571Y-137964285D01*
X130727857Y-137821428D01*
X130808214Y-137750000D01*
X130960000Y-137678571D01*
X132817142Y-137678571D02*
X132102857Y-137678571D01*
X131942142Y-138392857D01*
X132022500Y-138321428D01*
X132174285Y-138250000D01*
X132531428Y-138250000D01*
X132665357Y-138321428D01*
X132727857Y-138392857D01*
X132781428Y-138535714D01*
X132736785Y-138892857D01*
X132647500Y-139035714D01*
X132567142Y-139107142D01*
X132415357Y-139178571D01*
X132058214Y-139178571D01*
X131924285Y-139107142D01*
X131861785Y-139035714D01*
X133415357Y-139178571D02*
X133701071Y-139178571D01*
X133852857Y-139107142D01*
X133933214Y-139035714D01*
X134102857Y-138821428D01*
X134210000Y-138535714D01*
X134281428Y-137964285D01*
X134227857Y-137821428D01*
X134165357Y-137750000D01*
X134031428Y-137678571D01*
X133745714Y-137678571D01*
X133593928Y-137750000D01*
X133513571Y-137821428D01*
X133424285Y-137964285D01*
X133379642Y-138321428D01*
X133433214Y-138464285D01*
X133495714Y-138535714D01*
X133629642Y-138607142D01*
X133915357Y-138607142D01*
X134067142Y-138535714D01*
X134147500Y-138464285D01*
X134236785Y-138321428D01*
X134397500Y-139321428D02*
X135540357Y-139321428D01*
X136567142Y-139107142D02*
X136415357Y-139178571D01*
X136129642Y-139178571D01*
X135995714Y-139107142D01*
X135933214Y-139035714D01*
X135879642Y-138892857D01*
X135933214Y-138464285D01*
X136022500Y-138321428D01*
X136102857Y-138250000D01*
X136254642Y-138178571D01*
X136540357Y-138178571D01*
X136674285Y-138250000D01*
X137415357Y-139178571D02*
X137281428Y-139107142D01*
X137218928Y-139035714D01*
X137165357Y-138892857D01*
X137218928Y-138464285D01*
X137308214Y-138321428D01*
X137388571Y-138250000D01*
X137540357Y-138178571D01*
X137754642Y-138178571D01*
X137888571Y-138250000D01*
X137951071Y-138321428D01*
X138004642Y-138464285D01*
X137951071Y-138892857D01*
X137861785Y-139035714D01*
X137781428Y-139107142D01*
X137629642Y-139178571D01*
X137415357Y-139178571D01*
X138772500Y-139178571D02*
X138638571Y-139107142D01*
X138585000Y-138964285D01*
X138745714Y-137678571D01*
X139558214Y-139178571D02*
X139424285Y-139107142D01*
X139361785Y-139035714D01*
X139308214Y-138892857D01*
X139361785Y-138464285D01*
X139451071Y-138321428D01*
X139531428Y-138250000D01*
X139683214Y-138178571D01*
X139897500Y-138178571D01*
X140031428Y-138250000D01*
X140093928Y-138321428D01*
X140147500Y-138464285D01*
X140093928Y-138892857D01*
X140004642Y-139035714D01*
X139924285Y-139107142D01*
X139772500Y-139178571D01*
X139558214Y-139178571D01*
X140701071Y-139178571D02*
X140826071Y-138178571D01*
X140790357Y-138464285D02*
X140879642Y-138321428D01*
X140960000Y-138250000D01*
X141111785Y-138178571D01*
X141254642Y-138178571D01*
X141254642Y-139321428D02*
X142397500Y-139321428D01*
X142710000Y-139107142D02*
X142843928Y-139178571D01*
X143129642Y-139178571D01*
X143281428Y-139107142D01*
X143370714Y-138964285D01*
X143379642Y-138892857D01*
X143326071Y-138750000D01*
X143192142Y-138678571D01*
X142977857Y-138678571D01*
X142843928Y-138607142D01*
X142790357Y-138464285D01*
X142799285Y-138392857D01*
X142888571Y-138250000D01*
X143040357Y-138178571D01*
X143254642Y-138178571D01*
X143388571Y-138250000D01*
X144567142Y-139107142D02*
X144415357Y-139178571D01*
X144129642Y-139178571D01*
X143995714Y-139107142D01*
X143942142Y-138964285D01*
X144013571Y-138392857D01*
X144102857Y-138250000D01*
X144254642Y-138178571D01*
X144540357Y-138178571D01*
X144674285Y-138250000D01*
X144727857Y-138392857D01*
X144710000Y-138535714D01*
X143977857Y-138678571D01*
X145397500Y-138178571D02*
X145272500Y-139178571D01*
X145379642Y-138321428D02*
X145460000Y-138250000D01*
X145611785Y-138178571D01*
X145826071Y-138178571D01*
X145960000Y-138250000D01*
X146013571Y-138392857D01*
X145915357Y-139178571D01*
X146567142Y-139107142D02*
X146701071Y-139178571D01*
X146986785Y-139178571D01*
X147138571Y-139107142D01*
X147227857Y-138964285D01*
X147236785Y-138892857D01*
X147183214Y-138750000D01*
X147049285Y-138678571D01*
X146835000Y-138678571D01*
X146701071Y-138607142D01*
X146647500Y-138464285D01*
X146656428Y-138392857D01*
X146745714Y-138250000D01*
X146897500Y-138178571D01*
X147111785Y-138178571D01*
X147245714Y-138250000D01*
X148058214Y-139178571D02*
X147924285Y-139107142D01*
X147861785Y-139035714D01*
X147808214Y-138892857D01*
X147861785Y-138464285D01*
X147951071Y-138321428D01*
X148031428Y-138250000D01*
X148183214Y-138178571D01*
X148397500Y-138178571D01*
X148531428Y-138250000D01*
X148593928Y-138321428D01*
X148647500Y-138464285D01*
X148593928Y-138892857D01*
X148504642Y-139035714D01*
X148424285Y-139107142D01*
X148272500Y-139178571D01*
X148058214Y-139178571D01*
X149201071Y-139178571D02*
X149326071Y-138178571D01*
X149290357Y-138464285D02*
X149379642Y-138321428D01*
X149460000Y-138250000D01*
X149611785Y-138178571D01*
X149754642Y-138178571D01*
X149754642Y-139321428D02*
X150897500Y-139321428D01*
X151254642Y-138178571D02*
X151486785Y-139178571D01*
X151968928Y-138178571D01*
X152040357Y-139321428D02*
X153183214Y-139321428D01*
X154343928Y-139178571D02*
X153486785Y-139178571D01*
X153915357Y-139178571D02*
X154102857Y-137678571D01*
X153933214Y-137892857D01*
X153772500Y-138035714D01*
X153620714Y-138107142D01*
D11*
X143725000Y-119130000D02*
X143725000Y-116630000D01*
X141225000Y-119130000D02*
X143725000Y-119130000D01*
X131575000Y-113630000D02*
X137125000Y-113630000D01*
X131575000Y-116580000D02*
X131575000Y-113630000D01*
X130825000Y-116580000D02*
X131575000Y-116580000D01*
X142675000Y-113630000D02*
X137125000Y-113630000D01*
X142675000Y-116580000D02*
X142675000Y-113630000D01*
X143425000Y-116580000D02*
X142675000Y-116580000D01*
X130825000Y-118830000D02*
X132625000Y-118830000D01*
X130825000Y-118080000D02*
X130825000Y-118830000D01*
X132625000Y-118080000D02*
X130825000Y-118080000D01*
X132625000Y-118830000D02*
X132625000Y-118080000D01*
X141625000Y-118830000D02*
X143425000Y-118830000D01*
X141625000Y-118080000D02*
X141625000Y-118830000D01*
X143425000Y-118080000D02*
X141625000Y-118080000D01*
X143425000Y-118830000D02*
X143425000Y-118080000D01*
X134125000Y-118830000D02*
X140125000Y-118830000D01*
X134125000Y-118080000D02*
X134125000Y-118830000D01*
X140125000Y-118080000D02*
X134125000Y-118080000D01*
X140125000Y-118830000D02*
X140125000Y-118080000D01*
X130825000Y-118830000D02*
X143425000Y-118830000D01*
X130825000Y-112880000D02*
X130825000Y-118830000D01*
X143425000Y-112880000D02*
X130825000Y-112880000D01*
X143425000Y-118830000D02*
X143425000Y-112880000D01*
D12*
X138460000Y-82345000D02*
X138460000Y-87845000D01*
X131860000Y-82345000D02*
X138460000Y-82345000D01*
X131860000Y-87845000D02*
X131860000Y-82345000D01*
X138460000Y-87845000D02*
X131860000Y-87845000D01*
D11*
X128560000Y-86265000D02*
X128560000Y-84265000D01*
X126520000Y-84265000D02*
X126520000Y-86265000D01*
X131100000Y-86265000D02*
X131100000Y-84265000D01*
X129060000Y-84265000D02*
X129060000Y-86265000D01*
D12*
X139224000Y-109395000D02*
X133636000Y-109395000D01*
X139224000Y-94155000D02*
X133636000Y-94155000D01*
X139224000Y-109395000D02*
X139224000Y-94155000D01*
X137065000Y-94155000D02*
X137065000Y-95425000D01*
X137065000Y-95425000D02*
X135795000Y-95425000D01*
X135795000Y-95425000D02*
X135795000Y-94155000D01*
X133636000Y-94155000D02*
X133636000Y-109395000D01*
D11*
X139875000Y-90624000D02*
X141875000Y-90624000D01*
X141875000Y-92764000D02*
X139875000Y-92764000D01*
X141875000Y-90224000D02*
X139875000Y-90224000D01*
X139875000Y-88084000D02*
X141875000Y-88084000D01*
X155030000Y-133960000D02*
X153030000Y-133960000D01*
X153030000Y-131820000D02*
X155030000Y-131820000D01*
X132890000Y-91815000D02*
X134890000Y-91815000D01*
X134890000Y-93955000D02*
X132890000Y-93955000D01*
X155030000Y-131420000D02*
X153030000Y-131420000D01*
X153030000Y-129280000D02*
X155030000Y-129280000D01*
X153030000Y-116580000D02*
X155030000Y-116580000D01*
X155030000Y-118720000D02*
X153030000Y-118720000D01*
X155030000Y-116180000D02*
X153030000Y-116180000D01*
X153030000Y-114040000D02*
X155030000Y-114040000D01*
X153030000Y-101340000D02*
X155030000Y-101340000D01*
X155030000Y-103480000D02*
X153030000Y-103480000D01*
X155030000Y-100940000D02*
X153030000Y-100940000D01*
X153030000Y-98800000D02*
X155030000Y-98800000D01*
X153030000Y-86100000D02*
X155030000Y-86100000D01*
X155030000Y-88240000D02*
X153030000Y-88240000D01*
X155030000Y-85700000D02*
X153030000Y-85700000D01*
X153030000Y-83560000D02*
X155030000Y-83560000D01*
X153030000Y-70860000D02*
X155030000Y-70860000D01*
X155030000Y-73000000D02*
X153030000Y-73000000D01*
X155030000Y-70460000D02*
X153030000Y-70460000D01*
X153030000Y-68320000D02*
X155030000Y-68320000D01*
D13*
G36*
X136243769Y-126558114D02*
X136315160Y-126639791D01*
X136328365Y-126668057D01*
X136362057Y-126757543D01*
X136373637Y-126817119D01*
X136356658Y-126852864D01*
X136304674Y-126870857D01*
X136211239Y-126877178D01*
X136105833Y-126877916D01*
X135841250Y-126877916D01*
X135841349Y-126791927D01*
X135861102Y-126686632D01*
X135913101Y-126595716D01*
X135986826Y-126534735D01*
X136024442Y-126521171D01*
X136144006Y-126517194D01*
X136243769Y-126558114D01*
X136243769Y-126558114D01*
G37*
X136243769Y-126558114D02*
X136315160Y-126639791D01*
X136328365Y-126668057D01*
X136362057Y-126757543D01*
X136373637Y-126817119D01*
X136356658Y-126852864D01*
X136304674Y-126870857D01*
X136211239Y-126877178D01*
X136105833Y-126877916D01*
X135841250Y-126877916D01*
X135841349Y-126791927D01*
X135861102Y-126686632D01*
X135913101Y-126595716D01*
X135986826Y-126534735D01*
X136024442Y-126521171D01*
X136144006Y-126517194D01*
X136243769Y-126558114D01*
G36*
X134064484Y-126539336D02*
X134160151Y-126559364D01*
X134226895Y-126609193D01*
X134270091Y-126695818D01*
X134295111Y-126826234D01*
X134296795Y-126841703D01*
X134304834Y-127014873D01*
X134292732Y-127167105D01*
X134262045Y-127288589D01*
X134214327Y-127369515D01*
X134212918Y-127370945D01*
X134126805Y-127424795D01*
X134032383Y-127429361D01*
X133939710Y-127384989D01*
X133912203Y-127360648D01*
X133855965Y-127270255D01*
X133823239Y-127139176D01*
X133815092Y-126974643D01*
X133829881Y-126802326D01*
X133855260Y-126675744D01*
X133892892Y-126594421D01*
X133949336Y-126551006D01*
X134031148Y-126538149D01*
X134064484Y-126539336D01*
X134064484Y-126539336D01*
G37*
X134064484Y-126539336D02*
X134160151Y-126559364D01*
X134226895Y-126609193D01*
X134270091Y-126695818D01*
X134295111Y-126826234D01*
X134296795Y-126841703D01*
X134304834Y-127014873D01*
X134292732Y-127167105D01*
X134262045Y-127288589D01*
X134214327Y-127369515D01*
X134212918Y-127370945D01*
X134126805Y-127424795D01*
X134032383Y-127429361D01*
X133939710Y-127384989D01*
X133912203Y-127360648D01*
X133855965Y-127270255D01*
X133823239Y-127139176D01*
X133815092Y-126974643D01*
X133829881Y-126802326D01*
X133855260Y-126675744D01*
X133892892Y-126594421D01*
X133949336Y-126551006D01*
X134031148Y-126538149D01*
X134064484Y-126539336D01*
G36*
X131776012Y-126555156D02*
X131854881Y-126595706D01*
X131875102Y-126616433D01*
X131917433Y-126705186D01*
X131941374Y-126825206D01*
X131947734Y-126962006D01*
X131937327Y-127101100D01*
X131910962Y-127228003D01*
X131869451Y-127328226D01*
X131832683Y-127374010D01*
X131747740Y-127417300D01*
X131638926Y-127432722D01*
X131528376Y-127418556D01*
X131482239Y-127401249D01*
X131458900Y-127387739D01*
X131442624Y-127367735D01*
X131432140Y-127332535D01*
X131426177Y-127273435D01*
X131423464Y-127181733D01*
X131422732Y-127048726D01*
X131422708Y-126993545D01*
X131422986Y-126844964D01*
X131424765Y-126740285D01*
X131429467Y-126670494D01*
X131438510Y-126626578D01*
X131453315Y-126599522D01*
X131475303Y-126580312D01*
X131489284Y-126570930D01*
X131573025Y-126540387D01*
X131675331Y-126535922D01*
X131776012Y-126555156D01*
X131776012Y-126555156D01*
G37*
X131776012Y-126555156D02*
X131854881Y-126595706D01*
X131875102Y-126616433D01*
X131917433Y-126705186D01*
X131941374Y-126825206D01*
X131947734Y-126962006D01*
X131937327Y-127101100D01*
X131910962Y-127228003D01*
X131869451Y-127328226D01*
X131832683Y-127374010D01*
X131747740Y-127417300D01*
X131638926Y-127432722D01*
X131528376Y-127418556D01*
X131482239Y-127401249D01*
X131458900Y-127387739D01*
X131442624Y-127367735D01*
X131432140Y-127332535D01*
X131426177Y-127273435D01*
X131423464Y-127181733D01*
X131422732Y-127048726D01*
X131422708Y-126993545D01*
X131422986Y-126844964D01*
X131424765Y-126740285D01*
X131429467Y-126670494D01*
X131438510Y-126626578D01*
X131453315Y-126599522D01*
X131475303Y-126580312D01*
X131489284Y-126570930D01*
X131573025Y-126540387D01*
X131675331Y-126535922D01*
X131776012Y-126555156D01*
G36*
X132848815Y-130173607D02*
X132864795Y-130180443D01*
X132915070Y-130227100D01*
X132933230Y-130293269D01*
X132917850Y-130358266D01*
X132879656Y-130395944D01*
X132835512Y-130417833D01*
X132805816Y-130417090D01*
X132763905Y-130390846D01*
X132751512Y-130382145D01*
X132701116Y-130323228D01*
X132702090Y-130257251D01*
X132745732Y-130198340D01*
X132795820Y-130166281D01*
X132848815Y-130173607D01*
X132848815Y-130173607D01*
G37*
X132848815Y-130173607D02*
X132864795Y-130180443D01*
X132915070Y-130227100D01*
X132933230Y-130293269D01*
X132917850Y-130358266D01*
X132879656Y-130395944D01*
X132835512Y-130417833D01*
X132805816Y-130417090D01*
X132763905Y-130390846D01*
X132751512Y-130382145D01*
X132701116Y-130323228D01*
X132702090Y-130257251D01*
X132745732Y-130198340D01*
X132795820Y-130166281D01*
X132848815Y-130173607D01*
G36*
X134599810Y-130103874D02*
X134627456Y-130142174D01*
X134639109Y-130214848D01*
X134613587Y-130275040D01*
X134563529Y-130312847D01*
X134501569Y-130318366D01*
X134444250Y-130285750D01*
X134417742Y-130234167D01*
X134412500Y-130198437D01*
X134432431Y-130130154D01*
X134481259Y-130088763D01*
X134542535Y-130078568D01*
X134599810Y-130103874D01*
X134599810Y-130103874D01*
G37*
X134599810Y-130103874D02*
X134627456Y-130142174D01*
X134639109Y-130214848D01*
X134613587Y-130275040D01*
X134563529Y-130312847D01*
X134501569Y-130318366D01*
X134444250Y-130285750D01*
X134417742Y-130234167D01*
X134412500Y-130198437D01*
X134432431Y-130130154D01*
X134481259Y-130088763D01*
X134542535Y-130078568D01*
X134599810Y-130103874D01*
G36*
X133689345Y-130224378D02*
X133697194Y-130236385D01*
X133722161Y-130302060D01*
X133708693Y-130351838D01*
X133683006Y-130381755D01*
X133615162Y-130419783D01*
X133546747Y-130407578D01*
X133501188Y-130364529D01*
X133466999Y-130307712D01*
X133467146Y-130269122D01*
X133501577Y-130226785D01*
X133565249Y-130191195D01*
X133634974Y-130190743D01*
X133689345Y-130224378D01*
X133689345Y-130224378D01*
G37*
X133689345Y-130224378D02*
X133697194Y-130236385D01*
X133722161Y-130302060D01*
X133708693Y-130351838D01*
X133683006Y-130381755D01*
X133615162Y-130419783D01*
X133546747Y-130407578D01*
X133501188Y-130364529D01*
X133466999Y-130307712D01*
X133467146Y-130269122D01*
X133501577Y-130226785D01*
X133565249Y-130191195D01*
X133634974Y-130190743D01*
X133689345Y-130224378D01*
G36*
X132426794Y-130647806D02*
X132479493Y-130688259D01*
X132500025Y-130753365D01*
X132484349Y-130822953D01*
X132466847Y-130847732D01*
X132409218Y-130892898D01*
X132356213Y-130887654D01*
X132310778Y-130848562D01*
X132281315Y-130785303D01*
X132290151Y-130719720D01*
X132328418Y-130667157D01*
X132387247Y-130642958D01*
X132426794Y-130647806D01*
X132426794Y-130647806D01*
G37*
X132426794Y-130647806D02*
X132479493Y-130688259D01*
X132500025Y-130753365D01*
X132484349Y-130822953D01*
X132466847Y-130847732D01*
X132409218Y-130892898D01*
X132356213Y-130887654D01*
X132310778Y-130848562D01*
X132281315Y-130785303D01*
X132290151Y-130719720D01*
X132328418Y-130667157D01*
X132387247Y-130642958D01*
X132426794Y-130647806D01*
G36*
X134104527Y-131026673D02*
X134154084Y-131075727D01*
X134164644Y-131102540D01*
X134159764Y-131170378D01*
X134118854Y-131220379D01*
X134058049Y-131243578D01*
X133993488Y-131231011D01*
X133968000Y-131211791D01*
X133939339Y-131150962D01*
X133944866Y-131079721D01*
X133975594Y-131032160D01*
X134038244Y-131009624D01*
X134104527Y-131026673D01*
X134104527Y-131026673D01*
G37*
X134104527Y-131026673D02*
X134154084Y-131075727D01*
X134164644Y-131102540D01*
X134159764Y-131170378D01*
X134118854Y-131220379D01*
X134058049Y-131243578D01*
X133993488Y-131231011D01*
X133968000Y-131211791D01*
X133939339Y-131150962D01*
X133944866Y-131079721D01*
X133975594Y-131032160D01*
X134038244Y-131009624D01*
X134104527Y-131026673D01*
G36*
X132886207Y-131428614D02*
X132924325Y-131482052D01*
X132930833Y-131521354D01*
X132910356Y-131593221D01*
X132859311Y-131633053D01*
X132793282Y-131634706D01*
X132734286Y-131598839D01*
X132697944Y-131547979D01*
X132701299Y-131494136D01*
X132720097Y-131453468D01*
X132767418Y-131408951D01*
X132828346Y-131402457D01*
X132886207Y-131428614D01*
X132886207Y-131428614D01*
G37*
X132886207Y-131428614D02*
X132924325Y-131482052D01*
X132930833Y-131521354D01*
X132910356Y-131593221D01*
X132859311Y-131633053D01*
X132793282Y-131634706D01*
X132734286Y-131598839D01*
X132697944Y-131547979D01*
X132701299Y-131494136D01*
X132720097Y-131453468D01*
X132767418Y-131408951D01*
X132828346Y-131402457D01*
X132886207Y-131428614D01*
G36*
X132449155Y-131972245D02*
X132475750Y-131989666D01*
X132502258Y-132041249D01*
X132507500Y-132076979D01*
X132487329Y-132150052D01*
X132434529Y-132188570D01*
X132360671Y-132187077D01*
X132315677Y-132167464D01*
X132273819Y-132118870D01*
X132269995Y-132057451D01*
X132298375Y-131999988D01*
X132353135Y-131963260D01*
X132388437Y-131957916D01*
X132449155Y-131972245D01*
X132449155Y-131972245D01*
G37*
X132449155Y-131972245D02*
X132475750Y-131989666D01*
X132502258Y-132041249D01*
X132507500Y-132076979D01*
X132487329Y-132150052D01*
X132434529Y-132188570D01*
X132360671Y-132187077D01*
X132315677Y-132167464D01*
X132273819Y-132118870D01*
X132269995Y-132057451D01*
X132298375Y-131999988D01*
X132353135Y-131963260D01*
X132388437Y-131957916D01*
X132449155Y-131972245D01*
G36*
X131909618Y-131965103D02*
X131960058Y-131998914D01*
X131985275Y-132054038D01*
X131973086Y-132120954D01*
X131961635Y-132140048D01*
X131903064Y-132188453D01*
X131836748Y-132186507D01*
X131783996Y-132147656D01*
X131744948Y-132086966D01*
X131753508Y-132034061D01*
X131781786Y-131999494D01*
X131846133Y-131962123D01*
X131909618Y-131965103D01*
X131909618Y-131965103D01*
G37*
X131909618Y-131965103D02*
X131960058Y-131998914D01*
X131985275Y-132054038D01*
X131973086Y-132120954D01*
X131961635Y-132140048D01*
X131903064Y-132188453D01*
X131836748Y-132186507D01*
X131783996Y-132147656D01*
X131744948Y-132086966D01*
X131753508Y-132034061D01*
X131781786Y-131999494D01*
X131846133Y-131962123D01*
X131909618Y-131965103D01*
G36*
X134140738Y-132347227D02*
X134165363Y-132401861D01*
X134165978Y-132464840D01*
X134123913Y-132516867D01*
X134122516Y-132518005D01*
X134070240Y-132555762D01*
X134032486Y-132561590D01*
X133984485Y-132539004D01*
X133982552Y-132537880D01*
X133941963Y-132488195D01*
X133935349Y-132421528D01*
X133960671Y-132359665D01*
X134002166Y-132328420D01*
X134084697Y-132314946D01*
X134140738Y-132347227D01*
X134140738Y-132347227D01*
G37*
X134140738Y-132347227D02*
X134165363Y-132401861D01*
X134165978Y-132464840D01*
X134123913Y-132516867D01*
X134122516Y-132518005D01*
X134070240Y-132555762D01*
X134032486Y-132561590D01*
X133984485Y-132539004D01*
X133982552Y-132537880D01*
X133941963Y-132488195D01*
X133935349Y-132421528D01*
X133960671Y-132359665D01*
X134002166Y-132328420D01*
X134084697Y-132314946D01*
X134140738Y-132347227D01*
G36*
X133436545Y-133063097D02*
X133484245Y-133109630D01*
X133511693Y-133160355D01*
X133512917Y-133170468D01*
X133494230Y-133212501D01*
X133451273Y-133262275D01*
X133403698Y-133299466D01*
X133380625Y-133307291D01*
X133344124Y-133290213D01*
X133301250Y-133254375D01*
X133262404Y-133206989D01*
X133248333Y-133175000D01*
X133268125Y-133133150D01*
X133313856Y-133085014D01*
X133365062Y-133049738D01*
X133389753Y-133042708D01*
X133436545Y-133063097D01*
X133436545Y-133063097D01*
G37*
X133436545Y-133063097D02*
X133484245Y-133109630D01*
X133511693Y-133160355D01*
X133512917Y-133170468D01*
X133494230Y-133212501D01*
X133451273Y-133262275D01*
X133403698Y-133299466D01*
X133380625Y-133307291D01*
X133344124Y-133290213D01*
X133301250Y-133254375D01*
X133262404Y-133206989D01*
X133248333Y-133175000D01*
X133268125Y-133133150D01*
X133313856Y-133085014D01*
X133365062Y-133049738D01*
X133389753Y-133042708D01*
X133436545Y-133063097D01*
G36*
X133058660Y-133644627D02*
X133101102Y-133694166D01*
X133105206Y-133758456D01*
X133076451Y-133809892D01*
X133009601Y-133856346D01*
X132944397Y-133850939D01*
X132889875Y-133798545D01*
X132864105Y-133723865D01*
X132884919Y-133663531D01*
X132946064Y-133628931D01*
X132985248Y-133624791D01*
X133058660Y-133644627D01*
X133058660Y-133644627D01*
G37*
X133058660Y-133644627D02*
X133101102Y-133694166D01*
X133105206Y-133758456D01*
X133076451Y-133809892D01*
X133009601Y-133856346D01*
X132944397Y-133850939D01*
X132889875Y-133798545D01*
X132864105Y-133723865D01*
X132884919Y-133663531D01*
X132946064Y-133628931D01*
X132985248Y-133624791D01*
X133058660Y-133644627D01*
G36*
X130954084Y-133738562D02*
X130991771Y-133772414D01*
X131003383Y-133795001D01*
X131020068Y-133853058D01*
X130999932Y-133899650D01*
X130986243Y-133915725D01*
X130919449Y-133962072D01*
X130854057Y-133957584D01*
X130804421Y-133912777D01*
X130777751Y-133840029D01*
X130798217Y-133778748D01*
X130860042Y-133740954D01*
X130889591Y-133735577D01*
X130954084Y-133738562D01*
X130954084Y-133738562D01*
G37*
X130954084Y-133738562D02*
X130991771Y-133772414D01*
X131003383Y-133795001D01*
X131020068Y-133853058D01*
X130999932Y-133899650D01*
X130986243Y-133915725D01*
X130919449Y-133962072D01*
X130854057Y-133957584D01*
X130804421Y-133912777D01*
X130777751Y-133840029D01*
X130798217Y-133778748D01*
X130860042Y-133740954D01*
X130889591Y-133735577D01*
X130954084Y-133738562D01*
G36*
X131868035Y-133829835D02*
X131910477Y-133879374D01*
X131914581Y-133943664D01*
X131885826Y-133995100D01*
X131821848Y-134040026D01*
X131758586Y-134042329D01*
X131720542Y-134015052D01*
X131680882Y-133937138D01*
X131685021Y-133869773D01*
X131729005Y-133823907D01*
X131794623Y-133810000D01*
X131868035Y-133829835D01*
X131868035Y-133829835D01*
G37*
X131868035Y-133829835D02*
X131910477Y-133879374D01*
X131914581Y-133943664D01*
X131885826Y-133995100D01*
X131821848Y-134040026D01*
X131758586Y-134042329D01*
X131720542Y-134015052D01*
X131680882Y-133937138D01*
X131685021Y-133869773D01*
X131729005Y-133823907D01*
X131794623Y-133810000D01*
X131868035Y-133829835D01*
G36*
X135056315Y-125713857D02*
X135615255Y-125714065D01*
X136143115Y-125714649D01*
X136638023Y-125715597D01*
X137098105Y-125716898D01*
X137521487Y-125718539D01*
X137906296Y-125720509D01*
X138250657Y-125722796D01*
X138552698Y-125725387D01*
X138810545Y-125728272D01*
X139022323Y-125731437D01*
X139186161Y-125734871D01*
X139300183Y-125738563D01*
X139346979Y-125741116D01*
X139837662Y-125792074D01*
X140283532Y-125870044D01*
X140685594Y-125975570D01*
X141044856Y-126109193D01*
X141362324Y-126271459D01*
X141639007Y-126462909D01*
X141875910Y-126684087D01*
X142074040Y-126935535D01*
X142234405Y-127217797D01*
X142281848Y-127324091D01*
X142344018Y-127484205D01*
X142391322Y-127635882D01*
X142425559Y-127790402D01*
X142448529Y-127959042D01*
X142462031Y-128153081D01*
X142467865Y-128383797D01*
X142468460Y-128493773D01*
X142469062Y-129038067D01*
X142352451Y-129274294D01*
X142294362Y-129385161D01*
X142235712Y-129478634D01*
X142166067Y-129568462D01*
X142074996Y-129668397D01*
X141982034Y-129762547D01*
X141860991Y-129876102D01*
X141725118Y-129993001D01*
X141592006Y-130098625D01*
X141490511Y-130171039D01*
X141139333Y-130383299D01*
X140738974Y-130590055D01*
X140288790Y-130791565D01*
X139788139Y-130988090D01*
X139236377Y-131179888D01*
X138632861Y-131367220D01*
X138268424Y-131471277D01*
X138181916Y-131499127D01*
X138121807Y-131525961D01*
X138100104Y-131546324D01*
X138100419Y-131547590D01*
X138116676Y-131573487D01*
X138159355Y-131638393D01*
X138225217Y-131737493D01*
X138311026Y-131865972D01*
X138413545Y-132019015D01*
X138529536Y-132191807D01*
X138655762Y-132379532D01*
X138788987Y-132577375D01*
X138925972Y-132780521D01*
X139063482Y-132984156D01*
X139198278Y-133183463D01*
X139327124Y-133373628D01*
X139421065Y-133512004D01*
X139479271Y-133597655D01*
X141027083Y-133604608D01*
X142574896Y-133611562D01*
X142565521Y-133690935D01*
X142524003Y-133825733D01*
X142434682Y-133957612D01*
X142302647Y-134082149D01*
X142132992Y-134194916D01*
X141930807Y-134291490D01*
X141833007Y-134327658D01*
X141761588Y-134351522D01*
X141695013Y-134372163D01*
X141628979Y-134389830D01*
X141559187Y-134404769D01*
X141481333Y-134417228D01*
X141391118Y-134427452D01*
X141284240Y-134435689D01*
X141156397Y-134442186D01*
X141003289Y-134447190D01*
X140820614Y-134450947D01*
X140604071Y-134453704D01*
X140349359Y-134455709D01*
X140052176Y-134457209D01*
X139708221Y-134458449D01*
X139545417Y-134458962D01*
X139240257Y-134459738D01*
X138948833Y-134460151D01*
X138675758Y-134460217D01*
X138425647Y-134459949D01*
X138203114Y-134459362D01*
X138012775Y-134458470D01*
X137859243Y-134457287D01*
X137747133Y-134455827D01*
X137681060Y-134454105D01*
X137666875Y-134453168D01*
X137497379Y-134424173D01*
X137326555Y-134380678D01*
X137175830Y-134328611D01*
X137111254Y-134299481D01*
X137047158Y-134263541D01*
X136984259Y-134219747D01*
X136919469Y-134164219D01*
X136849700Y-134093081D01*
X136771863Y-134002453D01*
X136682869Y-133888458D01*
X136579630Y-133747218D01*
X136459059Y-133574855D01*
X136318066Y-133367490D01*
X136153563Y-133121246D01*
X136057715Y-132976562D01*
X135912248Y-132756655D01*
X135766729Y-132536924D01*
X135625707Y-132324222D01*
X135493731Y-132125400D01*
X135375351Y-131947311D01*
X135275117Y-131796806D01*
X135197577Y-131680738D01*
X135172906Y-131643957D01*
X135080651Y-131505885D01*
X135017035Y-131405252D01*
X134981290Y-131335501D01*
X134972650Y-131290073D01*
X134990350Y-131262414D01*
X135033623Y-131245965D01*
X135101703Y-131234170D01*
X135124638Y-131230876D01*
X135184180Y-131219708D01*
X135286283Y-131197667D01*
X135422182Y-131166767D01*
X135583116Y-131129024D01*
X135760320Y-131086454D01*
X135882515Y-131056549D01*
X136059095Y-131013273D01*
X136219097Y-130974566D01*
X136355213Y-130942155D01*
X136460134Y-130917765D01*
X136526552Y-130903126D01*
X136546761Y-130899583D01*
X136571932Y-130922287D01*
X136596650Y-130977736D01*
X136599004Y-130985572D01*
X136613610Y-131029939D01*
X136634347Y-131056149D01*
X136674005Y-131069743D01*
X136745370Y-131076262D01*
X136815465Y-131079355D01*
X137007349Y-131087148D01*
X137058886Y-130970642D01*
X137092352Y-130902207D01*
X137126771Y-130865355D01*
X137180661Y-130847158D01*
X137249742Y-130837401D01*
X137378541Y-130824434D01*
X137469795Y-130823670D01*
X137537942Y-130837406D01*
X137597418Y-130867941D01*
X137640417Y-130899583D01*
X137701665Y-130945735D01*
X137750469Y-130969854D01*
X137804223Y-130974527D01*
X137880321Y-130962340D01*
X137952577Y-130946007D01*
X138033518Y-130925054D01*
X138073838Y-130905179D01*
X138084907Y-130877590D01*
X138080898Y-130846788D01*
X138064768Y-130761722D01*
X138065110Y-130709373D01*
X138090634Y-130675809D01*
X138150046Y-130647097D01*
X138222500Y-130620211D01*
X138394479Y-130557161D01*
X138570106Y-130613562D01*
X138745734Y-130669963D01*
X138999082Y-130521491D01*
X138897088Y-130428020D01*
X138795095Y-130334550D01*
X139029479Y-130129688D01*
X139227950Y-130146390D01*
X139329303Y-130154109D01*
X139392356Y-130153797D01*
X139431540Y-130141887D01*
X139461283Y-130114811D01*
X139485919Y-130082617D01*
X139524776Y-130023854D01*
X139544718Y-129981568D01*
X139545417Y-129976739D01*
X139522490Y-129954859D01*
X139463663Y-129926104D01*
X139413436Y-129907499D01*
X139336701Y-129879290D01*
X139283431Y-129854624D01*
X139269455Y-129844244D01*
X139268024Y-129808699D01*
X139278799Y-129742801D01*
X139285291Y-129715159D01*
X139305801Y-129647839D01*
X139334063Y-129613229D01*
X139387586Y-129596771D01*
X139435886Y-129589962D01*
X139561029Y-129572370D01*
X139642591Y-129554362D01*
X139689728Y-129531172D01*
X139711597Y-129498032D01*
X139717353Y-129450174D01*
X139717396Y-129443384D01*
X139714477Y-129388872D01*
X139696771Y-129358834D01*
X139650852Y-129341727D01*
X139585104Y-129329650D01*
X139469318Y-129309714D01*
X139394892Y-129294326D01*
X139350910Y-129279831D01*
X139326454Y-129262573D01*
X139310608Y-129238899D01*
X139309857Y-129237502D01*
X139287489Y-129174905D01*
X139276021Y-129115639D01*
X139275922Y-129071223D01*
X139295604Y-129040419D01*
X139346384Y-129012147D01*
X139406510Y-128987927D01*
X139482170Y-128953991D01*
X139532222Y-128922175D01*
X139544465Y-128905050D01*
X139528267Y-128866530D01*
X139489641Y-128809905D01*
X139481243Y-128799377D01*
X139447469Y-128760921D01*
X139415025Y-128739531D01*
X139369315Y-128731996D01*
X139295745Y-128735104D01*
X139219944Y-128741885D01*
X139020916Y-128760535D01*
X138802072Y-128562823D01*
X138897786Y-128464804D01*
X138993499Y-128366784D01*
X138867482Y-128292933D01*
X138794229Y-128254603D01*
X138730635Y-128237332D01*
X138661775Y-128241679D01*
X138572725Y-128268199D01*
X138472227Y-128307680D01*
X138422724Y-128323294D01*
X138373358Y-128323287D01*
X138307542Y-128305298D01*
X138220873Y-128271921D01*
X138126427Y-128229949D01*
X138074939Y-128196314D01*
X138058369Y-128165238D01*
X138059004Y-128155555D01*
X138070825Y-128092616D01*
X138081342Y-128038935D01*
X138085757Y-128001514D01*
X138073316Y-127977638D01*
X138033358Y-127960501D01*
X137955225Y-127943295D01*
X137921511Y-127936869D01*
X137747825Y-127904097D01*
X137644011Y-127986319D01*
X137581006Y-128030831D01*
X137520285Y-128056668D01*
X137447307Y-128066221D01*
X137347525Y-128061878D01*
X137248910Y-128051249D01*
X137165364Y-128038242D01*
X137117213Y-128017738D01*
X137087036Y-127978944D01*
X137069290Y-127939958D01*
X137034565Y-127869117D01*
X136994425Y-127828428D01*
X136933816Y-127809718D01*
X136837681Y-127804818D01*
X136820208Y-127804768D01*
X136716307Y-127808607D01*
X136652475Y-127824237D01*
X136616164Y-127857827D01*
X136594824Y-127915546D01*
X136594814Y-127915586D01*
X136573923Y-127973592D01*
X136538936Y-128012014D01*
X136478953Y-128036330D01*
X136383077Y-128052018D01*
X136309350Y-128059102D01*
X136206405Y-128066779D01*
X136139788Y-128065973D01*
X136093133Y-128053022D01*
X136050071Y-128024269D01*
X136013494Y-127992948D01*
X135951209Y-127943043D01*
X135897028Y-127918134D01*
X135833833Y-127915670D01*
X135744508Y-127933096D01*
X135695729Y-127945563D01*
X135614422Y-127971729D01*
X135574194Y-128004817D01*
X135567642Y-128058916D01*
X135587367Y-128148115D01*
X135588037Y-128150568D01*
X135595136Y-128193336D01*
X135578939Y-128219678D01*
X135528175Y-128240898D01*
X135485604Y-128253318D01*
X135342220Y-128274455D01*
X135172845Y-128268352D01*
X135067767Y-128259519D01*
X134975453Y-128254461D01*
X134915683Y-128254257D01*
X134915208Y-128254291D01*
X134871255Y-128255689D01*
X134780038Y-128257094D01*
X134645703Y-128258496D01*
X134472398Y-128259885D01*
X134264269Y-128261251D01*
X134025462Y-128262584D01*
X133760124Y-128263874D01*
X133472402Y-128265111D01*
X133166442Y-128266285D01*
X132846392Y-128267387D01*
X132516397Y-128268405D01*
X132180604Y-128269331D01*
X131843160Y-128270153D01*
X131508212Y-128270862D01*
X131179906Y-128271449D01*
X130862388Y-128271902D01*
X130559806Y-128272213D01*
X130276306Y-128272371D01*
X130016035Y-128272365D01*
X129783139Y-128272187D01*
X129581765Y-128271826D01*
X129416059Y-128271271D01*
X129290169Y-128270514D01*
X129208240Y-128269544D01*
X129174420Y-128268351D01*
X129173750Y-128268139D01*
X129189487Y-128244092D01*
X129234726Y-128182134D01*
X129306507Y-128086148D01*
X129401870Y-127960012D01*
X129517854Y-127807609D01*
X129651501Y-127632817D01*
X129799850Y-127439519D01*
X129959941Y-127231593D01*
X130128815Y-127012921D01*
X130284597Y-126811770D01*
X130407663Y-126653076D01*
X130544378Y-126476778D01*
X130623142Y-126375208D01*
X131078750Y-126375208D01*
X131078750Y-128068541D01*
X131422708Y-128068541D01*
X131422708Y-127734292D01*
X134407827Y-127734292D01*
X134423791Y-127814112D01*
X134445130Y-127877538D01*
X134472429Y-127914685D01*
X134511990Y-127923825D01*
X134590763Y-127931006D01*
X134695049Y-127935195D01*
X134752856Y-127935844D01*
X134880926Y-127933812D01*
X134971255Y-127925608D01*
X135038887Y-127908816D01*
X135098863Y-127881022D01*
X135100704Y-127879992D01*
X135170896Y-127829648D01*
X135222006Y-127773809D01*
X135229983Y-127759685D01*
X135240302Y-127708733D01*
X135248479Y-127607370D01*
X135254414Y-127458064D01*
X135258009Y-127263279D01*
X135259167Y-127035421D01*
X135259167Y-127017415D01*
X135499208Y-127017415D01*
X135507408Y-127166517D01*
X135523304Y-127247686D01*
X135582094Y-127373068D01*
X135678039Y-127478006D01*
X135797148Y-127548401D01*
X135833430Y-127560185D01*
X135959918Y-127581250D01*
X136111910Y-127588564D01*
X136263780Y-127582010D01*
X136385159Y-127562692D01*
X136469932Y-127531850D01*
X136502619Y-127495004D01*
X136503069Y-127489931D01*
X136510141Y-127429410D01*
X136519411Y-127387139D01*
X136535390Y-127327509D01*
X136419831Y-127379944D01*
X136312150Y-127414380D01*
X136192211Y-127430840D01*
X136080184Y-127428134D01*
X135996242Y-127405071D01*
X135996011Y-127404948D01*
X135949360Y-127359473D01*
X135901641Y-127282128D01*
X135862789Y-127192804D01*
X135842737Y-127111393D01*
X135841831Y-127096197D01*
X135843244Y-127072624D01*
X135853470Y-127056275D01*
X135880680Y-127045829D01*
X135933043Y-127039963D01*
X136018731Y-127037356D01*
X136145913Y-127036687D01*
X136209884Y-127036666D01*
X136367475Y-127036088D01*
X136478976Y-127031291D01*
X136551209Y-127017682D01*
X136590998Y-126990668D01*
X136597071Y-126971377D01*
X136807118Y-126971377D01*
X136818480Y-127163580D01*
X136855087Y-127312788D01*
X136920346Y-127424206D01*
X137017661Y-127503039D01*
X137150438Y-127554491D01*
X137195500Y-127564919D01*
X137301601Y-127576278D01*
X137437922Y-127576455D01*
X137583108Y-127566119D01*
X137699948Y-127549109D01*
X137750148Y-127531506D01*
X137769976Y-127493029D01*
X137772708Y-127444668D01*
X137771009Y-127384378D01*
X137766845Y-127355104D01*
X137766094Y-127354565D01*
X137739567Y-127362902D01*
X137680825Y-127383365D01*
X137653646Y-127393091D01*
X137514073Y-127427156D01*
X137386792Y-127427741D01*
X137284705Y-127395274D01*
X137262104Y-127380093D01*
X137208147Y-127310543D01*
X137170720Y-127207803D01*
X137149506Y-127083658D01*
X137144188Y-126949895D01*
X137154450Y-126818297D01*
X137179974Y-126700649D01*
X137220444Y-126608737D01*
X137275543Y-126554346D01*
X137284414Y-126550393D01*
X137349825Y-126538264D01*
X137446429Y-126534449D01*
X137553232Y-126538524D01*
X137649238Y-126550061D01*
X137686893Y-126558569D01*
X137745442Y-126571370D01*
X137769153Y-126561068D01*
X137772708Y-126537168D01*
X137763964Y-126477452D01*
X137738018Y-126442875D01*
X137957917Y-126442875D01*
X137961802Y-126483254D01*
X137982088Y-126504977D01*
X138031723Y-126514790D01*
X138103437Y-126518680D01*
X138182812Y-126521730D01*
X138196042Y-126960450D01*
X138202082Y-127133850D01*
X138209633Y-127262524D01*
X138220795Y-127354656D01*
X138237667Y-127418434D01*
X138262349Y-127462044D01*
X138296941Y-127493673D01*
X138339386Y-127519259D01*
X138428616Y-127552845D01*
X138547581Y-127577901D01*
X138665677Y-127589248D01*
X138723299Y-127586949D01*
X138746962Y-127564007D01*
X138751660Y-127504804D01*
X138751667Y-127499687D01*
X138746624Y-127436962D01*
X138724350Y-127411304D01*
X138687411Y-127407083D01*
X138606549Y-127382813D01*
X138546117Y-127317855D01*
X138525792Y-127266326D01*
X138520955Y-127218757D01*
X138518045Y-127130434D01*
X138517264Y-127013491D01*
X138518812Y-126880065D01*
X138519138Y-126864687D01*
X138526771Y-126520729D01*
X138639219Y-126524111D01*
X138709763Y-126523619D01*
X138742216Y-126510112D01*
X138751289Y-126474073D01*
X138751667Y-126451351D01*
X138747922Y-126404507D01*
X138727133Y-126382318D01*
X138674963Y-126375616D01*
X138632604Y-126375208D01*
X138513542Y-126375208D01*
X138513542Y-125869974D01*
X138351725Y-125877852D01*
X138189909Y-125885729D01*
X138186361Y-126123854D01*
X138182812Y-126361979D01*
X138070364Y-126370115D01*
X137999130Y-126378945D01*
X137966455Y-126397839D01*
X137957988Y-126436081D01*
X137957917Y-126442875D01*
X137738018Y-126442875D01*
X137732555Y-126435595D01*
X137670718Y-126407907D01*
X137570689Y-126390700D01*
X137444660Y-126381285D01*
X137319489Y-126376205D01*
X137231134Y-126377838D01*
X137163710Y-126388132D01*
X137101332Y-126409034D01*
X137056792Y-126428846D01*
X136953779Y-126492298D01*
X136881057Y-126576165D01*
X136834936Y-126688470D01*
X136811721Y-126837235D01*
X136807118Y-126971377D01*
X136597071Y-126971377D01*
X136605168Y-126945657D01*
X136600542Y-126878055D01*
X136584213Y-126784720D01*
X136540714Y-126625887D01*
X136473618Y-126510070D01*
X136377171Y-126432719D01*
X136245618Y-126389286D01*
X136073207Y-126375224D01*
X136066146Y-126375208D01*
X135895785Y-126388204D01*
X135763593Y-126429973D01*
X135660890Y-126504684D01*
X135584801Y-126606410D01*
X135539753Y-126718091D01*
X135510606Y-126861516D01*
X135499208Y-127017415D01*
X135259167Y-127017415D01*
X135259167Y-126375208D01*
X134916102Y-126375208D01*
X134909040Y-127055532D01*
X134901979Y-127735856D01*
X134813314Y-127761273D01*
X134705875Y-127773358D01*
X134566238Y-127760490D01*
X134407827Y-127734292D01*
X131422708Y-127734292D01*
X131422708Y-127535170D01*
X131508698Y-127557116D01*
X131613432Y-127573270D01*
X131736724Y-127576999D01*
X131858271Y-127569111D01*
X131957771Y-127550414D01*
X131991562Y-127537921D01*
X132075985Y-127469735D01*
X132141113Y-127362733D01*
X132186302Y-127227615D01*
X132210906Y-127075087D01*
X132214281Y-126915851D01*
X132195783Y-126760610D01*
X132154767Y-126620069D01*
X132090587Y-126504930D01*
X132056114Y-126466285D01*
X132004352Y-126423616D01*
X131948668Y-126398670D01*
X131870761Y-126385360D01*
X131796258Y-126379879D01*
X131668606Y-126378981D01*
X131577001Y-126394524D01*
X131533876Y-126412137D01*
X131466909Y-126444551D01*
X131434035Y-126451014D01*
X131423399Y-126431818D01*
X131422708Y-126414895D01*
X131411227Y-126392634D01*
X131370201Y-126380261D01*
X131289760Y-126375498D01*
X131250729Y-126375208D01*
X132454583Y-126375208D01*
X132454583Y-127565833D01*
X132798542Y-127565833D01*
X132798542Y-127159297D01*
X132799043Y-127016071D01*
X133481789Y-127016071D01*
X133500882Y-127198679D01*
X133556395Y-127350296D01*
X133645676Y-127466782D01*
X133766075Y-127543994D01*
X133833666Y-127565778D01*
X133961049Y-127584130D01*
X134102829Y-127586552D01*
X134235314Y-127573626D01*
X134315033Y-127553958D01*
X134440971Y-127490904D01*
X134532225Y-127400960D01*
X134591842Y-127278564D01*
X134622871Y-127118155D01*
X134629212Y-126980768D01*
X134616064Y-126782292D01*
X134573493Y-126626621D01*
X134498903Y-126510951D01*
X134389698Y-126432474D01*
X134243282Y-126388386D01*
X134069550Y-126375789D01*
X133881092Y-126391444D01*
X133732132Y-126438986D01*
X133620200Y-126521107D01*
X133542822Y-126640501D01*
X133497526Y-126799859D01*
X133481843Y-127001875D01*
X133481789Y-127016071D01*
X132799043Y-127016071D01*
X132799092Y-127002211D01*
X132801458Y-126888787D01*
X132806712Y-126809777D01*
X132815925Y-126755932D01*
X132830169Y-126718002D01*
X132850517Y-126686738D01*
X132853794Y-126682518D01*
X132958886Y-126589439D01*
X133091542Y-126541091D01*
X133176291Y-126533958D01*
X133247828Y-126532021D01*
X133279505Y-126519304D01*
X133284375Y-126485446D01*
X133280005Y-126451651D01*
X133267925Y-126369344D01*
X133112534Y-126380584D01*
X132973351Y-126404175D01*
X132877842Y-126450454D01*
X132798542Y-126509084D01*
X132798542Y-126442146D01*
X132795621Y-126406168D01*
X132778887Y-126386129D01*
X132736379Y-126377375D01*
X132656137Y-126375249D01*
X132626562Y-126375208D01*
X132454583Y-126375208D01*
X131250729Y-126375208D01*
X131078750Y-126375208D01*
X130623142Y-126375208D01*
X130681719Y-126299671D01*
X130806664Y-126138546D01*
X130860780Y-126068757D01*
X134915208Y-126068757D01*
X134936617Y-126160498D01*
X134992058Y-126223617D01*
X135068357Y-126253398D01*
X135152337Y-126245124D01*
X135230823Y-126194081D01*
X135239323Y-126184769D01*
X135281560Y-126100767D01*
X135276632Y-126012553D01*
X135225964Y-125935798D01*
X135215911Y-125927337D01*
X135154226Y-125889084D01*
X135101636Y-125872518D01*
X135100417Y-125872500D01*
X135023930Y-125896018D01*
X134958347Y-125955301D01*
X134919625Y-126033438D01*
X134915208Y-126068757D01*
X130860780Y-126068757D01*
X130864220Y-126064322D01*
X131136067Y-125713750D01*
X135056315Y-125713857D01*
X135056315Y-125713857D01*
G37*
X135056315Y-125713857D02*
X135615255Y-125714065D01*
X136143115Y-125714649D01*
X136638023Y-125715597D01*
X137098105Y-125716898D01*
X137521487Y-125718539D01*
X137906296Y-125720509D01*
X138250657Y-125722796D01*
X138552698Y-125725387D01*
X138810545Y-125728272D01*
X139022323Y-125731437D01*
X139186161Y-125734871D01*
X139300183Y-125738563D01*
X139346979Y-125741116D01*
X139837662Y-125792074D01*
X140283532Y-125870044D01*
X140685594Y-125975570D01*
X141044856Y-126109193D01*
X141362324Y-126271459D01*
X141639007Y-126462909D01*
X141875910Y-126684087D01*
X142074040Y-126935535D01*
X142234405Y-127217797D01*
X142281848Y-127324091D01*
X142344018Y-127484205D01*
X142391322Y-127635882D01*
X142425559Y-127790402D01*
X142448529Y-127959042D01*
X142462031Y-128153081D01*
X142467865Y-128383797D01*
X142468460Y-128493773D01*
X142469062Y-129038067D01*
X142352451Y-129274294D01*
X142294362Y-129385161D01*
X142235712Y-129478634D01*
X142166067Y-129568462D01*
X142074996Y-129668397D01*
X141982034Y-129762547D01*
X141860991Y-129876102D01*
X141725118Y-129993001D01*
X141592006Y-130098625D01*
X141490511Y-130171039D01*
X141139333Y-130383299D01*
X140738974Y-130590055D01*
X140288790Y-130791565D01*
X139788139Y-130988090D01*
X139236377Y-131179888D01*
X138632861Y-131367220D01*
X138268424Y-131471277D01*
X138181916Y-131499127D01*
X138121807Y-131525961D01*
X138100104Y-131546324D01*
X138100419Y-131547590D01*
X138116676Y-131573487D01*
X138159355Y-131638393D01*
X138225217Y-131737493D01*
X138311026Y-131865972D01*
X138413545Y-132019015D01*
X138529536Y-132191807D01*
X138655762Y-132379532D01*
X138788987Y-132577375D01*
X138925972Y-132780521D01*
X139063482Y-132984156D01*
X139198278Y-133183463D01*
X139327124Y-133373628D01*
X139421065Y-133512004D01*
X139479271Y-133597655D01*
X141027083Y-133604608D01*
X142574896Y-133611562D01*
X142565521Y-133690935D01*
X142524003Y-133825733D01*
X142434682Y-133957612D01*
X142302647Y-134082149D01*
X142132992Y-134194916D01*
X141930807Y-134291490D01*
X141833007Y-134327658D01*
X141761588Y-134351522D01*
X141695013Y-134372163D01*
X141628979Y-134389830D01*
X141559187Y-134404769D01*
X141481333Y-134417228D01*
X141391118Y-134427452D01*
X141284240Y-134435689D01*
X141156397Y-134442186D01*
X141003289Y-134447190D01*
X140820614Y-134450947D01*
X140604071Y-134453704D01*
X140349359Y-134455709D01*
X140052176Y-134457209D01*
X139708221Y-134458449D01*
X139545417Y-134458962D01*
X139240257Y-134459738D01*
X138948833Y-134460151D01*
X138675758Y-134460217D01*
X138425647Y-134459949D01*
X138203114Y-134459362D01*
X138012775Y-134458470D01*
X137859243Y-134457287D01*
X137747133Y-134455827D01*
X137681060Y-134454105D01*
X137666875Y-134453168D01*
X137497379Y-134424173D01*
X137326555Y-134380678D01*
X137175830Y-134328611D01*
X137111254Y-134299481D01*
X137047158Y-134263541D01*
X136984259Y-134219747D01*
X136919469Y-134164219D01*
X136849700Y-134093081D01*
X136771863Y-134002453D01*
X136682869Y-133888458D01*
X136579630Y-133747218D01*
X136459059Y-133574855D01*
X136318066Y-133367490D01*
X136153563Y-133121246D01*
X136057715Y-132976562D01*
X135912248Y-132756655D01*
X135766729Y-132536924D01*
X135625707Y-132324222D01*
X135493731Y-132125400D01*
X135375351Y-131947311D01*
X135275117Y-131796806D01*
X135197577Y-131680738D01*
X135172906Y-131643957D01*
X135080651Y-131505885D01*
X135017035Y-131405252D01*
X134981290Y-131335501D01*
X134972650Y-131290073D01*
X134990350Y-131262414D01*
X135033623Y-131245965D01*
X135101703Y-131234170D01*
X135124638Y-131230876D01*
X135184180Y-131219708D01*
X135286283Y-131197667D01*
X135422182Y-131166767D01*
X135583116Y-131129024D01*
X135760320Y-131086454D01*
X135882515Y-131056549D01*
X136059095Y-131013273D01*
X136219097Y-130974566D01*
X136355213Y-130942155D01*
X136460134Y-130917765D01*
X136526552Y-130903126D01*
X136546761Y-130899583D01*
X136571932Y-130922287D01*
X136596650Y-130977736D01*
X136599004Y-130985572D01*
X136613610Y-131029939D01*
X136634347Y-131056149D01*
X136674005Y-131069743D01*
X136745370Y-131076262D01*
X136815465Y-131079355D01*
X137007349Y-131087148D01*
X137058886Y-130970642D01*
X137092352Y-130902207D01*
X137126771Y-130865355D01*
X137180661Y-130847158D01*
X137249742Y-130837401D01*
X137378541Y-130824434D01*
X137469795Y-130823670D01*
X137537942Y-130837406D01*
X137597418Y-130867941D01*
X137640417Y-130899583D01*
X137701665Y-130945735D01*
X137750469Y-130969854D01*
X137804223Y-130974527D01*
X137880321Y-130962340D01*
X137952577Y-130946007D01*
X138033518Y-130925054D01*
X138073838Y-130905179D01*
X138084907Y-130877590D01*
X138080898Y-130846788D01*
X138064768Y-130761722D01*
X138065110Y-130709373D01*
X138090634Y-130675809D01*
X138150046Y-130647097D01*
X138222500Y-130620211D01*
X138394479Y-130557161D01*
X138570106Y-130613562D01*
X138745734Y-130669963D01*
X138999082Y-130521491D01*
X138897088Y-130428020D01*
X138795095Y-130334550D01*
X139029479Y-130129688D01*
X139227950Y-130146390D01*
X139329303Y-130154109D01*
X139392356Y-130153797D01*
X139431540Y-130141887D01*
X139461283Y-130114811D01*
X139485919Y-130082617D01*
X139524776Y-130023854D01*
X139544718Y-129981568D01*
X139545417Y-129976739D01*
X139522490Y-129954859D01*
X139463663Y-129926104D01*
X139413436Y-129907499D01*
X139336701Y-129879290D01*
X139283431Y-129854624D01*
X139269455Y-129844244D01*
X139268024Y-129808699D01*
X139278799Y-129742801D01*
X139285291Y-129715159D01*
X139305801Y-129647839D01*
X139334063Y-129613229D01*
X139387586Y-129596771D01*
X139435886Y-129589962D01*
X139561029Y-129572370D01*
X139642591Y-129554362D01*
X139689728Y-129531172D01*
X139711597Y-129498032D01*
X139717353Y-129450174D01*
X139717396Y-129443384D01*
X139714477Y-129388872D01*
X139696771Y-129358834D01*
X139650852Y-129341727D01*
X139585104Y-129329650D01*
X139469318Y-129309714D01*
X139394892Y-129294326D01*
X139350910Y-129279831D01*
X139326454Y-129262573D01*
X139310608Y-129238899D01*
X139309857Y-129237502D01*
X139287489Y-129174905D01*
X139276021Y-129115639D01*
X139275922Y-129071223D01*
X139295604Y-129040419D01*
X139346384Y-129012147D01*
X139406510Y-128987927D01*
X139482170Y-128953991D01*
X139532222Y-128922175D01*
X139544465Y-128905050D01*
X139528267Y-128866530D01*
X139489641Y-128809905D01*
X139481243Y-128799377D01*
X139447469Y-128760921D01*
X139415025Y-128739531D01*
X139369315Y-128731996D01*
X139295745Y-128735104D01*
X139219944Y-128741885D01*
X139020916Y-128760535D01*
X138802072Y-128562823D01*
X138897786Y-128464804D01*
X138993499Y-128366784D01*
X138867482Y-128292933D01*
X138794229Y-128254603D01*
X138730635Y-128237332D01*
X138661775Y-128241679D01*
X138572725Y-128268199D01*
X138472227Y-128307680D01*
X138422724Y-128323294D01*
X138373358Y-128323287D01*
X138307542Y-128305298D01*
X138220873Y-128271921D01*
X138126427Y-128229949D01*
X138074939Y-128196314D01*
X138058369Y-128165238D01*
X138059004Y-128155555D01*
X138070825Y-128092616D01*
X138081342Y-128038935D01*
X138085757Y-128001514D01*
X138073316Y-127977638D01*
X138033358Y-127960501D01*
X137955225Y-127943295D01*
X137921511Y-127936869D01*
X137747825Y-127904097D01*
X137644011Y-127986319D01*
X137581006Y-128030831D01*
X137520285Y-128056668D01*
X137447307Y-128066221D01*
X137347525Y-128061878D01*
X137248910Y-128051249D01*
X137165364Y-128038242D01*
X137117213Y-128017738D01*
X137087036Y-127978944D01*
X137069290Y-127939958D01*
X137034565Y-127869117D01*
X136994425Y-127828428D01*
X136933816Y-127809718D01*
X136837681Y-127804818D01*
X136820208Y-127804768D01*
X136716307Y-127808607D01*
X136652475Y-127824237D01*
X136616164Y-127857827D01*
X136594824Y-127915546D01*
X136594814Y-127915586D01*
X136573923Y-127973592D01*
X136538936Y-128012014D01*
X136478953Y-128036330D01*
X136383077Y-128052018D01*
X136309350Y-128059102D01*
X136206405Y-128066779D01*
X136139788Y-128065973D01*
X136093133Y-128053022D01*
X136050071Y-128024269D01*
X136013494Y-127992948D01*
X135951209Y-127943043D01*
X135897028Y-127918134D01*
X135833833Y-127915670D01*
X135744508Y-127933096D01*
X135695729Y-127945563D01*
X135614422Y-127971729D01*
X135574194Y-128004817D01*
X135567642Y-128058916D01*
X135587367Y-128148115D01*
X135588037Y-128150568D01*
X135595136Y-128193336D01*
X135578939Y-128219678D01*
X135528175Y-128240898D01*
X135485604Y-128253318D01*
X135342220Y-128274455D01*
X135172845Y-128268352D01*
X135067767Y-128259519D01*
X134975453Y-128254461D01*
X134915683Y-128254257D01*
X134915208Y-128254291D01*
X134871255Y-128255689D01*
X134780038Y-128257094D01*
X134645703Y-128258496D01*
X134472398Y-128259885D01*
X134264269Y-128261251D01*
X134025462Y-128262584D01*
X133760124Y-128263874D01*
X133472402Y-128265111D01*
X133166442Y-128266285D01*
X132846392Y-128267387D01*
X132516397Y-128268405D01*
X132180604Y-128269331D01*
X131843160Y-128270153D01*
X131508212Y-128270862D01*
X131179906Y-128271449D01*
X130862388Y-128271902D01*
X130559806Y-128272213D01*
X130276306Y-128272371D01*
X130016035Y-128272365D01*
X129783139Y-128272187D01*
X129581765Y-128271826D01*
X129416059Y-128271271D01*
X129290169Y-128270514D01*
X129208240Y-128269544D01*
X129174420Y-128268351D01*
X129173750Y-128268139D01*
X129189487Y-128244092D01*
X129234726Y-128182134D01*
X129306507Y-128086148D01*
X129401870Y-127960012D01*
X129517854Y-127807609D01*
X129651501Y-127632817D01*
X129799850Y-127439519D01*
X129959941Y-127231593D01*
X130128815Y-127012921D01*
X130284597Y-126811770D01*
X130407663Y-126653076D01*
X130544378Y-126476778D01*
X130623142Y-126375208D01*
X131078750Y-126375208D01*
X131078750Y-128068541D01*
X131422708Y-128068541D01*
X131422708Y-127734292D01*
X134407827Y-127734292D01*
X134423791Y-127814112D01*
X134445130Y-127877538D01*
X134472429Y-127914685D01*
X134511990Y-127923825D01*
X134590763Y-127931006D01*
X134695049Y-127935195D01*
X134752856Y-127935844D01*
X134880926Y-127933812D01*
X134971255Y-127925608D01*
X135038887Y-127908816D01*
X135098863Y-127881022D01*
X135100704Y-127879992D01*
X135170896Y-127829648D01*
X135222006Y-127773809D01*
X135229983Y-127759685D01*
X135240302Y-127708733D01*
X135248479Y-127607370D01*
X135254414Y-127458064D01*
X135258009Y-127263279D01*
X135259167Y-127035421D01*
X135259167Y-127017415D01*
X135499208Y-127017415D01*
X135507408Y-127166517D01*
X135523304Y-127247686D01*
X135582094Y-127373068D01*
X135678039Y-127478006D01*
X135797148Y-127548401D01*
X135833430Y-127560185D01*
X135959918Y-127581250D01*
X136111910Y-127588564D01*
X136263780Y-127582010D01*
X136385159Y-127562692D01*
X136469932Y-127531850D01*
X136502619Y-127495004D01*
X136503069Y-127489931D01*
X136510141Y-127429410D01*
X136519411Y-127387139D01*
X136535390Y-127327509D01*
X136419831Y-127379944D01*
X136312150Y-127414380D01*
X136192211Y-127430840D01*
X136080184Y-127428134D01*
X135996242Y-127405071D01*
X135996011Y-127404948D01*
X135949360Y-127359473D01*
X135901641Y-127282128D01*
X135862789Y-127192804D01*
X135842737Y-127111393D01*
X135841831Y-127096197D01*
X135843244Y-127072624D01*
X135853470Y-127056275D01*
X135880680Y-127045829D01*
X135933043Y-127039963D01*
X136018731Y-127037356D01*
X136145913Y-127036687D01*
X136209884Y-127036666D01*
X136367475Y-127036088D01*
X136478976Y-127031291D01*
X136551209Y-127017682D01*
X136590998Y-126990668D01*
X136597071Y-126971377D01*
X136807118Y-126971377D01*
X136818480Y-127163580D01*
X136855087Y-127312788D01*
X136920346Y-127424206D01*
X137017661Y-127503039D01*
X137150438Y-127554491D01*
X137195500Y-127564919D01*
X137301601Y-127576278D01*
X137437922Y-127576455D01*
X137583108Y-127566119D01*
X137699948Y-127549109D01*
X137750148Y-127531506D01*
X137769976Y-127493029D01*
X137772708Y-127444668D01*
X137771009Y-127384378D01*
X137766845Y-127355104D01*
X137766094Y-127354565D01*
X137739567Y-127362902D01*
X137680825Y-127383365D01*
X137653646Y-127393091D01*
X137514073Y-127427156D01*
X137386792Y-127427741D01*
X137284705Y-127395274D01*
X137262104Y-127380093D01*
X137208147Y-127310543D01*
X137170720Y-127207803D01*
X137149506Y-127083658D01*
X137144188Y-126949895D01*
X137154450Y-126818297D01*
X137179974Y-126700649D01*
X137220444Y-126608737D01*
X137275543Y-126554346D01*
X137284414Y-126550393D01*
X137349825Y-126538264D01*
X137446429Y-126534449D01*
X137553232Y-126538524D01*
X137649238Y-126550061D01*
X137686893Y-126558569D01*
X137745442Y-126571370D01*
X137769153Y-126561068D01*
X137772708Y-126537168D01*
X137763964Y-126477452D01*
X137738018Y-126442875D01*
X137957917Y-126442875D01*
X137961802Y-126483254D01*
X137982088Y-126504977D01*
X138031723Y-126514790D01*
X138103437Y-126518680D01*
X138182812Y-126521730D01*
X138196042Y-126960450D01*
X138202082Y-127133850D01*
X138209633Y-127262524D01*
X138220795Y-127354656D01*
X138237667Y-127418434D01*
X138262349Y-127462044D01*
X138296941Y-127493673D01*
X138339386Y-127519259D01*
X138428616Y-127552845D01*
X138547581Y-127577901D01*
X138665677Y-127589248D01*
X138723299Y-127586949D01*
X138746962Y-127564007D01*
X138751660Y-127504804D01*
X138751667Y-127499687D01*
X138746624Y-127436962D01*
X138724350Y-127411304D01*
X138687411Y-127407083D01*
X138606549Y-127382813D01*
X138546117Y-127317855D01*
X138525792Y-127266326D01*
X138520955Y-127218757D01*
X138518045Y-127130434D01*
X138517264Y-127013491D01*
X138518812Y-126880065D01*
X138519138Y-126864687D01*
X138526771Y-126520729D01*
X138639219Y-126524111D01*
X138709763Y-126523619D01*
X138742216Y-126510112D01*
X138751289Y-126474073D01*
X138751667Y-126451351D01*
X138747922Y-126404507D01*
X138727133Y-126382318D01*
X138674963Y-126375616D01*
X138632604Y-126375208D01*
X138513542Y-126375208D01*
X138513542Y-125869974D01*
X138351725Y-125877852D01*
X138189909Y-125885729D01*
X138186361Y-126123854D01*
X138182812Y-126361979D01*
X138070364Y-126370115D01*
X137999130Y-126378945D01*
X137966455Y-126397839D01*
X137957988Y-126436081D01*
X137957917Y-126442875D01*
X137738018Y-126442875D01*
X137732555Y-126435595D01*
X137670718Y-126407907D01*
X137570689Y-126390700D01*
X137444660Y-126381285D01*
X137319489Y-126376205D01*
X137231134Y-126377838D01*
X137163710Y-126388132D01*
X137101332Y-126409034D01*
X137056792Y-126428846D01*
X136953779Y-126492298D01*
X136881057Y-126576165D01*
X136834936Y-126688470D01*
X136811721Y-126837235D01*
X136807118Y-126971377D01*
X136597071Y-126971377D01*
X136605168Y-126945657D01*
X136600542Y-126878055D01*
X136584213Y-126784720D01*
X136540714Y-126625887D01*
X136473618Y-126510070D01*
X136377171Y-126432719D01*
X136245618Y-126389286D01*
X136073207Y-126375224D01*
X136066146Y-126375208D01*
X135895785Y-126388204D01*
X135763593Y-126429973D01*
X135660890Y-126504684D01*
X135584801Y-126606410D01*
X135539753Y-126718091D01*
X135510606Y-126861516D01*
X135499208Y-127017415D01*
X135259167Y-127017415D01*
X135259167Y-126375208D01*
X134916102Y-126375208D01*
X134909040Y-127055532D01*
X134901979Y-127735856D01*
X134813314Y-127761273D01*
X134705875Y-127773358D01*
X134566238Y-127760490D01*
X134407827Y-127734292D01*
X131422708Y-127734292D01*
X131422708Y-127535170D01*
X131508698Y-127557116D01*
X131613432Y-127573270D01*
X131736724Y-127576999D01*
X131858271Y-127569111D01*
X131957771Y-127550414D01*
X131991562Y-127537921D01*
X132075985Y-127469735D01*
X132141113Y-127362733D01*
X132186302Y-127227615D01*
X132210906Y-127075087D01*
X132214281Y-126915851D01*
X132195783Y-126760610D01*
X132154767Y-126620069D01*
X132090587Y-126504930D01*
X132056114Y-126466285D01*
X132004352Y-126423616D01*
X131948668Y-126398670D01*
X131870761Y-126385360D01*
X131796258Y-126379879D01*
X131668606Y-126378981D01*
X131577001Y-126394524D01*
X131533876Y-126412137D01*
X131466909Y-126444551D01*
X131434035Y-126451014D01*
X131423399Y-126431818D01*
X131422708Y-126414895D01*
X131411227Y-126392634D01*
X131370201Y-126380261D01*
X131289760Y-126375498D01*
X131250729Y-126375208D01*
X132454583Y-126375208D01*
X132454583Y-127565833D01*
X132798542Y-127565833D01*
X132798542Y-127159297D01*
X132799043Y-127016071D01*
X133481789Y-127016071D01*
X133500882Y-127198679D01*
X133556395Y-127350296D01*
X133645676Y-127466782D01*
X133766075Y-127543994D01*
X133833666Y-127565778D01*
X133961049Y-127584130D01*
X134102829Y-127586552D01*
X134235314Y-127573626D01*
X134315033Y-127553958D01*
X134440971Y-127490904D01*
X134532225Y-127400960D01*
X134591842Y-127278564D01*
X134622871Y-127118155D01*
X134629212Y-126980768D01*
X134616064Y-126782292D01*
X134573493Y-126626621D01*
X134498903Y-126510951D01*
X134389698Y-126432474D01*
X134243282Y-126388386D01*
X134069550Y-126375789D01*
X133881092Y-126391444D01*
X133732132Y-126438986D01*
X133620200Y-126521107D01*
X133542822Y-126640501D01*
X133497526Y-126799859D01*
X133481843Y-127001875D01*
X133481789Y-127016071D01*
X132799043Y-127016071D01*
X132799092Y-127002211D01*
X132801458Y-126888787D01*
X132806712Y-126809777D01*
X132815925Y-126755932D01*
X132830169Y-126718002D01*
X132850517Y-126686738D01*
X132853794Y-126682518D01*
X132958886Y-126589439D01*
X133091542Y-126541091D01*
X133176291Y-126533958D01*
X133247828Y-126532021D01*
X133279505Y-126519304D01*
X133284375Y-126485446D01*
X133280005Y-126451651D01*
X133267925Y-126369344D01*
X133112534Y-126380584D01*
X132973351Y-126404175D01*
X132877842Y-126450454D01*
X132798542Y-126509084D01*
X132798542Y-126442146D01*
X132795621Y-126406168D01*
X132778887Y-126386129D01*
X132736379Y-126377375D01*
X132656137Y-126375249D01*
X132626562Y-126375208D01*
X132454583Y-126375208D01*
X131250729Y-126375208D01*
X131078750Y-126375208D01*
X130623142Y-126375208D01*
X130681719Y-126299671D01*
X130806664Y-126138546D01*
X130860780Y-126068757D01*
X134915208Y-126068757D01*
X134936617Y-126160498D01*
X134992058Y-126223617D01*
X135068357Y-126253398D01*
X135152337Y-126245124D01*
X135230823Y-126194081D01*
X135239323Y-126184769D01*
X135281560Y-126100767D01*
X135276632Y-126012553D01*
X135225964Y-125935798D01*
X135215911Y-125927337D01*
X135154226Y-125889084D01*
X135101636Y-125872518D01*
X135100417Y-125872500D01*
X135023930Y-125896018D01*
X134958347Y-125955301D01*
X134919625Y-126033438D01*
X134915208Y-126068757D01*
X130860780Y-126068757D01*
X130864220Y-126064322D01*
X131136067Y-125713750D01*
X135056315Y-125713857D01*
G36*
X134881290Y-128968492D02*
X135132582Y-128969548D01*
X135362421Y-128971222D01*
X135565960Y-128973446D01*
X135738351Y-128976151D01*
X135874748Y-128979266D01*
X135970304Y-128982722D01*
X136020171Y-128986450D01*
X136026458Y-128988360D01*
X136015088Y-129022852D01*
X135986864Y-129083221D01*
X135977766Y-129100808D01*
X135950246Y-129153407D01*
X135903263Y-129243723D01*
X135841643Y-129362457D01*
X135770211Y-129500311D01*
X135696470Y-129642812D01*
X135615546Y-129798994D01*
X135535339Y-129953252D01*
X135461973Y-130093849D01*
X135401571Y-130209048D01*
X135365217Y-130277812D01*
X135324011Y-130355994D01*
X135263685Y-130471549D01*
X135189280Y-130614769D01*
X135105834Y-130775946D01*
X135018386Y-130945373D01*
X134980653Y-131018645D01*
X134896861Y-131181394D01*
X134818518Y-131333397D01*
X134749753Y-131466656D01*
X134694694Y-131573174D01*
X134657469Y-131644955D01*
X134646223Y-131666483D01*
X134631434Y-131693406D01*
X134620004Y-131707548D01*
X134611502Y-131703697D01*
X134605493Y-131676642D01*
X134601545Y-131621171D01*
X134599225Y-131532074D01*
X134598101Y-131404139D01*
X134597739Y-131232155D01*
X134597708Y-131082397D01*
X134597708Y-130406099D01*
X134663854Y-130343958D01*
X134716570Y-130266411D01*
X134728313Y-130182406D01*
X134706235Y-130101864D01*
X134657487Y-130034707D01*
X134589222Y-129990856D01*
X134508590Y-129980234D01*
X134424355Y-130011696D01*
X134352927Y-130083801D01*
X134320125Y-130171985D01*
X134326849Y-130261830D01*
X134373997Y-130338918D01*
X134402520Y-130361749D01*
X134465417Y-130402960D01*
X134465416Y-131207557D01*
X134465416Y-132012154D01*
X134373273Y-132195127D01*
X134281129Y-132378100D01*
X134201294Y-132298264D01*
X134121458Y-132218429D01*
X134121458Y-131780321D01*
X134121692Y-131618713D01*
X134123151Y-131501445D01*
X134126972Y-131419939D01*
X134134289Y-131365618D01*
X134146240Y-131329907D01*
X134163960Y-131304227D01*
X134187604Y-131280911D01*
X134240137Y-131201044D01*
X134254363Y-131106670D01*
X134229434Y-131017104D01*
X134200833Y-130978958D01*
X134121646Y-130933189D01*
X134027024Y-130924575D01*
X133937259Y-130952037D01*
X133885254Y-130995755D01*
X133837662Y-131086867D01*
X133842301Y-131175055D01*
X133899439Y-131263364D01*
X133909792Y-131274070D01*
X133989167Y-131353445D01*
X133989167Y-131786472D01*
X133988658Y-131948785D01*
X133986569Y-132066288D01*
X133982055Y-132147084D01*
X133974273Y-132199274D01*
X133962378Y-132230961D01*
X133945527Y-132250245D01*
X133940449Y-132254072D01*
X133879400Y-132318549D01*
X133838680Y-132400091D01*
X133830417Y-132447691D01*
X133851970Y-132503765D01*
X133905325Y-132565328D01*
X133973528Y-132617305D01*
X134039623Y-132644621D01*
X134053277Y-132645833D01*
X134104009Y-132651261D01*
X134121458Y-132662099D01*
X134109111Y-132691592D01*
X134072702Y-132765876D01*
X134013179Y-132883110D01*
X133931492Y-133041452D01*
X133828588Y-133239060D01*
X133705418Y-133474093D01*
X133598262Y-133677708D01*
X133544612Y-133777638D01*
X133498311Y-133860501D01*
X133466011Y-133914553D01*
X133456631Y-133927739D01*
X133446707Y-133914429D01*
X133439080Y-133856385D01*
X133434512Y-133761769D01*
X133433542Y-133680386D01*
X133434118Y-133557441D01*
X133437709Y-133475235D01*
X133447101Y-133421587D01*
X133465083Y-133384319D01*
X133494445Y-133351254D01*
X133512917Y-133333750D01*
X133577439Y-133245135D01*
X133591719Y-133151703D01*
X133555393Y-133061193D01*
X133527348Y-133028276D01*
X133445161Y-132977432D01*
X133355063Y-132968902D01*
X133270407Y-132997339D01*
X133204543Y-133057399D01*
X133170822Y-133143737D01*
X133168958Y-133171762D01*
X133195170Y-133262074D01*
X133248333Y-133329679D01*
X133327708Y-133409054D01*
X133327708Y-133808844D01*
X133327160Y-133964853D01*
X133324618Y-134078692D01*
X133318734Y-134161103D01*
X133308163Y-134222829D01*
X133291558Y-134274613D01*
X133267572Y-134327196D01*
X133261117Y-134340046D01*
X133218046Y-134417184D01*
X133181346Y-134456783D01*
X133138042Y-134470555D01*
X133115596Y-134471458D01*
X133036667Y-134471458D01*
X133036667Y-134211850D01*
X133037223Y-134092642D01*
X133040884Y-134014364D01*
X133050640Y-133965029D01*
X133069480Y-133932653D01*
X133100392Y-133905248D01*
X133116042Y-133893558D01*
X133180254Y-133818053D01*
X133197675Y-133728587D01*
X133167852Y-133636751D01*
X133128068Y-133586306D01*
X133052656Y-133532086D01*
X132972871Y-133523802D01*
X132877789Y-133558711D01*
X132810924Y-133619317D01*
X132779823Y-133702633D01*
X132784450Y-133792400D01*
X132824774Y-133872356D01*
X132878523Y-133916157D01*
X132902585Y-133934252D01*
X132917946Y-133964533D01*
X132926505Y-134017631D01*
X132930161Y-134104177D01*
X132930833Y-134208965D01*
X132930833Y-134473776D01*
X132739010Y-134466002D01*
X132547187Y-134458229D01*
X132540195Y-133810000D01*
X132533203Y-133161770D01*
X133089206Y-132606382D01*
X133645208Y-132050993D01*
X133645208Y-130533237D01*
X133724583Y-130453862D01*
X133784829Y-130365526D01*
X133801126Y-130275726D01*
X133780114Y-130193969D01*
X133728433Y-130129760D01*
X133652725Y-130092605D01*
X133559631Y-130092012D01*
X133489576Y-130117450D01*
X133419787Y-130180288D01*
X133386988Y-130267582D01*
X133395259Y-130362346D01*
X133418888Y-130411642D01*
X133462782Y-130465041D01*
X133501229Y-130493731D01*
X133512642Y-130505387D01*
X133521617Y-130534234D01*
X133528431Y-130585738D01*
X133533364Y-130665366D01*
X133536692Y-130778585D01*
X133538694Y-130930863D01*
X133539647Y-131127665D01*
X133539823Y-131252986D01*
X133540271Y-131997604D01*
X132983750Y-132540000D01*
X132427229Y-133082395D01*
X132427677Y-133776927D01*
X132427683Y-133986334D01*
X132427098Y-134148781D01*
X132425472Y-134270225D01*
X132422354Y-134356624D01*
X132417296Y-134413933D01*
X132409847Y-134448110D01*
X132399556Y-134465111D01*
X132385975Y-134470894D01*
X132375208Y-134471458D01*
X132359769Y-134469846D01*
X132347667Y-134461184D01*
X132338497Y-134439729D01*
X132331852Y-134399742D01*
X132327326Y-134335481D01*
X132324513Y-134241204D01*
X132323008Y-134111172D01*
X132322402Y-133939642D01*
X132322292Y-133723537D01*
X132322292Y-132975617D01*
X132600104Y-132698750D01*
X132877917Y-132421882D01*
X132877917Y-131741022D01*
X132957292Y-131666875D01*
X133021537Y-131582278D01*
X133032953Y-131497099D01*
X132991548Y-131410184D01*
X132959327Y-131373798D01*
X132887438Y-131315190D01*
X132821460Y-131299898D01*
X132741977Y-131324775D01*
X132721059Y-131335167D01*
X132646872Y-131399543D01*
X132611972Y-131486176D01*
X132618194Y-131579937D01*
X132667373Y-131665699D01*
X132679479Y-131677786D01*
X132706978Y-131705759D01*
X132725565Y-131736256D01*
X132736981Y-131779604D01*
X132742968Y-131846131D01*
X132745268Y-131946166D01*
X132745625Y-132069986D01*
X132745625Y-132400883D01*
X132467812Y-132664919D01*
X132190000Y-132928955D01*
X132190000Y-134471458D01*
X130972917Y-134471458D01*
X130972917Y-134264403D01*
X130974594Y-134157031D01*
X130982034Y-134087843D01*
X130998844Y-134042153D01*
X131028634Y-134005271D01*
X131039062Y-133995208D01*
X131095506Y-133910573D01*
X131104369Y-133816114D01*
X131065904Y-133724630D01*
X131032930Y-133687571D01*
X130957264Y-133637645D01*
X130887064Y-133631386D01*
X130836091Y-133633980D01*
X130824088Y-133613566D01*
X130830259Y-133587186D01*
X130851303Y-133536709D01*
X130890213Y-133457622D01*
X130937686Y-133368661D01*
X131028331Y-133205136D01*
X131314550Y-133514182D01*
X131422728Y-133631941D01*
X131499300Y-133718670D01*
X131549262Y-133781551D01*
X131577615Y-133827768D01*
X131589355Y-133864504D01*
X131589482Y-133898942D01*
X131588341Y-133907648D01*
X131589702Y-133978858D01*
X131625190Y-134039906D01*
X131646843Y-134062998D01*
X131703911Y-134109727D01*
X131762267Y-134124373D01*
X131823653Y-134119726D01*
X131924472Y-134088183D01*
X131983742Y-134024614D01*
X132003939Y-133926347D01*
X132003950Y-133925379D01*
X131983970Y-133822714D01*
X131923786Y-133753377D01*
X131826630Y-133720471D01*
X131788117Y-133718141D01*
X131748065Y-133717244D01*
X131713426Y-133711981D01*
X131678627Y-133697642D01*
X131638089Y-133669517D01*
X131586236Y-133622894D01*
X131517493Y-133553063D01*
X131426283Y-133455313D01*
X131307030Y-133324933D01*
X131254795Y-133267604D01*
X131201708Y-133202721D01*
X131168002Y-133140070D01*
X131154865Y-133072235D01*
X131163489Y-132991798D01*
X131195062Y-132891340D01*
X131250774Y-132763444D01*
X131331816Y-132600693D01*
X131375125Y-132517427D01*
X131454145Y-132365742D01*
X131532175Y-132214303D01*
X131602672Y-132075926D01*
X131659090Y-131963429D01*
X131684458Y-131911614D01*
X131729886Y-131822373D01*
X131768767Y-131755243D01*
X131794334Y-131721638D01*
X131798187Y-131719791D01*
X131813215Y-131742803D01*
X131819582Y-131798240D01*
X131819583Y-131799166D01*
X131813359Y-131854918D01*
X131798365Y-131878536D01*
X131798114Y-131878541D01*
X131747841Y-131901400D01*
X131699992Y-131957704D01*
X131667537Y-132029041D01*
X131660833Y-132073397D01*
X131682972Y-132164352D01*
X131740389Y-132231726D01*
X131819587Y-132270672D01*
X131907066Y-132276344D01*
X131989328Y-132243897D01*
X132029329Y-132205702D01*
X132076019Y-132118463D01*
X132073321Y-132032731D01*
X132020591Y-131941056D01*
X132004792Y-131922271D01*
X131962585Y-131869169D01*
X131938697Y-131818759D01*
X131928015Y-131753058D01*
X131925427Y-131654085D01*
X131925417Y-131643057D01*
X131927275Y-131556132D01*
X131935728Y-131484770D01*
X131955091Y-131414317D01*
X131989678Y-131330123D01*
X132043805Y-131217534D01*
X132060747Y-131183529D01*
X132114985Y-131075588D01*
X132160258Y-130986540D01*
X132191558Y-130926163D01*
X132203691Y-130904364D01*
X132228823Y-130910058D01*
X132266798Y-130930572D01*
X132286984Y-130945810D01*
X132301578Y-130967746D01*
X132311482Y-131004336D01*
X132317601Y-131063535D01*
X132320839Y-131153300D01*
X132322100Y-131281586D01*
X132322292Y-131419054D01*
X132321558Y-131589232D01*
X132318981Y-131713432D01*
X132313994Y-131798575D01*
X132306032Y-131851585D01*
X132294528Y-131879383D01*
X132283987Y-131887578D01*
X132246587Y-131919704D01*
X132206380Y-131978500D01*
X132202528Y-131985730D01*
X132176280Y-132083306D01*
X132196438Y-132169953D01*
X132256506Y-132235995D01*
X132349988Y-132271754D01*
X132396996Y-132275416D01*
X132492246Y-132253634D01*
X132560295Y-132196884D01*
X132596514Y-132118056D01*
X132596274Y-132030044D01*
X132554946Y-131945739D01*
X132526021Y-131916069D01*
X132454583Y-131854621D01*
X132454583Y-130983028D01*
X132536659Y-130900952D01*
X132589159Y-130839791D01*
X132606239Y-130789114D01*
X132600844Y-130746782D01*
X132569584Y-130674704D01*
X132519791Y-130608313D01*
X132465813Y-130564321D01*
X132436742Y-130555625D01*
X132404530Y-130545853D01*
X132401667Y-130539484D01*
X132413268Y-130512224D01*
X132445723Y-130445059D01*
X132495504Y-130345050D01*
X132527909Y-130280935D01*
X132613333Y-130280935D01*
X132634528Y-130373938D01*
X132689656Y-130446777D01*
X132766033Y-130492002D01*
X132850975Y-130502161D01*
X132931797Y-130469803D01*
X132933126Y-130468793D01*
X133004863Y-130387243D01*
X133032010Y-130294302D01*
X133013130Y-130202050D01*
X132971723Y-130144318D01*
X132889366Y-130092728D01*
X132799317Y-130082809D01*
X132714802Y-130109520D01*
X132649042Y-130167820D01*
X132615261Y-130252669D01*
X132613333Y-130280935D01*
X132527909Y-130280935D01*
X132559083Y-130219256D01*
X132632935Y-130074741D01*
X132662676Y-130016932D01*
X132750920Y-129845579D01*
X132841161Y-129670099D01*
X132926932Y-129503085D01*
X133001766Y-129357132D01*
X133059193Y-129244834D01*
X133062005Y-129239322D01*
X133200324Y-128968125D01*
X134613391Y-128968125D01*
X134881290Y-128968492D01*
X134881290Y-128968492D01*
G37*
X134881290Y-128968492D02*
X135132582Y-128969548D01*
X135362421Y-128971222D01*
X135565960Y-128973446D01*
X135738351Y-128976151D01*
X135874748Y-128979266D01*
X135970304Y-128982722D01*
X136020171Y-128986450D01*
X136026458Y-128988360D01*
X136015088Y-129022852D01*
X135986864Y-129083221D01*
X135977766Y-129100808D01*
X135950246Y-129153407D01*
X135903263Y-129243723D01*
X135841643Y-129362457D01*
X135770211Y-129500311D01*
X135696470Y-129642812D01*
X135615546Y-129798994D01*
X135535339Y-129953252D01*
X135461973Y-130093849D01*
X135401571Y-130209048D01*
X135365217Y-130277812D01*
X135324011Y-130355994D01*
X135263685Y-130471549D01*
X135189280Y-130614769D01*
X135105834Y-130775946D01*
X135018386Y-130945373D01*
X134980653Y-131018645D01*
X134896861Y-131181394D01*
X134818518Y-131333397D01*
X134749753Y-131466656D01*
X134694694Y-131573174D01*
X134657469Y-131644955D01*
X134646223Y-131666483D01*
X134631434Y-131693406D01*
X134620004Y-131707548D01*
X134611502Y-131703697D01*
X134605493Y-131676642D01*
X134601545Y-131621171D01*
X134599225Y-131532074D01*
X134598101Y-131404139D01*
X134597739Y-131232155D01*
X134597708Y-131082397D01*
X134597708Y-130406099D01*
X134663854Y-130343958D01*
X134716570Y-130266411D01*
X134728313Y-130182406D01*
X134706235Y-130101864D01*
X134657487Y-130034707D01*
X134589222Y-129990856D01*
X134508590Y-129980234D01*
X134424355Y-130011696D01*
X134352927Y-130083801D01*
X134320125Y-130171985D01*
X134326849Y-130261830D01*
X134373997Y-130338918D01*
X134402520Y-130361749D01*
X134465417Y-130402960D01*
X134465416Y-131207557D01*
X134465416Y-132012154D01*
X134373273Y-132195127D01*
X134281129Y-132378100D01*
X134201294Y-132298264D01*
X134121458Y-132218429D01*
X134121458Y-131780321D01*
X134121692Y-131618713D01*
X134123151Y-131501445D01*
X134126972Y-131419939D01*
X134134289Y-131365618D01*
X134146240Y-131329907D01*
X134163960Y-131304227D01*
X134187604Y-131280911D01*
X134240137Y-131201044D01*
X134254363Y-131106670D01*
X134229434Y-131017104D01*
X134200833Y-130978958D01*
X134121646Y-130933189D01*
X134027024Y-130924575D01*
X133937259Y-130952037D01*
X133885254Y-130995755D01*
X133837662Y-131086867D01*
X133842301Y-131175055D01*
X133899439Y-131263364D01*
X133909792Y-131274070D01*
X133989167Y-131353445D01*
X133989167Y-131786472D01*
X133988658Y-131948785D01*
X133986569Y-132066288D01*
X133982055Y-132147084D01*
X133974273Y-132199274D01*
X133962378Y-132230961D01*
X133945527Y-132250245D01*
X133940449Y-132254072D01*
X133879400Y-132318549D01*
X133838680Y-132400091D01*
X133830417Y-132447691D01*
X133851970Y-132503765D01*
X133905325Y-132565328D01*
X133973528Y-132617305D01*
X134039623Y-132644621D01*
X134053277Y-132645833D01*
X134104009Y-132651261D01*
X134121458Y-132662099D01*
X134109111Y-132691592D01*
X134072702Y-132765876D01*
X134013179Y-132883110D01*
X133931492Y-133041452D01*
X133828588Y-133239060D01*
X133705418Y-133474093D01*
X133598262Y-133677708D01*
X133544612Y-133777638D01*
X133498311Y-133860501D01*
X133466011Y-133914553D01*
X133456631Y-133927739D01*
X133446707Y-133914429D01*
X133439080Y-133856385D01*
X133434512Y-133761769D01*
X133433542Y-133680386D01*
X133434118Y-133557441D01*
X133437709Y-133475235D01*
X133447101Y-133421587D01*
X133465083Y-133384319D01*
X133494445Y-133351254D01*
X133512917Y-133333750D01*
X133577439Y-133245135D01*
X133591719Y-133151703D01*
X133555393Y-133061193D01*
X133527348Y-133028276D01*
X133445161Y-132977432D01*
X133355063Y-132968902D01*
X133270407Y-132997339D01*
X133204543Y-133057399D01*
X133170822Y-133143737D01*
X133168958Y-133171762D01*
X133195170Y-133262074D01*
X133248333Y-133329679D01*
X133327708Y-133409054D01*
X133327708Y-133808844D01*
X133327160Y-133964853D01*
X133324618Y-134078692D01*
X133318734Y-134161103D01*
X133308163Y-134222829D01*
X133291558Y-134274613D01*
X133267572Y-134327196D01*
X133261117Y-134340046D01*
X133218046Y-134417184D01*
X133181346Y-134456783D01*
X133138042Y-134470555D01*
X133115596Y-134471458D01*
X133036667Y-134471458D01*
X133036667Y-134211850D01*
X133037223Y-134092642D01*
X133040884Y-134014364D01*
X133050640Y-133965029D01*
X133069480Y-133932653D01*
X133100392Y-133905248D01*
X133116042Y-133893558D01*
X133180254Y-133818053D01*
X133197675Y-133728587D01*
X133167852Y-133636751D01*
X133128068Y-133586306D01*
X133052656Y-133532086D01*
X132972871Y-133523802D01*
X132877789Y-133558711D01*
X132810924Y-133619317D01*
X132779823Y-133702633D01*
X132784450Y-133792400D01*
X132824774Y-133872356D01*
X132878523Y-133916157D01*
X132902585Y-133934252D01*
X132917946Y-133964533D01*
X132926505Y-134017631D01*
X132930161Y-134104177D01*
X132930833Y-134208965D01*
X132930833Y-134473776D01*
X132739010Y-134466002D01*
X132547187Y-134458229D01*
X132540195Y-133810000D01*
X132533203Y-133161770D01*
X133089206Y-132606382D01*
X133645208Y-132050993D01*
X133645208Y-130533237D01*
X133724583Y-130453862D01*
X133784829Y-130365526D01*
X133801126Y-130275726D01*
X133780114Y-130193969D01*
X133728433Y-130129760D01*
X133652725Y-130092605D01*
X133559631Y-130092012D01*
X133489576Y-130117450D01*
X133419787Y-130180288D01*
X133386988Y-130267582D01*
X133395259Y-130362346D01*
X133418888Y-130411642D01*
X133462782Y-130465041D01*
X133501229Y-130493731D01*
X133512642Y-130505387D01*
X133521617Y-130534234D01*
X133528431Y-130585738D01*
X133533364Y-130665366D01*
X133536692Y-130778585D01*
X133538694Y-130930863D01*
X133539647Y-131127665D01*
X133539823Y-131252986D01*
X133540271Y-131997604D01*
X132983750Y-132540000D01*
X132427229Y-133082395D01*
X132427677Y-133776927D01*
X132427683Y-133986334D01*
X132427098Y-134148781D01*
X132425472Y-134270225D01*
X132422354Y-134356624D01*
X132417296Y-134413933D01*
X132409847Y-134448110D01*
X132399556Y-134465111D01*
X132385975Y-134470894D01*
X132375208Y-134471458D01*
X132359769Y-134469846D01*
X132347667Y-134461184D01*
X132338497Y-134439729D01*
X132331852Y-134399742D01*
X132327326Y-134335481D01*
X132324513Y-134241204D01*
X132323008Y-134111172D01*
X132322402Y-133939642D01*
X132322292Y-133723537D01*
X132322292Y-132975617D01*
X132600104Y-132698750D01*
X132877917Y-132421882D01*
X132877917Y-131741022D01*
X132957292Y-131666875D01*
X133021537Y-131582278D01*
X133032953Y-131497099D01*
X132991548Y-131410184D01*
X132959327Y-131373798D01*
X132887438Y-131315190D01*
X132821460Y-131299898D01*
X132741977Y-131324775D01*
X132721059Y-131335167D01*
X132646872Y-131399543D01*
X132611972Y-131486176D01*
X132618194Y-131579937D01*
X132667373Y-131665699D01*
X132679479Y-131677786D01*
X132706978Y-131705759D01*
X132725565Y-131736256D01*
X132736981Y-131779604D01*
X132742968Y-131846131D01*
X132745268Y-131946166D01*
X132745625Y-132069986D01*
X132745625Y-132400883D01*
X132467812Y-132664919D01*
X132190000Y-132928955D01*
X132190000Y-134471458D01*
X130972917Y-134471458D01*
X130972917Y-134264403D01*
X130974594Y-134157031D01*
X130982034Y-134087843D01*
X130998844Y-134042153D01*
X131028634Y-134005271D01*
X131039062Y-133995208D01*
X131095506Y-133910573D01*
X131104369Y-133816114D01*
X131065904Y-133724630D01*
X131032930Y-133687571D01*
X130957264Y-133637645D01*
X130887064Y-133631386D01*
X130836091Y-133633980D01*
X130824088Y-133613566D01*
X130830259Y-133587186D01*
X130851303Y-133536709D01*
X130890213Y-133457622D01*
X130937686Y-133368661D01*
X131028331Y-133205136D01*
X131314550Y-133514182D01*
X131422728Y-133631941D01*
X131499300Y-133718670D01*
X131549262Y-133781551D01*
X131577615Y-133827768D01*
X131589355Y-133864504D01*
X131589482Y-133898942D01*
X131588341Y-133907648D01*
X131589702Y-133978858D01*
X131625190Y-134039906D01*
X131646843Y-134062998D01*
X131703911Y-134109727D01*
X131762267Y-134124373D01*
X131823653Y-134119726D01*
X131924472Y-134088183D01*
X131983742Y-134024614D01*
X132003939Y-133926347D01*
X132003950Y-133925379D01*
X131983970Y-133822714D01*
X131923786Y-133753377D01*
X131826630Y-133720471D01*
X131788117Y-133718141D01*
X131748065Y-133717244D01*
X131713426Y-133711981D01*
X131678627Y-133697642D01*
X131638089Y-133669517D01*
X131586236Y-133622894D01*
X131517493Y-133553063D01*
X131426283Y-133455313D01*
X131307030Y-133324933D01*
X131254795Y-133267604D01*
X131201708Y-133202721D01*
X131168002Y-133140070D01*
X131154865Y-133072235D01*
X131163489Y-132991798D01*
X131195062Y-132891340D01*
X131250774Y-132763444D01*
X131331816Y-132600693D01*
X131375125Y-132517427D01*
X131454145Y-132365742D01*
X131532175Y-132214303D01*
X131602672Y-132075926D01*
X131659090Y-131963429D01*
X131684458Y-131911614D01*
X131729886Y-131822373D01*
X131768767Y-131755243D01*
X131794334Y-131721638D01*
X131798187Y-131719791D01*
X131813215Y-131742803D01*
X131819582Y-131798240D01*
X131819583Y-131799166D01*
X131813359Y-131854918D01*
X131798365Y-131878536D01*
X131798114Y-131878541D01*
X131747841Y-131901400D01*
X131699992Y-131957704D01*
X131667537Y-132029041D01*
X131660833Y-132073397D01*
X131682972Y-132164352D01*
X131740389Y-132231726D01*
X131819587Y-132270672D01*
X131907066Y-132276344D01*
X131989328Y-132243897D01*
X132029329Y-132205702D01*
X132076019Y-132118463D01*
X132073321Y-132032731D01*
X132020591Y-131941056D01*
X132004792Y-131922271D01*
X131962585Y-131869169D01*
X131938697Y-131818759D01*
X131928015Y-131753058D01*
X131925427Y-131654085D01*
X131925417Y-131643057D01*
X131927275Y-131556132D01*
X131935728Y-131484770D01*
X131955091Y-131414317D01*
X131989678Y-131330123D01*
X132043805Y-131217534D01*
X132060747Y-131183529D01*
X132114985Y-131075588D01*
X132160258Y-130986540D01*
X132191558Y-130926163D01*
X132203691Y-130904364D01*
X132228823Y-130910058D01*
X132266798Y-130930572D01*
X132286984Y-130945810D01*
X132301578Y-130967746D01*
X132311482Y-131004336D01*
X132317601Y-131063535D01*
X132320839Y-131153300D01*
X132322100Y-131281586D01*
X132322292Y-131419054D01*
X132321558Y-131589232D01*
X132318981Y-131713432D01*
X132313994Y-131798575D01*
X132306032Y-131851585D01*
X132294528Y-131879383D01*
X132283987Y-131887578D01*
X132246587Y-131919704D01*
X132206380Y-131978500D01*
X132202528Y-131985730D01*
X132176280Y-132083306D01*
X132196438Y-132169953D01*
X132256506Y-132235995D01*
X132349988Y-132271754D01*
X132396996Y-132275416D01*
X132492246Y-132253634D01*
X132560295Y-132196884D01*
X132596514Y-132118056D01*
X132596274Y-132030044D01*
X132554946Y-131945739D01*
X132526021Y-131916069D01*
X132454583Y-131854621D01*
X132454583Y-130983028D01*
X132536659Y-130900952D01*
X132589159Y-130839791D01*
X132606239Y-130789114D01*
X132600844Y-130746782D01*
X132569584Y-130674704D01*
X132519791Y-130608313D01*
X132465813Y-130564321D01*
X132436742Y-130555625D01*
X132404530Y-130545853D01*
X132401667Y-130539484D01*
X132413268Y-130512224D01*
X132445723Y-130445059D01*
X132495504Y-130345050D01*
X132527909Y-130280935D01*
X132613333Y-130280935D01*
X132634528Y-130373938D01*
X132689656Y-130446777D01*
X132766033Y-130492002D01*
X132850975Y-130502161D01*
X132931797Y-130469803D01*
X132933126Y-130468793D01*
X133004863Y-130387243D01*
X133032010Y-130294302D01*
X133013130Y-130202050D01*
X132971723Y-130144318D01*
X132889366Y-130092728D01*
X132799317Y-130082809D01*
X132714802Y-130109520D01*
X132649042Y-130167820D01*
X132615261Y-130252669D01*
X132613333Y-130280935D01*
X132527909Y-130280935D01*
X132559083Y-130219256D01*
X132632935Y-130074741D01*
X132662676Y-130016932D01*
X132750920Y-129845579D01*
X132841161Y-129670099D01*
X132926932Y-129503085D01*
X133001766Y-129357132D01*
X133059193Y-129244834D01*
X133062005Y-129239322D01*
X133200324Y-128968125D01*
X134613391Y-128968125D01*
X134881290Y-128968492D01*
G36*
X130753012Y-133985206D02*
X130797920Y-134033361D01*
X130824095Y-134076914D01*
X130836572Y-134132361D01*
X130840390Y-134216198D01*
X130840625Y-134272138D01*
X130840625Y-134471458D01*
X130615729Y-134471458D01*
X130514018Y-134469301D01*
X130436132Y-134463547D01*
X130394253Y-134455267D01*
X130390312Y-134451614D01*
X130401575Y-134421478D01*
X130432543Y-134354721D01*
X130478320Y-134261574D01*
X130527595Y-134164682D01*
X130665399Y-133897593D01*
X130753012Y-133985206D01*
X130753012Y-133985206D01*
G37*
X130753012Y-133985206D02*
X130797920Y-134033361D01*
X130824095Y-134076914D01*
X130836572Y-134132361D01*
X130840390Y-134216198D01*
X130840625Y-134272138D01*
X130840625Y-134471458D01*
X130615729Y-134471458D01*
X130514018Y-134469301D01*
X130436132Y-134463547D01*
X130394253Y-134455267D01*
X130390312Y-134451614D01*
X130401575Y-134421478D01*
X130432543Y-134354721D01*
X130478320Y-134261574D01*
X130527595Y-134164682D01*
X130665399Y-133897593D01*
X130753012Y-133985206D01*
D12*
X136791666Y-119332380D02*
X136791666Y-120046666D01*
X136744047Y-120189523D01*
X136648809Y-120284761D01*
X136505952Y-120332380D01*
X136410714Y-120332380D01*
X137791666Y-120332380D02*
X137220238Y-120332380D01*
X137505952Y-120332380D02*
X137505952Y-119332380D01*
X137410714Y-119475238D01*
X137315476Y-119570476D01*
X137220238Y-119618095D01*
X134398095Y-94797380D02*
X134398095Y-95606904D01*
X134445714Y-95702142D01*
X134493333Y-95749761D01*
X134588571Y-95797380D01*
X134779047Y-95797380D01*
X134874285Y-95749761D01*
X134921904Y-95702142D01*
X134969523Y-95606904D01*
X134969523Y-94797380D01*
X135969523Y-95797380D02*
X135398095Y-95797380D01*
X135683809Y-95797380D02*
X135683809Y-94797380D01*
X135588571Y-94940238D01*
X135493333Y-95035476D01*
X135398095Y-95083095D01*
X126147142Y-85431666D02*
X126194761Y-85479285D01*
X126242380Y-85622142D01*
X126242380Y-85717380D01*
X126194761Y-85860238D01*
X126099523Y-85955476D01*
X126004285Y-86003095D01*
X125813809Y-86050714D01*
X125670952Y-86050714D01*
X125480476Y-86003095D01*
X125385238Y-85955476D01*
X125290000Y-85860238D01*
X125242380Y-85717380D01*
X125242380Y-85622142D01*
X125290000Y-85479285D01*
X125337619Y-85431666D01*
X126242380Y-84479285D02*
X126242380Y-85050714D01*
X126242380Y-84765000D02*
X125242380Y-84765000D01*
X125385238Y-84860238D01*
X125480476Y-84955476D01*
X125528095Y-85050714D01*
X132187142Y-85431666D02*
X132234761Y-85479285D01*
X132282380Y-85622142D01*
X132282380Y-85717380D01*
X132234761Y-85860238D01*
X132139523Y-85955476D01*
X132044285Y-86003095D01*
X131853809Y-86050714D01*
X131710952Y-86050714D01*
X131520476Y-86003095D01*
X131425238Y-85955476D01*
X131330000Y-85860238D01*
X131282380Y-85717380D01*
X131282380Y-85622142D01*
X131330000Y-85479285D01*
X131377619Y-85431666D01*
X131377619Y-85050714D02*
X131330000Y-85003095D01*
X131282380Y-84907857D01*
X131282380Y-84669761D01*
X131330000Y-84574523D01*
X131377619Y-84526904D01*
X131472857Y-84479285D01*
X131568095Y-84479285D01*
X131710952Y-84526904D01*
X132282380Y-85098333D01*
X132282380Y-84479285D01*
X138406380Y-102751190D02*
X137406380Y-102751190D01*
X138311142Y-101703571D02*
X138358761Y-101751190D01*
X138406380Y-101894047D01*
X138406380Y-101989285D01*
X138358761Y-102132142D01*
X138263523Y-102227380D01*
X138168285Y-102275000D01*
X137977809Y-102322619D01*
X137834952Y-102322619D01*
X137644476Y-102275000D01*
X137549238Y-102227380D01*
X137454000Y-102132142D01*
X137406380Y-101989285D01*
X137406380Y-101894047D01*
X137454000Y-101751190D01*
X137501619Y-101703571D01*
X138406380Y-100751190D02*
X138406380Y-101322619D01*
X138406380Y-101036904D02*
X137406380Y-101036904D01*
X137549238Y-101132142D01*
X137644476Y-101227380D01*
X137692095Y-101322619D01*
X140708333Y-90114380D02*
X140375000Y-89638190D01*
X140136904Y-90114380D02*
X140136904Y-89114380D01*
X140517857Y-89114380D01*
X140613095Y-89162000D01*
X140660714Y-89209619D01*
X140708333Y-89304857D01*
X140708333Y-89447714D01*
X140660714Y-89542952D01*
X140613095Y-89590571D01*
X140517857Y-89638190D01*
X140136904Y-89638190D01*
X141565476Y-89114380D02*
X141375000Y-89114380D01*
X141279761Y-89162000D01*
X141232142Y-89209619D01*
X141136904Y-89352476D01*
X141089285Y-89542952D01*
X141089285Y-89923904D01*
X141136904Y-90019142D01*
X141184523Y-90066761D01*
X141279761Y-90114380D01*
X141470238Y-90114380D01*
X141565476Y-90066761D01*
X141613095Y-90019142D01*
X141660714Y-89923904D01*
X141660714Y-89685809D01*
X141613095Y-89590571D01*
X141565476Y-89542952D01*
X141470238Y-89495333D01*
X141279761Y-89495333D01*
X141184523Y-89542952D01*
X141136904Y-89590571D01*
X141089285Y-89685809D01*
X140708333Y-87756380D02*
X140375000Y-87280190D01*
X140136904Y-87756380D02*
X140136904Y-86756380D01*
X140517857Y-86756380D01*
X140613095Y-86804000D01*
X140660714Y-86851619D01*
X140708333Y-86946857D01*
X140708333Y-87089714D01*
X140660714Y-87184952D01*
X140613095Y-87232571D01*
X140517857Y-87280190D01*
X140136904Y-87280190D01*
X141041666Y-86756380D02*
X141708333Y-86756380D01*
X141279761Y-87756380D01*
X153863333Y-135192380D02*
X153530000Y-134716190D01*
X153291904Y-135192380D02*
X153291904Y-134192380D01*
X153672857Y-134192380D01*
X153768095Y-134240000D01*
X153815714Y-134287619D01*
X153863333Y-134382857D01*
X153863333Y-134525714D01*
X153815714Y-134620952D01*
X153768095Y-134668571D01*
X153672857Y-134716190D01*
X153291904Y-134716190D01*
X154434761Y-134620952D02*
X154339523Y-134573333D01*
X154291904Y-134525714D01*
X154244285Y-134430476D01*
X154244285Y-134382857D01*
X154291904Y-134287619D01*
X154339523Y-134240000D01*
X154434761Y-134192380D01*
X154625238Y-134192380D01*
X154720476Y-134240000D01*
X154768095Y-134287619D01*
X154815714Y-134382857D01*
X154815714Y-134430476D01*
X154768095Y-134525714D01*
X154720476Y-134573333D01*
X154625238Y-134620952D01*
X154434761Y-134620952D01*
X154339523Y-134668571D01*
X154291904Y-134716190D01*
X154244285Y-134811428D01*
X154244285Y-135001904D01*
X154291904Y-135097142D01*
X154339523Y-135144761D01*
X154434761Y-135192380D01*
X154625238Y-135192380D01*
X154720476Y-135144761D01*
X154768095Y-135097142D01*
X154815714Y-135001904D01*
X154815714Y-134811428D01*
X154768095Y-134716190D01*
X154720476Y-134668571D01*
X154625238Y-134620952D01*
X133723333Y-95187380D02*
X133390000Y-94711190D01*
X133151904Y-95187380D02*
X133151904Y-94187380D01*
X133532857Y-94187380D01*
X133628095Y-94235000D01*
X133675714Y-94282619D01*
X133723333Y-94377857D01*
X133723333Y-94520714D01*
X133675714Y-94615952D01*
X133628095Y-94663571D01*
X133532857Y-94711190D01*
X133151904Y-94711190D01*
X134199523Y-95187380D02*
X134390000Y-95187380D01*
X134485238Y-95139761D01*
X134532857Y-95092142D01*
X134628095Y-94949285D01*
X134675714Y-94758809D01*
X134675714Y-94377857D01*
X134628095Y-94282619D01*
X134580476Y-94235000D01*
X134485238Y-94187380D01*
X134294761Y-94187380D01*
X134199523Y-94235000D01*
X134151904Y-94282619D01*
X134104285Y-94377857D01*
X134104285Y-94615952D01*
X134151904Y-94711190D01*
X134199523Y-94758809D01*
X134294761Y-94806428D01*
X134485238Y-94806428D01*
X134580476Y-94758809D01*
X134628095Y-94711190D01*
X134675714Y-94615952D01*
X153387142Y-132652380D02*
X153053809Y-132176190D01*
X152815714Y-132652380D02*
X152815714Y-131652380D01*
X153196666Y-131652380D01*
X153291904Y-131700000D01*
X153339523Y-131747619D01*
X153387142Y-131842857D01*
X153387142Y-131985714D01*
X153339523Y-132080952D01*
X153291904Y-132128571D01*
X153196666Y-132176190D01*
X152815714Y-132176190D01*
X154339523Y-132652380D02*
X153768095Y-132652380D01*
X154053809Y-132652380D02*
X154053809Y-131652380D01*
X153958571Y-131795238D01*
X153863333Y-131890476D01*
X153768095Y-131938095D01*
X154958571Y-131652380D02*
X155053809Y-131652380D01*
X155149047Y-131700000D01*
X155196666Y-131747619D01*
X155244285Y-131842857D01*
X155291904Y-132033333D01*
X155291904Y-132271428D01*
X155244285Y-132461904D01*
X155196666Y-132557142D01*
X155149047Y-132604761D01*
X155053809Y-132652380D01*
X154958571Y-132652380D01*
X154863333Y-132604761D01*
X154815714Y-132557142D01*
X154768095Y-132461904D01*
X154720476Y-132271428D01*
X154720476Y-132033333D01*
X154768095Y-131842857D01*
X154815714Y-131747619D01*
X154863333Y-131700000D01*
X154958571Y-131652380D01*
X153387142Y-119952380D02*
X153053809Y-119476190D01*
X152815714Y-119952380D02*
X152815714Y-118952380D01*
X153196666Y-118952380D01*
X153291904Y-119000000D01*
X153339523Y-119047619D01*
X153387142Y-119142857D01*
X153387142Y-119285714D01*
X153339523Y-119380952D01*
X153291904Y-119428571D01*
X153196666Y-119476190D01*
X152815714Y-119476190D01*
X154339523Y-119952380D02*
X153768095Y-119952380D01*
X154053809Y-119952380D02*
X154053809Y-118952380D01*
X153958571Y-119095238D01*
X153863333Y-119190476D01*
X153768095Y-119238095D01*
X155291904Y-119952380D02*
X154720476Y-119952380D01*
X155006190Y-119952380D02*
X155006190Y-118952380D01*
X154910952Y-119095238D01*
X154815714Y-119190476D01*
X154720476Y-119238095D01*
X153387142Y-117412380D02*
X153053809Y-116936190D01*
X152815714Y-117412380D02*
X152815714Y-116412380D01*
X153196666Y-116412380D01*
X153291904Y-116460000D01*
X153339523Y-116507619D01*
X153387142Y-116602857D01*
X153387142Y-116745714D01*
X153339523Y-116840952D01*
X153291904Y-116888571D01*
X153196666Y-116936190D01*
X152815714Y-116936190D01*
X154339523Y-117412380D02*
X153768095Y-117412380D01*
X154053809Y-117412380D02*
X154053809Y-116412380D01*
X153958571Y-116555238D01*
X153863333Y-116650476D01*
X153768095Y-116698095D01*
X154720476Y-116507619D02*
X154768095Y-116460000D01*
X154863333Y-116412380D01*
X155101428Y-116412380D01*
X155196666Y-116460000D01*
X155244285Y-116507619D01*
X155291904Y-116602857D01*
X155291904Y-116698095D01*
X155244285Y-116840952D01*
X154672857Y-117412380D01*
X155291904Y-117412380D01*
X153387142Y-104712380D02*
X153053809Y-104236190D01*
X152815714Y-104712380D02*
X152815714Y-103712380D01*
X153196666Y-103712380D01*
X153291904Y-103760000D01*
X153339523Y-103807619D01*
X153387142Y-103902857D01*
X153387142Y-104045714D01*
X153339523Y-104140952D01*
X153291904Y-104188571D01*
X153196666Y-104236190D01*
X152815714Y-104236190D01*
X154339523Y-104712380D02*
X153768095Y-104712380D01*
X154053809Y-104712380D02*
X154053809Y-103712380D01*
X153958571Y-103855238D01*
X153863333Y-103950476D01*
X153768095Y-103998095D01*
X154672857Y-103712380D02*
X155291904Y-103712380D01*
X154958571Y-104093333D01*
X155101428Y-104093333D01*
X155196666Y-104140952D01*
X155244285Y-104188571D01*
X155291904Y-104283809D01*
X155291904Y-104521904D01*
X155244285Y-104617142D01*
X155196666Y-104664761D01*
X155101428Y-104712380D01*
X154815714Y-104712380D01*
X154720476Y-104664761D01*
X154672857Y-104617142D01*
X153387142Y-102172380D02*
X153053809Y-101696190D01*
X152815714Y-102172380D02*
X152815714Y-101172380D01*
X153196666Y-101172380D01*
X153291904Y-101220000D01*
X153339523Y-101267619D01*
X153387142Y-101362857D01*
X153387142Y-101505714D01*
X153339523Y-101600952D01*
X153291904Y-101648571D01*
X153196666Y-101696190D01*
X152815714Y-101696190D01*
X154339523Y-102172380D02*
X153768095Y-102172380D01*
X154053809Y-102172380D02*
X154053809Y-101172380D01*
X153958571Y-101315238D01*
X153863333Y-101410476D01*
X153768095Y-101458095D01*
X155196666Y-101505714D02*
X155196666Y-102172380D01*
X154958571Y-101124761D02*
X154720476Y-101839047D01*
X155339523Y-101839047D01*
X153387142Y-89472380D02*
X153053809Y-88996190D01*
X152815714Y-89472380D02*
X152815714Y-88472380D01*
X153196666Y-88472380D01*
X153291904Y-88520000D01*
X153339523Y-88567619D01*
X153387142Y-88662857D01*
X153387142Y-88805714D01*
X153339523Y-88900952D01*
X153291904Y-88948571D01*
X153196666Y-88996190D01*
X152815714Y-88996190D01*
X154339523Y-89472380D02*
X153768095Y-89472380D01*
X154053809Y-89472380D02*
X154053809Y-88472380D01*
X153958571Y-88615238D01*
X153863333Y-88710476D01*
X153768095Y-88758095D01*
X155244285Y-88472380D02*
X154768095Y-88472380D01*
X154720476Y-88948571D01*
X154768095Y-88900952D01*
X154863333Y-88853333D01*
X155101428Y-88853333D01*
X155196666Y-88900952D01*
X155244285Y-88948571D01*
X155291904Y-89043809D01*
X155291904Y-89281904D01*
X155244285Y-89377142D01*
X155196666Y-89424761D01*
X155101428Y-89472380D01*
X154863333Y-89472380D01*
X154768095Y-89424761D01*
X154720476Y-89377142D01*
X153387142Y-86932380D02*
X153053809Y-86456190D01*
X152815714Y-86932380D02*
X152815714Y-85932380D01*
X153196666Y-85932380D01*
X153291904Y-85980000D01*
X153339523Y-86027619D01*
X153387142Y-86122857D01*
X153387142Y-86265714D01*
X153339523Y-86360952D01*
X153291904Y-86408571D01*
X153196666Y-86456190D01*
X152815714Y-86456190D01*
X154339523Y-86932380D02*
X153768095Y-86932380D01*
X154053809Y-86932380D02*
X154053809Y-85932380D01*
X153958571Y-86075238D01*
X153863333Y-86170476D01*
X153768095Y-86218095D01*
X155196666Y-85932380D02*
X155006190Y-85932380D01*
X154910952Y-85980000D01*
X154863333Y-86027619D01*
X154768095Y-86170476D01*
X154720476Y-86360952D01*
X154720476Y-86741904D01*
X154768095Y-86837142D01*
X154815714Y-86884761D01*
X154910952Y-86932380D01*
X155101428Y-86932380D01*
X155196666Y-86884761D01*
X155244285Y-86837142D01*
X155291904Y-86741904D01*
X155291904Y-86503809D01*
X155244285Y-86408571D01*
X155196666Y-86360952D01*
X155101428Y-86313333D01*
X154910952Y-86313333D01*
X154815714Y-86360952D01*
X154768095Y-86408571D01*
X154720476Y-86503809D01*
X153387142Y-74232380D02*
X153053809Y-73756190D01*
X152815714Y-74232380D02*
X152815714Y-73232380D01*
X153196666Y-73232380D01*
X153291904Y-73280000D01*
X153339523Y-73327619D01*
X153387142Y-73422857D01*
X153387142Y-73565714D01*
X153339523Y-73660952D01*
X153291904Y-73708571D01*
X153196666Y-73756190D01*
X152815714Y-73756190D01*
X154339523Y-74232380D02*
X153768095Y-74232380D01*
X154053809Y-74232380D02*
X154053809Y-73232380D01*
X153958571Y-73375238D01*
X153863333Y-73470476D01*
X153768095Y-73518095D01*
X154672857Y-73232380D02*
X155339523Y-73232380D01*
X154910952Y-74232380D01*
X153387142Y-71692380D02*
X153053809Y-71216190D01*
X152815714Y-71692380D02*
X152815714Y-70692380D01*
X153196666Y-70692380D01*
X153291904Y-70740000D01*
X153339523Y-70787619D01*
X153387142Y-70882857D01*
X153387142Y-71025714D01*
X153339523Y-71120952D01*
X153291904Y-71168571D01*
X153196666Y-71216190D01*
X152815714Y-71216190D01*
X154339523Y-71692380D02*
X153768095Y-71692380D01*
X154053809Y-71692380D02*
X154053809Y-70692380D01*
X153958571Y-70835238D01*
X153863333Y-70930476D01*
X153768095Y-70978095D01*
X154910952Y-71120952D02*
X154815714Y-71073333D01*
X154768095Y-71025714D01*
X154720476Y-70930476D01*
X154720476Y-70882857D01*
X154768095Y-70787619D01*
X154815714Y-70740000D01*
X154910952Y-70692380D01*
X155101428Y-70692380D01*
X155196666Y-70740000D01*
X155244285Y-70787619D01*
X155291904Y-70882857D01*
X155291904Y-70930476D01*
X155244285Y-71025714D01*
X155196666Y-71073333D01*
X155101428Y-71120952D01*
X154910952Y-71120952D01*
X154815714Y-71168571D01*
X154768095Y-71216190D01*
X154720476Y-71311428D01*
X154720476Y-71501904D01*
X154768095Y-71597142D01*
X154815714Y-71644761D01*
X154910952Y-71692380D01*
X155101428Y-71692380D01*
X155196666Y-71644761D01*
X155244285Y-71597142D01*
X155291904Y-71501904D01*
X155291904Y-71311428D01*
X155244285Y-71216190D01*
X155196666Y-71168571D01*
X155101428Y-71120952D01*
M02*
