%FSLAX45Y45*%
G04 Gerber Fmt 4.5, Leading zero omitted, Abs format (unit mm)*
G04 Created by KiCad (PCBNEW (5.0.0-rc2-dev-632-g76d3b6f04)) date 11/25/18 05:16:47*
%MOMM*%
%LPD*%
G01*
G04 APERTURE LIST*
%ADD10C,0.150000*%
%ADD11C,0.200000*%
%ADD12C,0.300000*%
G04 APERTURE END LIST*
D10*
X14550000Y-13600000D02*
G75*
G03X14550000Y-13600000I-150000J0D01*
G01*
X14550000Y-6400000D02*
G75*
G03X14550000Y-6400000I-150000J0D01*
G01*
X13050000Y-6400000D02*
G75*
G03X13050000Y-6400000I-150000J0D01*
G01*
X13050000Y-13600000D02*
G75*
G03X13050000Y-13600000I-150000J0D01*
G01*
D11*
X12500000Y-14000000D02*
X16500000Y-14000000D01*
X12500000Y-6000000D02*
X12500000Y-14000000D01*
X13000000Y-6000000D02*
X12500000Y-6000000D01*
X15850000Y-6000000D02*
X13000000Y-6000000D01*
X16500000Y-6000000D02*
X15850000Y-6000000D01*
X16500000Y-14000000D02*
X16500000Y-6000000D01*
D11*
D12*
X12776428Y-14475714D02*
X12776428Y-14175714D01*
X12847857Y-14175714D01*
X12890714Y-14190000D01*
X12919286Y-14218571D01*
X12933571Y-14247143D01*
X12947857Y-14304286D01*
X12947857Y-14347143D01*
X12933571Y-14404286D01*
X12919286Y-14432857D01*
X12890714Y-14461429D01*
X12847857Y-14475714D01*
X12776428Y-14475714D01*
X13076428Y-14475714D02*
X13076428Y-14275714D01*
X13076428Y-14332857D02*
X13090714Y-14304286D01*
X13105000Y-14290000D01*
X13133571Y-14275714D01*
X13162143Y-14275714D01*
X13262143Y-14475714D02*
X13262143Y-14275714D01*
X13262143Y-14175714D02*
X13247857Y-14190000D01*
X13262143Y-14204286D01*
X13276428Y-14190000D01*
X13262143Y-14175714D01*
X13262143Y-14204286D01*
X13447857Y-14475714D02*
X13419286Y-14461429D01*
X13405000Y-14432857D01*
X13405000Y-14175714D01*
X13605000Y-14475714D02*
X13576428Y-14461429D01*
X13562143Y-14432857D01*
X13562143Y-14175714D01*
X13947857Y-14475714D02*
X13947857Y-14175714D01*
X14047857Y-14390000D01*
X14147857Y-14175714D01*
X14147857Y-14475714D01*
X14419286Y-14475714D02*
X14419286Y-14318571D01*
X14405000Y-14290000D01*
X14376428Y-14275714D01*
X14319286Y-14275714D01*
X14290714Y-14290000D01*
X14419286Y-14461429D02*
X14390714Y-14475714D01*
X14319286Y-14475714D01*
X14290714Y-14461429D01*
X14276428Y-14432857D01*
X14276428Y-14404286D01*
X14290714Y-14375714D01*
X14319286Y-14361429D01*
X14390714Y-14361429D01*
X14419286Y-14347143D01*
X14562143Y-14275714D02*
X14562143Y-14575714D01*
X14562143Y-14290000D02*
X14590714Y-14275714D01*
X14647857Y-14275714D01*
X14676428Y-14290000D01*
X14690714Y-14304286D01*
X14705000Y-14332857D01*
X14705000Y-14418571D01*
X14690714Y-14447143D01*
X14676428Y-14461429D01*
X14647857Y-14475714D01*
X14590714Y-14475714D01*
X14562143Y-14461429D01*
X14833571Y-14447143D02*
X14847857Y-14461429D01*
X14833571Y-14475714D01*
X14819286Y-14461429D01*
X14833571Y-14447143D01*
X14833571Y-14475714D01*
X14833571Y-14290000D02*
X14847857Y-14304286D01*
X14833571Y-14318571D01*
X14819286Y-14304286D01*
X14833571Y-14290000D01*
X14833571Y-14318571D01*
M02*
