G04 #@! TF.GenerationSoftware,KiCad,Pcbnew,(5.0.0-rc2-dev-632-g76d3b6f04)*
G04 #@! TF.CreationDate,2018-11-25T05:17:50+09:00*
G04 #@! TF.ProjectId,I2C_color_sensor_v1,4932435F636F6C6F725F73656E736F72,rev?*
G04 #@! TF.SameCoordinates,Original*
G04 #@! TF.FileFunction,Copper,L1,Top,Signal*
G04 #@! TF.FilePolarity,Positive*
%FSLAX46Y46*%
G04 Gerber Fmt 4.6, Leading zero omitted, Abs format (unit mm)*
G04 Created by KiCad (PCBNEW (5.0.0-rc2-dev-632-g76d3b6f04)) date 11/25/18 05:17:50*
%MOMM*%
%LPD*%
G01*
G04 APERTURE LIST*
%ADD10C,1.700000*%
%ADD11C,1.750000*%
%ADD12R,1.750000X1.750000*%
%ADD13R,5.700000X2.300000*%
%ADD14R,0.700000X2.000000*%
%ADD15R,1.600000X2.000000*%
%ADD16R,2.400000X0.762000*%
%ADD17R,0.900000X1.700000*%
%ADD18C,1.600000*%
%ADD19C,0.400000*%
%ADD20C,0.700000*%
%ADD21C,0.254000*%
G04 APERTURE END LIST*
D10*
X150400000Y-97330000D03*
X150400000Y-99870000D03*
X150400000Y-102410000D03*
X150400000Y-104950000D03*
D11*
X133375000Y-116380000D03*
X135875000Y-116380000D03*
X138375000Y-116380000D03*
D12*
X140875000Y-116380000D03*
D13*
X135160000Y-80945000D03*
D14*
X137700000Y-89695000D03*
X136430000Y-89695000D03*
X135160000Y-89695000D03*
X133890000Y-89695000D03*
X132620000Y-89695000D03*
D10*
X150400000Y-66850000D03*
X150400000Y-69390000D03*
X150400000Y-71930000D03*
X150400000Y-74470000D03*
X150400000Y-89710000D03*
X150400000Y-87170000D03*
X150400000Y-84630000D03*
X150400000Y-82090000D03*
X150400000Y-120190000D03*
X150400000Y-117650000D03*
X150400000Y-115110000D03*
X150400000Y-112570000D03*
X150400000Y-127810000D03*
X150400000Y-130350000D03*
X150400000Y-132890000D03*
X150400000Y-135430000D03*
D15*
X127540000Y-83265000D03*
X127540000Y-87265000D03*
X130080000Y-83265000D03*
X130080000Y-87265000D03*
D16*
X132620000Y-94790000D03*
X132620000Y-96060000D03*
X132620000Y-97330000D03*
X132620000Y-98600000D03*
X132620000Y-99870000D03*
X132620000Y-101140000D03*
X132620000Y-102410000D03*
X132620000Y-103680000D03*
X132620000Y-104950000D03*
X132620000Y-106220000D03*
X132620000Y-107490000D03*
X132620000Y-108887000D03*
X140240000Y-94790000D03*
X140240000Y-96060000D03*
X140240000Y-97330000D03*
X140240000Y-98600000D03*
X140240000Y-99870000D03*
X140240000Y-101140000D03*
X140240000Y-102410000D03*
X140240000Y-103680000D03*
X140240000Y-104950000D03*
X140240000Y-106220000D03*
X140240000Y-107490000D03*
X140240000Y-108760000D03*
D17*
X142325000Y-91694000D03*
X139425000Y-91694000D03*
X139425000Y-89154000D03*
X142325000Y-89154000D03*
X152580000Y-132890000D03*
X155480000Y-132890000D03*
X135340000Y-92885000D03*
X132440000Y-92885000D03*
X152580000Y-130350000D03*
X155480000Y-130350000D03*
X155480000Y-117650000D03*
X152580000Y-117650000D03*
X152580000Y-115110000D03*
X155480000Y-115110000D03*
X155480000Y-102410000D03*
X152580000Y-102410000D03*
X152580000Y-99870000D03*
X155480000Y-99870000D03*
X155480000Y-87170000D03*
X152580000Y-87170000D03*
X152580000Y-84630000D03*
X155480000Y-84630000D03*
X155480000Y-71930000D03*
X152580000Y-71930000D03*
X152580000Y-69390000D03*
X155480000Y-69390000D03*
D18*
X163735000Y-67310000D03*
X143510000Y-95250000D03*
X143510000Y-97282000D03*
X130080000Y-114475000D03*
X156750000Y-66850000D03*
X156750000Y-82090000D03*
X156750000Y-127810000D03*
X156750000Y-112570000D03*
X156750000Y-97330000D03*
X156500000Y-136999986D03*
X128270000Y-89662000D03*
X130048000Y-97282000D03*
X130048000Y-93726000D03*
D19*
X139605000Y-81070000D02*
X139730000Y-80945000D01*
X155480000Y-132890000D02*
X155480000Y-135430000D01*
X150400000Y-135430000D02*
X155480000Y-135430000D01*
X157206002Y-135430000D02*
X155480000Y-135430000D01*
X163100000Y-135430000D02*
X157206002Y-135430000D01*
D20*
X131610000Y-80945000D02*
X135160000Y-80945000D01*
X130700000Y-80945000D02*
X131610000Y-80945000D01*
X130080000Y-81565000D02*
X130700000Y-80945000D01*
X130080000Y-83265000D02*
X130080000Y-81565000D01*
X135340000Y-89875000D02*
X135160000Y-89695000D01*
X135340000Y-92885000D02*
X135340000Y-89875000D01*
X138710000Y-80945000D02*
X139730000Y-80945000D01*
X135160000Y-80945000D02*
X138710000Y-80945000D01*
X149177000Y-64945000D02*
X163100000Y-64945000D01*
X144780000Y-69342000D02*
X149177000Y-64945000D01*
X144780000Y-79502000D02*
X144780000Y-69342000D01*
X139730000Y-80945000D02*
X143337000Y-80945000D01*
X143337000Y-80945000D02*
X144780000Y-79502000D01*
X163100000Y-64945000D02*
X163735000Y-65580000D01*
X155480000Y-135398000D02*
X155480000Y-132890000D01*
X155448000Y-135430000D02*
X155480000Y-135398000D01*
X155448000Y-135430000D02*
X150400000Y-135430000D01*
X163100000Y-135430000D02*
X155448000Y-135430000D01*
X155480000Y-132890000D02*
X155480000Y-130350000D01*
X163100000Y-135430000D02*
X163274000Y-135430000D01*
X163322000Y-135382000D02*
X163735000Y-134969000D01*
X163179000Y-120190000D02*
X163735000Y-119634000D01*
X163735000Y-134969000D02*
X163735000Y-119634000D01*
X155480000Y-115110000D02*
X155480000Y-117650000D01*
X155480000Y-120158000D02*
X155448000Y-120190000D01*
X155480000Y-117650000D02*
X155480000Y-120158000D01*
X150400000Y-120190000D02*
X155448000Y-120190000D01*
X155448000Y-120190000D02*
X163179000Y-120190000D01*
X163179000Y-104950000D02*
X163735000Y-104394000D01*
X163735000Y-119634000D02*
X163735000Y-104394000D01*
X155480000Y-99870000D02*
X155480000Y-102410000D01*
X155480000Y-104728000D02*
X155702000Y-104950000D01*
X155480000Y-102410000D02*
X155480000Y-104728000D01*
X150400000Y-104950000D02*
X155702000Y-104950000D01*
X155702000Y-104950000D02*
X163179000Y-104950000D01*
X163433000Y-89710000D02*
X163735000Y-89408000D01*
X163735000Y-104394000D02*
X163735000Y-89408000D01*
X155480000Y-84630000D02*
X155480000Y-87170000D01*
X155480000Y-89488000D02*
X155702000Y-89710000D01*
X155480000Y-87170000D02*
X155480000Y-89488000D01*
X150400000Y-89710000D02*
X155702000Y-89710000D01*
X155702000Y-89710000D02*
X163433000Y-89710000D01*
X163735000Y-73914000D02*
X163735000Y-74009000D01*
X163735000Y-73914000D02*
X163735000Y-68120000D01*
X163735000Y-89408000D02*
X163735000Y-73914000D01*
X163735000Y-74009000D02*
X163274000Y-74470000D01*
X155480000Y-69390000D02*
X155480000Y-71930000D01*
X155480000Y-74438000D02*
X155448000Y-74470000D01*
X155480000Y-71930000D02*
X155480000Y-74438000D01*
X163274000Y-74470000D02*
X155448000Y-74470000D01*
X155448000Y-74470000D02*
X150400000Y-74470000D01*
X163735000Y-65580000D02*
X163735000Y-67310000D01*
X163735000Y-67310000D02*
X163735000Y-68120000D01*
X137922000Y-82753000D02*
X139605000Y-81070000D01*
X137922000Y-86757000D02*
X137922000Y-82753000D01*
X139425000Y-87609000D02*
X139425000Y-89154000D01*
X137922000Y-86757000D02*
X138573000Y-86757000D01*
X138573000Y-86757000D02*
X139425000Y-87609000D01*
X136398000Y-86757000D02*
X135160000Y-87995000D01*
X137922000Y-86757000D02*
X136398000Y-86757000D01*
X135160000Y-87995000D02*
X135160000Y-89695000D01*
X139425000Y-91694000D02*
X139425000Y-89154000D01*
X139425000Y-91694000D02*
X139425000Y-93197000D01*
X139425000Y-93197000D02*
X139954000Y-93726000D01*
X139954000Y-94504000D02*
X140240000Y-94790000D01*
X139954000Y-93726000D02*
X139954000Y-94504000D01*
D19*
X142700000Y-96060000D02*
X142710001Y-96049999D01*
X142710001Y-96049999D02*
X143510000Y-95250000D01*
X140240000Y-96060000D02*
X142700000Y-96060000D01*
X142325000Y-91694000D02*
X143256000Y-91694000D01*
X143256000Y-91694000D02*
X143510000Y-91948000D01*
X143510000Y-91948000D02*
X143510000Y-95250000D01*
X143462000Y-97330000D02*
X143510000Y-97282000D01*
X140240000Y-97330000D02*
X143462000Y-97330000D01*
X144309999Y-96482001D02*
X143510000Y-97282000D01*
X144817999Y-95974001D02*
X144309999Y-96482001D01*
X144817999Y-90969999D02*
X144817999Y-95974001D01*
X142325000Y-89154000D02*
X143764000Y-89154000D01*
X144817999Y-90207999D02*
X144817999Y-90969999D01*
X143764000Y-89154000D02*
X144817999Y-90207999D01*
X132620000Y-94790000D02*
X132620000Y-96060000D01*
X133782000Y-94790000D02*
X132620000Y-94790000D01*
X135275000Y-94790000D02*
X133782000Y-94790000D01*
X133782000Y-108887000D02*
X137065000Y-105604000D01*
X132620000Y-108887000D02*
X133782000Y-108887000D01*
X137065000Y-105604000D02*
X137065000Y-99235000D01*
X137700000Y-98600000D02*
X140240000Y-98600000D01*
X137065000Y-99235000D02*
X137700000Y-98600000D01*
X137065000Y-96580000D02*
X135275000Y-94790000D01*
X137065000Y-99235000D02*
X137065000Y-96580000D01*
X128339999Y-97165001D02*
X127540000Y-97965000D01*
X129445000Y-96060000D02*
X128339999Y-97165001D01*
X132620000Y-96060000D02*
X129445000Y-96060000D01*
X127540000Y-97965000D02*
X126740001Y-98764999D01*
X126740001Y-110030000D02*
X126740001Y-111135001D01*
X126740001Y-98764999D02*
X126740001Y-110030000D01*
X126740001Y-111135001D02*
X130080000Y-114475000D01*
X127540000Y-83265000D02*
X127540000Y-84630000D01*
X127540000Y-84630000D02*
X128175000Y-85265000D01*
X128175000Y-85265000D02*
X129445000Y-85265000D01*
X129445000Y-85265000D02*
X130080000Y-85900000D01*
X130080000Y-85900000D02*
X130080000Y-87265000D01*
X135275000Y-94790000D02*
X135795000Y-94790000D01*
X137700000Y-92885000D02*
X137700000Y-89695000D01*
X135795000Y-94790000D02*
X137700000Y-92885000D01*
X150400000Y-66850000D02*
X156750000Y-66850000D01*
X150400000Y-82090000D02*
X156750000Y-82090000D01*
X150400000Y-127810000D02*
X156750000Y-127810000D01*
X150400000Y-112570000D02*
X156750000Y-112570000D01*
X150400000Y-97330000D02*
X156750000Y-97330000D01*
X155368630Y-136999986D02*
X156500000Y-136999986D01*
X148499986Y-136999986D02*
X155368630Y-136999986D01*
X130080000Y-118580000D02*
X148499986Y-136999986D01*
X130080000Y-114475000D02*
X130080000Y-118580000D01*
X126746000Y-93361000D02*
X126746000Y-98806000D01*
X125635000Y-92250000D02*
X126746000Y-93361000D01*
X125635000Y-83995000D02*
X125635000Y-92250000D01*
X127540000Y-83265000D02*
X126365000Y-83265000D01*
X126365000Y-83265000D02*
X125635000Y-83995000D01*
X152580000Y-69390000D02*
X150400000Y-69390000D01*
X149197919Y-69390000D02*
X150400000Y-69390000D01*
X147225000Y-69390000D02*
X149197919Y-69390000D01*
X145796000Y-70819000D02*
X147225000Y-69390000D01*
X145796000Y-97790000D02*
X145796000Y-70819000D01*
X140240000Y-99870000D02*
X143716000Y-99870000D01*
X143716000Y-99870000D02*
X145796000Y-97790000D01*
X150400000Y-71930000D02*
X152580000Y-71930000D01*
X147225000Y-71930000D02*
X150400000Y-71930000D01*
X146812000Y-72343000D02*
X147225000Y-71930000D01*
X146812000Y-98044000D02*
X146812000Y-72343000D01*
X140240000Y-101140000D02*
X143716000Y-101140000D01*
X143716000Y-101140000D02*
X146812000Y-98044000D01*
X152580000Y-84630000D02*
X150400000Y-84630000D01*
X148495000Y-84630000D02*
X150400000Y-84630000D01*
X147828000Y-85297000D02*
X148495000Y-84630000D01*
X147828000Y-98298000D02*
X147828000Y-85297000D01*
X140240000Y-102410000D02*
X143716000Y-102410000D01*
X143716000Y-102410000D02*
X147828000Y-98298000D01*
X150400000Y-87170000D02*
X152580000Y-87170000D01*
X149130000Y-87170000D02*
X150400000Y-87170000D01*
X148844000Y-87456000D02*
X149130000Y-87170000D01*
X148844000Y-98552000D02*
X148844000Y-87456000D01*
X140240000Y-103680000D02*
X143716000Y-103680000D01*
X143716000Y-103680000D02*
X148844000Y-98552000D01*
X140240000Y-104950000D02*
X144050000Y-104950000D01*
X149130000Y-99870000D02*
X150400000Y-99870000D01*
X144050000Y-104950000D02*
X149130000Y-99870000D01*
X150400000Y-99870000D02*
X152580000Y-99870000D01*
X150400000Y-102410000D02*
X152580000Y-102410000D01*
X148034000Y-102410000D02*
X150400000Y-102410000D01*
X140240000Y-106220000D02*
X144224000Y-106220000D01*
X144224000Y-106220000D02*
X148034000Y-102410000D01*
X140240000Y-107490000D02*
X144685000Y-107490000D01*
X144685000Y-107490000D02*
X147860000Y-110665000D01*
X147860000Y-112570000D02*
X150400000Y-115110000D01*
X147860000Y-110665000D02*
X147860000Y-112570000D01*
X150400000Y-115110000D02*
X152580000Y-115110000D01*
X140240000Y-108760000D02*
X144050000Y-108760000D01*
X144050000Y-108760000D02*
X146590000Y-111300000D01*
X146590000Y-111300000D02*
X146590000Y-113840000D01*
X146590000Y-113840000D02*
X150400000Y-117650000D01*
X152580000Y-117650000D02*
X150400000Y-117650000D01*
X150400000Y-130350000D02*
X152580000Y-130350000D01*
X147860000Y-127810000D02*
X150400000Y-130350000D01*
X147860000Y-118285000D02*
X147860000Y-127810000D01*
X145320000Y-115745000D02*
X147860000Y-118285000D01*
X131016000Y-107490000D02*
X130556000Y-107950000D01*
X132620000Y-107490000D02*
X131016000Y-107490000D01*
X130556000Y-107950000D02*
X130556000Y-109474000D01*
X130556000Y-109474000D02*
X131572000Y-110490000D01*
X145320000Y-112570000D02*
X145320000Y-115745000D01*
X131572000Y-110490000D02*
X143240000Y-110490000D01*
X143240000Y-110490000D02*
X145320000Y-112570000D01*
X152580000Y-132890000D02*
X150400000Y-132890000D01*
X146812000Y-129302000D02*
X150400000Y-132890000D01*
X146812000Y-118872000D02*
X146812000Y-129302000D01*
X144272000Y-116332000D02*
X146812000Y-118872000D01*
X144272000Y-113030000D02*
X144272000Y-116332000D01*
X132620000Y-106220000D02*
X131016000Y-106220000D01*
X129540000Y-107696000D02*
X129540000Y-109982000D01*
X129540000Y-109982000D02*
X131064000Y-111506000D01*
X131016000Y-106220000D02*
X129540000Y-107696000D01*
X131064000Y-111506000D02*
X142748000Y-111506000D01*
X142748000Y-111506000D02*
X144272000Y-113030000D01*
X130730000Y-89695000D02*
X130715000Y-89710000D01*
X132620000Y-89695000D02*
X130730000Y-89695000D01*
X130715000Y-89710000D02*
X128175000Y-89710000D01*
X127540000Y-89075000D02*
X127540000Y-87265000D01*
X128175000Y-89710000D02*
X127540000Y-89075000D01*
D20*
X127540000Y-88932000D02*
X128270000Y-89662000D01*
X127540000Y-87265000D02*
X127540000Y-88932000D01*
X132587000Y-89662000D02*
X132620000Y-89695000D01*
X128270000Y-89662000D02*
X132587000Y-89662000D01*
D19*
X132620000Y-97330000D02*
X130096000Y-97330000D01*
X130096000Y-97330000D02*
X130048000Y-97282000D01*
X130847999Y-92926001D02*
X130048000Y-93726000D01*
X130889000Y-92885000D02*
X130847999Y-92926001D01*
X132440000Y-92885000D02*
X130889000Y-92885000D01*
D21*
G36*
X164265001Y-64717000D02*
X163865098Y-64317098D01*
X163810145Y-64234855D01*
X163484328Y-64017151D01*
X163197012Y-63960000D01*
X163197008Y-63960000D01*
X163100000Y-63940704D01*
X163002992Y-63960000D01*
X149274007Y-63960000D01*
X149176999Y-63940704D01*
X149079991Y-63960000D01*
X149079988Y-63960000D01*
X148792672Y-64017151D01*
X148466855Y-64234855D01*
X148411902Y-64317098D01*
X144152096Y-68576904D01*
X144069856Y-68631855D01*
X144014905Y-68714095D01*
X144014902Y-68714098D01*
X143852151Y-68957673D01*
X143775704Y-69342000D01*
X143795001Y-69439013D01*
X143795000Y-79094000D01*
X142929000Y-79960000D01*
X138657440Y-79960000D01*
X138657440Y-79795000D01*
X138608157Y-79547235D01*
X138467809Y-79337191D01*
X138257765Y-79196843D01*
X138010000Y-79147560D01*
X132310000Y-79147560D01*
X132062235Y-79196843D01*
X131852191Y-79337191D01*
X131711843Y-79547235D01*
X131662560Y-79795000D01*
X131662560Y-79960000D01*
X130797006Y-79960000D01*
X130699999Y-79940704D01*
X130602992Y-79960000D01*
X130602988Y-79960000D01*
X130315672Y-80017151D01*
X129989855Y-80234855D01*
X129934900Y-80317101D01*
X129452097Y-80799904D01*
X129369856Y-80854855D01*
X129314905Y-80937095D01*
X129314902Y-80937098D01*
X129152151Y-81180673D01*
X129075704Y-81565000D01*
X129093536Y-81654650D01*
X129032235Y-81666843D01*
X128822191Y-81807191D01*
X128805378Y-81832353D01*
X128699699Y-81726673D01*
X128466310Y-81630000D01*
X127825750Y-81630000D01*
X127667000Y-81788750D01*
X127667000Y-83138000D01*
X127687000Y-83138000D01*
X127687000Y-83392000D01*
X127667000Y-83392000D01*
X127667000Y-84741250D01*
X127825750Y-84900000D01*
X128466310Y-84900000D01*
X128699699Y-84803327D01*
X128805378Y-84697647D01*
X128822191Y-84722809D01*
X129032235Y-84863157D01*
X129280000Y-84912440D01*
X130880000Y-84912440D01*
X131127765Y-84863157D01*
X131337809Y-84722809D01*
X131478157Y-84512765D01*
X131527440Y-84265000D01*
X131527440Y-82265000D01*
X131478157Y-82017235D01*
X131419868Y-81930000D01*
X131662560Y-81930000D01*
X131662560Y-82095000D01*
X131711843Y-82342765D01*
X131852191Y-82552809D01*
X132062235Y-82693157D01*
X132310000Y-82742440D01*
X136919805Y-82742440D01*
X136917704Y-82753000D01*
X136937001Y-82850013D01*
X136937000Y-85772000D01*
X136495006Y-85772000D01*
X136397999Y-85752704D01*
X136300992Y-85772000D01*
X136300988Y-85772000D01*
X136013672Y-85829151D01*
X135687855Y-86046855D01*
X135632902Y-86129098D01*
X134532098Y-87229902D01*
X134449855Y-87284855D01*
X134232151Y-87610673D01*
X134175000Y-87897989D01*
X134175000Y-87897992D01*
X134155704Y-87995000D01*
X134166159Y-88047560D01*
X133540000Y-88047560D01*
X133292235Y-88096843D01*
X133255000Y-88121723D01*
X133217765Y-88096843D01*
X132970000Y-88047560D01*
X132270000Y-88047560D01*
X132022235Y-88096843D01*
X131812191Y-88237191D01*
X131671843Y-88447235D01*
X131626140Y-88677000D01*
X131366025Y-88677000D01*
X131418327Y-88624698D01*
X131515000Y-88391309D01*
X131515000Y-87550750D01*
X131356250Y-87392000D01*
X130207000Y-87392000D01*
X130207000Y-87412000D01*
X129953000Y-87412000D01*
X129953000Y-87392000D01*
X129933000Y-87392000D01*
X129933000Y-87138000D01*
X129953000Y-87138000D01*
X129953000Y-85788750D01*
X130207000Y-85788750D01*
X130207000Y-87138000D01*
X131356250Y-87138000D01*
X131515000Y-86979250D01*
X131515000Y-86138691D01*
X131418327Y-85905302D01*
X131239699Y-85726673D01*
X131006310Y-85630000D01*
X130365750Y-85630000D01*
X130207000Y-85788750D01*
X129953000Y-85788750D01*
X129794250Y-85630000D01*
X129153690Y-85630000D01*
X128920301Y-85726673D01*
X128814622Y-85832353D01*
X128797809Y-85807191D01*
X128587765Y-85666843D01*
X128340000Y-85617560D01*
X126740000Y-85617560D01*
X126492235Y-85666843D01*
X126282191Y-85807191D01*
X126141843Y-86017235D01*
X126092560Y-86265000D01*
X126092560Y-88265000D01*
X126141843Y-88512765D01*
X126282191Y-88722809D01*
X126492235Y-88863157D01*
X126547222Y-88874094D01*
X126535704Y-88932000D01*
X126612151Y-89316327D01*
X126774902Y-89559902D01*
X126774905Y-89559905D01*
X126829856Y-89642145D01*
X126835000Y-89645582D01*
X126835000Y-89947439D01*
X127053466Y-90474862D01*
X127457138Y-90878534D01*
X127984561Y-91097000D01*
X128555439Y-91097000D01*
X129082862Y-90878534D01*
X129314396Y-90647000D01*
X131622560Y-90647000D01*
X131622560Y-90695000D01*
X131671843Y-90942765D01*
X131812191Y-91152809D01*
X132022235Y-91293157D01*
X132270000Y-91342440D01*
X132970000Y-91342440D01*
X133217765Y-91293157D01*
X133255000Y-91268277D01*
X133292235Y-91293157D01*
X133540000Y-91342440D01*
X134240000Y-91342440D01*
X134355001Y-91319565D01*
X134355000Y-91692714D01*
X134291843Y-91787235D01*
X134242560Y-92035000D01*
X134242560Y-93735000D01*
X134291843Y-93982765D01*
X134291949Y-93982924D01*
X134179699Y-93870673D01*
X133946310Y-93774000D01*
X133529682Y-93774000D01*
X133537440Y-93735000D01*
X133537440Y-92035000D01*
X133488157Y-91787235D01*
X133347809Y-91577191D01*
X133137765Y-91436843D01*
X132890000Y-91387560D01*
X131990000Y-91387560D01*
X131742235Y-91436843D01*
X131532191Y-91577191D01*
X131391843Y-91787235D01*
X131342560Y-92035000D01*
X131342560Y-92050000D01*
X130971232Y-92050000D01*
X130888999Y-92033643D01*
X130806766Y-92050000D01*
X130806763Y-92050000D01*
X130563199Y-92098448D01*
X130286999Y-92282999D01*
X130281653Y-92291000D01*
X129762561Y-92291000D01*
X129235138Y-92509466D01*
X128831466Y-92913138D01*
X128613000Y-93440561D01*
X128613000Y-94011439D01*
X128831466Y-94538862D01*
X129235138Y-94942534D01*
X129762561Y-95161000D01*
X130333439Y-95161000D01*
X130860862Y-94942534D01*
X130886394Y-94917002D01*
X130943748Y-94917002D01*
X130785000Y-95075750D01*
X130785000Y-95297309D01*
X130837891Y-95425000D01*
X130785000Y-95552691D01*
X130785000Y-95774250D01*
X130943748Y-95932998D01*
X130785000Y-95932998D01*
X130785000Y-96034043D01*
X130333439Y-95847000D01*
X129762561Y-95847000D01*
X129235138Y-96065466D01*
X128831466Y-96469138D01*
X128613000Y-96996561D01*
X128613000Y-97567439D01*
X128831466Y-98094862D01*
X129235138Y-98498534D01*
X129762561Y-98717000D01*
X130333439Y-98717000D01*
X130772560Y-98535110D01*
X130772560Y-98981000D01*
X130821843Y-99228765D01*
X130826009Y-99235000D01*
X130821843Y-99241235D01*
X130772560Y-99489000D01*
X130772560Y-100251000D01*
X130821843Y-100498765D01*
X130826009Y-100505000D01*
X130821843Y-100511235D01*
X130772560Y-100759000D01*
X130772560Y-101521000D01*
X130821843Y-101768765D01*
X130826009Y-101775000D01*
X130821843Y-101781235D01*
X130772560Y-102029000D01*
X130772560Y-102791000D01*
X130821843Y-103038765D01*
X130826009Y-103045000D01*
X130821843Y-103051235D01*
X130772560Y-103299000D01*
X130772560Y-104061000D01*
X130821843Y-104308765D01*
X130826009Y-104315000D01*
X130821843Y-104321235D01*
X130772560Y-104569000D01*
X130772560Y-105331000D01*
X130789028Y-105413790D01*
X130690199Y-105433448D01*
X130413999Y-105617999D01*
X130367415Y-105687717D01*
X129007720Y-107047413D01*
X128937999Y-107093999D01*
X128753448Y-107370200D01*
X128705000Y-107613764D01*
X128705000Y-107613767D01*
X128688643Y-107696000D01*
X128705000Y-107778233D01*
X128705001Y-109899762D01*
X128688643Y-109982000D01*
X128753448Y-110307800D01*
X128753449Y-110307801D01*
X128938000Y-110584001D01*
X129007718Y-110630585D01*
X130415416Y-112038285D01*
X130461999Y-112108001D01*
X130531714Y-112154583D01*
X130531715Y-112154584D01*
X130612469Y-112208542D01*
X130738199Y-112292552D01*
X130981763Y-112341000D01*
X130981766Y-112341000D01*
X131063999Y-112357357D01*
X131146232Y-112341000D01*
X142402133Y-112341000D01*
X143437000Y-113375869D01*
X143437001Y-116249762D01*
X143420643Y-116332000D01*
X143485448Y-116657800D01*
X143580463Y-116800000D01*
X143670000Y-116934001D01*
X143739718Y-116980585D01*
X145977000Y-119217869D01*
X145977001Y-129219762D01*
X145960643Y-129302000D01*
X146025448Y-129627800D01*
X146025449Y-129627801D01*
X146210000Y-129904001D01*
X146279718Y-129950585D01*
X148917562Y-132588430D01*
X148915000Y-132594615D01*
X148915000Y-133185385D01*
X149141078Y-133731185D01*
X149558815Y-134148922D01*
X149585560Y-134160000D01*
X149558815Y-134171078D01*
X149141078Y-134588815D01*
X148915000Y-135134615D01*
X148915000Y-135725385D01*
X149141078Y-136271185D01*
X149558815Y-136688922D01*
X150104615Y-136915000D01*
X150695385Y-136915000D01*
X151241185Y-136688922D01*
X151515107Y-136415000D01*
X155350992Y-136415000D01*
X155448000Y-136434296D01*
X155545008Y-136415000D01*
X163371012Y-136415000D01*
X163658328Y-136357849D01*
X163984145Y-136140145D01*
X164039098Y-136057901D01*
X164265000Y-135831999D01*
X164265000Y-139265000D01*
X125735000Y-139265000D01*
X125735000Y-135651151D01*
X126797455Y-135651151D01*
X126803206Y-136383402D01*
X127045836Y-137074311D01*
X127499182Y-137649377D01*
X128114360Y-138046593D01*
X128825036Y-138223126D01*
X129554578Y-138159940D01*
X130224321Y-137863850D01*
X130762046Y-137366783D01*
X131109770Y-136722336D01*
X131230000Y-136000000D01*
X131229725Y-135964973D01*
X131172411Y-135651151D01*
X141797455Y-135651151D01*
X141803206Y-136383402D01*
X142045836Y-137074311D01*
X142499182Y-137649377D01*
X143114360Y-138046593D01*
X143825036Y-138223126D01*
X144554578Y-138159940D01*
X145224321Y-137863850D01*
X145762046Y-137366783D01*
X146109770Y-136722336D01*
X146230000Y-136000000D01*
X146229725Y-135964973D01*
X146098164Y-135244614D01*
X145740360Y-134605709D01*
X145194894Y-134117149D01*
X144520583Y-133831615D01*
X143790138Y-133779897D01*
X143082323Y-133967571D01*
X142473460Y-134374400D01*
X142029203Y-134956517D01*
X141797455Y-135651151D01*
X131172411Y-135651151D01*
X131098164Y-135244614D01*
X130740360Y-134605709D01*
X130194894Y-134117149D01*
X129520583Y-133831615D01*
X128790138Y-133779897D01*
X128082323Y-133967571D01*
X127473460Y-134374400D01*
X127029203Y-134956517D01*
X126797455Y-135651151D01*
X125735000Y-135651151D01*
X125735000Y-117442060D01*
X132492545Y-117442060D01*
X132575884Y-117695953D01*
X133140306Y-117901590D01*
X133740458Y-117875579D01*
X134174116Y-117695953D01*
X134257455Y-117442060D01*
X133375000Y-116559605D01*
X132492545Y-117442060D01*
X125735000Y-117442060D01*
X125735000Y-116145306D01*
X131853410Y-116145306D01*
X131879421Y-116745458D01*
X132059047Y-117179116D01*
X132312940Y-117262455D01*
X133195395Y-116380000D01*
X133554605Y-116380000D01*
X134437060Y-117262455D01*
X134585879Y-117213606D01*
X134594884Y-117235346D01*
X135019654Y-117660116D01*
X135574642Y-117890000D01*
X136175358Y-117890000D01*
X136730346Y-117660116D01*
X137125000Y-117265462D01*
X137519654Y-117660116D01*
X138074642Y-117890000D01*
X138675358Y-117890000D01*
X139230346Y-117660116D01*
X139399496Y-117490966D01*
X139401843Y-117502765D01*
X139542191Y-117712809D01*
X139752235Y-117853157D01*
X140000000Y-117902440D01*
X141750000Y-117902440D01*
X141997765Y-117853157D01*
X142207809Y-117712809D01*
X142348157Y-117502765D01*
X142397440Y-117255000D01*
X142397440Y-115505000D01*
X142348157Y-115257235D01*
X142207809Y-115047191D01*
X141997765Y-114906843D01*
X141750000Y-114857560D01*
X140000000Y-114857560D01*
X139752235Y-114906843D01*
X139542191Y-115047191D01*
X139401843Y-115257235D01*
X139399496Y-115269034D01*
X139230346Y-115099884D01*
X138675358Y-114870000D01*
X138074642Y-114870000D01*
X137519654Y-115099884D01*
X137125000Y-115494538D01*
X136730346Y-115099884D01*
X136175358Y-114870000D01*
X135574642Y-114870000D01*
X135019654Y-115099884D01*
X134594884Y-115524654D01*
X134585879Y-115546394D01*
X134437060Y-115497545D01*
X133554605Y-116380000D01*
X133195395Y-116380000D01*
X132312940Y-115497545D01*
X132059047Y-115580884D01*
X131853410Y-116145306D01*
X125735000Y-116145306D01*
X125735000Y-115317940D01*
X132492545Y-115317940D01*
X133375000Y-116200395D01*
X134257455Y-115317940D01*
X134174116Y-115064047D01*
X133609694Y-114858410D01*
X133009542Y-114884421D01*
X132575884Y-115064047D01*
X132492545Y-115317940D01*
X125735000Y-115317940D01*
X125735000Y-83550750D01*
X126105000Y-83550750D01*
X126105000Y-84391309D01*
X126201673Y-84624698D01*
X126380301Y-84803327D01*
X126613690Y-84900000D01*
X127254250Y-84900000D01*
X127413000Y-84741250D01*
X127413000Y-83392000D01*
X126263750Y-83392000D01*
X126105000Y-83550750D01*
X125735000Y-83550750D01*
X125735000Y-82138691D01*
X126105000Y-82138691D01*
X126105000Y-82979250D01*
X126263750Y-83138000D01*
X127413000Y-83138000D01*
X127413000Y-81788750D01*
X127254250Y-81630000D01*
X126613690Y-81630000D01*
X126380301Y-81726673D01*
X126201673Y-81905302D01*
X126105000Y-82138691D01*
X125735000Y-82138691D01*
X125735000Y-63651151D01*
X126797455Y-63651151D01*
X126803206Y-64383402D01*
X127045836Y-65074311D01*
X127499182Y-65649377D01*
X128114360Y-66046593D01*
X128825036Y-66223126D01*
X129554578Y-66159940D01*
X130224321Y-65863850D01*
X130762046Y-65366783D01*
X131109770Y-64722336D01*
X131230000Y-64000000D01*
X131229725Y-63964973D01*
X131172411Y-63651151D01*
X141797455Y-63651151D01*
X141803206Y-64383402D01*
X142045836Y-65074311D01*
X142499182Y-65649377D01*
X143114360Y-66046593D01*
X143825036Y-66223126D01*
X144554578Y-66159940D01*
X145224321Y-65863850D01*
X145762046Y-65366783D01*
X146109770Y-64722336D01*
X146230000Y-64000000D01*
X146229725Y-63964973D01*
X146098164Y-63244614D01*
X145740360Y-62605709D01*
X145194894Y-62117149D01*
X144520583Y-61831615D01*
X143790138Y-61779897D01*
X143082323Y-61967571D01*
X142473460Y-62374400D01*
X142029203Y-62956517D01*
X141797455Y-63651151D01*
X131172411Y-63651151D01*
X131098164Y-63244614D01*
X130740360Y-62605709D01*
X130194894Y-62117149D01*
X129520583Y-61831615D01*
X128790138Y-61779897D01*
X128082323Y-61967571D01*
X127473460Y-62374400D01*
X127029203Y-62956517D01*
X126797455Y-63651151D01*
X125735000Y-63651151D01*
X125735000Y-60735000D01*
X164265001Y-60735000D01*
X164265001Y-64717000D01*
X164265001Y-64717000D01*
G37*
X164265001Y-64717000D02*
X163865098Y-64317098D01*
X163810145Y-64234855D01*
X163484328Y-64017151D01*
X163197012Y-63960000D01*
X163197008Y-63960000D01*
X163100000Y-63940704D01*
X163002992Y-63960000D01*
X149274007Y-63960000D01*
X149176999Y-63940704D01*
X149079991Y-63960000D01*
X149079988Y-63960000D01*
X148792672Y-64017151D01*
X148466855Y-64234855D01*
X148411902Y-64317098D01*
X144152096Y-68576904D01*
X144069856Y-68631855D01*
X144014905Y-68714095D01*
X144014902Y-68714098D01*
X143852151Y-68957673D01*
X143775704Y-69342000D01*
X143795001Y-69439013D01*
X143795000Y-79094000D01*
X142929000Y-79960000D01*
X138657440Y-79960000D01*
X138657440Y-79795000D01*
X138608157Y-79547235D01*
X138467809Y-79337191D01*
X138257765Y-79196843D01*
X138010000Y-79147560D01*
X132310000Y-79147560D01*
X132062235Y-79196843D01*
X131852191Y-79337191D01*
X131711843Y-79547235D01*
X131662560Y-79795000D01*
X131662560Y-79960000D01*
X130797006Y-79960000D01*
X130699999Y-79940704D01*
X130602992Y-79960000D01*
X130602988Y-79960000D01*
X130315672Y-80017151D01*
X129989855Y-80234855D01*
X129934900Y-80317101D01*
X129452097Y-80799904D01*
X129369856Y-80854855D01*
X129314905Y-80937095D01*
X129314902Y-80937098D01*
X129152151Y-81180673D01*
X129075704Y-81565000D01*
X129093536Y-81654650D01*
X129032235Y-81666843D01*
X128822191Y-81807191D01*
X128805378Y-81832353D01*
X128699699Y-81726673D01*
X128466310Y-81630000D01*
X127825750Y-81630000D01*
X127667000Y-81788750D01*
X127667000Y-83138000D01*
X127687000Y-83138000D01*
X127687000Y-83392000D01*
X127667000Y-83392000D01*
X127667000Y-84741250D01*
X127825750Y-84900000D01*
X128466310Y-84900000D01*
X128699699Y-84803327D01*
X128805378Y-84697647D01*
X128822191Y-84722809D01*
X129032235Y-84863157D01*
X129280000Y-84912440D01*
X130880000Y-84912440D01*
X131127765Y-84863157D01*
X131337809Y-84722809D01*
X131478157Y-84512765D01*
X131527440Y-84265000D01*
X131527440Y-82265000D01*
X131478157Y-82017235D01*
X131419868Y-81930000D01*
X131662560Y-81930000D01*
X131662560Y-82095000D01*
X131711843Y-82342765D01*
X131852191Y-82552809D01*
X132062235Y-82693157D01*
X132310000Y-82742440D01*
X136919805Y-82742440D01*
X136917704Y-82753000D01*
X136937001Y-82850013D01*
X136937000Y-85772000D01*
X136495006Y-85772000D01*
X136397999Y-85752704D01*
X136300992Y-85772000D01*
X136300988Y-85772000D01*
X136013672Y-85829151D01*
X135687855Y-86046855D01*
X135632902Y-86129098D01*
X134532098Y-87229902D01*
X134449855Y-87284855D01*
X134232151Y-87610673D01*
X134175000Y-87897989D01*
X134175000Y-87897992D01*
X134155704Y-87995000D01*
X134166159Y-88047560D01*
X133540000Y-88047560D01*
X133292235Y-88096843D01*
X133255000Y-88121723D01*
X133217765Y-88096843D01*
X132970000Y-88047560D01*
X132270000Y-88047560D01*
X132022235Y-88096843D01*
X131812191Y-88237191D01*
X131671843Y-88447235D01*
X131626140Y-88677000D01*
X131366025Y-88677000D01*
X131418327Y-88624698D01*
X131515000Y-88391309D01*
X131515000Y-87550750D01*
X131356250Y-87392000D01*
X130207000Y-87392000D01*
X130207000Y-87412000D01*
X129953000Y-87412000D01*
X129953000Y-87392000D01*
X129933000Y-87392000D01*
X129933000Y-87138000D01*
X129953000Y-87138000D01*
X129953000Y-85788750D01*
X130207000Y-85788750D01*
X130207000Y-87138000D01*
X131356250Y-87138000D01*
X131515000Y-86979250D01*
X131515000Y-86138691D01*
X131418327Y-85905302D01*
X131239699Y-85726673D01*
X131006310Y-85630000D01*
X130365750Y-85630000D01*
X130207000Y-85788750D01*
X129953000Y-85788750D01*
X129794250Y-85630000D01*
X129153690Y-85630000D01*
X128920301Y-85726673D01*
X128814622Y-85832353D01*
X128797809Y-85807191D01*
X128587765Y-85666843D01*
X128340000Y-85617560D01*
X126740000Y-85617560D01*
X126492235Y-85666843D01*
X126282191Y-85807191D01*
X126141843Y-86017235D01*
X126092560Y-86265000D01*
X126092560Y-88265000D01*
X126141843Y-88512765D01*
X126282191Y-88722809D01*
X126492235Y-88863157D01*
X126547222Y-88874094D01*
X126535704Y-88932000D01*
X126612151Y-89316327D01*
X126774902Y-89559902D01*
X126774905Y-89559905D01*
X126829856Y-89642145D01*
X126835000Y-89645582D01*
X126835000Y-89947439D01*
X127053466Y-90474862D01*
X127457138Y-90878534D01*
X127984561Y-91097000D01*
X128555439Y-91097000D01*
X129082862Y-90878534D01*
X129314396Y-90647000D01*
X131622560Y-90647000D01*
X131622560Y-90695000D01*
X131671843Y-90942765D01*
X131812191Y-91152809D01*
X132022235Y-91293157D01*
X132270000Y-91342440D01*
X132970000Y-91342440D01*
X133217765Y-91293157D01*
X133255000Y-91268277D01*
X133292235Y-91293157D01*
X133540000Y-91342440D01*
X134240000Y-91342440D01*
X134355001Y-91319565D01*
X134355000Y-91692714D01*
X134291843Y-91787235D01*
X134242560Y-92035000D01*
X134242560Y-93735000D01*
X134291843Y-93982765D01*
X134291949Y-93982924D01*
X134179699Y-93870673D01*
X133946310Y-93774000D01*
X133529682Y-93774000D01*
X133537440Y-93735000D01*
X133537440Y-92035000D01*
X133488157Y-91787235D01*
X133347809Y-91577191D01*
X133137765Y-91436843D01*
X132890000Y-91387560D01*
X131990000Y-91387560D01*
X131742235Y-91436843D01*
X131532191Y-91577191D01*
X131391843Y-91787235D01*
X131342560Y-92035000D01*
X131342560Y-92050000D01*
X130971232Y-92050000D01*
X130888999Y-92033643D01*
X130806766Y-92050000D01*
X130806763Y-92050000D01*
X130563199Y-92098448D01*
X130286999Y-92282999D01*
X130281653Y-92291000D01*
X129762561Y-92291000D01*
X129235138Y-92509466D01*
X128831466Y-92913138D01*
X128613000Y-93440561D01*
X128613000Y-94011439D01*
X128831466Y-94538862D01*
X129235138Y-94942534D01*
X129762561Y-95161000D01*
X130333439Y-95161000D01*
X130860862Y-94942534D01*
X130886394Y-94917002D01*
X130943748Y-94917002D01*
X130785000Y-95075750D01*
X130785000Y-95297309D01*
X130837891Y-95425000D01*
X130785000Y-95552691D01*
X130785000Y-95774250D01*
X130943748Y-95932998D01*
X130785000Y-95932998D01*
X130785000Y-96034043D01*
X130333439Y-95847000D01*
X129762561Y-95847000D01*
X129235138Y-96065466D01*
X128831466Y-96469138D01*
X128613000Y-96996561D01*
X128613000Y-97567439D01*
X128831466Y-98094862D01*
X129235138Y-98498534D01*
X129762561Y-98717000D01*
X130333439Y-98717000D01*
X130772560Y-98535110D01*
X130772560Y-98981000D01*
X130821843Y-99228765D01*
X130826009Y-99235000D01*
X130821843Y-99241235D01*
X130772560Y-99489000D01*
X130772560Y-100251000D01*
X130821843Y-100498765D01*
X130826009Y-100505000D01*
X130821843Y-100511235D01*
X130772560Y-100759000D01*
X130772560Y-101521000D01*
X130821843Y-101768765D01*
X130826009Y-101775000D01*
X130821843Y-101781235D01*
X130772560Y-102029000D01*
X130772560Y-102791000D01*
X130821843Y-103038765D01*
X130826009Y-103045000D01*
X130821843Y-103051235D01*
X130772560Y-103299000D01*
X130772560Y-104061000D01*
X130821843Y-104308765D01*
X130826009Y-104315000D01*
X130821843Y-104321235D01*
X130772560Y-104569000D01*
X130772560Y-105331000D01*
X130789028Y-105413790D01*
X130690199Y-105433448D01*
X130413999Y-105617999D01*
X130367415Y-105687717D01*
X129007720Y-107047413D01*
X128937999Y-107093999D01*
X128753448Y-107370200D01*
X128705000Y-107613764D01*
X128705000Y-107613767D01*
X128688643Y-107696000D01*
X128705000Y-107778233D01*
X128705001Y-109899762D01*
X128688643Y-109982000D01*
X128753448Y-110307800D01*
X128753449Y-110307801D01*
X128938000Y-110584001D01*
X129007718Y-110630585D01*
X130415416Y-112038285D01*
X130461999Y-112108001D01*
X130531714Y-112154583D01*
X130531715Y-112154584D01*
X130612469Y-112208542D01*
X130738199Y-112292552D01*
X130981763Y-112341000D01*
X130981766Y-112341000D01*
X131063999Y-112357357D01*
X131146232Y-112341000D01*
X142402133Y-112341000D01*
X143437000Y-113375869D01*
X143437001Y-116249762D01*
X143420643Y-116332000D01*
X143485448Y-116657800D01*
X143580463Y-116800000D01*
X143670000Y-116934001D01*
X143739718Y-116980585D01*
X145977000Y-119217869D01*
X145977001Y-129219762D01*
X145960643Y-129302000D01*
X146025448Y-129627800D01*
X146025449Y-129627801D01*
X146210000Y-129904001D01*
X146279718Y-129950585D01*
X148917562Y-132588430D01*
X148915000Y-132594615D01*
X148915000Y-133185385D01*
X149141078Y-133731185D01*
X149558815Y-134148922D01*
X149585560Y-134160000D01*
X149558815Y-134171078D01*
X149141078Y-134588815D01*
X148915000Y-135134615D01*
X148915000Y-135725385D01*
X149141078Y-136271185D01*
X149558815Y-136688922D01*
X150104615Y-136915000D01*
X150695385Y-136915000D01*
X151241185Y-136688922D01*
X151515107Y-136415000D01*
X155350992Y-136415000D01*
X155448000Y-136434296D01*
X155545008Y-136415000D01*
X163371012Y-136415000D01*
X163658328Y-136357849D01*
X163984145Y-136140145D01*
X164039098Y-136057901D01*
X164265000Y-135831999D01*
X164265000Y-139265000D01*
X125735000Y-139265000D01*
X125735000Y-135651151D01*
X126797455Y-135651151D01*
X126803206Y-136383402D01*
X127045836Y-137074311D01*
X127499182Y-137649377D01*
X128114360Y-138046593D01*
X128825036Y-138223126D01*
X129554578Y-138159940D01*
X130224321Y-137863850D01*
X130762046Y-137366783D01*
X131109770Y-136722336D01*
X131230000Y-136000000D01*
X131229725Y-135964973D01*
X131172411Y-135651151D01*
X141797455Y-135651151D01*
X141803206Y-136383402D01*
X142045836Y-137074311D01*
X142499182Y-137649377D01*
X143114360Y-138046593D01*
X143825036Y-138223126D01*
X144554578Y-138159940D01*
X145224321Y-137863850D01*
X145762046Y-137366783D01*
X146109770Y-136722336D01*
X146230000Y-136000000D01*
X146229725Y-135964973D01*
X146098164Y-135244614D01*
X145740360Y-134605709D01*
X145194894Y-134117149D01*
X144520583Y-133831615D01*
X143790138Y-133779897D01*
X143082323Y-133967571D01*
X142473460Y-134374400D01*
X142029203Y-134956517D01*
X141797455Y-135651151D01*
X131172411Y-135651151D01*
X131098164Y-135244614D01*
X130740360Y-134605709D01*
X130194894Y-134117149D01*
X129520583Y-133831615D01*
X128790138Y-133779897D01*
X128082323Y-133967571D01*
X127473460Y-134374400D01*
X127029203Y-134956517D01*
X126797455Y-135651151D01*
X125735000Y-135651151D01*
X125735000Y-117442060D01*
X132492545Y-117442060D01*
X132575884Y-117695953D01*
X133140306Y-117901590D01*
X133740458Y-117875579D01*
X134174116Y-117695953D01*
X134257455Y-117442060D01*
X133375000Y-116559605D01*
X132492545Y-117442060D01*
X125735000Y-117442060D01*
X125735000Y-116145306D01*
X131853410Y-116145306D01*
X131879421Y-116745458D01*
X132059047Y-117179116D01*
X132312940Y-117262455D01*
X133195395Y-116380000D01*
X133554605Y-116380000D01*
X134437060Y-117262455D01*
X134585879Y-117213606D01*
X134594884Y-117235346D01*
X135019654Y-117660116D01*
X135574642Y-117890000D01*
X136175358Y-117890000D01*
X136730346Y-117660116D01*
X137125000Y-117265462D01*
X137519654Y-117660116D01*
X138074642Y-117890000D01*
X138675358Y-117890000D01*
X139230346Y-117660116D01*
X139399496Y-117490966D01*
X139401843Y-117502765D01*
X139542191Y-117712809D01*
X139752235Y-117853157D01*
X140000000Y-117902440D01*
X141750000Y-117902440D01*
X141997765Y-117853157D01*
X142207809Y-117712809D01*
X142348157Y-117502765D01*
X142397440Y-117255000D01*
X142397440Y-115505000D01*
X142348157Y-115257235D01*
X142207809Y-115047191D01*
X141997765Y-114906843D01*
X141750000Y-114857560D01*
X140000000Y-114857560D01*
X139752235Y-114906843D01*
X139542191Y-115047191D01*
X139401843Y-115257235D01*
X139399496Y-115269034D01*
X139230346Y-115099884D01*
X138675358Y-114870000D01*
X138074642Y-114870000D01*
X137519654Y-115099884D01*
X137125000Y-115494538D01*
X136730346Y-115099884D01*
X136175358Y-114870000D01*
X135574642Y-114870000D01*
X135019654Y-115099884D01*
X134594884Y-115524654D01*
X134585879Y-115546394D01*
X134437060Y-115497545D01*
X133554605Y-116380000D01*
X133195395Y-116380000D01*
X132312940Y-115497545D01*
X132059047Y-115580884D01*
X131853410Y-116145306D01*
X125735000Y-116145306D01*
X125735000Y-115317940D01*
X132492545Y-115317940D01*
X133375000Y-116200395D01*
X134257455Y-115317940D01*
X134174116Y-115064047D01*
X133609694Y-114858410D01*
X133009542Y-114884421D01*
X132575884Y-115064047D01*
X132492545Y-115317940D01*
X125735000Y-115317940D01*
X125735000Y-83550750D01*
X126105000Y-83550750D01*
X126105000Y-84391309D01*
X126201673Y-84624698D01*
X126380301Y-84803327D01*
X126613690Y-84900000D01*
X127254250Y-84900000D01*
X127413000Y-84741250D01*
X127413000Y-83392000D01*
X126263750Y-83392000D01*
X126105000Y-83550750D01*
X125735000Y-83550750D01*
X125735000Y-82138691D01*
X126105000Y-82138691D01*
X126105000Y-82979250D01*
X126263750Y-83138000D01*
X127413000Y-83138000D01*
X127413000Y-81788750D01*
X127254250Y-81630000D01*
X126613690Y-81630000D01*
X126380301Y-81726673D01*
X126201673Y-81905302D01*
X126105000Y-82138691D01*
X125735000Y-82138691D01*
X125735000Y-63651151D01*
X126797455Y-63651151D01*
X126803206Y-64383402D01*
X127045836Y-65074311D01*
X127499182Y-65649377D01*
X128114360Y-66046593D01*
X128825036Y-66223126D01*
X129554578Y-66159940D01*
X130224321Y-65863850D01*
X130762046Y-65366783D01*
X131109770Y-64722336D01*
X131230000Y-64000000D01*
X131229725Y-63964973D01*
X131172411Y-63651151D01*
X141797455Y-63651151D01*
X141803206Y-64383402D01*
X142045836Y-65074311D01*
X142499182Y-65649377D01*
X143114360Y-66046593D01*
X143825036Y-66223126D01*
X144554578Y-66159940D01*
X145224321Y-65863850D01*
X145762046Y-65366783D01*
X146109770Y-64722336D01*
X146230000Y-64000000D01*
X146229725Y-63964973D01*
X146098164Y-63244614D01*
X145740360Y-62605709D01*
X145194894Y-62117149D01*
X144520583Y-61831615D01*
X143790138Y-61779897D01*
X143082323Y-61967571D01*
X142473460Y-62374400D01*
X142029203Y-62956517D01*
X141797455Y-63651151D01*
X131172411Y-63651151D01*
X131098164Y-63244614D01*
X130740360Y-62605709D01*
X130194894Y-62117149D01*
X129520583Y-61831615D01*
X128790138Y-61779897D01*
X128082323Y-61967571D01*
X127473460Y-62374400D01*
X127029203Y-62956517D01*
X126797455Y-63651151D01*
X125735000Y-63651151D01*
X125735000Y-60735000D01*
X164265001Y-60735000D01*
X164265001Y-64717000D01*
G36*
X148917562Y-117348430D02*
X148915000Y-117354615D01*
X148915000Y-117945385D01*
X149141078Y-118491185D01*
X149558815Y-118908922D01*
X149585560Y-118920000D01*
X149558815Y-118931078D01*
X149141078Y-119348815D01*
X148915000Y-119894615D01*
X148915000Y-120485385D01*
X149141078Y-121031185D01*
X149558815Y-121448922D01*
X150104615Y-121675000D01*
X150695385Y-121675000D01*
X151241185Y-121448922D01*
X151515107Y-121175000D01*
X155350992Y-121175000D01*
X155448000Y-121194296D01*
X155545008Y-121175000D01*
X162750001Y-121175000D01*
X162750000Y-134445000D01*
X156465000Y-134445000D01*
X156465000Y-134082285D01*
X156528157Y-133987765D01*
X156577440Y-133740000D01*
X156577440Y-132040000D01*
X156528157Y-131792235D01*
X156465000Y-131697715D01*
X156465000Y-131542285D01*
X156528157Y-131447765D01*
X156577440Y-131200000D01*
X156577440Y-129500000D01*
X156528157Y-129252235D01*
X156387809Y-129042191D01*
X156177765Y-128901843D01*
X155930000Y-128852560D01*
X155030000Y-128852560D01*
X154782235Y-128901843D01*
X154572191Y-129042191D01*
X154431843Y-129252235D01*
X154382560Y-129500000D01*
X154382560Y-131200000D01*
X154431843Y-131447765D01*
X154495001Y-131542286D01*
X154495000Y-131697714D01*
X154431843Y-131792235D01*
X154382560Y-132040000D01*
X154382560Y-133740000D01*
X154431843Y-133987765D01*
X154495001Y-134082286D01*
X154495000Y-134445000D01*
X151515107Y-134445000D01*
X151241185Y-134171078D01*
X151214440Y-134160000D01*
X151241185Y-134148922D01*
X151510358Y-133879749D01*
X151531843Y-133987765D01*
X151672191Y-134197809D01*
X151882235Y-134338157D01*
X152130000Y-134387440D01*
X153030000Y-134387440D01*
X153277765Y-134338157D01*
X153487809Y-134197809D01*
X153628157Y-133987765D01*
X153677440Y-133740000D01*
X153677440Y-132040000D01*
X153628157Y-131792235D01*
X153513072Y-131620000D01*
X153628157Y-131447765D01*
X153677440Y-131200000D01*
X153677440Y-129500000D01*
X153628157Y-129252235D01*
X153487809Y-129042191D01*
X153277765Y-128901843D01*
X153030000Y-128852560D01*
X152130000Y-128852560D01*
X151882235Y-128901843D01*
X151672191Y-129042191D01*
X151531843Y-129252235D01*
X151510358Y-129360251D01*
X151241185Y-129091078D01*
X151194753Y-129071845D01*
X151264353Y-128853958D01*
X150400000Y-127989605D01*
X150385858Y-128003748D01*
X150206253Y-127824143D01*
X150220395Y-127810000D01*
X150579605Y-127810000D01*
X151443958Y-128674353D01*
X151695259Y-128594080D01*
X151896718Y-128038721D01*
X151870315Y-127448542D01*
X151695259Y-127025920D01*
X151443958Y-126945647D01*
X150579605Y-127810000D01*
X150220395Y-127810000D01*
X149356042Y-126945647D01*
X149104741Y-127025920D01*
X148903282Y-127581279D01*
X148907550Y-127676683D01*
X148695000Y-127464133D01*
X148695000Y-126766042D01*
X149535647Y-126766042D01*
X150400000Y-127630395D01*
X151264353Y-126766042D01*
X151184080Y-126514741D01*
X150628721Y-126313282D01*
X150038542Y-126339685D01*
X149615920Y-126514741D01*
X149535647Y-126766042D01*
X148695000Y-126766042D01*
X148695000Y-118367232D01*
X148711357Y-118284999D01*
X148695000Y-118202764D01*
X148695000Y-118202763D01*
X148646552Y-117959199D01*
X148462001Y-117682999D01*
X148392286Y-117636417D01*
X146155000Y-115399133D01*
X146155000Y-114585867D01*
X148917562Y-117348430D01*
X148917562Y-117348430D01*
G37*
X148917562Y-117348430D02*
X148915000Y-117354615D01*
X148915000Y-117945385D01*
X149141078Y-118491185D01*
X149558815Y-118908922D01*
X149585560Y-118920000D01*
X149558815Y-118931078D01*
X149141078Y-119348815D01*
X148915000Y-119894615D01*
X148915000Y-120485385D01*
X149141078Y-121031185D01*
X149558815Y-121448922D01*
X150104615Y-121675000D01*
X150695385Y-121675000D01*
X151241185Y-121448922D01*
X151515107Y-121175000D01*
X155350992Y-121175000D01*
X155448000Y-121194296D01*
X155545008Y-121175000D01*
X162750001Y-121175000D01*
X162750000Y-134445000D01*
X156465000Y-134445000D01*
X156465000Y-134082285D01*
X156528157Y-133987765D01*
X156577440Y-133740000D01*
X156577440Y-132040000D01*
X156528157Y-131792235D01*
X156465000Y-131697715D01*
X156465000Y-131542285D01*
X156528157Y-131447765D01*
X156577440Y-131200000D01*
X156577440Y-129500000D01*
X156528157Y-129252235D01*
X156387809Y-129042191D01*
X156177765Y-128901843D01*
X155930000Y-128852560D01*
X155030000Y-128852560D01*
X154782235Y-128901843D01*
X154572191Y-129042191D01*
X154431843Y-129252235D01*
X154382560Y-129500000D01*
X154382560Y-131200000D01*
X154431843Y-131447765D01*
X154495001Y-131542286D01*
X154495000Y-131697714D01*
X154431843Y-131792235D01*
X154382560Y-132040000D01*
X154382560Y-133740000D01*
X154431843Y-133987765D01*
X154495001Y-134082286D01*
X154495000Y-134445000D01*
X151515107Y-134445000D01*
X151241185Y-134171078D01*
X151214440Y-134160000D01*
X151241185Y-134148922D01*
X151510358Y-133879749D01*
X151531843Y-133987765D01*
X151672191Y-134197809D01*
X151882235Y-134338157D01*
X152130000Y-134387440D01*
X153030000Y-134387440D01*
X153277765Y-134338157D01*
X153487809Y-134197809D01*
X153628157Y-133987765D01*
X153677440Y-133740000D01*
X153677440Y-132040000D01*
X153628157Y-131792235D01*
X153513072Y-131620000D01*
X153628157Y-131447765D01*
X153677440Y-131200000D01*
X153677440Y-129500000D01*
X153628157Y-129252235D01*
X153487809Y-129042191D01*
X153277765Y-128901843D01*
X153030000Y-128852560D01*
X152130000Y-128852560D01*
X151882235Y-128901843D01*
X151672191Y-129042191D01*
X151531843Y-129252235D01*
X151510358Y-129360251D01*
X151241185Y-129091078D01*
X151194753Y-129071845D01*
X151264353Y-128853958D01*
X150400000Y-127989605D01*
X150385858Y-128003748D01*
X150206253Y-127824143D01*
X150220395Y-127810000D01*
X150579605Y-127810000D01*
X151443958Y-128674353D01*
X151695259Y-128594080D01*
X151896718Y-128038721D01*
X151870315Y-127448542D01*
X151695259Y-127025920D01*
X151443958Y-126945647D01*
X150579605Y-127810000D01*
X150220395Y-127810000D01*
X149356042Y-126945647D01*
X149104741Y-127025920D01*
X148903282Y-127581279D01*
X148907550Y-127676683D01*
X148695000Y-127464133D01*
X148695000Y-126766042D01*
X149535647Y-126766042D01*
X150400000Y-127630395D01*
X151264353Y-126766042D01*
X151184080Y-126514741D01*
X150628721Y-126313282D01*
X150038542Y-126339685D01*
X149615920Y-126514741D01*
X149535647Y-126766042D01*
X148695000Y-126766042D01*
X148695000Y-118367232D01*
X148711357Y-118284999D01*
X148695000Y-118202764D01*
X148695000Y-118202763D01*
X148646552Y-117959199D01*
X148462001Y-117682999D01*
X148392286Y-117636417D01*
X146155000Y-115399133D01*
X146155000Y-114585867D01*
X148917562Y-117348430D01*
G36*
X149141078Y-103251185D02*
X149558815Y-103668922D01*
X149585560Y-103680000D01*
X149558815Y-103691078D01*
X149141078Y-104108815D01*
X148915000Y-104654615D01*
X148915000Y-105245385D01*
X149141078Y-105791185D01*
X149558815Y-106208922D01*
X150104615Y-106435000D01*
X150695385Y-106435000D01*
X151241185Y-106208922D01*
X151515107Y-105935000D01*
X155604992Y-105935000D01*
X155701999Y-105954296D01*
X155799006Y-105935000D01*
X162750001Y-105935000D01*
X162750000Y-119205000D01*
X156465000Y-119205000D01*
X156465000Y-118842285D01*
X156528157Y-118747765D01*
X156577440Y-118500000D01*
X156577440Y-116800000D01*
X156528157Y-116552235D01*
X156465000Y-116457715D01*
X156465000Y-116302285D01*
X156528157Y-116207765D01*
X156577440Y-115960000D01*
X156577440Y-114260000D01*
X156528157Y-114012235D01*
X156387809Y-113802191D01*
X156177765Y-113661843D01*
X155930000Y-113612560D01*
X155030000Y-113612560D01*
X154782235Y-113661843D01*
X154572191Y-113802191D01*
X154431843Y-114012235D01*
X154382560Y-114260000D01*
X154382560Y-115960000D01*
X154431843Y-116207765D01*
X154495000Y-116302286D01*
X154495001Y-116457714D01*
X154431843Y-116552235D01*
X154382560Y-116800000D01*
X154382560Y-118500000D01*
X154431843Y-118747765D01*
X154495000Y-118842286D01*
X154495001Y-119205000D01*
X151515107Y-119205000D01*
X151241185Y-118931078D01*
X151214440Y-118920000D01*
X151241185Y-118908922D01*
X151510358Y-118639749D01*
X151531843Y-118747765D01*
X151672191Y-118957809D01*
X151882235Y-119098157D01*
X152130000Y-119147440D01*
X153030000Y-119147440D01*
X153277765Y-119098157D01*
X153487809Y-118957809D01*
X153628157Y-118747765D01*
X153677440Y-118500000D01*
X153677440Y-116800000D01*
X153628157Y-116552235D01*
X153513072Y-116380000D01*
X153628157Y-116207765D01*
X153677440Y-115960000D01*
X153677440Y-114260000D01*
X153628157Y-114012235D01*
X153487809Y-113802191D01*
X153277765Y-113661843D01*
X153030000Y-113612560D01*
X152130000Y-113612560D01*
X151882235Y-113661843D01*
X151672191Y-113802191D01*
X151531843Y-114012235D01*
X151510358Y-114120251D01*
X151241185Y-113851078D01*
X151194753Y-113831845D01*
X151264353Y-113613958D01*
X150400000Y-112749605D01*
X150385858Y-112763748D01*
X150206253Y-112584143D01*
X150220395Y-112570000D01*
X150579605Y-112570000D01*
X151443958Y-113434353D01*
X151695259Y-113354080D01*
X151896718Y-112798721D01*
X151870315Y-112208542D01*
X151695259Y-111785920D01*
X151443958Y-111705647D01*
X150579605Y-112570000D01*
X150220395Y-112570000D01*
X149356042Y-111705647D01*
X149104741Y-111785920D01*
X148903282Y-112341279D01*
X148907550Y-112436683D01*
X148695000Y-112224133D01*
X148695000Y-111526042D01*
X149535647Y-111526042D01*
X150400000Y-112390395D01*
X151264353Y-111526042D01*
X151184080Y-111274741D01*
X150628721Y-111073282D01*
X150038542Y-111099685D01*
X149615920Y-111274741D01*
X149535647Y-111526042D01*
X148695000Y-111526042D01*
X148695000Y-110747232D01*
X148711357Y-110664999D01*
X148695000Y-110582764D01*
X148695000Y-110582763D01*
X148646552Y-110339199D01*
X148462001Y-110062999D01*
X148392283Y-110016415D01*
X145333587Y-106957720D01*
X145287001Y-106887999D01*
X145010801Y-106703448D01*
X144936248Y-106688619D01*
X148379868Y-103245000D01*
X149138516Y-103245000D01*
X149141078Y-103251185D01*
X149141078Y-103251185D01*
G37*
X149141078Y-103251185D02*
X149558815Y-103668922D01*
X149585560Y-103680000D01*
X149558815Y-103691078D01*
X149141078Y-104108815D01*
X148915000Y-104654615D01*
X148915000Y-105245385D01*
X149141078Y-105791185D01*
X149558815Y-106208922D01*
X150104615Y-106435000D01*
X150695385Y-106435000D01*
X151241185Y-106208922D01*
X151515107Y-105935000D01*
X155604992Y-105935000D01*
X155701999Y-105954296D01*
X155799006Y-105935000D01*
X162750001Y-105935000D01*
X162750000Y-119205000D01*
X156465000Y-119205000D01*
X156465000Y-118842285D01*
X156528157Y-118747765D01*
X156577440Y-118500000D01*
X156577440Y-116800000D01*
X156528157Y-116552235D01*
X156465000Y-116457715D01*
X156465000Y-116302285D01*
X156528157Y-116207765D01*
X156577440Y-115960000D01*
X156577440Y-114260000D01*
X156528157Y-114012235D01*
X156387809Y-113802191D01*
X156177765Y-113661843D01*
X155930000Y-113612560D01*
X155030000Y-113612560D01*
X154782235Y-113661843D01*
X154572191Y-113802191D01*
X154431843Y-114012235D01*
X154382560Y-114260000D01*
X154382560Y-115960000D01*
X154431843Y-116207765D01*
X154495000Y-116302286D01*
X154495001Y-116457714D01*
X154431843Y-116552235D01*
X154382560Y-116800000D01*
X154382560Y-118500000D01*
X154431843Y-118747765D01*
X154495000Y-118842286D01*
X154495001Y-119205000D01*
X151515107Y-119205000D01*
X151241185Y-118931078D01*
X151214440Y-118920000D01*
X151241185Y-118908922D01*
X151510358Y-118639749D01*
X151531843Y-118747765D01*
X151672191Y-118957809D01*
X151882235Y-119098157D01*
X152130000Y-119147440D01*
X153030000Y-119147440D01*
X153277765Y-119098157D01*
X153487809Y-118957809D01*
X153628157Y-118747765D01*
X153677440Y-118500000D01*
X153677440Y-116800000D01*
X153628157Y-116552235D01*
X153513072Y-116380000D01*
X153628157Y-116207765D01*
X153677440Y-115960000D01*
X153677440Y-114260000D01*
X153628157Y-114012235D01*
X153487809Y-113802191D01*
X153277765Y-113661843D01*
X153030000Y-113612560D01*
X152130000Y-113612560D01*
X151882235Y-113661843D01*
X151672191Y-113802191D01*
X151531843Y-114012235D01*
X151510358Y-114120251D01*
X151241185Y-113851078D01*
X151194753Y-113831845D01*
X151264353Y-113613958D01*
X150400000Y-112749605D01*
X150385858Y-112763748D01*
X150206253Y-112584143D01*
X150220395Y-112570000D01*
X150579605Y-112570000D01*
X151443958Y-113434353D01*
X151695259Y-113354080D01*
X151896718Y-112798721D01*
X151870315Y-112208542D01*
X151695259Y-111785920D01*
X151443958Y-111705647D01*
X150579605Y-112570000D01*
X150220395Y-112570000D01*
X149356042Y-111705647D01*
X149104741Y-111785920D01*
X148903282Y-112341279D01*
X148907550Y-112436683D01*
X148695000Y-112224133D01*
X148695000Y-111526042D01*
X149535647Y-111526042D01*
X150400000Y-112390395D01*
X151264353Y-111526042D01*
X151184080Y-111274741D01*
X150628721Y-111073282D01*
X150038542Y-111099685D01*
X149615920Y-111274741D01*
X149535647Y-111526042D01*
X148695000Y-111526042D01*
X148695000Y-110747232D01*
X148711357Y-110664999D01*
X148695000Y-110582764D01*
X148695000Y-110582763D01*
X148646552Y-110339199D01*
X148462001Y-110062999D01*
X148392283Y-110016415D01*
X145333587Y-106957720D01*
X145287001Y-106887999D01*
X145010801Y-106703448D01*
X144936248Y-106688619D01*
X148379868Y-103245000D01*
X149138516Y-103245000D01*
X149141078Y-103251185D01*
G36*
X137922000Y-87761297D02*
X138019012Y-87742000D01*
X138165000Y-87742000D01*
X138417855Y-87994856D01*
X138376843Y-88056235D01*
X138360887Y-88136455D01*
X138176309Y-88060000D01*
X137985750Y-88060000D01*
X137827000Y-88218750D01*
X137827000Y-89568000D01*
X137847000Y-89568000D01*
X137847000Y-89822000D01*
X137827000Y-89822000D01*
X137827000Y-91171250D01*
X137985750Y-91330000D01*
X138176309Y-91330000D01*
X138327560Y-91267350D01*
X138327560Y-92544000D01*
X138376843Y-92791765D01*
X138440001Y-92886287D01*
X138440001Y-93099988D01*
X138420704Y-93197000D01*
X138497151Y-93581327D01*
X138659902Y-93824902D01*
X138659905Y-93824905D01*
X138694254Y-93876312D01*
X138582191Y-93951191D01*
X138441843Y-94161235D01*
X138392560Y-94409000D01*
X138392560Y-95171000D01*
X138441843Y-95418765D01*
X138446009Y-95425000D01*
X138441843Y-95431235D01*
X138392560Y-95679000D01*
X138392560Y-96441000D01*
X138441843Y-96688765D01*
X138446009Y-96695000D01*
X138441843Y-96701235D01*
X138392560Y-96949000D01*
X138392560Y-97711000D01*
X138441843Y-97958765D01*
X138453344Y-97975978D01*
X138405000Y-98092691D01*
X138405000Y-98314250D01*
X138563750Y-98473000D01*
X140113000Y-98473000D01*
X140113000Y-98453000D01*
X140367000Y-98453000D01*
X140367000Y-98473000D01*
X141916250Y-98473000D01*
X142075000Y-98314250D01*
X142075000Y-98165000D01*
X142363604Y-98165000D01*
X142697138Y-98498534D01*
X143224561Y-98717000D01*
X143688133Y-98717000D01*
X143370133Y-99035000D01*
X142075000Y-99035000D01*
X142075000Y-98885750D01*
X141916250Y-98727000D01*
X140367000Y-98727000D01*
X140367000Y-98747000D01*
X140113000Y-98747000D01*
X140113000Y-98727000D01*
X138563750Y-98727000D01*
X138405000Y-98885750D01*
X138405000Y-99107309D01*
X138453344Y-99224022D01*
X138441843Y-99241235D01*
X138392560Y-99489000D01*
X138392560Y-100251000D01*
X138441843Y-100498765D01*
X138446009Y-100505000D01*
X138441843Y-100511235D01*
X138392560Y-100759000D01*
X138392560Y-101521000D01*
X138441843Y-101768765D01*
X138446009Y-101775000D01*
X138441843Y-101781235D01*
X138392560Y-102029000D01*
X138392560Y-102791000D01*
X138441843Y-103038765D01*
X138446009Y-103045000D01*
X138441843Y-103051235D01*
X138392560Y-103299000D01*
X138392560Y-104061000D01*
X138441843Y-104308765D01*
X138446009Y-104315000D01*
X138441843Y-104321235D01*
X138392560Y-104569000D01*
X138392560Y-105331000D01*
X138441843Y-105578765D01*
X138446009Y-105585000D01*
X138441843Y-105591235D01*
X138392560Y-105839000D01*
X138392560Y-106601000D01*
X138441843Y-106848765D01*
X138446009Y-106855000D01*
X138441843Y-106861235D01*
X138392560Y-107109000D01*
X138392560Y-107871000D01*
X138441843Y-108118765D01*
X138446009Y-108125000D01*
X138441843Y-108131235D01*
X138392560Y-108379000D01*
X138392560Y-109141000D01*
X138441843Y-109388765D01*
X138582191Y-109598809D01*
X138666286Y-109655000D01*
X134331025Y-109655000D01*
X134358327Y-109627698D01*
X134455000Y-109394309D01*
X134455000Y-109172750D01*
X134296250Y-109014000D01*
X132747000Y-109014000D01*
X132747000Y-109034000D01*
X132493000Y-109034000D01*
X132493000Y-109014000D01*
X132473000Y-109014000D01*
X132473000Y-108760000D01*
X132493000Y-108760000D01*
X132493000Y-108740000D01*
X132747000Y-108740000D01*
X132747000Y-108760000D01*
X134296250Y-108760000D01*
X134455000Y-108601250D01*
X134455000Y-108379691D01*
X134374182Y-108184578D01*
X134418157Y-108118765D01*
X134467440Y-107871000D01*
X134467440Y-107109000D01*
X134418157Y-106861235D01*
X134413991Y-106855000D01*
X134418157Y-106848765D01*
X134467440Y-106601000D01*
X134467440Y-105839000D01*
X134418157Y-105591235D01*
X134413991Y-105585000D01*
X134418157Y-105578765D01*
X134467440Y-105331000D01*
X134467440Y-104569000D01*
X134418157Y-104321235D01*
X134413991Y-104315000D01*
X134418157Y-104308765D01*
X134467440Y-104061000D01*
X134467440Y-103299000D01*
X134418157Y-103051235D01*
X134413991Y-103045000D01*
X134418157Y-103038765D01*
X134467440Y-102791000D01*
X134467440Y-102029000D01*
X134418157Y-101781235D01*
X134413991Y-101775000D01*
X134418157Y-101768765D01*
X134467440Y-101521000D01*
X134467440Y-100759000D01*
X134418157Y-100511235D01*
X134413991Y-100505000D01*
X134418157Y-100498765D01*
X134467440Y-100251000D01*
X134467440Y-99489000D01*
X134418157Y-99241235D01*
X134413991Y-99235000D01*
X134418157Y-99228765D01*
X134467440Y-98981000D01*
X134467440Y-98219000D01*
X134418157Y-97971235D01*
X134413991Y-97965000D01*
X134418157Y-97958765D01*
X134467440Y-97711000D01*
X134467440Y-96949000D01*
X134418157Y-96701235D01*
X134406656Y-96684022D01*
X134455000Y-96567309D01*
X134455000Y-96345750D01*
X134296250Y-96187000D01*
X132747000Y-96187000D01*
X132747000Y-96207000D01*
X132493000Y-96207000D01*
X132493000Y-96187000D01*
X132473000Y-96187000D01*
X132473000Y-95933000D01*
X132493000Y-95933000D01*
X132493000Y-94917000D01*
X132747000Y-94917000D01*
X132747000Y-95933000D01*
X134296250Y-95933000D01*
X134455000Y-95774250D01*
X134455000Y-95552691D01*
X134402109Y-95425000D01*
X134455000Y-95297309D01*
X134455000Y-95075750D01*
X134296250Y-94917000D01*
X132747000Y-94917000D01*
X132493000Y-94917000D01*
X132473000Y-94917000D01*
X132473000Y-94663000D01*
X132493000Y-94663000D01*
X132493000Y-94643000D01*
X132747000Y-94643000D01*
X132747000Y-94663000D01*
X134296250Y-94663000D01*
X134455000Y-94504250D01*
X134455000Y-94282691D01*
X134394249Y-94136025D01*
X134432191Y-94192809D01*
X134642235Y-94333157D01*
X134890000Y-94382440D01*
X135790000Y-94382440D01*
X136037765Y-94333157D01*
X136247809Y-94192809D01*
X136388157Y-93982765D01*
X136437440Y-93735000D01*
X136437440Y-92035000D01*
X136388157Y-91787235D01*
X136325000Y-91692715D01*
X136325000Y-91342440D01*
X136780000Y-91342440D01*
X137027765Y-91293157D01*
X137068704Y-91265802D01*
X137223691Y-91330000D01*
X137414250Y-91330000D01*
X137573000Y-91171250D01*
X137573000Y-89822000D01*
X137553000Y-89822000D01*
X137553000Y-89568000D01*
X137573000Y-89568000D01*
X137573000Y-88218750D01*
X137414250Y-88060000D01*
X137223691Y-88060000D01*
X137068704Y-88124198D01*
X137027765Y-88096843D01*
X136780000Y-88047560D01*
X136500440Y-88047560D01*
X136806000Y-87742000D01*
X137824988Y-87742000D01*
X137922000Y-87761297D01*
X137922000Y-87761297D01*
G37*
X137922000Y-87761297D02*
X138019012Y-87742000D01*
X138165000Y-87742000D01*
X138417855Y-87994856D01*
X138376843Y-88056235D01*
X138360887Y-88136455D01*
X138176309Y-88060000D01*
X137985750Y-88060000D01*
X137827000Y-88218750D01*
X137827000Y-89568000D01*
X137847000Y-89568000D01*
X137847000Y-89822000D01*
X137827000Y-89822000D01*
X137827000Y-91171250D01*
X137985750Y-91330000D01*
X138176309Y-91330000D01*
X138327560Y-91267350D01*
X138327560Y-92544000D01*
X138376843Y-92791765D01*
X138440001Y-92886287D01*
X138440001Y-93099988D01*
X138420704Y-93197000D01*
X138497151Y-93581327D01*
X138659902Y-93824902D01*
X138659905Y-93824905D01*
X138694254Y-93876312D01*
X138582191Y-93951191D01*
X138441843Y-94161235D01*
X138392560Y-94409000D01*
X138392560Y-95171000D01*
X138441843Y-95418765D01*
X138446009Y-95425000D01*
X138441843Y-95431235D01*
X138392560Y-95679000D01*
X138392560Y-96441000D01*
X138441843Y-96688765D01*
X138446009Y-96695000D01*
X138441843Y-96701235D01*
X138392560Y-96949000D01*
X138392560Y-97711000D01*
X138441843Y-97958765D01*
X138453344Y-97975978D01*
X138405000Y-98092691D01*
X138405000Y-98314250D01*
X138563750Y-98473000D01*
X140113000Y-98473000D01*
X140113000Y-98453000D01*
X140367000Y-98453000D01*
X140367000Y-98473000D01*
X141916250Y-98473000D01*
X142075000Y-98314250D01*
X142075000Y-98165000D01*
X142363604Y-98165000D01*
X142697138Y-98498534D01*
X143224561Y-98717000D01*
X143688133Y-98717000D01*
X143370133Y-99035000D01*
X142075000Y-99035000D01*
X142075000Y-98885750D01*
X141916250Y-98727000D01*
X140367000Y-98727000D01*
X140367000Y-98747000D01*
X140113000Y-98747000D01*
X140113000Y-98727000D01*
X138563750Y-98727000D01*
X138405000Y-98885750D01*
X138405000Y-99107309D01*
X138453344Y-99224022D01*
X138441843Y-99241235D01*
X138392560Y-99489000D01*
X138392560Y-100251000D01*
X138441843Y-100498765D01*
X138446009Y-100505000D01*
X138441843Y-100511235D01*
X138392560Y-100759000D01*
X138392560Y-101521000D01*
X138441843Y-101768765D01*
X138446009Y-101775000D01*
X138441843Y-101781235D01*
X138392560Y-102029000D01*
X138392560Y-102791000D01*
X138441843Y-103038765D01*
X138446009Y-103045000D01*
X138441843Y-103051235D01*
X138392560Y-103299000D01*
X138392560Y-104061000D01*
X138441843Y-104308765D01*
X138446009Y-104315000D01*
X138441843Y-104321235D01*
X138392560Y-104569000D01*
X138392560Y-105331000D01*
X138441843Y-105578765D01*
X138446009Y-105585000D01*
X138441843Y-105591235D01*
X138392560Y-105839000D01*
X138392560Y-106601000D01*
X138441843Y-106848765D01*
X138446009Y-106855000D01*
X138441843Y-106861235D01*
X138392560Y-107109000D01*
X138392560Y-107871000D01*
X138441843Y-108118765D01*
X138446009Y-108125000D01*
X138441843Y-108131235D01*
X138392560Y-108379000D01*
X138392560Y-109141000D01*
X138441843Y-109388765D01*
X138582191Y-109598809D01*
X138666286Y-109655000D01*
X134331025Y-109655000D01*
X134358327Y-109627698D01*
X134455000Y-109394309D01*
X134455000Y-109172750D01*
X134296250Y-109014000D01*
X132747000Y-109014000D01*
X132747000Y-109034000D01*
X132493000Y-109034000D01*
X132493000Y-109014000D01*
X132473000Y-109014000D01*
X132473000Y-108760000D01*
X132493000Y-108760000D01*
X132493000Y-108740000D01*
X132747000Y-108740000D01*
X132747000Y-108760000D01*
X134296250Y-108760000D01*
X134455000Y-108601250D01*
X134455000Y-108379691D01*
X134374182Y-108184578D01*
X134418157Y-108118765D01*
X134467440Y-107871000D01*
X134467440Y-107109000D01*
X134418157Y-106861235D01*
X134413991Y-106855000D01*
X134418157Y-106848765D01*
X134467440Y-106601000D01*
X134467440Y-105839000D01*
X134418157Y-105591235D01*
X134413991Y-105585000D01*
X134418157Y-105578765D01*
X134467440Y-105331000D01*
X134467440Y-104569000D01*
X134418157Y-104321235D01*
X134413991Y-104315000D01*
X134418157Y-104308765D01*
X134467440Y-104061000D01*
X134467440Y-103299000D01*
X134418157Y-103051235D01*
X134413991Y-103045000D01*
X134418157Y-103038765D01*
X134467440Y-102791000D01*
X134467440Y-102029000D01*
X134418157Y-101781235D01*
X134413991Y-101775000D01*
X134418157Y-101768765D01*
X134467440Y-101521000D01*
X134467440Y-100759000D01*
X134418157Y-100511235D01*
X134413991Y-100505000D01*
X134418157Y-100498765D01*
X134467440Y-100251000D01*
X134467440Y-99489000D01*
X134418157Y-99241235D01*
X134413991Y-99235000D01*
X134418157Y-99228765D01*
X134467440Y-98981000D01*
X134467440Y-98219000D01*
X134418157Y-97971235D01*
X134413991Y-97965000D01*
X134418157Y-97958765D01*
X134467440Y-97711000D01*
X134467440Y-96949000D01*
X134418157Y-96701235D01*
X134406656Y-96684022D01*
X134455000Y-96567309D01*
X134455000Y-96345750D01*
X134296250Y-96187000D01*
X132747000Y-96187000D01*
X132747000Y-96207000D01*
X132493000Y-96207000D01*
X132493000Y-96187000D01*
X132473000Y-96187000D01*
X132473000Y-95933000D01*
X132493000Y-95933000D01*
X132493000Y-94917000D01*
X132747000Y-94917000D01*
X132747000Y-95933000D01*
X134296250Y-95933000D01*
X134455000Y-95774250D01*
X134455000Y-95552691D01*
X134402109Y-95425000D01*
X134455000Y-95297309D01*
X134455000Y-95075750D01*
X134296250Y-94917000D01*
X132747000Y-94917000D01*
X132493000Y-94917000D01*
X132473000Y-94917000D01*
X132473000Y-94663000D01*
X132493000Y-94663000D01*
X132493000Y-94643000D01*
X132747000Y-94643000D01*
X132747000Y-94663000D01*
X134296250Y-94663000D01*
X134455000Y-94504250D01*
X134455000Y-94282691D01*
X134394249Y-94136025D01*
X134432191Y-94192809D01*
X134642235Y-94333157D01*
X134890000Y-94382440D01*
X135790000Y-94382440D01*
X136037765Y-94333157D01*
X136247809Y-94192809D01*
X136388157Y-93982765D01*
X136437440Y-93735000D01*
X136437440Y-92035000D01*
X136388157Y-91787235D01*
X136325000Y-91692715D01*
X136325000Y-91342440D01*
X136780000Y-91342440D01*
X137027765Y-91293157D01*
X137068704Y-91265802D01*
X137223691Y-91330000D01*
X137414250Y-91330000D01*
X137573000Y-91171250D01*
X137573000Y-89822000D01*
X137553000Y-89822000D01*
X137553000Y-89568000D01*
X137573000Y-89568000D01*
X137573000Y-88218750D01*
X137414250Y-88060000D01*
X137223691Y-88060000D01*
X137068704Y-88124198D01*
X137027765Y-88096843D01*
X136780000Y-88047560D01*
X136500440Y-88047560D01*
X136806000Y-87742000D01*
X137824988Y-87742000D01*
X137922000Y-87761297D01*
G36*
X155701999Y-90714296D02*
X155799006Y-90695000D01*
X162750001Y-90695000D01*
X162750000Y-103965000D01*
X156465000Y-103965000D01*
X156465000Y-103602285D01*
X156528157Y-103507765D01*
X156577440Y-103260000D01*
X156577440Y-101560000D01*
X156528157Y-101312235D01*
X156465000Y-101217715D01*
X156465000Y-101062285D01*
X156528157Y-100967765D01*
X156577440Y-100720000D01*
X156577440Y-99020000D01*
X156528157Y-98772235D01*
X156387809Y-98562191D01*
X156177765Y-98421843D01*
X155930000Y-98372560D01*
X155030000Y-98372560D01*
X154782235Y-98421843D01*
X154572191Y-98562191D01*
X154431843Y-98772235D01*
X154382560Y-99020000D01*
X154382560Y-100720000D01*
X154431843Y-100967765D01*
X154495000Y-101062286D01*
X154495001Y-101217714D01*
X154431843Y-101312235D01*
X154382560Y-101560000D01*
X154382560Y-103260000D01*
X154431843Y-103507765D01*
X154495001Y-103602286D01*
X154495001Y-103965000D01*
X151515107Y-103965000D01*
X151241185Y-103691078D01*
X151214440Y-103680000D01*
X151241185Y-103668922D01*
X151510358Y-103399749D01*
X151531843Y-103507765D01*
X151672191Y-103717809D01*
X151882235Y-103858157D01*
X152130000Y-103907440D01*
X153030000Y-103907440D01*
X153277765Y-103858157D01*
X153487809Y-103717809D01*
X153628157Y-103507765D01*
X153677440Y-103260000D01*
X153677440Y-101560000D01*
X153628157Y-101312235D01*
X153513072Y-101140000D01*
X153628157Y-100967765D01*
X153677440Y-100720000D01*
X153677440Y-99020000D01*
X153628157Y-98772235D01*
X153487809Y-98562191D01*
X153277765Y-98421843D01*
X153030000Y-98372560D01*
X152130000Y-98372560D01*
X151882235Y-98421843D01*
X151672191Y-98562191D01*
X151531843Y-98772235D01*
X151510358Y-98880251D01*
X151241185Y-98611078D01*
X151194753Y-98591845D01*
X151264353Y-98373958D01*
X150400000Y-97509605D01*
X150385858Y-97523748D01*
X150206253Y-97344143D01*
X150220395Y-97330000D01*
X150579605Y-97330000D01*
X151443958Y-98194353D01*
X151695259Y-98114080D01*
X151896718Y-97558721D01*
X151870315Y-96968542D01*
X151695259Y-96545920D01*
X151443958Y-96465647D01*
X150579605Y-97330000D01*
X150220395Y-97330000D01*
X150206253Y-97315858D01*
X150385858Y-97136253D01*
X150400000Y-97150395D01*
X151264353Y-96286042D01*
X151184080Y-96034741D01*
X150628721Y-95833282D01*
X150038542Y-95859685D01*
X149679000Y-96008612D01*
X149679000Y-91018704D01*
X150104615Y-91195000D01*
X150695385Y-91195000D01*
X151241185Y-90968922D01*
X151515107Y-90695000D01*
X155604992Y-90695000D01*
X155701999Y-90714296D01*
X155701999Y-90714296D01*
G37*
X155701999Y-90714296D02*
X155799006Y-90695000D01*
X162750001Y-90695000D01*
X162750000Y-103965000D01*
X156465000Y-103965000D01*
X156465000Y-103602285D01*
X156528157Y-103507765D01*
X156577440Y-103260000D01*
X156577440Y-101560000D01*
X156528157Y-101312235D01*
X156465000Y-101217715D01*
X156465000Y-101062285D01*
X156528157Y-100967765D01*
X156577440Y-100720000D01*
X156577440Y-99020000D01*
X156528157Y-98772235D01*
X156387809Y-98562191D01*
X156177765Y-98421843D01*
X155930000Y-98372560D01*
X155030000Y-98372560D01*
X154782235Y-98421843D01*
X154572191Y-98562191D01*
X154431843Y-98772235D01*
X154382560Y-99020000D01*
X154382560Y-100720000D01*
X154431843Y-100967765D01*
X154495000Y-101062286D01*
X154495001Y-101217714D01*
X154431843Y-101312235D01*
X154382560Y-101560000D01*
X154382560Y-103260000D01*
X154431843Y-103507765D01*
X154495001Y-103602286D01*
X154495001Y-103965000D01*
X151515107Y-103965000D01*
X151241185Y-103691078D01*
X151214440Y-103680000D01*
X151241185Y-103668922D01*
X151510358Y-103399749D01*
X151531843Y-103507765D01*
X151672191Y-103717809D01*
X151882235Y-103858157D01*
X152130000Y-103907440D01*
X153030000Y-103907440D01*
X153277765Y-103858157D01*
X153487809Y-103717809D01*
X153628157Y-103507765D01*
X153677440Y-103260000D01*
X153677440Y-101560000D01*
X153628157Y-101312235D01*
X153513072Y-101140000D01*
X153628157Y-100967765D01*
X153677440Y-100720000D01*
X153677440Y-99020000D01*
X153628157Y-98772235D01*
X153487809Y-98562191D01*
X153277765Y-98421843D01*
X153030000Y-98372560D01*
X152130000Y-98372560D01*
X151882235Y-98421843D01*
X151672191Y-98562191D01*
X151531843Y-98772235D01*
X151510358Y-98880251D01*
X151241185Y-98611078D01*
X151194753Y-98591845D01*
X151264353Y-98373958D01*
X150400000Y-97509605D01*
X150385858Y-97523748D01*
X150206253Y-97344143D01*
X150220395Y-97330000D01*
X150579605Y-97330000D01*
X151443958Y-98194353D01*
X151695259Y-98114080D01*
X151896718Y-97558721D01*
X151870315Y-96968542D01*
X151695259Y-96545920D01*
X151443958Y-96465647D01*
X150579605Y-97330000D01*
X150220395Y-97330000D01*
X150206253Y-97315858D01*
X150385858Y-97136253D01*
X150400000Y-97150395D01*
X151264353Y-96286042D01*
X151184080Y-96034741D01*
X150628721Y-95833282D01*
X150038542Y-95859685D01*
X149679000Y-96008612D01*
X149679000Y-91018704D01*
X150104615Y-91195000D01*
X150695385Y-91195000D01*
X151241185Y-90968922D01*
X151515107Y-90695000D01*
X155604992Y-90695000D01*
X155701999Y-90714296D01*
G36*
X149141078Y-72771185D02*
X149558815Y-73188922D01*
X149585560Y-73200000D01*
X149558815Y-73211078D01*
X149141078Y-73628815D01*
X148915000Y-74174615D01*
X148915000Y-74765385D01*
X149141078Y-75311185D01*
X149558815Y-75728922D01*
X150104615Y-75955000D01*
X150695385Y-75955000D01*
X151241185Y-75728922D01*
X151515107Y-75455000D01*
X155350992Y-75455000D01*
X155448000Y-75474296D01*
X155545008Y-75455000D01*
X162750001Y-75455000D01*
X162750000Y-88725000D01*
X156465000Y-88725000D01*
X156465000Y-88362285D01*
X156528157Y-88267765D01*
X156577440Y-88020000D01*
X156577440Y-86320000D01*
X156528157Y-86072235D01*
X156465000Y-85977715D01*
X156465000Y-85822285D01*
X156528157Y-85727765D01*
X156577440Y-85480000D01*
X156577440Y-83780000D01*
X156528157Y-83532235D01*
X156387809Y-83322191D01*
X156177765Y-83181843D01*
X155930000Y-83132560D01*
X155030000Y-83132560D01*
X154782235Y-83181843D01*
X154572191Y-83322191D01*
X154431843Y-83532235D01*
X154382560Y-83780000D01*
X154382560Y-85480000D01*
X154431843Y-85727765D01*
X154495000Y-85822286D01*
X154495001Y-85977714D01*
X154431843Y-86072235D01*
X154382560Y-86320000D01*
X154382560Y-88020000D01*
X154431843Y-88267765D01*
X154495001Y-88362286D01*
X154495001Y-88725000D01*
X151515107Y-88725000D01*
X151241185Y-88451078D01*
X151214440Y-88440000D01*
X151241185Y-88428922D01*
X151510358Y-88159749D01*
X151531843Y-88267765D01*
X151672191Y-88477809D01*
X151882235Y-88618157D01*
X152130000Y-88667440D01*
X153030000Y-88667440D01*
X153277765Y-88618157D01*
X153487809Y-88477809D01*
X153628157Y-88267765D01*
X153677440Y-88020000D01*
X153677440Y-86320000D01*
X153628157Y-86072235D01*
X153513072Y-85900000D01*
X153628157Y-85727765D01*
X153677440Y-85480000D01*
X153677440Y-83780000D01*
X153628157Y-83532235D01*
X153487809Y-83322191D01*
X153277765Y-83181843D01*
X153030000Y-83132560D01*
X152130000Y-83132560D01*
X151882235Y-83181843D01*
X151672191Y-83322191D01*
X151531843Y-83532235D01*
X151510358Y-83640251D01*
X151241185Y-83371078D01*
X151194753Y-83351845D01*
X151264353Y-83133958D01*
X150400000Y-82269605D01*
X149535647Y-83133958D01*
X149605247Y-83351845D01*
X149558815Y-83371078D01*
X149141078Y-83788815D01*
X149138516Y-83795000D01*
X148577232Y-83795000D01*
X148494999Y-83778643D01*
X148412766Y-83795000D01*
X148412763Y-83795000D01*
X148169199Y-83843448D01*
X147972101Y-83975145D01*
X147892999Y-84027999D01*
X147846416Y-84097715D01*
X147647000Y-84297132D01*
X147647000Y-81861279D01*
X148903282Y-81861279D01*
X148929685Y-82451458D01*
X149104741Y-82874080D01*
X149356042Y-82954353D01*
X150220395Y-82090000D01*
X150579605Y-82090000D01*
X151443958Y-82954353D01*
X151695259Y-82874080D01*
X151896718Y-82318721D01*
X151870315Y-81728542D01*
X151695259Y-81305920D01*
X151443958Y-81225647D01*
X150579605Y-82090000D01*
X150220395Y-82090000D01*
X149356042Y-81225647D01*
X149104741Y-81305920D01*
X148903282Y-81861279D01*
X147647000Y-81861279D01*
X147647000Y-81046042D01*
X149535647Y-81046042D01*
X150400000Y-81910395D01*
X151264353Y-81046042D01*
X151184080Y-80794741D01*
X150628721Y-80593282D01*
X150038542Y-80619685D01*
X149615920Y-80794741D01*
X149535647Y-81046042D01*
X147647000Y-81046042D01*
X147647000Y-72765000D01*
X149138516Y-72765000D01*
X149141078Y-72771185D01*
X149141078Y-72771185D01*
G37*
X149141078Y-72771185D02*
X149558815Y-73188922D01*
X149585560Y-73200000D01*
X149558815Y-73211078D01*
X149141078Y-73628815D01*
X148915000Y-74174615D01*
X148915000Y-74765385D01*
X149141078Y-75311185D01*
X149558815Y-75728922D01*
X150104615Y-75955000D01*
X150695385Y-75955000D01*
X151241185Y-75728922D01*
X151515107Y-75455000D01*
X155350992Y-75455000D01*
X155448000Y-75474296D01*
X155545008Y-75455000D01*
X162750001Y-75455000D01*
X162750000Y-88725000D01*
X156465000Y-88725000D01*
X156465000Y-88362285D01*
X156528157Y-88267765D01*
X156577440Y-88020000D01*
X156577440Y-86320000D01*
X156528157Y-86072235D01*
X156465000Y-85977715D01*
X156465000Y-85822285D01*
X156528157Y-85727765D01*
X156577440Y-85480000D01*
X156577440Y-83780000D01*
X156528157Y-83532235D01*
X156387809Y-83322191D01*
X156177765Y-83181843D01*
X155930000Y-83132560D01*
X155030000Y-83132560D01*
X154782235Y-83181843D01*
X154572191Y-83322191D01*
X154431843Y-83532235D01*
X154382560Y-83780000D01*
X154382560Y-85480000D01*
X154431843Y-85727765D01*
X154495000Y-85822286D01*
X154495001Y-85977714D01*
X154431843Y-86072235D01*
X154382560Y-86320000D01*
X154382560Y-88020000D01*
X154431843Y-88267765D01*
X154495001Y-88362286D01*
X154495001Y-88725000D01*
X151515107Y-88725000D01*
X151241185Y-88451078D01*
X151214440Y-88440000D01*
X151241185Y-88428922D01*
X151510358Y-88159749D01*
X151531843Y-88267765D01*
X151672191Y-88477809D01*
X151882235Y-88618157D01*
X152130000Y-88667440D01*
X153030000Y-88667440D01*
X153277765Y-88618157D01*
X153487809Y-88477809D01*
X153628157Y-88267765D01*
X153677440Y-88020000D01*
X153677440Y-86320000D01*
X153628157Y-86072235D01*
X153513072Y-85900000D01*
X153628157Y-85727765D01*
X153677440Y-85480000D01*
X153677440Y-83780000D01*
X153628157Y-83532235D01*
X153487809Y-83322191D01*
X153277765Y-83181843D01*
X153030000Y-83132560D01*
X152130000Y-83132560D01*
X151882235Y-83181843D01*
X151672191Y-83322191D01*
X151531843Y-83532235D01*
X151510358Y-83640251D01*
X151241185Y-83371078D01*
X151194753Y-83351845D01*
X151264353Y-83133958D01*
X150400000Y-82269605D01*
X149535647Y-83133958D01*
X149605247Y-83351845D01*
X149558815Y-83371078D01*
X149141078Y-83788815D01*
X149138516Y-83795000D01*
X148577232Y-83795000D01*
X148494999Y-83778643D01*
X148412766Y-83795000D01*
X148412763Y-83795000D01*
X148169199Y-83843448D01*
X147972101Y-83975145D01*
X147892999Y-84027999D01*
X147846416Y-84097715D01*
X147647000Y-84297132D01*
X147647000Y-81861279D01*
X148903282Y-81861279D01*
X148929685Y-82451458D01*
X149104741Y-82874080D01*
X149356042Y-82954353D01*
X150220395Y-82090000D01*
X150579605Y-82090000D01*
X151443958Y-82954353D01*
X151695259Y-82874080D01*
X151896718Y-82318721D01*
X151870315Y-81728542D01*
X151695259Y-81305920D01*
X151443958Y-81225647D01*
X150579605Y-82090000D01*
X150220395Y-82090000D01*
X149356042Y-81225647D01*
X149104741Y-81305920D01*
X148903282Y-81861279D01*
X147647000Y-81861279D01*
X147647000Y-81046042D01*
X149535647Y-81046042D01*
X150400000Y-81910395D01*
X151264353Y-81046042D01*
X151184080Y-80794741D01*
X150628721Y-80593282D01*
X150038542Y-80619685D01*
X149615920Y-80794741D01*
X149535647Y-81046042D01*
X147647000Y-81046042D01*
X147647000Y-72765000D01*
X149138516Y-72765000D01*
X149141078Y-72771185D01*
G36*
X162750000Y-65988001D02*
X162750000Y-66265604D01*
X162518466Y-66497138D01*
X162300000Y-67024561D01*
X162300000Y-67595439D01*
X162518466Y-68122862D01*
X162750001Y-68354397D01*
X162750000Y-73485000D01*
X156465000Y-73485000D01*
X156465000Y-73122285D01*
X156528157Y-73027765D01*
X156577440Y-72780000D01*
X156577440Y-71080000D01*
X156528157Y-70832235D01*
X156465000Y-70737715D01*
X156465000Y-70582285D01*
X156528157Y-70487765D01*
X156577440Y-70240000D01*
X156577440Y-68540000D01*
X156528157Y-68292235D01*
X156387809Y-68082191D01*
X156177765Y-67941843D01*
X155930000Y-67892560D01*
X155030000Y-67892560D01*
X154782235Y-67941843D01*
X154572191Y-68082191D01*
X154431843Y-68292235D01*
X154382560Y-68540000D01*
X154382560Y-70240000D01*
X154431843Y-70487765D01*
X154495000Y-70582286D01*
X154495001Y-70737714D01*
X154431843Y-70832235D01*
X154382560Y-71080000D01*
X154382560Y-72780000D01*
X154431843Y-73027765D01*
X154495000Y-73122286D01*
X154495001Y-73485000D01*
X151515107Y-73485000D01*
X151241185Y-73211078D01*
X151214440Y-73200000D01*
X151241185Y-73188922D01*
X151510358Y-72919749D01*
X151531843Y-73027765D01*
X151672191Y-73237809D01*
X151882235Y-73378157D01*
X152130000Y-73427440D01*
X153030000Y-73427440D01*
X153277765Y-73378157D01*
X153487809Y-73237809D01*
X153628157Y-73027765D01*
X153677440Y-72780000D01*
X153677440Y-71080000D01*
X153628157Y-70832235D01*
X153513072Y-70660000D01*
X153628157Y-70487765D01*
X153677440Y-70240000D01*
X153677440Y-68540000D01*
X153628157Y-68292235D01*
X153487809Y-68082191D01*
X153277765Y-67941843D01*
X153030000Y-67892560D01*
X152130000Y-67892560D01*
X151882235Y-67941843D01*
X151672191Y-68082191D01*
X151531843Y-68292235D01*
X151510358Y-68400251D01*
X151241185Y-68131078D01*
X151194753Y-68111845D01*
X151264353Y-67893958D01*
X150400000Y-67029605D01*
X149535647Y-67893958D01*
X149605247Y-68111845D01*
X149558815Y-68131078D01*
X149141078Y-68548815D01*
X149138516Y-68555000D01*
X147307232Y-68555000D01*
X147224999Y-68538643D01*
X147142766Y-68555000D01*
X147142763Y-68555000D01*
X146914619Y-68600381D01*
X148908725Y-66606275D01*
X148903282Y-66621279D01*
X148929685Y-67211458D01*
X149104741Y-67634080D01*
X149356042Y-67714353D01*
X150220395Y-66850000D01*
X150206253Y-66835858D01*
X150385858Y-66656253D01*
X150400000Y-66670395D01*
X150414143Y-66656253D01*
X150593748Y-66835858D01*
X150579605Y-66850000D01*
X151443958Y-67714353D01*
X151695259Y-67634080D01*
X151896718Y-67078721D01*
X151870315Y-66488542D01*
X151695259Y-66065920D01*
X151443960Y-65985648D01*
X151499608Y-65930000D01*
X162692000Y-65930000D01*
X162750000Y-65988001D01*
X162750000Y-65988001D01*
G37*
X162750000Y-65988001D02*
X162750000Y-66265604D01*
X162518466Y-66497138D01*
X162300000Y-67024561D01*
X162300000Y-67595439D01*
X162518466Y-68122862D01*
X162750001Y-68354397D01*
X162750000Y-73485000D01*
X156465000Y-73485000D01*
X156465000Y-73122285D01*
X156528157Y-73027765D01*
X156577440Y-72780000D01*
X156577440Y-71080000D01*
X156528157Y-70832235D01*
X156465000Y-70737715D01*
X156465000Y-70582285D01*
X156528157Y-70487765D01*
X156577440Y-70240000D01*
X156577440Y-68540000D01*
X156528157Y-68292235D01*
X156387809Y-68082191D01*
X156177765Y-67941843D01*
X155930000Y-67892560D01*
X155030000Y-67892560D01*
X154782235Y-67941843D01*
X154572191Y-68082191D01*
X154431843Y-68292235D01*
X154382560Y-68540000D01*
X154382560Y-70240000D01*
X154431843Y-70487765D01*
X154495000Y-70582286D01*
X154495001Y-70737714D01*
X154431843Y-70832235D01*
X154382560Y-71080000D01*
X154382560Y-72780000D01*
X154431843Y-73027765D01*
X154495000Y-73122286D01*
X154495001Y-73485000D01*
X151515107Y-73485000D01*
X151241185Y-73211078D01*
X151214440Y-73200000D01*
X151241185Y-73188922D01*
X151510358Y-72919749D01*
X151531843Y-73027765D01*
X151672191Y-73237809D01*
X151882235Y-73378157D01*
X152130000Y-73427440D01*
X153030000Y-73427440D01*
X153277765Y-73378157D01*
X153487809Y-73237809D01*
X153628157Y-73027765D01*
X153677440Y-72780000D01*
X153677440Y-71080000D01*
X153628157Y-70832235D01*
X153513072Y-70660000D01*
X153628157Y-70487765D01*
X153677440Y-70240000D01*
X153677440Y-68540000D01*
X153628157Y-68292235D01*
X153487809Y-68082191D01*
X153277765Y-67941843D01*
X153030000Y-67892560D01*
X152130000Y-67892560D01*
X151882235Y-67941843D01*
X151672191Y-68082191D01*
X151531843Y-68292235D01*
X151510358Y-68400251D01*
X151241185Y-68131078D01*
X151194753Y-68111845D01*
X151264353Y-67893958D01*
X150400000Y-67029605D01*
X149535647Y-67893958D01*
X149605247Y-68111845D01*
X149558815Y-68131078D01*
X149141078Y-68548815D01*
X149138516Y-68555000D01*
X147307232Y-68555000D01*
X147224999Y-68538643D01*
X147142766Y-68555000D01*
X147142763Y-68555000D01*
X146914619Y-68600381D01*
X148908725Y-66606275D01*
X148903282Y-66621279D01*
X148929685Y-67211458D01*
X149104741Y-67634080D01*
X149356042Y-67714353D01*
X150220395Y-66850000D01*
X150206253Y-66835858D01*
X150385858Y-66656253D01*
X150400000Y-66670395D01*
X150414143Y-66656253D01*
X150593748Y-66835858D01*
X150579605Y-66850000D01*
X151443958Y-67714353D01*
X151695259Y-67634080D01*
X151896718Y-67078721D01*
X151870315Y-66488542D01*
X151695259Y-66065920D01*
X151443960Y-65985648D01*
X151499608Y-65930000D01*
X162692000Y-65930000D01*
X162750000Y-65988001D01*
M02*
